<svg id="freelance" xmlns="http://www.w3.org/2000/svg" width="109.666" height="106.239" viewBox="0 0 109.666 106.239">
  <path id="Trazado_874383" data-name="Trazado 874383" d="M107.952,91.817h-2.663a6.776,6.776,0,0,0,.953-3.427V57.546a6.862,6.862,0,0,0-6.854-6.854H59.977a6.811,6.811,0,0,0-2.63.528,18.737,18.737,0,0,0-4.225-.528h-6V49.375A16.276,16.276,0,0,0,53.757,38.7h.223a6.862,6.862,0,0,0,6.854-6.854V24.133a23.133,23.133,0,0,0-46.265,0v7.711A6.862,6.862,0,0,0,21.423,38.7h.223a16.277,16.277,0,0,0,6.631,10.678v1.317h-6A18.87,18.87,0,0,0,3.431,69.541V86.676a8.484,8.484,0,0,0,1.758,5.141H1.714A1.714,1.714,0,0,0,0,93.53v11.995a1.714,1.714,0,0,0,1.714,1.714H107.952a1.714,1.714,0,0,0,1.714-1.714V93.53A1.714,1.714,0,0,0,107.952,91.817Zm-8.564-37.7a3.43,3.43,0,0,1,3.427,3.427V88.39a3.43,3.43,0,0,1-3.427,3.427H56.55V57.546a3.43,3.43,0,0,1,3.427-3.427Zm-51.525,37.7a13.592,13.592,0,0,0-1.736-5.141h7v5.141ZM35.988,83.4a10.3,10.3,0,0,1,8.425,8.412H35.988ZM53.98,35.27V28.416a3.427,3.427,0,1,1,0,6.854ZM37.7,4.427A19.727,19.727,0,0,1,57.407,24.133v1.81a6.774,6.774,0,0,0-3.427-.954h-.872L47,17.088a1.714,1.714,0,0,0-2.613-.117,25.13,25.13,0,0,1-18.372,8.019H21.423A6.775,6.775,0,0,0,18,25.943v-1.81A19.727,19.727,0,0,1,37.7,4.427ZM18,31.843a3.43,3.43,0,0,1,3.427-3.427V35.27A3.43,3.43,0,0,1,18,31.843Zm6.854,4.284V28.416h1.167a28.584,28.584,0,0,0,19.466-7.69l5.07,6.561v8.84a12.851,12.851,0,0,1-25.7,0ZM37.7,52.406a16.172,16.172,0,0,0,6-1.159v2.016a6,6,0,0,1-11.995,0V51.246a16.172,16.172,0,0,0,6,1.159ZM6.858,86.676V69.541A15.439,15.439,0,0,1,22.28,54.119h6.041a9.42,9.42,0,0,0,18.762,0h6.041c.3,0,.613.044.919.064a6.771,6.771,0,0,0-.919,3.363v25.7H43.311a13.636,13.636,0,0,0-9.037-3.427H17.139a1.714,1.714,0,1,0,0,3.427H32.561v8.568H12a5.146,5.146,0,0,1-5.141-5.141Zm99.38,17.135H3.427V95.244H106.238Z" transform="translate(0 -1)" fill="#62529b"/>
  <path id="Trazado_874384" data-name="Trazado 874384" d="M50.07,55.135A8.568,8.568,0,1,0,41.5,46.568a8.568,8.568,0,0,0,8.568,8.568Zm0-13.708a5.141,5.141,0,1,1-5.141,5.141,5.141,5.141,0,0,1,5.141-5.141Z" transform="translate(29.613 25.4)" fill="#62529b"/>
</svg>
