<svg id="outline" xmlns="http://www.w3.org/2000/svg" width="100.406" height="92.039" viewBox="0 0 100.406 92.039">
  <path id="Trazado_874375" data-name="Trazado 874375" d="M111.386,267.347a6.635,6.635,0,0,0-4.4,2.027l-7.78,4.667h-6.23a1.673,1.673,0,0,0-1.673,1.673v3.347H87.7l-1.44-8.642a1.673,1.673,0,0,0-3.3.551l1.349,8.092H79.368l-1.22-8.542a5.02,5.02,0,0,0-2.725-3.78L70.3,264.177A1.673,1.673,0,0,0,69.55,264H62.856a1.674,1.674,0,0,0-.749.177l-5.125,2.562a5.02,5.02,0,0,0-2.724,3.781l-1.221,8.541H48.1l1.349-8.092a1.673,1.673,0,1,0-3.3-.551l-1.44,8.642H41.1v-3.347a1.673,1.673,0,0,0-1.673-1.673H33.2l-7.78-4.667a6.635,6.635,0,0,0-4.4-2.027,5.026,5.026,0,0,0-5.02,5.02v20.081a1.674,1.674,0,0,0,1.144,1.588l.529.176v11.623H16v3.347H116.406v-3.347h-1.673V290.921l.659-.283a1.673,1.673,0,0,0,1.014-1.537V272.367a5.026,5.026,0,0,0-5.02-5.02Zm-15.061,31.56,3.849,6.929H96.325Zm0-16.5h5.02a1.673,1.673,0,0,0,.749-.177l4.272-2.136v3.058l-10.041,6.275ZM57.57,270.995a1.676,1.676,0,0,1,.91-1.262l4.771-2.386h5.9l4.772,2.386a1.677,1.677,0,0,1,.909,1.261l1.152,8.067H72.9v-6.694a1.673,1.673,0,0,0-1.673-1.673H61.183a1.673,1.673,0,0,0-1.673,1.673v6.694H56.418Zm11.98,8.066H62.856v-5.02H69.55Zm23.428,3.347v3.347H39.428v-3.347Zm-16.734,6.981V289.1H86.284v16.734H71.445L72.813,294.9l1.96-1.96A4.987,4.987,0,0,0,76.244,289.388Zm-18.61,3.55,1.96,1.96,1.367,10.937H46.122V289.1H56.162v.287A4.987,4.987,0,0,0,57.633,292.939Zm-21.552,3.168-1.744-5.813a1.675,1.675,0,0,0-.742-.954l-7.555-4.533V280.1l4.272,2.136a1.673,1.673,0,0,0,.748.177h5.02Zm-15.061-.779,5.328,1.776,2.5,8.732H21.02Zm11.3,10.508-3-10.5a1.673,1.673,0,0,0-1.079-1.128l-8.9-2.965V272.367a1.676,1.676,0,0,1,1.673-1.673,3.542,3.542,0,0,1,2.1,1.116,1.654,1.654,0,0,0,.386.319l8.367,5.02a1.676,1.676,0,0,0,.861.239h5.02v1.673h-6.3l-6.34-3.17a1.673,1.673,0,0,0-2.422,1.5v8.367a1.673,1.673,0,0,0,.812,1.435l7.812,4.687,4.188,13.959Zm7.1,0V289.1h3.347v16.734Zm24.905,0-1.49-11.922a1.669,1.669,0,0,0-.477-.976L60,290.572a1.663,1.663,0,0,1-.49-1.184V289.1H72.9v.287a1.663,1.663,0,0,1-.49,1.184l-2.366,2.366a1.671,1.671,0,0,0-.477.976l-1.49,11.922Zm25.3,0V289.1h3.347v16.734Zm14.372,0-7.117-12.811,12.039-7.525a1.675,1.675,0,0,0,.787-1.419v-6.694a1.673,1.673,0,0,0-2.422-1.5l-6.34,3.17h-6.3v-1.673h5.02a1.676,1.676,0,0,0,.861-.239l8.367-5.02a1.655,1.655,0,0,0,.386-.319,3.522,3.522,0,0,1,2.1-1.116,1.676,1.676,0,0,1,1.673,1.673V288l-10.7,4.585a1.673,1.673,0,0,0-.964,1.944l2.827,11.308Zm7.383,0h-3.714L104.988,295.1l6.4-2.742Z" transform="translate(-16 -217.144)" fill="#62529b"/>
  <path id="Trazado_874376" data-name="Trazado 874376" d="M267.347,59.794V65.1a1.673,1.673,0,0,0,2.6,1.392l5.849-3.9a5.017,5.017,0,0,0,4.937,4.181h6.187l9.619,6.413a1.673,1.673,0,0,0,2.6-1.392V66.488a5.029,5.029,0,0,0,3.347-4.734V51.714a5.026,5.026,0,0,0-5.02-5.02h-6.694V45.02a5.026,5.026,0,0,0-5.02-5.02H269.02A5.026,5.026,0,0,0,264,45.02V55.061A5.029,5.029,0,0,0,267.347,59.794Zm30.122-9.754a1.676,1.676,0,0,1,1.673,1.673V61.755a1.676,1.676,0,0,1-1.673,1.673A1.673,1.673,0,0,0,295.8,65.1v3.567l-7.439-4.959a1.674,1.674,0,0,0-.928-.281h-6.694a1.676,1.676,0,0,1-1.673-1.673V60.419l.507-.338h6.187a5.026,5.026,0,0,0,5.02-5.02v-5.02Zm-18.408,6.694v-5.02a1.676,1.676,0,0,1,1.673-1.673h6.694v5.02a1.676,1.676,0,0,1-1.673,1.673ZM267.347,45.02a1.676,1.676,0,0,1,1.673-1.673h16.734a1.676,1.676,0,0,1,1.673,1.673v1.673h-6.694a5.026,5.026,0,0,0-5.02,5.02v6.914l-5.02,3.347V58.408a1.673,1.673,0,0,0-1.673-1.673,1.676,1.676,0,0,1-1.673-1.673Z" transform="translate(-212.124 -40)" fill="#62529b"/>
  <path id="Trazado_874377" data-name="Trazado 874377" d="M37.02,84.081V89.1a1.673,1.673,0,0,0,2.6,1.392l9.619-6.413H57.1a5.026,5.026,0,0,0,5.02-5.02V69.02A5.026,5.026,0,0,0,57.1,64H37.02A5.026,5.026,0,0,0,32,69.02V79.061A5.026,5.026,0,0,0,37.02,84.081ZM35.347,69.02a1.676,1.676,0,0,1,1.673-1.673H57.1a1.676,1.676,0,0,1,1.673,1.673V79.061A1.676,1.676,0,0,1,57.1,80.734H48.734a1.676,1.676,0,0,0-.928.281l-7.439,4.959V82.408a1.673,1.673,0,0,0-1.673-1.673H37.02a1.676,1.676,0,0,1-1.673-1.673Z" transform="translate(-28.653 -58.98)" fill="#62529b"/>
  <rect id="Rectángulo_401270" data-name="Rectángulo 401270" width="3.347" height="3.347" transform="translate(10.041 13.387)" fill="#62529b"/>
  <rect id="Rectángulo_401271" data-name="Rectángulo 401271" width="3.347" height="3.347" transform="translate(16.734 13.387)" fill="#62529b"/>
  <rect id="Rectángulo_401272" data-name="Rectángulo 401272" width="3.347" height="3.347" transform="translate(23.428 13.387)" fill="#62529b"/>
  <path id="Trazado_874378" data-name="Trazado 874378" d="M230.694,205.387A6.694,6.694,0,1,0,224,198.694,6.694,6.694,0,0,0,230.694,205.387Zm0-10.041a3.347,3.347,0,1,1-3.347,3.347A3.347,3.347,0,0,1,230.694,195.347Z" transform="translate(-180.491 -160.205)" fill="#62529b"/>
  <path id="Trazado_874379" data-name="Trazado 874379" d="M432,214.694A6.694,6.694,0,1,0,438.694,208,6.694,6.694,0,0,0,432,214.694Zm6.694-3.347a3.347,3.347,0,1,1-3.347,3.347A3.347,3.347,0,0,1,438.694,211.347Z" transform="translate(-344.981 -172.858)" fill="#62529b"/>
  <path id="Trazado_874380" data-name="Trazado 874380" d="M22.694,221.387A6.694,6.694,0,1,0,16,214.694a6.694,6.694,0,0,0,6.694,6.694Zm0-10.041a3.347,3.347,0,1,1-3.347,3.347A3.347,3.347,0,0,1,22.694,211.347Z" transform="translate(-16 -172.858)" fill="#62529b"/>
</svg>
