<svg xmlns="http://www.w3.org/2000/svg" width="76.753" height="97.693" viewBox="0 0 76.753 97.693">
  <g id="Grupo_1099646" data-name="Grupo 1099646" transform="translate(0 0)">
    <g id="Grupo_1099645" data-name="Grupo 1099645">
      <path id="Trazado_874349" data-name="Trazado 874349" d="M114.021,12.8h-8.838V8.846c0-1.279-1.4-1.861-2.675-1.861H95.647C94.019,2.334,89.949.008,85.3.008a10.582,10.582,0,0,0-10.35,6.978H68.2c-1.279,0-2.558.581-2.558,1.861V12.8H56.806a9.885,9.885,0,0,0-9.769,9.42V88.855c0,5.117,4.652,8.838,9.769,8.838h57.216c5.117,0,9.769-3.721,9.769-8.838V22.22A9.885,9.885,0,0,0,114.021,12.8ZM70.3,11.637h6.4A2.559,2.559,0,0,0,78.9,9.544a6.745,6.745,0,0,1,6.4-5.233,6.628,6.628,0,0,1,6.28,5.233A2.558,2.558,0,0,0,93.9,11.637h6.629v9.3H70.3Zm48.843,77.218c0,2.558-2.558,4.186-5.117,4.186H56.806c-2.558,0-5.117-1.628-5.117-4.186V22.22a5.233,5.233,0,0,1,5.117-4.768h8.838v5.931a2.442,2.442,0,0,0,2.558,2.21h34.306a2.558,2.558,0,0,0,2.675-2.21V17.451h8.838a5.233,5.233,0,0,1,5.117,4.768V88.855Z" transform="translate(-47.037 0)" fill="#62529b"/>
      <path id="Trazado_874350" data-name="Trazado 874350" d="M117.152,231.037a2.326,2.326,0,0,0-3.256-.116l-7.443,7.094-3.14-3.256a2.326,2.326,0,0,0-3.256-.116,2.442,2.442,0,0,0,0,3.372l4.768,4.884a2.093,2.093,0,0,0,1.628.7,2.325,2.325,0,0,0,1.628-.7l9.071-8.606a2.209,2.209,0,0,0,.134-3.122Q117.222,231.1,117.152,231.037Z" transform="translate(-87.73 -179.046)" fill="#62529b"/>
      <path id="Trazado_874351" data-name="Trazado 874351" d="M227.621,256.034H200.874a2.326,2.326,0,1,0,0,4.652h26.747a2.326,2.326,0,1,0,0-4.652Z" transform="translate(-164.823 -199.043)" fill="#62529b"/>
      <path id="Trazado_874352" data-name="Trazado 874352" d="M117.152,147.445a2.326,2.326,0,0,0-3.256-.116l-7.443,7.094-3.14-3.256a2.326,2.326,0,0,0-3.256-.116,2.442,2.442,0,0,0,0,3.372l4.768,4.884a2.093,2.093,0,0,0,1.628.7,2.325,2.325,0,0,0,1.628-.7l9.071-8.606a2.209,2.209,0,0,0,.134-3.122Q117.222,147.509,117.152,147.445Z" transform="translate(-87.73 -114.061)" fill="#62529b"/>
      <path id="Trazado_874353" data-name="Trazado 874353" d="M227.621,172.442H200.874a2.326,2.326,0,1,0,0,4.652h26.747a2.326,2.326,0,1,0,0-4.652Z" transform="translate(-164.823 -134.058)" fill="#62529b"/>
      <path id="Trazado_874354" data-name="Trazado 874354" d="M117.152,314.628a2.326,2.326,0,0,0-3.256-.116l-7.443,7.094-3.14-3.256a2.326,2.326,0,0,0-3.256-.116,2.442,2.442,0,0,0,0,3.372l4.768,4.884a2.093,2.093,0,0,0,1.628.7,2.325,2.325,0,0,0,1.628-.7l9.071-8.606a2.209,2.209,0,0,0,.134-3.122Q117.222,314.692,117.152,314.628Z" transform="translate(-87.73 -244.031)" fill="#62529b"/>
      <path id="Trazado_874355" data-name="Trazado 874355" d="M227.621,339.626H200.874a2.326,2.326,0,1,0,0,4.652h26.747a2.326,2.326,0,1,0,0-4.652Z" transform="translate(-164.823 -264.029)" fill="#62529b"/>
    </g>
  </g>
</svg>
