<svg id="compliant" xmlns="http://www.w3.org/2000/svg" width="89.79" height="104.237" viewBox="0 0 89.79 104.237">
  <g id="Grupo_1099647" data-name="Grupo 1099647" transform="translate(0 0)">
    <path id="Trazado_874356" data-name="Trazado 874356" d="M170.933,49.946H122.244a1.527,1.527,0,1,0,0,3.054h48.689a1.527,1.527,0,0,0,0-3.054Z" transform="translate(-103.364 -39.778)" fill="#62529b"/>
    <path id="Trazado_874357" data-name="Trazado 874357" d="M198.741,86.765a1.527,1.527,0,0,0-1.527-1.527H166.577a1.527,1.527,0,0,0,0,3.054h30.638A1.527,1.527,0,0,0,198.741,86.765Z" transform="translate(-138.672 -67.885)" fill="#62529b"/>
    <path id="Trazado_874358" data-name="Trazado 874358" d="M121.257,134.637l3.82,3.237a1.528,1.528,0,0,0,.987.362q.065,0,.13-.006a1.527,1.527,0,0,0,1.041-.541l7.2-8.587a1.527,1.527,0,0,0-2.341-1.961l-6.21,7.41-2.649-2.245a1.527,1.527,0,0,0-1.975,2.33Z" transform="translate(-103.364 -100.822)" fill="#62529b"/>
    <path id="Trazado_874359" data-name="Trazado 874359" d="M121.257,206.212l3.82,3.237a1.528,1.528,0,0,0,.987.362q.065,0,.13-.006a1.527,1.527,0,0,0,1.041-.541l7.2-8.587a1.527,1.527,0,0,0-2.341-1.961l-6.21,7.41-2.649-2.245a1.527,1.527,0,0,0-1.975,2.33Z" transform="translate(-103.364 -157.825)" fill="#62529b"/>
    <path id="Trazado_874360" data-name="Trazado 874360" d="M121.257,277.787l3.82,3.237a1.528,1.528,0,0,0,.987.362q.065,0,.13-.006a1.527,1.527,0,0,0,1.041-.541l7.2-8.587a1.527,1.527,0,1,0-2.341-1.961l-6.21,7.41-2.649-2.245a1.527,1.527,0,0,0-1.975,2.33Z" transform="translate(-103.364 -214.829)" fill="#62529b"/>
    <path id="Trazado_874361" data-name="Trazado 874361" d="M121.256,349.334l3.82,3.243a1.527,1.527,0,0,0,.988.363c.043,0,.086,0,.129-.006a1.526,1.526,0,0,0,1.041-.541l7.2-8.593a1.527,1.527,0,0,0-2.341-1.961l-6.209,7.414-2.648-2.248a1.527,1.527,0,0,0-1.976,2.328Z" transform="translate(-103.364 -271.811)" fill="#62529b"/>
    <path id="Trazado_874362" data-name="Trazado 874362" d="M232.357,165.346H214.964a1.527,1.527,0,1,0,0,3.054h17.393a1.527,1.527,0,1,0,0-3.054Z" transform="translate(-177.208 -131.684)" fill="#62529b"/>
    <path id="Trazado_874363" data-name="Trazado 874363" d="M290.109,130.025H272.052a1.527,1.527,0,0,0,0,3.054h18.057a1.527,1.527,0,1,0,0-3.054Z" transform="translate(-222.673 -103.554)" fill="#62529b"/>
    <path id="Trazado_874364" data-name="Trazado 874364" d="M219.367,130.025h-4.4a1.527,1.527,0,0,0,0,3.054h4.4a1.527,1.527,0,0,0,0-3.054Z" transform="translate(-177.208 -103.554)" fill="#62529b"/>
    <path id="Trazado_874365" data-name="Trazado 874365" d="M214.964,236.921a1.527,1.527,0,0,0,0,3.054h17.393a1.527,1.527,0,1,0,0-3.054Z" transform="translate(-177.208 -188.687)" fill="#62529b"/>
    <path id="Trazado_874366" data-name="Trazado 874366" d="M246.17,274.7a1.527,1.527,0,0,0-1.527-1.527H214.964a1.527,1.527,0,1,0,0,3.054h29.679A1.527,1.527,0,0,0,246.17,274.7Z" transform="translate(-177.208 -217.561)" fill="#62529b"/>
    <path id="Trazado_874367" data-name="Trazado 874367" d="M214.964,380.07a1.527,1.527,0,1,0,0,3.054h13.665a1.527,1.527,0,1,0,0-3.054Z" transform="translate(-177.208 -302.692)" fill="#62529b"/>
    <path id="Trazado_874368" data-name="Trazado 874368" d="M343.521,201.6h-4.4a1.527,1.527,0,1,0,0,3.054h4.4a1.527,1.527,0,1,0,0-3.054Z" transform="translate(-276.085 -160.558)" fill="#62529b"/>
    <path id="Trazado_874369" data-name="Trazado 874369" d="M234.554,203.128a1.527,1.527,0,0,0-1.527-1.527H214.964a1.527,1.527,0,0,0,0,3.054h18.063A1.527,1.527,0,0,0,234.554,203.128Z" transform="translate(-177.208 -160.558)" fill="#62529b"/>
    <path id="Trazado_874370" data-name="Trazado 874370" d="M214.964,311.549H218.6a1.527,1.527,0,1,0,0-3.054h-3.635a1.527,1.527,0,1,0,0,3.054Z" transform="translate(-177.208 -245.689)" fill="#62529b"/>
    <path id="Trazado_874371" data-name="Trazado 874371" d="M267.755,311.549a1.527,1.527,0,1,0,0-3.054H259.41a1.527,1.527,0,1,0,0,3.054Z" transform="translate(-212.605 -245.689)" fill="#62529b"/>
    <path id="Trazado_874372" data-name="Trazado 874372" d="M236.451,346.278a1.527,1.527,0,0,0-1.527-1.527H214.963a1.527,1.527,0,0,0,0,3.054h19.961A1.527,1.527,0,0,0,236.451,346.278Z" transform="translate(-177.207 -274.564)" fill="#62529b"/>
    <path id="Trazado_874373" data-name="Trazado 874373" d="M381.094,409.169a1.527,1.527,0,0,0-2.147.231l-4.757,5.906-1.861-1.643a1.527,1.527,0,0,0-2.021,2.289l3.059,2.7a1.527,1.527,0,0,0,1.011.382q.064,0,.129-.005a1.527,1.527,0,0,0,1.06-.564l5.759-7.15a1.527,1.527,0,0,0-.231-2.147Z" transform="translate(-301.73 -325.598)" fill="#62529b"/>
    <path id="Trazado_874374" data-name="Trazado 874374" d="M114.053,73.408V41.214a1.527,1.527,0,0,0-3.054,0v31.6c-.489-.045-.981-.072-1.474-.072a15.762,15.762,0,0,0-15.74,15.5H47.015a.613.613,0,0,1-.6-.608V3.656a.611.611,0,0,1,.6-.6H110.4a.611.611,0,0,1,.6.6V34.168a1.527,1.527,0,1,0,3.054,0V3.656A3.661,3.661,0,0,0,110.4,0H47.015a3.661,3.661,0,0,0-3.656,3.656V7.877H39.138a3.66,3.66,0,0,0-3.656,3.656v44.01a1.527,1.527,0,0,0,3.054,0V11.534a.611.611,0,0,1,.6-.6h4.221v76.7A3.663,3.663,0,0,0,47.015,91.3H94.031a15.57,15.57,0,0,0,1.716,4.823H39.138a.613.613,0,0,1-.6-.608V62.6a1.527,1.527,0,1,0-3.054,0V95.513a3.663,3.663,0,0,0,3.656,3.662H97.851c.035,0,.07,0,.105-.005a15.746,15.746,0,1,0,16.1-25.762Zm-4.528,27.775A12.691,12.691,0,0,1,96.884,89.626c-.034-.356-.051-.728-.051-1.136a12.692,12.692,0,1,1,12.692,12.693Z" transform="translate(-35.482 0)" fill="#62529b"/>
  </g>
</svg>
