<svg id="id-card" xmlns="http://www.w3.org/2000/svg" width="105.239" height="78.929" viewBox="0 0 105.239 78.929">
  <g id="Grupo_1099706" data-name="Grupo 1099706" transform="translate(0 0)">
    <path id="Trazado_874385" data-name="Trazado 874385" d="M94.277,81.929H10.962A10.978,10.978,0,0,1,0,70.967v-57A10.978,10.978,0,0,1,10.962,3H94.277a10.978,10.978,0,0,1,10.962,10.962v57A10.978,10.978,0,0,1,94.277,81.929ZM10.962,7.385a6.585,6.585,0,0,0-6.577,6.577v57a6.585,6.585,0,0,0,6.577,6.577H94.277a6.585,6.585,0,0,0,6.577-6.577v-57a6.585,6.585,0,0,0-6.577-6.577Z" transform="translate(0 -3)" fill="#62529b"/>
  </g>
  <g id="Grupo_1099707" data-name="Grupo 1099707" transform="translate(21.925 17.54)">
    <path id="Trazado_874386" data-name="Trazado 874386" d="M15.962,28.925A10.962,10.962,0,1,1,26.925,17.962,10.978,10.978,0,0,1,15.962,28.925Zm0-17.54a6.577,6.577,0,1,0,6.577,6.577A6.585,6.585,0,0,0,15.962,11.385Z" transform="translate(-5 -7)" fill="#62529b"/>
  </g>
  <g id="Grupo_1099708" data-name="Grupo 1099708" transform="translate(13.155 43.85)">
    <path id="Trazado_874387" data-name="Trazado 874387" d="M40.272,30.54a2.193,2.193,0,0,1-2.192-2.192V23.962A6.585,6.585,0,0,0,31.5,17.385H13.962a6.585,6.585,0,0,0-6.577,6.577v4.385a2.192,2.192,0,1,1-4.385,0V23.962A10.978,10.978,0,0,1,13.962,13H31.5A10.978,10.978,0,0,1,42.465,23.962v4.385A2.193,2.193,0,0,1,40.272,30.54Z" transform="translate(-3 -13)" fill="#62529b"/>
  </g>
  <g id="Grupo_1099709" data-name="Grupo 1099709" transform="translate(61.389 21.925)">
    <path id="Trazado_874388" data-name="Trazado 874388" d="M42.5,12.385H16.193a2.192,2.192,0,0,1,0-4.385H42.5a2.192,2.192,0,0,1,0,4.385Z" transform="translate(-14 -8)" fill="#62529b"/>
  </g>
  <g id="Grupo_1099710" data-name="Grupo 1099710" transform="translate(61.389 39.465)">
    <path id="Trazado_874389" data-name="Trazado 874389" d="M42.5,16.385H16.193a2.192,2.192,0,0,1,0-4.385H42.5a2.192,2.192,0,0,1,0,4.385Z" transform="translate(-14 -12)" fill="#62529b"/>
  </g>
  <g id="Grupo_1099711" data-name="Grupo 1099711" transform="translate(61.389 57.004)">
    <path id="Trazado_874390" data-name="Trazado 874390" d="M42.5,20.385H16.193a2.192,2.192,0,0,1,0-4.385H42.5a2.192,2.192,0,0,1,0,4.385Z" transform="translate(-14 -16)" fill="#62529b"/>
  </g>
</svg>
