<svg xmlns="http://www.w3.org/2000/svg" width="102.97" height="102.97" viewBox="0 0 102.97 102.97">
  <path id="team" d="M102.97,43.181H99.238l-5.562,2.927a8.256,8.256,0,0,0-1.979-.814l-7-1.751v-.8a11.663,11.663,0,0,0,4.984-9.531v-2.9A11.932,11.932,0,0,0,78.415,18.274c-.315-.008-.626,0-.938.019l1.814-4.247L70.5,5.253,65.311,8.628a28.092,28.092,0,0,0-6.217-2.579L57.814,0H45.157l-1.28,6.05A28.06,28.06,0,0,0,37.66,8.629L32.476,5.255l-8.787,8.787,1.783,4.25c-.068,0-.133-.015-.2-.017A11.63,11.63,0,0,0,13.286,29.894v3.322a11.658,11.658,0,0,0,4.982,9.529v.8L13.7,44.684,5.432,39.859H0V74.273l16.339,5.445h3.182l.4-1.392,5.008,3.006a5.171,5.171,0,0,0,4.986,5.01A5.17,5.17,0,0,0,34.9,91.325a5.17,5.17,0,0,0,4.982,4.982,5.165,5.165,0,0,0,8.076,4.1l1.471,1.3a5.057,5.057,0,0,0,3.342,1.262h.307a5.057,5.057,0,0,0,5.047-4.989A5.052,5.052,0,0,0,63.1,93a5.052,5.052,0,0,0,4.982-4.987,5.107,5.107,0,0,0,4.989-5.1,4.865,4.865,0,0,0-.025-.5l29.92-14.959ZM86.362,30.313v2.9A8.336,8.336,0,0,1,82.2,40.4l-.83.48.007,5.256,8.3,2.073L71.414,57.824V53.35a8.264,8.264,0,0,0-2.378-5.788l5.7-1.424v-5.26l-.829-.479a8.327,8.327,0,0,1-4.154-7.183V29.894a8.3,8.3,0,0,1,8.561-8.3A8.587,8.587,0,0,1,86.362,30.313ZM53.989,56.518l-7.518-2.4a20.51,20.51,0,0,0-10.642-.485l-.952.211V53.35a4.979,4.979,0,0,1,3.773-4.835l9.513-2.377v-5.26l-.829-.479a8.327,8.327,0,0,1-4.154-7.183V29.894a8.3,8.3,0,0,1,8.561-8.3,8.587,8.587,0,0,1,8.047,8.718v2.9A8.336,8.336,0,0,1,55.632,40.4l-.83.48.006,5.256,9.511,2.377a4.979,4.979,0,0,1,3.773,4.835v6.223l-.41.216H66.665L56.454,56.871A10.469,10.469,0,0,0,53.989,56.518ZM35.249,24.857a18.256,18.256,0,0,1,32.4-.134,11.55,11.55,0,0,0-1.22,5.171v3.322a11.658,11.658,0,0,0,4.982,9.529v.8l-6.643,1.663-6.645-1.663v-.8a11.663,11.663,0,0,0,4.984-9.531v-2.9A11.932,11.932,0,0,0,51.842,18.274,11.628,11.628,0,0,0,39.859,29.894v3.322a11.658,11.658,0,0,0,4.982,9.529v.8L38.2,45.206l-6.645-1.663v-.8a11.663,11.663,0,0,0,4.984-9.531v-2.9A12.241,12.241,0,0,0,35.249,24.857ZM27.611,14.813l5.306-5.306,4.67,3.039L38.481,12a24.783,24.783,0,0,1,7.191-2.983l1.022-.245,1.156-5.449h7.272l1.152,5.447,1.022.244A24.807,24.807,0,0,1,64.487,12l.894.548,4.67-3.039,5.3,5.3-1.884,4.411a11.609,11.609,0,0,0-3.506,2.331c-.068.066-.127.138-.193.206a21.568,21.568,0,0,0-36.63.1,11.715,11.715,0,0,0-3.664-2.6ZM21.59,46.138v-5.26l-.829-.479a8.327,8.327,0,0,1-4.154-7.183V29.894a8.3,8.3,0,0,1,8.561-8.3,8.587,8.587,0,0,1,8.047,8.718v2.9A8.336,8.336,0,0,1,29.059,40.4l-.83.48.006,5.256,5.7,1.424a8.263,8.263,0,0,0-2.378,5.788v1.23l-5.18,1.152.135-.47.063-3.069-8.759-5.11ZM3.322,43.181H4.532l11.944,6.967L10.45,74.254,3.322,71.878ZM16.877,76.4l-3.269-1.089L19.463,51.89,23.251,54.1v.474L17.017,76.4Zm11.356,4.781a1.875,1.875,0,0,1,.545-1.317L31.7,76.942a1.862,1.862,0,0,1,2.634,2.634L31.413,82.5a1.862,1.862,0,0,1-3.179-1.317Zm4.982,4.982a1.875,1.875,0,0,1,.545-1.317l2.919-2.919a1.862,1.862,0,0,1,2.634,2.634l-2.919,2.919a1.862,1.862,0,0,1-3.179-1.317ZM38.2,91.143a1.875,1.875,0,0,1,.545-1.317l2.919-2.919A1.862,1.862,0,0,1,44.3,89.541L41.377,92.46A1.862,1.862,0,0,1,38.2,91.143Zm6.844,6.844a1.862,1.862,0,0,1-1.317-3.179l2.919-2.919a1.862,1.862,0,0,1,2.634,2.634L46.36,97.442A1.875,1.875,0,0,1,45.043,97.987Zm8.032,1.661h-.307a1.721,1.721,0,0,1-1.144-.434l-1.242-1.1,1.247-1.247a5.164,5.164,0,0,0,1.046-1.543l1.51,1.257a1.732,1.732,0,0,1-1.109,3.063ZM67.968,84.7h-.287a1.782,1.782,0,0,1-1.143-.415L57.532,76.78,55.4,79.333,64.15,86.62a1.733,1.733,0,0,1-1.111,3.063h-.362a1.732,1.732,0,0,1-1.108-.4l-9.021-7.517L50.42,84.317l8.746,7.288a1.731,1.731,0,0,1-1.109,3.06,2.743,2.743,0,0,1-1.748-.633L52.6,90.943a5.166,5.166,0,0,0-4.459-2.9,5.17,5.17,0,0,0-4.982-4.982,5.17,5.17,0,0,0-4.982-4.982,5.171,5.171,0,0,0-8.829-3.483L26.43,77.513a5.119,5.119,0,0,0-.465.568l-5.1-3.061,4.472-15.653,11.212-2.493a17.109,17.109,0,0,1,8.911.4l2.447.783L39.61,62.207a5.536,5.536,0,0,0-3.073,4.976v.328a5.562,5.562,0,0,0,8.426,4.77l6.184-3.708a3.428,3.428,0,0,1,3.983.384L69.163,81.585A1.787,1.787,0,0,1,67.968,84.7Zm31.68-19.3L71.668,79.4c-.091-.1-.186-.188-.285-.277L57.353,66.49a6.684,6.684,0,0,0-7.916-.766l-6.187,3.71a2.24,2.24,0,0,1-3.391-1.924v-.328a2.228,2.228,0,0,1,1.239-2l9.264-4.632a7.218,7.218,0,0,1,5.176-.48l10.437,2.981,2.528.063L99.648,46.718Zm0,0" fill="#62529b"/>
</svg>
