<svg id="system_1_" data-name="system (1)" xmlns="http://www.w3.org/2000/svg" width="108.082" height="108.087" viewBox="0 0 108.082 108.087">
  <g id="Grupo_1099713" data-name="Grupo 1099713" transform="translate(0 0)">
    <g id="Grupo_1099712" data-name="Grupo 1099712">
      <path id="Trazado_874402" data-name="Trazado 874402" d="M272.143,284.488a12.333,12.333,0,1,0-8.725-3.608A12.3,12.3,0,0,0,272.143,284.488Zm-6.487-18.821a9.174,9.174,0,1,1,0,12.974A9.144,9.144,0,0,1,265.656,265.668Z" transform="translate(-204.991 -204.997)" fill="#62529b"/>
      <path id="Trazado_874403" data-name="Trazado 874403" d="M227.876,227.988a20.234,20.234,0,0,0-4.337,22.309,1.583,1.583,0,0,0,2.913-1.237,17.154,17.154,0,1,1,15.889,10.44h-.1a17.042,17.042,0,0,1-11.969-4.869,1.582,1.582,0,1,0-2.21,2.266,20.185,20.185,0,0,0,14.178,5.768h.122a20.314,20.314,0,1,0-14.484-34.677Z" transform="translate(-175.087 -175.194)" fill="#62529b"/>
      <path id="Trazado_874404" data-name="Trazado 874404" d="M105.063,60.052H99.432a32.761,32.761,0,0,0-4.423-10.69l3.978-3.979a3.031,3.031,0,0,0,0-4.286l-5.763-5.762a3.031,3.031,0,0,0-4.286,0L84.96,39.314A32.756,32.756,0,0,0,74.27,34.891V29.259a3.034,3.034,0,0,0-3.031-3.031H63.09a3.026,3.026,0,0,0-2.34,1.107H59.716a26.765,26.765,0,0,0-3.432-8.293L59.328,16a2.756,2.756,0,0,0,0-3.893L54.67,7.449a2.753,2.753,0,0,0-3.893,0l-3.044,3.044A26.765,26.765,0,0,0,39.44,7.061V2.753A2.756,2.756,0,0,0,36.687,0H30.1a2.756,2.756,0,0,0-2.753,2.753V7.061a26.772,26.772,0,0,0-8.293,3.432L16.011,7.449a2.753,2.753,0,0,0-3.894,0L7.461,12.106a2.756,2.756,0,0,0,0,3.893L10.5,19.043a26.767,26.767,0,0,0-3.432,8.293H2.765A2.756,2.756,0,0,0,.012,30.089v6.586a2.756,2.756,0,0,0,2.753,2.753H7.073A26.763,26.763,0,0,0,10.5,47.722L7.461,50.766a2.756,2.756,0,0,0,0,3.893l4.657,4.657a2.756,2.756,0,0,0,3.894,0l3.044-3.044A26.76,26.76,0,0,0,27.348,59.7V60.74a3.025,3.025,0,0,0-1.112,2.344v8.15a3.034,3.034,0,0,0,3.031,3.031H34.9a32.764,32.764,0,0,0,4.423,10.69l-3.978,3.979a3.031,3.031,0,0,0,0,4.286l5.763,5.762a3.031,3.031,0,0,0,4.286,0L49.37,95a32.753,32.753,0,0,0,10.69,4.423v5.631a3.034,3.034,0,0,0,3.031,3.031h8.149a3.034,3.034,0,0,0,3.031-3.031V99.425A32.757,32.757,0,0,0,84.96,95l3.979,3.979a3.031,3.031,0,0,0,4.286,0l5.762-5.762a3.031,3.031,0,0,0,0-4.286l-3.979-3.979a32.762,32.762,0,0,0,4.423-10.69h5.631a3.034,3.034,0,0,0,3.031-3.031v-8.15A3.034,3.034,0,0,0,105.063,60.052ZM28.335,56.681a23.624,23.624,0,0,1-7.842-3.245,2.771,2.771,0,0,0-3.442.364l-2.987,2.987L9.99,52.712l2.987-2.987a2.771,2.771,0,0,0,.363-3.442A23.622,23.622,0,0,1,10.1,38.441,2.771,2.771,0,0,0,7.4,36.263H3.177V30.5H7.4A2.772,2.772,0,0,0,10.1,28.323a23.621,23.621,0,0,1,3.245-7.842,2.771,2.771,0,0,0-.363-3.442L9.99,14.053l4.075-4.075,2.987,2.987a2.771,2.771,0,0,0,3.442.363,23.621,23.621,0,0,1,7.841-3.245,2.771,2.771,0,0,0,2.178-2.691V3.165h5.762V7.393a2.771,2.771,0,0,0,2.178,2.691,23.628,23.628,0,0,1,7.842,3.245,2.771,2.771,0,0,0,3.442-.363l2.987-2.987L56.8,14.053l-2.987,2.987a2.77,2.77,0,0,0-.364,3.442,23.621,23.621,0,0,1,3.245,7.842A2.771,2.771,0,0,0,59.384,30.5h.675v4.389A32.754,32.754,0,0,0,49.37,39.314l-3.979-3.979c-.047-.047-.1-.09-.147-.134A11.99,11.99,0,0,0,29.19,22.146,1.583,1.583,0,0,0,30.3,25.111a8.823,8.823,0,0,1,11.825,9.554,3.026,3.026,0,0,0-1.017.671L35.343,41.1a3.022,3.022,0,0,0-.672,1.019,8.861,8.861,0,0,1-1.277.1,8.832,8.832,0,0,1-7.7-13.149,1.583,1.583,0,1,0-2.76-1.549A11.988,11.988,0,0,0,35.2,45.232c.045.051.089.1.138.152l3.979,3.979A32.761,32.761,0,0,0,34.9,60.053H30.513v-.681a2.772,2.772,0,0,0-2.178-2.691ZM104.929,71.1H99.322a3.052,3.052,0,0,0-2.963,2.4,29.606,29.606,0,0,1-4.066,9.827,3.05,3.05,0,0,0,.4,3.79l3.961,3.961-5.573,5.573L87.12,92.685a3.051,3.051,0,0,0-3.789-.4A29.608,29.608,0,0,1,73.5,96.352a3.051,3.051,0,0,0-2.4,2.963v5.606H63.225V99.315a3.052,3.052,0,0,0-2.4-2.963A29.606,29.606,0,0,1,51,92.286a3.051,3.051,0,0,0-3.79.4l-3.961,3.961-5.573-5.573,3.961-3.961a3.05,3.05,0,0,0,.4-3.79A29.607,29.607,0,0,1,37.97,73.5a3.052,3.052,0,0,0-2.963-2.4H29.4V63.217h5.606a3.052,3.052,0,0,0,2.963-2.4,29.606,29.606,0,0,1,4.066-9.827,3.05,3.05,0,0,0-.4-3.79l-3.961-3.961,5.573-5.573,3.961,3.961a3.051,3.051,0,0,0,3.79.4,29.608,29.608,0,0,1,9.827-4.066A3.051,3.051,0,0,0,63.225,35V29.394h7.881V35a3.051,3.051,0,0,0,2.4,2.963,29.605,29.605,0,0,1,9.827,4.066,3.05,3.05,0,0,0,3.79-.4l3.961-3.961,5.573,5.573L92.693,47.2a3.05,3.05,0,0,0-.4,3.789,29.609,29.609,0,0,1,4.066,9.827,3.052,3.052,0,0,0,2.963,2.4h5.606V71.1Z" transform="translate(-0.012 0)" fill="#62529b"/>
    </g>
  </g>
</svg>
