<svg id="target_2_" data-name="target (2)" xmlns="http://www.w3.org/2000/svg" width="101.349" height="101.062" viewBox="0 0 101.349 101.062">
  <g id="Grupo_1099714" data-name="Grupo 1099714" transform="translate(0 0)">
    <path id="Trazado_874405" data-name="Trazado 874405" d="M358.836,434.04a1.98,1.98,0,1,1,1.94-1.593A2,2,0,0,1,358.836,434.04Z" transform="translate(-286.221 -345.094)" fill="#62529b"/>
    <path id="Trazado_874406" data-name="Trazado 874406" d="M101.3,11.392a1.979,1.979,0,0,0-1.271-1.429L94.178,7.9,92.111,2.045a1.98,1.98,0,0,0-3.266-.74L76.764,13.386a7.68,7.68,0,0,0-2.227,6.081l.406,4.867-.054.051-2.158,2.158A43,43,0,0,0,52.359,16.006a7.478,7.478,0,0,0,.3-2.167,9.3,9.3,0,0,0-18.6,0,7.478,7.478,0,0,0,.3,2.167A43.365,43.365,0,1,0,66.629,95.024,1.98,1.98,0,0,0,64.5,91.685a39.63,39.63,0,0,1-49-5.394A39.4,39.4,0,0,1,69.93,29.345l-4.2,4.2a33.392,33.392,0,1,0,2.783,2.816l4.2-4.2a39.66,39.66,0,0,1,3.923,47.375,1.979,1.979,0,1,0,3.341,2.123,43.371,43.371,0,0,0-4.461-52.3l2.172-2.172.051-.054,4.867.406q.323.027.644.027a7.678,7.678,0,0,0,5.437-2.254l12.081-12.081a1.98,1.98,0,0,0,.53-1.838Zm-62.967,3.97a3.449,3.449,0,0,1-.316-1.523,5.34,5.34,0,0,1,10.679,0,3.449,3.449,0,0,1-.316,1.523,44.258,44.258,0,0,0-10.047,0ZM72.842,58.432a29.448,29.448,0,1,1-9.92-22.08l-4.209,4.209A23.562,23.562,0,0,0,26.7,75.093h0A23.562,23.562,0,0,0,61.489,43.385L65.7,39.171A29.288,29.288,0,0,1,72.842,58.432ZM29.5,72.294A19.6,19.6,0,0,1,55.9,43.37l-4.223,4.223a13.634,13.634,0,1,0,2.758,2.841L58.675,46.2a19.6,19.6,0,0,1-29.18,26.1ZM53.057,58.432a9.681,9.681,0,1,1-4.209-8.005l-6.606,6.606a1.98,1.98,0,1,0,2.8,2.8l6.546-6.547a9.653,9.653,0,0,1,1.469,5.147ZM85.889,22.51a3.731,3.731,0,0,1-2.952,1.081l-4.112-.343-.343-4.112a3.728,3.728,0,0,1,1.081-2.952l9.861-9.861,1.336,3.782a1.98,1.98,0,0,0,1.207,1.207l3.782,1.336Z" transform="translate(0 -0.725)" fill="#62529b"/>
  </g>
</svg>
