<svg id="wrench" xmlns="http://www.w3.org/2000/svg" width="101.831" height="101.663" viewBox="0 0 101.831 101.663">
  <path id="Trazado_874407" data-name="Trazado 874407" d="M96.634,70.938a17.93,17.93,0,0,0-19.088-3.969L74.681,64.11a6.222,6.222,0,0,0,.653-.565l7.149-7.133a6.213,6.213,0,0,0,0-8.781h0a6.213,6.213,0,0,0-4.739-1.8,7.022,7.022,0,0,0,.066-.949,6.873,6.873,0,0,0-6.567-6.869A6.87,6.87,0,0,0,63.915,29a7.056,7.056,0,0,0,.046-.792,6.826,6.826,0,0,0-2.012-4.866,6.909,6.909,0,0,0-9.744,0L47.636,27.9l-.354-.353a4.4,4.4,0,0,0-6.209.006l-1.516,1.513-4.419-4.413A17.757,17.757,0,0,0,15.235.736c-.832.157-3.363.633-3.883,2.57-.508,1.894,1.3,3.447,2.167,4.193.088.076,7.134,7.093,7.134,7.093a5,5,0,0,1,.3,6.734,5.031,5.031,0,0,1-6.758-.3S7.16,14,7.084,13.91c-.748-.866-2.305-2.668-4.2-2.159C.948,12.271.471,14.8.314,15.624A17.753,17.753,0,0,0,5.2,31.519a17.931,17.931,0,0,0,19.088,3.969l5.116,5.1a12.34,12.34,0,0,0-.809,5.172c.243,4-1.879,7.927-7.094,13.126l-5.432,5.42a4.9,4.9,0,0,0-5.694.886L2.763,72.789a4.886,4.886,0,0,0,0,6.907l21.011,20.964a4.9,4.9,0,0,0,6.913,0L38.3,93.068a4.894,4.894,0,0,0,.892-5.686l9.241-9.221c2.739-2.733,3.184-2.659,6.086-2.175.488.082,1.042.174,1.664.263,2.533.364,5.473-.923,7.142-1.814L66.693,77.8a17.946,17.946,0,0,0-1.2,7.248,1.491,1.491,0,0,0,1.489,1.429h.064a1.491,1.491,0,0,0,1.428-1.553,14.9,14.9,0,0,1,1.339-6.841,1.492,1.492,0,0,0-.3-1.681L45.644,52.58A13.076,13.076,0,0,0,47.225,46.9a16.356,16.356,0,0,0,6.187,3.274,10.851,10.851,0,0,0,5.022.251c0,.017,0,.034,0,.051A6.874,6.874,0,0,0,65,57.333a6.246,6.246,0,0,0-.269,1.821,6.2,6.2,0,0,0,6.212,6.2,6.243,6.243,0,0,0,.726-.044l4.484,4.474a1.492,1.492,0,0,0,1.675.3,14.931,14.931,0,0,1,16.7,2.961,14.771,14.771,0,0,1,4.059,13.228,5.113,5.113,0,0,1-.439,1.441A6.415,6.415,0,0,1,97.005,86.6c-.129-.15-7.26-7.281-7.26-7.281a8.023,8.023,0,0,0-10.9-.369,1.531,1.531,0,0,0-.143.142,7.986,7.986,0,0,0,.37,10.887l8.416,8.375a5.165,5.165,0,0,1-1.443.437,14.774,14.774,0,0,1-15.968-7.763,1.492,1.492,0,1,0-2.655,1.361,17.733,17.733,0,0,0,15.829,9.647,18.045,18.045,0,0,0,3.345-.313c.832-.157,3.363-.633,3.883-2.57.508-1.894-1.3-3.447-2.167-4.193-.088-.076-7.134-7.093-7.134-7.093a4.578,4.578,0,1,1,6.46-6.437s7.033,7.031,7.109,7.119c.748.866,2.306,2.668,4.2,2.159,1.936-.521,2.413-3.045,2.57-3.874a17.751,17.751,0,0,0-4.883-15.894ZM67.478,33.074a3.912,3.912,0,0,1,.054,5.457l-4.795,4.784c-.823-1.193-5.353-5.685-5.353-5.685l4.564-4.554A3.92,3.92,0,0,1,67.478,33.074ZM54.312,25.456a3.921,3.921,0,0,1,5.53,0,3.905,3.905,0,0,1,0,5.508l-4.569,4.559L49.748,30.01Zm-28.63,7.212a1.492,1.492,0,0,0-1.675-.3A14.932,14.932,0,0,1,7.3,29.407,14.771,14.771,0,0,1,3.245,16.179a5.113,5.113,0,0,1,.439-1.441A6.415,6.415,0,0,1,4.826,15.86c.129.15,7.26,7.281,7.26,7.281a8.022,8.022,0,0,0,10.9.369,1.532,1.532,0,0,0,.143-.142,7.986,7.986,0,0,0-.37-10.887S14.486,4.319,14.344,4.1a5.166,5.166,0,0,1,1.443-.437,14.776,14.776,0,0,1,16.23,20.708,1.492,1.492,0,0,0,.3,1.679l5.127,5.121-5.558,5.546a10.464,10.464,0,0,0-.989,1.151ZM60.449,45.6a6.917,6.917,0,0,0-1,1.263c-3.177,1.969-8.2-.2-10.7-2.608l-.31-.309c-2.285-2.278-3.5-3.49-3.613-3.605l-.006-.006-.016-.017-.024-.021a1.491,1.491,0,0,0-2.114,2.1l.03.031a5.654,5.654,0,0,1,1.556,4.115,11.537,11.537,0,0,1-3.6,7.807,1.492,1.492,0,0,0,2.107,2.112,16.966,16.966,0,0,0,1.208-1.346L61.1,72.217A9,9,0,0,1,56.6,73.3c-.589-.084-1.124-.173-1.6-.252-3.456-.577-5.005-.665-8.684,3.005l-9.08,9.06-7.5-7.486a1.491,1.491,0,1,0-2.107,2.112l8.553,8.534h0l0,0a1.9,1.9,0,0,1,0,2.683l-7.609,7.592a1.913,1.913,0,0,1-2.7,0L4.87,77.584a1.9,1.9,0,0,1,0-2.683l7.608-7.592a1.914,1.914,0,0,1,2.7,0L22.7,74.816A1.492,1.492,0,1,0,24.808,72.7l-6.465-6.451L23.6,61c5.883-5.864,8.265-10.475,7.965-15.418a9,9,0,0,1,2.424-6.752l9.186-9.166a1.431,1.431,0,0,1,1.995-.006l1.4,1.4,9.721,9.7c.262.262.524.521.782.776a24.569,24.569,0,0,1,3.5,3.924Zm4.872,8.76a3.894,3.894,0,0,1-2.765-6.648l5.6-5.588a3.921,3.921,0,0,1,5.53,0h0a3.9,3.9,0,0,1,0,5.506l0,0-5.6,5.589a3.878,3.878,0,0,1-2.763,1.138Zm3.329,7.075a3.23,3.23,0,0,1,0-4.558l7.143-7.133a3.249,3.249,0,0,1,4.582,0h0a3.23,3.23,0,0,1,0,4.557l-7.149,7.133a3.246,3.246,0,0,1-4.577,0Z" transform="translate(0 -0.422)" fill="#62529b"/>
</svg>
