<svg id="support" xmlns="http://www.w3.org/2000/svg" width="95.481" height="95.815" viewBox="0 0 95.481 95.815">
  <path id="Trazado_874396" data-name="Trazado 874396" d="M246.921,12.175a1.885,1.885,0,0,0,1.885-1.885V1.885a1.885,1.885,0,1,0-3.769,0v8.406a1.885,1.885,0,0,0,1.885,1.885Z" transform="translate(-199.347 0)" fill="#62529b"/>
  <path id="Trazado_874397" data-name="Trazado 874397" d="M94.536,131.527l-3.329-3.32a6.311,6.311,0,0,0-7.468-1.066l-6.274-6.267.306-.305a6.541,6.541,0,0,0,0-9.236,6.469,6.469,0,0,0-3.281-1.774,6.582,6.582,0,0,0,.26-1.834,6.526,6.526,0,0,0-5.192-6.392,6.581,6.581,0,0,0,.26-1.834,6.52,6.52,0,0,0-5.191-6.39,6.522,6.522,0,0,0-6.971-8.324L45.223,82.433c-1.9-.36-4.264-.6-5.759.766a3.4,3.4,0,0,0-.285.3A6.554,6.554,0,0,0,32.3,85.006a6.484,6.484,0,0,0-1.909,4.62,6.59,6.59,0,0,0,.259,1.834,6.528,6.528,0,0,0-5.19,6.385,6.571,6.571,0,0,0,.26,1.839,6.535,6.535,0,0,0-4.051,10.085,6.531,6.531,0,0,0-2.509,10.8l.3.3-6.275,6.263a6.3,6.3,0,0,0-7.129,1.235L2.732,131.7a6.3,6.3,0,0,0,0,8.891l4.158,4.153a1.885,1.885,0,0,0,2.664-2.667L5.4,137.921a2.527,2.527,0,0,1,0-3.556l3.332-3.322a2.523,2.523,0,0,1,3.074-.377,1.9,1.9,0,0,0,.237.29,1.875,1.875,0,0,0,.542.377L31.684,150.41a1.857,1.857,0,0,0,.909.918,2.522,2.522,0,0,1-.1,3.441l-3.328,3.324a2.532,2.532,0,0,1-3.564,0l-4.158-4.158a1.885,1.885,0,1,0-2.665,2.665l4.161,4.161a6.31,6.31,0,0,0,8.888,0l3.33-3.326a6.3,6.3,0,0,0,.882-7.783L43.1,142.6l.023-.023c.809-.836,3.06-.68,5.238-.528a27.107,27.107,0,0,0,4.958.033l7.733,7.724a6.3,6.3,0,0,0,1.069,7.461l3.331,3.326a6.3,6.3,0,0,0,8.89,0l20.2-20.176a6.3,6.3,0,0,0,0-8.892ZM44.521,86.136,52.7,87.683,47.8,92.575a11.88,11.88,0,0,1-2.933-2.131c-1.558-1.49-2.672-3.211-2.774-4.284a.005.005,0,0,1,0,0h0a1.648,1.648,0,0,1-.008-.186,6.386,6.386,0,0,1,2.433.164Zm-9.555,1.537a2.78,2.78,0,0,1,3.517-.333c.611,2.563,2.8,4.887,3.782,5.828a13.957,13.957,0,0,0,5.43,3.364,2.766,2.766,0,0,1-4.228,3.533h0l-8.5-8.484a2.775,2.775,0,0,1,0-3.906ZM30.041,95.9a2.78,2.78,0,0,1,3.916,0l6.844,6.83a2.77,2.77,0,0,1-3.921,3.914h0l-5.192-5.191-.025-.024-1.624-1.624a2.766,2.766,0,0,1,0-3.908Zm-4.934,8.223a2.788,2.788,0,0,1,3.9-.013l5.208,5.206a2.766,2.766,0,0,1-3.92,3.9l-1.888-1.886h0l-3.3-3.3a2.773,2.773,0,0,1,0-3.911ZM21.825,114a2.786,2.786,0,0,1,3.922,0l1.891,1.888a2.766,2.766,0,0,1-3.921,3.9l-.237-.236-.009-.01-.011-.01-1.633-1.627a2.768,2.768,0,0,1,0-3.909Zm38.407,21.42a1.885,1.885,0,0,0-2.665,0L55.89,137.09c-1.593,1.593-4.48,1.393-7.272,1.2-3.032-.211-6.167-.428-8.2,1.655l-6.942,6.934-17.36-17.334,6.143-6.132a6.536,6.536,0,0,0,9.949-5.574c0-.016,0-.032,0-.049h.049a6.519,6.519,0,0,0,6.534-6.526c0-.016,0-.032,0-.049h.05a6.512,6.512,0,0,0,6.534-6.576h.051A6.538,6.538,0,0,0,51.005,94.7l5.385-5.382a2.765,2.765,0,0,1,1.415-.754c.056-.006.112-.015.166-.026a2.762,2.762,0,0,1,2.346,4.687l-1.64,1.633-.017.016-1.889,1.886a1.885,1.885,0,0,0,2.664,2.667l1.646-1.644h0l.249-.248a2.776,2.776,0,0,1,3.911.01,2.766,2.766,0,0,1,0,3.907l-1.649,1.653h0L61.7,104.989a1.885,1.885,0,0,0,2.66,2.671l1.9-1.89a2.766,2.766,0,0,1,3.915,3.909l-3.288,3.289a1.885,1.885,0,1,0,2.666,2.665l1.611-1.612.028-.026A2.766,2.766,0,0,1,75.1,117.9l-1.638,1.637,0,0,0,0-2.6,2.6a1.885,1.885,0,0,0,2.664,2.667l1.272-1.27,6.1,6.089L63.536,146.964l-6.219-6.212a7.412,7.412,0,0,0,1.238-1l1.676-1.674a1.884,1.884,0,0,0,0-2.665Zm31.641,2.334-20.2,20.176a2.533,2.533,0,0,1-3.562,0L64.781,154.6a2.52,2.52,0,0,1,0-3.552l20.2-20.176a2.533,2.533,0,0,1,3.564,0l3.329,3.32a2.527,2.527,0,0,1,0,3.557Z" transform="translate(-0.894 -66.779)" fill="#62529b"/>
  <path id="Trazado_874398" data-name="Trazado 874398" d="M89.144,12.818a1.885,1.885,0,0,0,2.663-2.668L84.939,3.3a1.885,1.885,0,0,0-2.663,2.668Z" transform="translate(-66.597 -2.231)" fill="#62529b"/>
  <path id="Trazado_874399" data-name="Trazado 874399" d="M373.536,13.369a1.879,1.879,0,0,0,1.332-.551l6.862-6.854A1.885,1.885,0,0,0,379.066,3.3L372.2,10.151a1.885,1.885,0,0,0,1.332,3.218Z" transform="translate(-302.268 -2.232)" fill="#62529b"/>
  <path id="Trazado_874400" data-name="Trazado 874400" d="M60.471,430.757a1.885,1.885,0,0,0,.023,2.665l.005.005a1.885,1.885,0,1,0-.028-2.67Z" transform="translate(-48.882 -349.687)" fill="#62529b"/>
  <path id="Trazado_874401" data-name="Trazado 874401" d="M334.4,335.888a1.885,1.885,0,1,0-.847-3.568l-.01.005a1.884,1.884,0,0,0,.857,3.563Z" transform="translate(-270.451 -269.965)" fill="#62529b"/>
</svg>
