<svg id="checklist_2_" data-name="checklist (2)" xmlns="http://www.w3.org/2000/svg" width="87.889" height="101.359" viewBox="0 0 87.889 101.359">
  <g id="Grupo_1099644" data-name="Grupo 1099644" transform="translate(0 0)">
    <path id="Trazado_874338" data-name="Trazado 874338" d="M135.382,135.628a1.485,1.485,0,0,0-2.076.316l-2.939,3.993-1-1.38a1.485,1.485,0,1,0-2.4,1.748l1.734,2.381a2.072,2.072,0,0,0,1.663.849h.005a2.071,2.071,0,0,0,1.662-.84l3.673-4.99A1.486,1.486,0,0,0,135.382,135.628Z" transform="translate(-108.333 -108.546)" fill="#62529b"/>
    <path id="Trazado_874339" data-name="Trazado 874339" d="M135.381,258.655a1.485,1.485,0,0,0-2.076.316l-2.939,3.993-1-1.38a1.485,1.485,0,1,0-2.4,1.748l1.734,2.381a2.071,2.071,0,0,0,1.663.849h.005a2.071,2.071,0,0,0,1.663-.841l3.673-4.989A1.485,1.485,0,0,0,135.381,258.655Z" transform="translate(-108.333 -207.218)" fill="#62529b"/>
    <path id="Trazado_874340" data-name="Trazado 874340" d="M135.381,376.439a1.485,1.485,0,0,0-2.076.316l-2.939,3.993-1-1.38a1.485,1.485,0,1,0-2.4,1.748l1.734,2.381a2.071,2.071,0,0,0,1.663.849h.005a2.071,2.071,0,0,0,1.663-.841l3.673-4.989A1.486,1.486,0,0,0,135.381,376.439Z" transform="translate(-108.333 -301.685)" fill="#62529b"/>
    <path id="Trazado_874341" data-name="Trazado 874341" d="M222.01,135.837h18.355a1.485,1.485,0,0,0,0-2.97H222.01a1.485,1.485,0,1,0,0,2.97Z" transform="translate(-183.603 -106.564)" fill="#62529b"/>
    <path id="Trazado_874342" data-name="Trazado 874342" d="M222.01,167.178h9.177a1.485,1.485,0,0,0,0-2.97H222.01a1.485,1.485,0,0,0,0,2.97Z" transform="translate(-183.603 -131.7)" fill="#62529b"/>
    <path id="Trazado_874343" data-name="Trazado 874343" d="M222.01,256.242h12.315a1.485,1.485,0,1,0,0-2.97H222.01a1.485,1.485,0,1,0,0,2.97Z" transform="translate(-183.603 -203.133)" fill="#62529b"/>
    <path id="Trazado_874344" data-name="Trazado 874344" d="M231.187,287.584a1.485,1.485,0,0,0,0-2.97H222.01a1.485,1.485,0,0,0,0,2.97Z" transform="translate(-183.603 -228.27)" fill="#62529b"/>
    <path id="Trazado_874345" data-name="Trazado 874345" d="M117.419,108.047H105.977a3.785,3.785,0,0,0-3.78,3.78v11.441a3.785,3.785,0,0,0,3.78,3.78h11.441a3.785,3.785,0,0,0,3.78-3.78V111.827A3.785,3.785,0,0,0,117.419,108.047Zm.81,15.222a.811.811,0,0,1-.81.81H105.978a.811.811,0,0,1-.81-.81V111.827a.811.811,0,0,1,.81-.81h11.441a.811.811,0,0,1,.81.81Z" transform="translate(-88.7 -86.657)" fill="#62529b"/>
    <path id="Trazado_874346" data-name="Trazado 874346" d="M117.419,228.453H105.977a3.785,3.785,0,0,0-3.78,3.78v11.441a3.785,3.785,0,0,0,3.78,3.78h11.441a3.785,3.785,0,0,0,3.78-3.78V232.233A3.785,3.785,0,0,0,117.419,228.453Zm.81,15.222a.811.811,0,0,1-.81.81H105.978a.811.811,0,0,1-.81-.81V232.233a.811.811,0,0,1,.81-.81h11.441a.811.811,0,0,1,.81.81Z" transform="translate(-88.7 -183.227)" fill="#62529b"/>
    <path id="Trazado_874347" data-name="Trazado 874347" d="M117.419,348.857H105.977a3.785,3.785,0,0,0-3.78,3.78v11.441a3.785,3.785,0,0,0,3.78,3.78h11.441a3.785,3.785,0,0,0,3.78-3.78V352.637A3.785,3.785,0,0,0,117.419,348.857Zm.81,15.222a.811.811,0,0,1-.81.81H105.978a.811.811,0,0,1-.81-.81V352.637a.811.811,0,0,1,.81-.81h11.441a.811.811,0,0,1,.81.81Z" transform="translate(-88.7 -279.795)" fill="#62529b"/>
    <path id="Trazado_874348" data-name="Trazado 874348" d="M119.389,25.4l-2.357-1.493a5.422,5.422,0,0,0-7.483,1.681l-2.161,3.415-3,4.742-3.394,5.363V16.819a2.787,2.787,0,0,0-2.784-2.784H87.567v-2.97h14.247a2.152,2.152,0,0,1,2.15,2.149V26.076a1.485,1.485,0,0,0,2.97,0V13.214a5.125,5.125,0,0,0-5.12-5.12H87.26a4.053,4.053,0,0,0-3.741-2.5H79.683v-1.5A4.1,4.1,0,0,0,75.588,0H65.366a4.1,4.1,0,0,0-4.095,4.095v1.5H57.434a4.053,4.053,0,0,0-3.74,2.5H39.14a5.125,5.125,0,0,0-5.12,5.12V96.239a5.125,5.125,0,0,0,5.12,5.12h62.675a5.125,5.125,0,0,0,5.12-5.12V62.94a1.485,1.485,0,1,0-2.97,0v33.3a2.152,2.152,0,0,1-2.15,2.149H39.14a2.152,2.152,0,0,1-2.15-2.149V13.214a2.152,2.152,0,0,1,2.15-2.149H53.386v2.97H42.745A2.787,2.787,0,0,0,39.96,16.82V92.634a2.787,2.787,0,0,0,2.784,2.784H98.21a2.787,2.787,0,0,0,2.784-2.784V64.608l14.913-23.565h0l3-4.741,2.163-3.417a5.428,5.428,0,0,0-1.681-7.48Zm-5.8.7a2.432,2.432,0,0,1,1.849.321l2.357,1.493a2.454,2.454,0,0,1,.76,3.382l-1.368,2.162-6.5-4.116,1.368-2.161a2.434,2.434,0,0,1,1.534-1.081ZM85.467,83.589a9.994,9.994,0,0,1-.941,1.254,10.44,10.44,0,0,0-1.579-1.69l27.673-43.7,1.982,1.255ZM75.326,92.446a.2.2,0,0,0-.028-.01h0l2.1-8.713a7.476,7.476,0,0,1,4.9,3.105c-7.864,6.336-6.86,5.516-6.971,5.618ZM109.1,31.85l6.5,4.116L114.191,38.2l-6.5-4.116ZM56.357,9.671c0-.018,0-.036,0-.055s0-.012,0-.019A1.078,1.078,0,0,1,57.434,8.56h4.254a2.555,2.555,0,0,0,2.552-2.552V4.095A1.126,1.126,0,0,1,65.366,2.97H75.589a1.126,1.126,0,0,1,1.125,1.125V6.008A2.555,2.555,0,0,0,79.266,8.56H83.52A1.078,1.078,0,0,1,84.6,9.6c0,.006,0,.012,0,.019s0,.036,0,.054v4.364H56.357ZM42.93,17.005H98.023v26.8L82.48,68.368a1.485,1.485,0,1,0,2.51,1.588L106.1,36.592l2.008,1.272-27.673,43.7a10.428,10.428,0,0,0-2.2-.7,10.041,10.041,0,0,1,.732-1.387l2.309-3.648a1.485,1.485,0,1,0-2.51-1.588l-2.308,3.648a12.957,12.957,0,0,0-1.653,3.9h0l-2.393,9.928a3.083,3.083,0,0,0-.086.732H42.93ZM98.023,92.448H80.057l5.1-4.107a12.952,12.952,0,0,0,2.822-3.163L98.023,69.3Z" transform="translate(-34.02 0)" fill="#62529b"/>
  </g>
</svg>
