<svg xmlns="http://www.w3.org/2000/svg" width="82.296" height="100.595" viewBox="0 0 82.296 100.595">
  <path id="gig-economy" d="M139.212,81.683h-45.3c-.2,0-.44.112-.44.277V94.325c0,.7,2.384,1.618,5.576,2.528a131.276,131.276,0,0,0,17.665,3.272,125.528,125.528,0,0,0,17.475-3.2c3.131-.9,5.466-1.835,5.466-2.6V81.959c0-.164-.239-.277-.44-.277Zm-1.518,16.472v14.1a2.042,2.042,0,0,1-2.033,2.033h-38.2a2.042,2.042,0,0,1-2.033-2.033V98.067c6.018,2.4,18.113,4,21.136,4.354a1.142,1.142,0,0,0,.268,0c2.88-.309,14.978-1.9,20.861-4.27ZM127.173,79.38V77.363a.953.953,0,0,0-.948-.948h-20.1a.954.954,0,0,0-.948.948v2.016Zm-24.3,0h-1.461V77.363a4.729,4.729,0,0,1,4.712-4.712h20.1a4.729,4.729,0,0,1,4.712,4.712v2.016h-1.46V77.363a3.258,3.258,0,0,0-3.251-3.251h-20.1a3.258,3.258,0,0,0-3.251,3.251v2.016ZM117.62,94.631a1.011,1.011,0,0,1,0,1.56c-.872.782-2.485.282-2.485-.78s1.614-1.562,2.485-.78Zm-1.059-2.684c3.315,0,5.016,3.777,2.588,5.954-2.376,2.13-6.319.536-6.319-2.49A3.615,3.615,0,0,1,116.562,91.947ZM83.525,35.631a3.756,3.756,0,1,0,0,5.312,3.76,3.76,0,0,0,0-5.312Zm-2.656-3.4a6.06,6.06,0,1,1-6.06,6.06,6.06,6.06,0,0,1,6.06-6.06ZM92.863,58.341A1.15,1.15,0,0,1,91.71,59.5H70.028a1.153,1.153,0,0,1-1.153-1.153V52.269a7.052,7.052,0,0,1,7.035-7.034h9.919a7.052,7.052,0,0,1,7.034,7.034v6.071ZM71.179,57.194h2.316v-1.84a1.153,1.153,0,0,1,2.3,0v1.84H85.94v-1.84a1.153,1.153,0,0,1,2.3,0v1.84h2.316V52.27a4.747,4.747,0,0,0-4.731-4.729H75.91a4.747,4.747,0,0,0-4.73,4.73v4.922Zm-7.93-29H68.64a1.392,1.392,0,0,0,1.385-1.386V19.982ZM98.615,43.6a1.153,1.153,0,1,1,0-2.3h20.178a1.153,1.153,0,0,1,0,2.3Zm0,7.947a1.153,1.153,0,1,1,0-2.3h20.178a1.153,1.153,0,0,1,0,2.3ZM69.971,103.3v3.269a1.392,1.392,0,0,0,1.385,1.385H93.126V103.3Zm.042-19.957a1.153,1.153,0,1,1,0-2.3H87.8a1.153,1.153,0,0,1,0,2.3Zm0,7.947a1.153,1.153,0,1,1,0-2.3H87.8a1.153,1.153,0,0,1,0,2.3ZM95.752,59.5a1.153,1.153,0,0,1,0-2.3H113.91a1.153,1.153,0,0,1,0,2.3ZM70.013,67.445a1.153,1.153,0,1,1,0-2.3H112.83a1.153,1.153,0,0,1,0,2.3Zm0,7.947a1.153,1.153,0,1,1,0-2.3H96.632a1.153,1.153,0,0,1,0,2.3ZM138.7,40.344l-3.208-2.252a.542.542,0,0,0-.608.193L120.512,58.527l4.009,2.846L138.843,41.2c.273-.4.152-.611-.144-.856ZM129.147,42.4V25.263h4.318a1.393,1.393,0,0,1,1.385,1.386V35.8a2.821,2.821,0,0,0-1.839,1.149L129.147,42.4Zm5.7,8.4-5.7,8.034V70.988a7.036,7.036,0,0,1,4.094,6.375v2.016h1.61Zm2.3-14.362,2.946,2.092a2.829,2.829,0,0,1,.665,3.94l-3.611,5.086V79.379h2.057a2.681,2.681,0,0,1,2.744,2.58V94.325c0,1.006-.732,1.895-1.959,2.68v15.253a4.347,4.347,0,0,1-4.338,4.337h-38.2a4.347,4.347,0,0,1-4.337-4.337v-2H71.356a3.7,3.7,0,0,1-3.688-3.688V103.3H63.348a3.7,3.7,0,0,1-3.688-3.688V29.315a1.122,1.122,0,0,1,.329-.777l10-12.113a1.146,1.146,0,0,1,.886-.419L125.458,16a3.7,3.7,0,0,1,3.688,3.688v3.269h4.319a3.7,3.7,0,0,1,3.689,3.688v9.781ZM119.83,60.86l2.676,1.9-3.058,1.4Zm5.4,3.179a1.145,1.145,0,0,0,.5-.4l1.115-1.571v8.3q-.306-.027-.618-.027h-20.1a7.033,7.033,0,0,0-7.016,7.015v2.016h-5.2a2.681,2.681,0,0,0-2.744,2.58V94.325c0,.971.731,1.839,1.959,2.609v4.057H63.348a1.392,1.392,0,0,1-1.386-1.385V30.5H68.64a3.7,3.7,0,0,0,3.688-3.688V18.3h53.129a1.393,1.393,0,0,1,1.385,1.385V45.641L118.01,58.082a1.144,1.144,0,0,0-.242.586l-.837,7.257a1.153,1.153,0,0,0,1.617,1.174Z" transform="translate(-59.66 -16)" fill="#62529b" fill-rule="evenodd"/>
</svg>
