<svg id="paper" xmlns="http://www.w3.org/2000/svg" width="93.794" height="93.794" viewBox="0 0 93.794 93.794">
  <path id="Trazado_874391" data-name="Trazado 874391" d="M30.678,55.989A13.693,13.693,0,0,1,17,42.311V20.816a7.816,7.816,0,0,1,15.632,0V42.311a1.954,1.954,0,1,1-3.908,0V20.816a3.908,3.908,0,0,0-7.816,0V42.311a9.77,9.77,0,0,0,19.54,0V14.954a1.954,1.954,0,1,1,3.908,0V42.311A13.693,13.693,0,0,1,30.678,55.989Z" transform="translate(49.437 37.805)" fill="#62529b"/>
  <path id="Trazado_874392" data-name="Trazado 874392" d="M57.019,85.978H9.77A9.779,9.779,0,0,1,0,76.208V9.77A9.779,9.779,0,0,1,9.77,0H60.575a9.779,9.779,0,0,1,9.77,9.77V42.051a1.954,1.954,0,0,1-3.908,0V9.77a5.869,5.869,0,0,0-5.862-5.862H9.77A5.869,5.869,0,0,0,3.908,9.77V76.208A5.869,5.869,0,0,0,9.77,82.07H57.019a1.954,1.954,0,0,1,0,3.908Z" fill="#62529b"/>
  <path id="Trazado_874393" data-name="Trazado 874393" d="M47.943,16.908H4.954a1.954,1.954,0,1,1,0-3.908H47.943a1.954,1.954,0,1,1,0,3.908Z" transform="translate(8.724 37.805)" fill="#62529b"/>
  <path id="Trazado_874394" data-name="Trazado 874394" d="M47.943,12.908H4.954A1.954,1.954,0,1,1,4.954,9H47.943a1.954,1.954,0,0,1,0,3.908Z" transform="translate(8.724 26.173)" fill="#62529b"/>
  <path id="Trazado_874395" data-name="Trazado 874395" d="M28.4,8.908H4.954A1.954,1.954,0,1,1,4.954,5H28.4a1.954,1.954,0,1,1,0,3.908Z" transform="translate(8.724 14.54)" fill="#62529b"/>
</svg>
