<svg xmlns="http://www.w3.org/2000/svg" width="99.421" height="99.413" viewBox="0 0 99.421 99.413">
  <path id="struggle" d="M97.966,96.525H95.982V40.569a1.455,1.455,0,1,0-2.91,0V96.525H76.514V25.977H93.072v8.392a1.455,1.455,0,1,0,2.91,0V25.892a2.828,2.828,0,0,0-2.825-2.825H76.43A2.828,2.828,0,0,0,73.6,25.892v5.784H69.133q.235-.457.451-.927A21.688,21.688,0,0,0,31.66,9.936,21.873,21.873,0,0,0,28.2,22.848a1.455,1.455,0,0,0,1.453,1.379l.082,0a1.456,1.456,0,0,0,1.356-1.9A18.955,18.955,0,0,1,34.1,11.515,18.778,18.778,0,0,1,66.939,29.537,18.788,18.788,0,0,1,47.2,40.31a1.455,1.455,0,0,0-.416,2.88,21.432,21.432,0,0,0,3.068.22,21.759,21.759,0,0,0,4.288-.433v3.886H39.424A2.828,2.828,0,0,0,36.6,49.688v8.687H29.237l3.1-8.62a4.071,4.071,0,0,0-3.831-5.448H26.586l2.021-2.276H39.246a4.415,4.415,0,0,0,0-8.83h-4.52a5.109,5.109,0,0,0-9.915-2.412h-.585a5.888,5.888,0,0,0-4.249,1.823l-5.29,5.565a11.681,11.681,0,0,0-3.228,8.081v4.323L3.671,68.751a2.174,2.174,0,0,0,1.136,2.856c0,.033-.005.065-.005.1V96.525H1.455a1.455,1.455,0,1,0,0,2.91H97.966a1.455,1.455,0,1,0,0-2.91Zm-41.9-46.752v8.378a1.455,1.455,0,0,0,2.91,0V49.688a2.828,2.828,0,0,0-1.93-2.677V42.178c.126-.044.254-.085.379-.131a21.535,21.535,0,0,0,9.907-7.462H73.6V96.525H58.977V64.351a1.455,1.455,0,0,0-2.91,0V96.525H42.254V61.2a2.826,2.826,0,0,0-2.745-2.821V49.773ZM29.708,30.045a2.2,2.2,0,1,1-2.2,2.2A2.2,2.2,0,0,1,29.708,30.045ZM14.25,51.454a1.455,1.455,0,0,0,.118-.573V46.259a8.783,8.783,0,0,1,2.427-6.076l5.291-5.565a2.965,2.965,0,0,1,2.14-.918h.585a5.1,5.1,0,0,0,8.231,2.412h6.2a1.505,1.505,0,0,1,0,3.01H28.537a2.753,2.753,0,0,0-2.058.925l-3.056,3.442A2.241,2.241,0,0,0,25.1,47.218h3.407A1.161,1.161,0,0,1,29.6,48.772l-3.453,9.6H24.063L25.7,53.134a2.541,2.541,0,0,0-2.425-3.3H20.34a2.525,2.525,0,0,0-2.277,1.414L9.341,68.882H6.782ZM12.588,68.881,20.57,52.745h2.2l-1.784,5.71a2.166,2.166,0,0,0-.094.577,2.82,2.82,0,0,0-1.018,2.17v7.68Zm-4.876,2.91H24.27v7.963a1.455,1.455,0,0,0,2.91,0V71.706a2.828,2.828,0,0,0-2.825-2.825H22.787v-7.6H39.344V96.525H27.18V85.954a1.455,1.455,0,1,0-2.91,0v10.57H7.712Z" transform="translate(0 -0.022)" fill="#62529b"/>
</svg>
