<svg xmlns="http://www.w3.org/2000/svg" xmlns:xlink="http://www.w3.org/1999/xlink" width="400" height="439.329" viewBox="0 0 400 439.329">
  <defs>
    <clipPath id="clip-path">
      <rect id="Rectángulo_400902" data-name="Rectángulo 400902" width="100.626" height="89.21" fill="#7d6eb2"/>
    </clipPath>
    <clipPath id="clip-path-2">
      <path id="Trazado_873351" data-name="Trazado 873351" d="M1121.825,1654.391l-5.739-3.649-1.556,2.447,8.021,5.1,12.107-16.387-2.333-1.724Z" transform="translate(-1114.53 -1640.18)" fill="#ffd947"/>
    </clipPath>
    <clipPath id="clip-path-4">
      <path id="Trazado_873354" data-name="Trazado 873354" d="M1148.664,1898.752l-5.737-3.65-1.558,2.449,8.021,5.1,12.108-16.388-2.333-1.724Z" transform="translate(-1141.37 -1884.54)" fill="#ffd947"/>
    </clipPath>
  </defs>
  <g id="Grupo_1101501" data-name="Grupo 1101501" transform="translate(-180 -2418.852)">
    <g id="Grupo_1101500" data-name="Grupo 1101500">
      <path id="Rectángulo_401168" data-name="Rectángulo 401168" d="M123,0h1.362a123,123,0,0,1,123,123V402.685a0,0,0,0,1,0,0H0a0,0,0,0,1,0,0V123A123,123,0,0,1,123,0Z" transform="translate(300.705 2418.852)" fill="#ffd947"/>
      <g id="Grupo_1098987" data-name="Grupo 1098987" transform="translate(242.219 2442.194)">
        <g id="Grupo_1098724" data-name="Grupo 1098724" transform="translate(0 0)">
          <g id="Grupo_1098723" data-name="Grupo 1098723" clip-path="url(#clip-path)">
            <path id="Trazado_872910" data-name="Trazado 872910" d="M4.017,2.009A2.009,2.009,0,1,1,2.009,0,2.009,2.009,0,0,1,4.017,2.009" fill="#7d6eb2"/>
            <path id="Trazado_872911" data-name="Trazado 872911" d="M32.971,2.009A2.009,2.009,0,1,1,30.963,0a2.009,2.009,0,0,1,2.009,2.009" transform="translate(-9.632)" fill="#7d6eb2"/>
            <path id="Trazado_872912" data-name="Trazado 872912" d="M61.924,2.009A2.009,2.009,0,1,1,59.916,0a2.009,2.009,0,0,1,2.009,2.009" transform="translate(-19.263)" fill="#7d6eb2"/>
            <path id="Trazado_872913" data-name="Trazado 872913" d="M90.877,2.009A2.009,2.009,0,1,1,88.869,0a2.009,2.009,0,0,1,2.009,2.009" transform="translate(-28.895)" fill="#7d6eb2"/>
            <path id="Trazado_872914" data-name="Trazado 872914" d="M119.831,2.009A2.009,2.009,0,1,1,117.822,0a2.009,2.009,0,0,1,2.009,2.009" transform="translate(-38.527)" fill="#7d6eb2"/>
            <path id="Trazado_872915" data-name="Trazado 872915" d="M148.784,2.009A2.009,2.009,0,1,1,146.776,0a2.009,2.009,0,0,1,2.009,2.009" transform="translate(-48.158)" fill="#7d6eb2"/>
            <path id="Trazado_872916" data-name="Trazado 872916" d="M4.017,33.924a2.009,2.009,0,1,1-2.009-2.009,2.009,2.009,0,0,1,2.009,2.009" transform="translate(0 -10.617)" fill="#7d6eb2"/>
            <path id="Trazado_872917" data-name="Trazado 872917" d="M32.971,33.924a2.009,2.009,0,1,1-2.009-2.009,2.009,2.009,0,0,1,2.009,2.009" transform="translate(-9.632 -10.617)" fill="#7d6eb2"/>
            <path id="Trazado_872918" data-name="Trazado 872918" d="M61.924,33.924a2.009,2.009,0,1,1-2.009-2.009,2.009,2.009,0,0,1,2.009,2.009" transform="translate(-19.263 -10.617)" fill="#7d6eb2"/>
            <path id="Trazado_872919" data-name="Trazado 872919" d="M90.877,33.924a2.009,2.009,0,1,1-2.009-2.009,2.009,2.009,0,0,1,2.009,2.009" transform="translate(-28.895 -10.617)" fill="#7d6eb2"/>
            <path id="Trazado_872920" data-name="Trazado 872920" d="M119.831,33.924a2.009,2.009,0,1,1-2.009-2.009,2.009,2.009,0,0,1,2.009,2.009" transform="translate(-38.527 -10.617)" fill="#7d6eb2"/>
            <path id="Trazado_872921" data-name="Trazado 872921" d="M148.784,33.924a2.009,2.009,0,1,1-2.009-2.009,2.009,2.009,0,0,1,2.009,2.009" transform="translate(-48.158 -10.617)" fill="#7d6eb2"/>
            <path id="Trazado_872922" data-name="Trazado 872922" d="M4.017,65.839A2.009,2.009,0,1,1,2.009,63.83a2.009,2.009,0,0,1,2.009,2.009" transform="translate(0 -21.234)" fill="#7d6eb2"/>
            <path id="Trazado_872923" data-name="Trazado 872923" d="M32.971,65.839a2.009,2.009,0,1,1-2.009-2.009,2.009,2.009,0,0,1,2.009,2.009" transform="translate(-9.632 -21.234)" fill="#7d6eb2"/>
            <path id="Trazado_872924" data-name="Trazado 872924" d="M61.924,65.839a2.009,2.009,0,1,1-2.009-2.009,2.009,2.009,0,0,1,2.009,2.009" transform="translate(-19.263 -21.234)" fill="#7d6eb2"/>
            <path id="Trazado_872925" data-name="Trazado 872925" d="M90.877,65.839a2.009,2.009,0,1,1-2.009-2.009,2.009,2.009,0,0,1,2.009,2.009" transform="translate(-28.895 -21.234)" fill="#7d6eb2"/>
            <path id="Trazado_872926" data-name="Trazado 872926" d="M119.831,65.839a2.009,2.009,0,1,1-2.009-2.009,2.009,2.009,0,0,1,2.009,2.009" transform="translate(-38.527 -21.234)" fill="#7d6eb2"/>
            <path id="Trazado_872927" data-name="Trazado 872927" d="M148.784,65.839a2.009,2.009,0,1,1-2.009-2.009,2.009,2.009,0,0,1,2.009,2.009" transform="translate(-48.158 -21.234)" fill="#7d6eb2"/>
            <path id="Trazado_872928" data-name="Trazado 872928" d="M4.017,97.754a2.009,2.009,0,1,1-2.009-2.009,2.009,2.009,0,0,1,2.009,2.009" transform="translate(0 -31.851)" fill="#7d6eb2"/>
            <path id="Trazado_872929" data-name="Trazado 872929" d="M32.971,97.754a2.009,2.009,0,1,1-2.009-2.009,2.009,2.009,0,0,1,2.009,2.009" transform="translate(-9.632 -31.851)" fill="#7d6eb2"/>
            <path id="Trazado_872930" data-name="Trazado 872930" d="M61.924,97.754a2.009,2.009,0,1,1-2.009-2.009,2.009,2.009,0,0,1,2.009,2.009" transform="translate(-19.263 -31.851)" fill="#7d6eb2"/>
            <path id="Trazado_872931" data-name="Trazado 872931" d="M90.877,97.754a2.009,2.009,0,1,1-2.009-2.009,2.009,2.009,0,0,1,2.009,2.009" transform="translate(-28.895 -31.851)" fill="#7d6eb2"/>
            <path id="Trazado_872932" data-name="Trazado 872932" d="M119.831,97.754a2.009,2.009,0,1,1-2.009-2.009,2.009,2.009,0,0,1,2.009,2.009" transform="translate(-38.527 -31.851)" fill="#7d6eb2"/>
            <path id="Trazado_872933" data-name="Trazado 872933" d="M148.784,97.754a2.009,2.009,0,1,1-2.009-2.009,2.009,2.009,0,0,1,2.009,2.009" transform="translate(-48.158 -31.851)" fill="#7d6eb2"/>
            <path id="Trazado_872934" data-name="Trazado 872934" d="M4.017,129.669a2.009,2.009,0,1,1-2.009-2.009,2.009,2.009,0,0,1,2.009,2.009" transform="translate(0 -42.468)" fill="#7d6eb2"/>
            <path id="Trazado_872935" data-name="Trazado 872935" d="M32.971,129.669a2.009,2.009,0,1,1-2.009-2.009,2.009,2.009,0,0,1,2.009,2.009" transform="translate(-9.632 -42.468)" fill="#7d6eb2"/>
            <path id="Trazado_872936" data-name="Trazado 872936" d="M61.924,129.669a2.009,2.009,0,1,1-2.009-2.009,2.009,2.009,0,0,1,2.009,2.009" transform="translate(-19.263 -42.468)" fill="#7d6eb2"/>
            <path id="Trazado_872937" data-name="Trazado 872937" d="M90.877,129.669a2.009,2.009,0,1,1-2.009-2.009,2.009,2.009,0,0,1,2.009,2.009" transform="translate(-28.895 -42.468)" fill="#7d6eb2"/>
            <path id="Trazado_872938" data-name="Trazado 872938" d="M119.831,129.669a2.009,2.009,0,1,1-2.009-2.009,2.009,2.009,0,0,1,2.009,2.009" transform="translate(-38.527 -42.468)" fill="#7d6eb2"/>
            <path id="Trazado_872939" data-name="Trazado 872939" d="M148.784,129.669a2.009,2.009,0,1,1-2.009-2.009,2.009,2.009,0,0,1,2.009,2.009" transform="translate(-48.158 -42.468)" fill="#7d6eb2"/>
          </g>
        </g>
      </g>
      <circle id="Elipse_11466" data-name="Elipse 11466" cx="59.531" cy="59.531" r="59.531" transform="translate(267.758 2461.301)" fill="#aee6e6"/>
      <g id="Grupo_1099642" data-name="Grupo 1099642" transform="translate(9887 11759.578)">
        <path id="Trazado_874203" data-name="Trazado 874203" d="M636.483-8H489.533C479.584-8,471.5-.46,471.5,8.805V325.764c0,9.265,8.1,16.805,18.033,16.805h146.95c9.949,0,18.033-7.54,18.033-16.805V8.805C654.516-.46,646.42-8,636.483-8Z" transform="translate(-10123.893 -9272.107)" fill="#17aab8"/>
        <path id="Trazado_874204" data-name="Trazado 874204" d="M745.235,155.459a.2.2,0,0,0-.069.127V183.8L589.831,311.709l-.139-132.53h.011q-.035-44.717.012-60.9c.012-4.98,2.282-8.154,6.775-9.532a19.749,19.749,0,0,1,5.5-.556q6.237.035,12.474,0c5.953-.023,10.667.429,12.045,6.277a28.183,28.183,0,0,0,.811,3.058c2.224,5.038,6.4,6.173,12.045,6.173h58.87q6.6,0,9.671-5.119a13.412,13.412,0,0,0,1.32-4.656c.88-4.853,5.594-5.721,10.238-5.721H731.9a25,25,0,0,1,7.192.695,9.08,9.08,0,0,1,6.173,9.381c-.069,1.274-.093,2.177-.1,2.733q-.017,17.095.162,34.2a.344.344,0,0,1-.093.232Z" transform="translate(-10228.395 -9374.844)" fill="#fff"/>
        <path id="Trazado_874205" data-name="Trazado 874205" d="M745.431,1001.183c-.151,5.86-4.992,9.509-11.188,9.52q-27.379.018-54.77-.047l-.035.3H606.484l-.058-.266c-1.123,0-2.258,0-3.382.012-5.617.046-10.215-1.309-12.393-6.324-.9-2.062-.649-4.471-.672-6.752q-.243-31.914.058-64.047h0c0-.012-.046-44.671-.046-44.671L745.327,761q0,14.854-.023,29.371a4.421,4.421,0,0,0,.081,1.32q-.1,100.24-.046,200.481C745.338,994.026,745.5,998.184,745.431,1001.183Z" transform="translate(-10228.555 -9952.043)" fill="#ace6e7"/>
        <path id="Trazado_874206" data-name="Trazado 874206" d="M849.5,2481.2H740.847a7.952,7.952,0,0,0,0,15.9H849.5a7.952,7.952,0,0,0,.2-15.9Z" transform="translate(-10355.101 -11473.014)" fill="#fff"/>
        <rect id="Rectángulo_401203" data-name="Rectángulo 401203" width="33.402" height="33.402" rx="16.701" transform="translate(-9618.307 -9044.962)" fill="#ffb656"/>
        <rect id="Rectángulo_401204" data-name="Rectángulo 401204" width="33.402" height="33.402" rx="16.701" transform="translate(-9576.623 -9044.962)" fill="#7aabfe"/>
        <rect id="Rectángulo_401205" data-name="Rectángulo 401205" width="33.402" height="33.402" rx="16.701" transform="translate(-9534.941 -9044.962)" fill="#5585fe"/>
        <rect id="Rectángulo_401206" data-name="Rectángulo 401206" width="23.766" height="23.766" rx="11.883" transform="translate(-9626.906 -9226.591)" fill="#17aab8"/>
        <rect id="Rectángulo_401240" data-name="Rectángulo 401240" width="23.766" height="23.766" rx="11.883" transform="translate(-9577.779 -9226.591)" fill="#17aab8"/>
        <rect id="Rectángulo_401241" data-name="Rectángulo 401241" width="23.766" height="23.766" rx="11.883" transform="translate(-9528.653 -9226.591)" fill="#17aab8"/>
        <rect id="Rectángulo_401207" data-name="Rectángulo 401207" width="225.775" height="272.137" transform="translate(-9532.775 -9187.998)" fill="#7d6cb4"/>
        <rect id="Rectángulo_401208" data-name="Rectángulo 401208" width="221.791" height="268.153" transform="translate(-9530.783 -9186.005)" fill="#fff"/>
        <path id="Trazado_874208" data-name="Trazado 874208" d="M2594.711,1021.491h0A20.417,20.417,0,1,0,2575,1043.022,20.65,20.65,0,0,0,2594.711,1021.491Zm-11.13.846a.124.124,0,0,0-.035-.081.511.511,0,0,1,.035.081Zm-.035-.093a.207.207,0,0,0-.046-.058.252.252,0,0,1,.046.058Zm-.058-.069a.168.168,0,0,1-.035-.023A.168.168,0,0,1,2583.489,1022.175Zm-.046-.035h-.023C2583.419,1022.128,2583.442,1022.14,2583.442,1022.14Zm-.058-.035h0Zm-.07-.012h0Zm-.058,0h0Zm-.069.012h0Zm-.081.023h0Zm-5.768,7.111a.163.163,0,0,0-.023.069.166.166,0,0,1,.023-.069Zm-.034.081v-.012h0Zm-.012.07v0Zm.046.139v0Zm-.023-.046v0Zm.035.069.023.023Zm.035.047.023.023Zm.046.035h0Zm.07.035h0Z" transform="translate(-11965.109 -10164.517)" fill="#17aab8"/>
        <path id="Trazado_874209" data-name="Trazado 874209" d="M2943.3,1018.725v-1.042a.385.385,0,0,1,.382-.382l22.828.035a.386.386,0,0,1,.382.382v1.042a.386.386,0,0,1-.382.382l-22.828-.035A.385.385,0,0,1,2943.3,1018.725Z" transform="translate(-12309.413 -10178.659)" fill="#ace6e7"/>
        <path id="Trazado_874210" data-name="Trazado 874210" d="M2944.6,1082.538V1078.9a.3.3,0,0,1,.313-.3l22.793.035a.3.3,0,0,1,.3.313v3.637a.3.3,0,0,1-.312.3l-22.793-.035A.3.3,0,0,1,2944.6,1082.538Z" transform="translate(-12310.562 -10232.859)" fill="#c2d0fd"/>
        <path id="Trazado_874211" data-name="Trazado 874211" d="M2969.982,1157.527h0a11.272,11.272,0,0,0-14.338-6.973h0a11.339,11.339,0,0,0,7.528,21.391h0A11.287,11.287,0,0,0,2969.982,1157.527Z" transform="translate(-12313.73 -10295.92)" fill="#ffda33"/>
        <path id="Trazado_874212" data-name="Trazado 874212" d="M2848.75,1430.566a1.536,1.536,0,0,1,0,.73v19.272a2.022,2.022,0,0,1,.012.834v11.721a.431.431,0,0,1-.417.417l-11.432.046a.458.458,0,0,1-.451-.44h0l-.093-31.665v-.614l-.07-15.844a2.222,2.222,0,0,0,.023-1c.023-2.953.035-5.883.012-8.8a13.12,13.12,0,0,1,.487-4.308,5.815,5.815,0,0,1,4.9-3.938c4.169-.6,6.96,2.872,6.972,6.752Q2848.727,1417.143,2848.75,1430.566Z" transform="translate(-12214.806 -10514.305)" fill="#17aab8"/>
        <path id="Trazado_874213" data-name="Trazado 874213" d="M2513.837,1571.7a2.532,2.532,0,0,0,1.552.012,6.6,6.6,0,0,1,4.505,3.926c.869,2.247.51,6.347.533,9.207a3.027,3.027,0,0,1-.023.857l-.128,32.082a.311.311,0,0,1-.312.313l-11.64-.058a.312.312,0,0,1-.312-.313h0l.069-32.082a1.052,1.052,0,0,1-.069-.9c.092-5.386-1.065-11.42,5.814-13.041Z" transform="translate(-11924.482 -10668.85)" fill="#17aab8"/>
        <path id="Trazado_874214" data-name="Trazado 874214" d="M2291.394,1739.595a.39.39,0,0,1-.394-.394h0v-23.279c0-3.776,2.733-6.822,6.115-6.822h0c3.382,0,6.115,3.058,6.115,6.822V1739.2a.391.391,0,0,1-.394.394h-11.454Z" transform="translate(-11732.661 -10790.336)" fill="#ffda33"/>
        <path id="Trazado_874215" data-name="Trazado 874215" d="M2618.894,1756.613a.391.391,0,0,1-.394-.394h0l.081-21.751a6.051,6.051,0,0,1,6.023-6.069h.278a6.044,6.044,0,0,1,5.976,6.115h0l-.07,21.751a.39.39,0,0,1-.394.394l-11.489-.046Z" transform="translate(-12022.231 -10807.4)" fill="#ffda33"/>
        <path id="Trazado_874216" data-name="Trazado 874216" d="M2728.827,1776.5a.929.929,0,0,1-.927-.927h0l.069-18.068c.012-3.717,2.745-6.717,6.115-6.706h.139c3.359.012,6.081,3.035,6.069,6.741h0l-.058,18.067a.929.929,0,0,1-.926.927h0l-10.458-.046Z" transform="translate(-12118.96 -10827.206)" fill="#17aab8"/>
        <path id="Trazado_874217" data-name="Trazado 874217" d="M2409.212,1776.925a6.85,6.85,0,0,1,2.768,5.675q-.035,7.939.023,15.751a.324.324,0,0,1-.324.324h-11.3a.485.485,0,0,1-.475-.475v-.012q.121-7.313.116-14.79c0-4.98.139-2.872.417-3.614,1.274-3.405,5.768-5.05,8.8-2.861Z" transform="translate(-11828.949 -10849.428)" fill="#ffda33"/>
        <path id="Trazado_874218" data-name="Trazado 874218" d="M2561.99,2001l10.215.116a.193.193,0,0,1,.185.2h0c0,.011-.15,1.749-.15,1.749a.189.189,0,0,1-.185.174l-10.157.127a.194.194,0,0,1-.2-.186h0l.093-1.992a.18.18,0,0,1,.185-.174Z" transform="translate(-11972.009 -11048.43)" fill="#c2d0fd"/>
        <path id="Trazado_874219" data-name="Trazado 874219" d="M2365.359,2003.24h-23.87a.3.3,0,0,1-.29-.3h0v-1.586a.294.294,0,0,1,.29-.29l23.847-.162a.284.284,0,0,1,.289.278h0v1.76a.262.262,0,0,1-.267.29h0Z" transform="translate(-11777.047 -11048.341)" fill="#c2d0fd"/>
        <rect id="Rectángulo_401209" data-name="Rectángulo 401209" width="25.804" height="2.212" rx="1.106" transform="translate(-9398.693 -9047.348)" fill="#c2d0fd"/>
        <rect id="Rectángulo_401210" data-name="Rectángulo 401210" width="10.516" height="2.166" rx="1.083" transform="translate(-9447.329 -9047.271) rotate(-0.2)" fill="#c2d0fd"/>
        <rect id="Rectángulo_401211" data-name="Rectángulo 401211" width="2.143" height="10.864" rx="1.071" transform="matrix(0.005, -1, 1, 0.005, -9371.713, -9045.134)" fill="#c2d0fd"/>
        <rect id="Rectángulo_401212" data-name="Rectángulo 401212" width="2.803" height="3.324" rx="1.401" transform="translate(-9412.225 -9038.965) rotate(-89.9)" fill="#c2d0fd"/>
        <rect id="Rectángulo_401213" data-name="Rectángulo 401213" width="2.201" height="2.201" rx="1.1" transform="matrix(1, -0.007, 0.007, 1, -9436.612, -9041.329)" fill="#fe9e8f"/>
        <rect id="Rectángulo_401214" data-name="Rectángulo 401214" width="2.34" height="2.119" rx="1.06" transform="translate(-9373.377 -9041.223) rotate(-1.1)" fill="#fe9e8f"/>
        <path id="Trazado_874220" data-name="Trazado 874220" d="M2789.084,2207.4l-38.984.058v-6.949a.174.174,0,0,1,.174-.185h0l38.487-.024a.3.3,0,0,1,.29.278l.034,6.811Z" transform="translate(-12138.589 -11224.647)" fill="#ace6e7"/>
        <path id="Trazado_874221" data-name="Trazado 874221" d="M2789,2261.6v5.177h-39l.023-5.119,38.984-.058Z" transform="translate(-12138.5 -11278.848)" fill="#17aab8"/>
        <path id="Trazado_874222" data-name="Trazado 874222" d="M2749.9,2306.3h39.008l-.1,1.274a.531.531,0,0,1-.533.486l-37.792.047a.574.574,0,0,1-.579-.579h0Z" transform="translate(-12138.412 -11318.369)" fill="#c2d0fd"/>
        <rect id="Rectángulo_401215" data-name="Rectángulo 401215" width="38.764" height="2.687" rx="1.343" transform="translate(-9388.524 -8999.492)" fill="#c2d0fd"/>
        <rect id="Rectángulo_401216" data-name="Rectángulo 401216" width="38.811" height="2.675" rx="1.338" transform="translate(-9388.535 -8992.636)" fill="#c2d0fd"/>
        <rect id="Rectángulo_401217" data-name="Rectángulo 401217" width="38.834" height="2.652" rx="1.326" transform="translate(-9388.547 -8985.732)" fill="#c2d0fd"/>
        <path id="Trazado_874223" data-name="Trazado 874223" d="M2103.925,2093.43c.024-2.282-.22-5.2.429-7.123,2.119-6.208,11.929-6.579,11.918,1.088q0,12.387.023,24.773c.023,5.107-.185,11.513.012,17.315a.373.373,0,0,1-.359.382h-.011l-11.64.035a.507.507,0,0,1-.51-.51h0q-.017-18.033.128-35.973Z" transform="translate(-11567.129 -11119.733)" fill="#ffda33"/>
        <path id="Trazado_874224" data-name="Trazado 874224" d="M2444.532,2180.984a4.029,4.029,0,0,1,.811.753,6.763,6.763,0,0,1,2.2,5.061q.07,14.906.023,29.812a.277.277,0,0,1-.289.278h0l-11.755.046a.282.282,0,0,1-.278-.278h0q-.1-14.853.012-29.592c.034-4.945,4.633-8.478,9.265-6.092Z" transform="translate(-11860.157 -11206.883)" fill="#17aab8"/>
        <path id="Trazado_874225" data-name="Trazado 874225" d="M1990.248,2260.289a.647.647,0,0,1-.648-.648h0l.081-23.742a6.569,6.569,0,0,1,6.3-6.8h.162a6.573,6.573,0,0,1,6.254,6.845l-.081,23.743a.648.648,0,0,1-.648.649h0l-11.432-.035Z" transform="translate(-11466.168 -11250.111)" fill="#ffda33"/>
        <path id="Trazado_874226" data-name="Trazado 874226" d="M2337.3,2295.557a.079.079,0,0,1-.081.082h0l-11.953.034a.262.262,0,0,1-.266-.266h0q.052-8.982,0-18.021a13.8,13.8,0,0,1,.417-4.124c1.876-5.246,9.474-5.536,11.42-.162a10.236,10.236,0,0,1,.394,3.312q0,8.669.058,19.133Z" transform="translate(-11762.724 -11285.563)" fill="#17aab8"/>
        <path id="Trazado_874227" data-name="Trazado 874227" d="M2215.543,2378.746a.473.473,0,0,1-.475-.452h0l-.07-8.849a6.17,6.17,0,0,1,5.953-6.347h.244a6.157,6.157,0,0,1,6.046,6.254h0l.069,8.849a.465.465,0,0,1-.463.463l-11.315.093Z" transform="translate(-11665.462 -11368.591)" fill="#17aab8"/>
        <rect id="Rectángulo_401218" data-name="Rectángulo 401218" width="21.635" height="2.073" rx="1.037" transform="translate(-9480.981 -8985.096)" fill="#c2d0fd"/>
        <rect id="Rectángulo_401219" data-name="Rectángulo 401219" width="13.446" height="2.073" rx="1.037" transform="translate(-9458.206 -8985.091) rotate(-0.1)" fill="#c2d0fd"/>
        <rect id="Rectángulo_401220" data-name="Rectángulo 401220" width="24.183" height="2.154" rx="1.077" transform="translate(-9443.77 -8985.166)" fill="#c2d0fd"/>
        <rect id="Rectángulo_401221" data-name="Rectángulo 401221" width="10.725" height="2.073" rx="1.037" transform="translate(-9418.498 -8985.107)" fill="#c2d0fd"/>
        <circle id="Elipse_11596" data-name="Elipse 11596" cx="2.143" cy="2.143" r="2.143" transform="translate(-9461.724 -8978.932) rotate(-22.5)" fill="#ffda33"/>
        <circle id="Elipse_11597" data-name="Elipse 11597" cx="2.073" cy="2.073" r="2.073" transform="translate(-9446.723 -8979.768)" fill="#c2d0fd"/>
        <path id="Trazado_874228" data-name="Trazado 874228" d="M2759.016,2653q-.1.678.834.626c2.2-.116,4.436-.093,6.648-.139a.263.263,0,0,0,.185-.07.23.23,0,0,0,.023-.243.416.416,0,0,0,.359.267q5.559-.035,11.327,0a.4.4,0,0,1,.394.406h0c-.081,2.258-.069,4.528,0,6.8.012.347-.127.475-.417.394l-46.211-.128-.058-7.539q13.29-.07,26.638,0c.139,0,.231-.127.266-.371Z" transform="translate(-12122.674 -11624.916)" fill="#dfe4ff"/>
        <path id="Trazado_874229" data-name="Trazado 874229" d="M2254.979,2656.623l-.023,7.308a.254.254,0,0,1-.243.255c-.822.058-1.679.093-2.56.093q-11.275.052-22.527-.035c-1.6-.011-3.243.047-4.934.186l-.093-7.69a.1.1,0,0,1,.093-.1h0l30.287-.035Z" transform="translate(-11673.95 -11628.1)" fill="#7d6cb4"/>
        <path id="Trazado_874230" data-name="Trazado 874230" d="M2284.009,2656.3l.058,7.54-28.433.139-.093,1.667a.271.271,0,0,0-.057-.243.251.251,0,0,0-.2-.058q-14.976.07-29.985.07a2.494,2.494,0,0,0,0-1.239c1.691-.139,3.336-.208,4.934-.186q11.257.087,22.526.035c.881,0,1.726-.035,2.56-.092a.255.255,0,0,0,.243-.254l.023-7.309,28.41-.058Z" transform="translate(-11674.57 -11627.835)" fill="#ffda33"/>
        <path id="Trazado_874231" data-name="Trazado 874231" d="M2515.48,2721.3l46.211.127c.5.208.567.567.243,1.077a.426.426,0,0,1-.289.174,1.215,1.215,0,0,0-.5.128l-45.528.034-28.2.046a.3.3,0,0,1-.278-.185,2.943,2.943,0,0,1-.093-1.251l28.433-.139Z" transform="translate(-11905.984 -11685.306)" fill="#fefeff"/>
        <path id="Trazado_874232" data-name="Trazado 874232" d="M2486.492,2722.5a2.935,2.935,0,0,0,.093,1.251.289.289,0,0,0,.277.185l28.2-.046-.047,5.154h-28.352a.219.219,0,0,1-.243-.174v-.058l-.023-4.656Z" transform="translate(-11905.43 -11686.366)" fill="#ace6e7"/>
        <path id="Trazado_874233" data-name="Trazado 874233" d="M1934.405,2734.6l.023,4.656a.209.209,0,0,0,.185.232h28.41l46.4-.035h6.312V2773.1l-153.053.058a.476.476,0,0,1-.533-.51l-.046-.915v-29.708l.023-2.293a.312.312,0,0,1,.313-.313l5.907-.069,20.592-.047,15.045.139a.154.154,0,0,0,.151-.151h0V2734.5a.517.517,0,0,1,.035-.127q15.01,0,29.985-.07a.3.3,0,0,1,.2.058A.27.27,0,0,1,1934.405,2734.6Zm40.849,16.9a.6.6,0,0,0-.6-.6h-86.076a.6.6,0,0,0-.6.6h0v.22a.6.6,0,0,0,.6.6h86.076a.6.6,0,0,0,.6-.6Zm-22.457,7a.519.519,0,0,0-.521-.521h-63.642a.519.519,0,0,0-.521.521h0v.266a.519.519,0,0,0,.521.521h63.642a.519.519,0,0,0,.521-.521h0Z" transform="translate(-11353.436 -11696.8)" fill="#7d6cb4"/>
        <path id="Trazado_874234" data-name="Trazado 874234" d="M2733.635,2733.807l45.528-.034c.579-.15.869,0,.846.475-.081,2.062-.081,3.625-.012,4.69l-46.4.035.034-5.154Z" transform="translate(-12124.001 -11696.284)" fill="#ace6e7"/>
        <path id="Trazado_874235" data-name="Trazado 874235" d="M3188.512,2778.458l1.517-.058h8.05a.277.277,0,0,1,.29.278l.093,32.429c-.035.556-.174.834-.429.845-3.2.128-6.382.174-9.532.139v-33.634Z" transform="translate(-12526.214 -11735.793)" fill="#ffda33"/>
        <rect id="Rectángulo_401222" data-name="Rectángulo 401222" width="87.28" height="1.425" rx="0.712" transform="translate(-9465.462 -8945.904)" fill="#c2d0fd"/>
        <rect id="Rectángulo_401223" data-name="Rectángulo 401223" width="64.684" height="1.32" rx="0.66" transform="translate(-9465.322 -8938.826)" fill="#c2d0fd"/>
        <rect id="Rectángulo_401224" data-name="Rectángulo 401224" width="4.911" height="39.621" rx="2.455" transform="translate(-9433.947 -9175.373)" fill="#ffda33"/>
        <rect id="Rectángulo_401225" data-name="Rectángulo 401225" width="4.934" height="38.811" rx="2.467" transform="translate(-9495.099 -9174.689)" fill="#ffda33"/>
        <rect id="Rectángulo_401226" data-name="Rectángulo 401226" width="14.605" height="5.038" rx="2.519" transform="translate(-9460.902 -9159.294) rotate(-89.8)" fill="#ffda33"/>
        <rect id="Rectángulo_401227" data-name="Rectángulo 401227" width="4.957" height="37.954" rx="2.479" transform="translate(-9442.854 -9173.3)" fill="#ffda33"/>
        <path id="Trazado_874236" data-name="Trazado 874236" d="M2205.886,921.5h4.089a.482.482,0,0,1,.487.486l.035,19.944a.489.489,0,0,1-.486.486h-4.088a.482.482,0,0,1-.487-.486l-.035-19.944A.489.489,0,0,1,2205.886,921.5Z" transform="translate(-11656.975 -10093.954)" fill="#ffda33"/>
        <rect id="Rectángulo_401228" data-name="Rectángulo 401228" width="4.957" height="35.012" rx="2.479" transform="translate(-9469.061 -9171.168) rotate(-0.1)" fill="#ffda33"/>
        <rect id="Rectángulo_401229" data-name="Rectángulo 401229" width="5.397" height="34.699" rx="2.699" transform="translate(-9486.715 -9170.509)" fill="#17aab8"/>
        <rect id="Rectángulo_401230" data-name="Rectángulo 401230" width="5.038" height="28.48" rx="2.519" transform="translate(-9477.635 -9164.278)" fill="#ffda33"/>
        <rect id="Rectángulo_401231" data-name="Rectángulo 401231" width="4.969" height="22.26" rx="2.484" transform="translate(-9425.562 -9158.036)" fill="#ffda33"/>
        <rect id="Rectángulo_401232" data-name="Rectángulo 401232" width="14.002" height="4.888" rx="2.444" transform="translate(-9460.104 -9136.051) rotate(-89.9)" fill="#ffda33"/>
        <rect id="Rectángulo_401233" data-name="Rectángulo 401233" width="4.876" height="9.08" rx="2.438" transform="translate(-9451.293 -9144.758) rotate(-0.1)" fill="#ffda33"/>
        <rect id="Rectángulo_401234" data-name="Rectángulo 401234" width="77.818" height="2.131" transform="translate(-9497.254 -9135)" fill="#17aab8"/>
        <rect id="Rectángulo_401235" data-name="Rectángulo 401235" width="15.925" height="10.632" rx="5.316" transform="translate(-9441.974 -9127.263)" fill="#c2d0fd"/>
        <rect id="Rectángulo_401236" data-name="Rectángulo 401236" width="20.071" height="1.39" rx="0.695" transform="translate(-9467.754 -9126.197)" fill="#c2d0fd"/>
        <rect id="Rectángulo_401237" data-name="Rectángulo 401237" width="20.094" height="1.39" rx="0.695" transform="translate(-9467.754 -9122.642)" fill="#c2d0fd"/>
        <rect id="Rectángulo_401238" data-name="Rectángulo 401238" width="20.106" height="1.367" rx="0.683" transform="translate(-9467.767 -9119.074)" fill="#c2d0fd"/>
        <path id="Trazado_874237" data-name="Trazado 874237" d="M610.165,2600.509l-9.265,32.336,28.074,18.762,69.514-9.52L686.154,2595.9Z" transform="translate(-10238.306 -11574.43)" fill="#121834"/>
        <path id="Trazado_874238" data-name="Trazado 874238" d="M118.352,2677.067a354.666,354.666,0,0,0-47.288-21.345c-14.581-5.2-27.287-8.258-37.768-9.08h-.2c-13.18-1.019-22.862,1.552-28.769,7.621A15.388,15.388,0,0,0,0,2665.149a15.656,15.656,0,0,0,4.552,11.014c9.636,9.717,34.41,23.5,97.681,33.969l.116.023,16.157-33.008-.139-.069Z" transform="translate(-9706.998 -11619.102)" fill="#121834"/>
        <path id="Trazado_874239" data-name="Trazado 874239" d="M922.072,2954.8l-9.972,20.373s27.924,18.415,40.548,13.4c0,0,19.087-4.749,7.331-19.121C959.979,2969.451,952.138,2962.282,922.072,2954.8Z" transform="translate(-10513.462 -11891.762)" fill="#ffda33"/>
        <path id="Trazado_874240" data-name="Trazado 874240" d="M1028.553,3039.339l-2.953-1.192,5.582-12.346,2.942,1.193Z" transform="translate(-10613.817 -11954.539)" fill="#3d5dfd"/>
        <path id="Trazado_874241" data-name="Trazado 874241" d="M1077.641,3059.239l-2.941-1.193,5.582-12.346,2.942,1.193Z" transform="translate(-10657.23 -11972.136)" fill="#3d5dfd"/>
        <path id="Trazado_874242" data-name="Trazado 874242" d="M1132.388,3080.332l-2.988-1.1,5.1-12.532,2.988,1.1Z" transform="translate(-10705.595 -11990.702)" fill="#3d5dfd"/>
        <path id="Trazado_874243" data-name="Trazado 874243" d="M924.539,2700.548a351.782,351.782,0,0,1,47.451-20.511c14.616-4.946,27.345-7.783,37.838-8.42h.2c13.192-.776,22.851,1.958,28.711,8.131a15.715,15.715,0,0,1-.382,21.889c-9.706,9.544-34.583,22.9-97.935,32.255H940.3c0,.011-15.9-33.263-15.9-33.263Z" transform="translate(-10524.337 -11641.263)" fill="#121834"/>
        <path id="Trazado_874244" data-name="Trazado 874244" d="M629.076,2966.6l9.821,20.546s-28.074,17.929-40.652,12.694c0,0-19.052-5.085-7.181-19.249C591.065,2980.591,598.963,2973.561,629.076,2966.6Z" transform="translate(-10226.165 -11902.195)" fill="#ffda33"/>
        <path id="Trazado_874245" data-name="Trazado 874245" d="M852.79,3049.885l2.953-1.135-5.49-12.45-2.953,1.146Z" transform="translate(-10456.167 -11963.822)" fill="#3d5dfd"/>
        <path id="Trazado_874246" data-name="Trazado 874246" d="M803.59,3068.974l2.953-1.135-5.49-12.439-2.953,1.136Z" transform="translate(-10412.666 -11980.71)" fill="#3d5dfd"/>
        <path id="Trazado_874247" data-name="Trazado 874247" d="M752.1,3089.167l2.988-1.054-5-12.613-2.988,1.042Z" transform="translate(-10367.572 -11998.483)" fill="#3d5dfd"/>
        <path id="Trazado_874248" data-name="Trazado 874248" d="M841.181,1180.776a4.5,4.5,0,0,0-2.281-3.868.759.759,0,0,0-.475-.1.319.319,0,0,1-.348-.185.615.615,0,0,1-.012-.475,8.585,8.585,0,0,0,.359-1.424c-.22.556-.429,1.135-.614,1.714a2.728,2.728,0,0,1-.556,1c-.579.614-1.274.672-1.274,1.749s.035,1.98.116,2.826a.282.282,0,0,1-.232.3l-.185.023a.523.523,0,0,1-.672-.5l-2.143-13.111a1.07,1.07,0,0,0-.834-.011,2.169,2.169,0,0,1-1.645.718,8.236,8.236,0,0,1-3.289-.672c-3.15-1.309-6.046-2.1-9.184-.2-1.239.741-2.432,1.413-3.59,1.98-3.509,1.749-8.883,2.108-11.987-.776-.15-.139-.243-.116-.278.1l-1.818,13.111c-.868-.927-1.054-2.386-.579-4.366a.352.352,0,0,0-.2-.406,4.063,4.063,0,0,1-2.085-1.83,4.4,4.4,0,0,0-2.988,3.046c-.973,3.81.915,8.767,5.27,9.393a44.617,44.617,0,0,0,3.405,9l-1.193,18.276a18.9,18.9,0,0,0,2.363,2.154,13.689,13.689,0,0,0,2.583,1.784c5.409,3.243,14.848,6.092,26.163-2.421l-.324-6.486c.023-.011.035-.035.058-.046h-.069l-.66-13.423a1.6,1.6,0,0,1,.208-.452,29.033,29.033,0,0,0,2.189-4.679,11.838,11.838,0,0,0,.776-3,.189.189,0,0,0-.139-.232h-.266l.22-.058a3.174,3.174,0,0,0,1.668-.324,7.8,7.8,0,0,0,4.505-8.1Z" transform="translate(-10409.165 -10311.398)" fill="#ffc8ba"/>
        <path id="Trazado_874249" data-name="Trazado 874249" d="M856,989.712a9.864,9.864,0,0,0,1.39-9.335q-1.581-4.534-5.432-5.293a4.118,4.118,0,0,1-1.587-.718c-3.521-2.5-7.6-2.849-12.2-1.042-3.949,1.54-7.3,3.984-11.825,3.359q-1.841-.26-3.822-.521a10.618,10.618,0,0,0-11.431,8.35,32.549,32.549,0,0,0-.128,4.911q.035,2.415-.174,4.934l1.332,9.393a4.014,4.014,0,0,0,2.085,1.83.352.352,0,0,1,.2.406c-.487,1.98-.29,3.44.567,4.366L816.8,997.24q.035-.313.278-.1c3.1,2.884,8.478,2.513,11.987.776,1.158-.579,2.351-1.239,3.59-1.98,3.15-1.9,6.034-1.112,9.184.2a8.235,8.235,0,0,0,3.289.672,2.227,2.227,0,0,0,1.645-.718,1.072,1.072,0,0,1,.834.011l2.143,13.111a.524.524,0,0,0,.672.5l.185-.023a.289.289,0,0,0,.232-.3c-.081-.845-.116-1.783-.116-2.826s.695-1.135,1.274-1.749a2.571,2.571,0,0,0,.556-1c.185-.579.394-1.147.614-1.714a21.4,21.4,0,0,0,3.1-3.857c1.367-2.617,1-5.351-.289-8.084a.405.405,0,0,1,.046-.44Z" transform="translate(-10423.895 -10138.771)" fill="#170807"/>
        <path id="Trazado_874250" data-name="Trazado 874250" d="M855.536,1587.411l.568.984a13.466,13.466,0,0,0,6.254,3.9,34.266,34.266,0,0,0,13.5.66,16.415,16.415,0,0,0,5.4-1.633,16.829,16.829,0,0,0,4.76-2.93,139.951,139.951,0,0,1,1.147,23.314c-.139,3.1-.22,5.085-.232,5.919-.591,6.578-1.031,10.817-1.32,12.682q-3.092,20.118-7.714,40.212l-14.686-.2q-4.986-21.125-7.528-40.246-.834-6.272-1.32-15.253a152.883,152.883,0,0,1,1.158-27.425Z" transform="translate(-10462.262 -10682.731)" fill="#fff"/>
        <path id="Trazado_874251" data-name="Trazado 874251" d="M1121.63,1788.893c.278-.521.3-1.1.533-1.645a.359.359,0,0,1,.429-.231.18.18,0,0,1,.139.208v.012l-15.323,49.929a.261.261,0,0,1-.3.22.085.085,0,0,1-.069-.023l-.185-.047a.414.414,0,0,1-.289-.521h0q3.909-13.411,8.269-26.487c.579-1.714,1.39-4.749,2.235-7.065.336-.915.649-1.853.927-2.791q1.7-5.681,3.382-10.944a3.69,3.69,0,0,1,.255-.626Z" transform="translate(-10685.387 -10859.219)" fill="#645790"/>
        <path id="Trazado_874252" data-name="Trazado 874252" d="M1148.705,1643.6a20.622,20.622,0,0,0-1.448-6.161,85.915,85.915,0,0,0-3.764-8.038l-3.868-7.69-3.845-7.864-.788-1.355q-8.044-15.809-16.238-31.456c-2.629-5.026-5.5-9.474-10.123-12.821-1.969-1.286-3.405-2.154-4.285-2.594q-12.3-6.1-24.287-12.01c-1.9-.938-3.915-1.853-6.046-2.768a.559.559,0,0,1-.324-.324q-1.286-3.093-2.791-6.208a.378.378,0,0,0-.324-.208h-3.752a.986.986,0,0,0-.2.185.4.4,0,0,0-.058.255,44.768,44.768,0,0,0,.452,5.571,140.082,140.082,0,0,1,1.147,23.314c-.139,3.1-.22,5.085-.232,5.918-.591,6.578-1.031,10.817-1.32,12.682q-3.092,20.118-7.714,40.212l24.739.035q3.8,0,4.482,3.9l.139,28.051,7.517-1.957c1.309-.336,2.571-.672,3.776-1a8.551,8.551,0,0,1,3.324-.313c3.637-.162,6.845,2.513,8.235,5.745a4.782,4.782,0,0,1,.359,1.494.763.763,0,0,1-.127.452,4.23,4.23,0,0,1-1.506,1.425c-1.1.765-2.062,1.448-2.884,2.062-.289.22-.394.429-.336.649,2.606,2.235,6.011,3.347,9.138,1.344q9.885-6.324,19.2-12.335c6.764-4.366,14.327-8.93,13.748-18.207Zm-33.715-.776c-1.749,1.552-3.463,3.185-5.154,4.876a26,26,0,0,1-4.065,3.266q-2.207,1.477-4.378,2.861a2.875,2.875,0,0,1-.926.5l-2.421,1.76q-.278.208-.278-.139l-.081-45.424a.064.064,0,0,1,.035-.058.069.069,0,0,1,.092.023h0l3.509,6.694,11.512,21.3,2.2,4.054a.223.223,0,0,1-.058.313Z" transform="translate(-10643.261 -10644.446)" fill="#645790"/>
        <path id="Trazado_874253" data-name="Trazado 874253" d="M236.533,1575.049a152.9,152.9,0,0,1,1.158-27.426l.533-4.795v-.023a.321.321,0,0,0-.313-.324l-3.822-.081-3.544,6.775a.938.938,0,0,0-.857.232l-19.538,9.509q-4.03,1.876-8.073,3.9a38.876,38.876,0,0,0-7.667,4.864l-2.7,2.9-1.888,2.676-17.512,33.089-4.459,8.432-8.3,15.983a58.475,58.475,0,0,0-2.78,5.756c-1.981,4.749-1.934,10.03,1.123,14.373a22.315,22.315,0,0,0,4.563,4.829,63.974,63.974,0,0,0,6.88,4.656q8.391,5.542,16.643,11.153c.845.579,1.842,1.077,2.722,1.633,2.618,1.61,6.428-.417,8.362-2.386l-2.919-2.131-1.876-1.633a.355.355,0,0,1-.127-.371,9.419,9.419,0,0,1,9.358-7.331c1.83.29,3.521.625,5.084,1.008q4.256,1.042,8.976,2.259c.116.151.243.1.394-.162a.7.7,0,0,0,.081-.371c0-.243,0-.486.023-.718l.081-5.455q-.122-9.937-.035-19.863a6.282,6.282,0,0,1,.5-2.8c1.552-3.011,4.772-2.247,7.5-2.386a2.814,2.814,0,0,1,1.367.51.441.441,0,0,0,.486-.046l.51-.382a.667.667,0,0,1,.44-.139q9.816.139,18.23-.011c.174,0,.255-.069.243-.185q-4.986-21.125-7.528-40.247Q237.019,1584.025,236.533,1575.049Zm-68.518,39.633.278-.208A1.242,1.242,0,0,1,168.015,1614.682Zm38.811-6.289c-.023.764-.116,1.552-.116,2.339q-.017,24.148.023,44.717c0,.162-.058.185-.185.081a52.862,52.862,0,0,0-7.262-5.455,42.686,42.686,0,0,1-5.223-4.355c-1.645-1.552-3.255-3.15-4.98-4.61a.241.241,0,0,1-.058-.336l12.335-22.839h0l5.235-9.613C206.756,1608.022,206.837,1608.034,206.826,1608.393Z" transform="translate(-9844.416 -10642.943)" fill="#645790"/>
        <path id="Trazado_874254" data-name="Trazado 874254" d="M718.519,2326.169c.266.428.2.718-.232.857a1.059,1.059,0,0,1-1.2-.278.58.58,0,0,1,.266-.741.918.918,0,0,1,1.17.162Z" transform="translate(-10340.994 -11335.669)" fill="#00044d"/>
        <path id="Trazado_874255" data-name="Trazado 874255" d="M1335.251,2558.458c-1.39-3.231-4.6-5.907-8.235-5.745a8.788,8.788,0,0,0-3.324.313c-1.2.324-2.467.66-3.776,1l-7.516,1.957a17.519,17.519,0,0,1,.162,3.208q-.173,7.626-.081,15.265a6.477,6.477,0,0,0,4.007-1.39l3.277-1.841,2.143-1.2q3.84-2.467,7.737-4.992a3.849,3.849,0,0,1,1.112-.5c-.058-.22.047-.429.336-.649.822-.614,1.784-1.3,2.884-2.061a4.384,4.384,0,0,0,1.506-1.436.69.69,0,0,0,.127-.452,4.479,4.479,0,0,0-.359-1.494Z" transform="translate(-10867.4 -11536.198)" fill="#ffc8ba"/>
        <path id="Trazado_874256" data-name="Trazado 874256" d="M496.4,2554.626a.823.823,0,0,1-.081.371c-.151.255-.278.3-.394.162q-4.725-1.2-8.976-2.258-2.328-.573-5.073-1.008a8.878,8.878,0,0,0-8.524,5.062,8.747,8.747,0,0,0-.834,2.27.348.348,0,0,0,.127.371l1.876,1.633,2.919,2.131q2.693,1.789,5.536,3.532a.615.615,0,0,0,.336.324c.382.2.915.5,1.621.926a16.775,16.775,0,0,1,2.675,1.553l6.683,3.625,1.853.8.289-20.2c-.012.231-.023.474-.023.718Z" transform="translate(-10124.778 -11535.518)" fill="#ffc8ba"/>
        <path id="Trazado_874257" data-name="Trazado 874257" d="M742.851,2300.98a3.08,3.08,0,0,0-3.081-3.081H667.581a3.079,3.079,0,0,0-3.081,3.081v50.056a3.146,3.146,0,0,0,.521,1.726h-.3v.07h.347a3.063,3.063,0,0,0,2.5,1.285h72.178a3.08,3.08,0,0,0,2.548-1.343h.533c0-.012-.5-.07-.5-.07a3.058,3.058,0,0,0,.5-1.668v-50.044Z" transform="translate(-10294.539 -11310.943)" fill="#17aab8"/>
        <rect id="Rectángulo_401239" data-name="Rectángulo 401239" width="85.034" height="6.856" rx="3.428" transform="translate(-9633.815 -8958.909)" fill="#138893"/>
        <circle id="Elipse_11598" data-name="Elipse 11598" cx="5.675" cy="5.675" r="5.675" transform="translate(-9596.973 -8992.358)" fill="#fff"/>
        <path id="Trazado_874258" data-name="Trazado 874258" d="M907.314,1218.3c1.563-.012,2.837.405,2.837.938s-1.251.984-2.814,1-2.837-.405-2.837-.938S905.751,1218.31,907.314,1218.3Z" transform="translate(-10506.743 -10356.379)" fill="#170807"/>
        <ellipse id="Elipse_11599" data-name="Elipse 11599" cx="3.034" cy="2.073" rx="3.034" ry="2.073" transform="translate(-9601.86 -9126.824) rotate(-87.5)" fill="#170807"/>
        <path id="Trazado_874259" data-name="Trazado 874259" d="M1050.224,1231.536a7.317,7.317,0,0,1-4.83-1.355c-.544-.417-.463-.834.255-1.251a5.9,5.9,0,0,1,4.9,1.621.778.778,0,0,1,.278.521c0,.278-.2.428-.591.463Z" transform="translate(-10631.006 -10365.748)" fill="#170807"/>
        <ellipse id="Elipse_11600" data-name="Elipse 11600" cx="3.046" cy="2.073" rx="3.046" ry="2.073" transform="translate(-9586.493 -9126.131) rotate(-87.5)" fill="#170807"/>
        <path id="Trazado_874260" data-name="Trazado 874260" d="M961.282,1377.629l-9.682-.428S954.217,1386.6,961.282,1377.629Z" transform="translate(-10548.388 -10496.877)" fill="#fff"/>
        <g id="Grupo_1099270" data-name="Grupo 1099270" transform="translate(-9641.975 -9197.836)">
          <g id="Grupo_1099269" data-name="Grupo 1099269" transform="translate(0 0)" clip-path="url(#clip-path-2)">
            <path id="Trazado_873350" data-name="Trazado 873350" d="M1110.578,1609.92l5.74,21.885-23.278,6.106-5.74-21.885Z" transform="translate(-1091.746 -1614.86)" fill="#ffd947"/>
          </g>
        </g>
        <g id="Grupo_1099632" data-name="Grupo 1099632" transform="translate(-9591.402 -9197.836)">
          <g id="Grupo_1099269-2" data-name="Grupo 1099269" transform="translate(0 0)" clip-path="url(#clip-path-2)">
            <path id="Trazado_873350-2" data-name="Trazado 873350" d="M1110.578,1609.92l5.74,21.885-23.278,6.106-5.74-21.885Z" transform="translate(-1091.746 -1614.86)" fill="#ffd947"/>
          </g>
        </g>
        <g id="Grupo_1099633" data-name="Grupo 1099633" transform="translate(-9542.867 -9197.838)">
          <g id="Grupo_1099273" data-name="Grupo 1099273" transform="translate(0 0)" clip-path="url(#clip-path-4)">
            <path id="Trazado_873353" data-name="Trazado 873353" d="M1137.427,1854.29l5.74,21.885-23.276,6.1-5.74-21.885Z" transform="translate(-1118.594 -1859.229)" fill="#ffd947"/>
          </g>
        </g>
      </g>
    </g>
  </g>
</svg>
