<svg id="law" xmlns="http://www.w3.org/2000/svg" width="65" height="65" viewBox="0 0 65 65">
  <path id="Trazado_873416" data-name="Trazado 873416" d="M74.716,73.217a5.242,5.242,0,1,0-6.754,0A7.341,7.341,0,0,0,64,79.726v2.1a1.048,1.048,0,0,0,1.048,1.048H77.629a1.048,1.048,0,0,0,1.048-1.048v-2.1A7.341,7.341,0,0,0,74.716,73.217Zm-6.522-3.975a3.145,3.145,0,1,1,3.145,3.145A3.149,3.149,0,0,1,68.194,69.242Zm8.387,11.532H66.1V79.726a5.242,5.242,0,0,1,10.484,0Zm0,0" transform="translate(-55.613 -55.613)" fill="#62529b"/>
  <path id="Trazado_873417" data-name="Trazado 873417" d="M54.016,59.258a1.048,1.048,0,0,0,1.048-1.048V33.048A1.048,1.048,0,0,0,54.016,32H33.048A1.048,1.048,0,0,0,32,33.048V58.21a1.048,1.048,0,0,0,1.048,1.048ZM34.1,34.1H52.968V57.161H34.1Zm0,0" transform="translate(-27.806 -27.806)" fill="#62529b"/>
  <path id="Trazado_873418" data-name="Trazado 873418" d="M32,256H55.065v2.1H32Zm0,0" transform="translate(-27.806 -222.452)" fill="#62529b"/>
  <path id="Trazado_873419" data-name="Trazado 873419" d="M32,288H55.065v2.1H32Zm0,0" transform="translate(-27.806 -250.258)" fill="#62529b"/>
  <path id="Trazado_873420" data-name="Trazado 873420" d="M32,320H73.935v2.1H32Zm0,0" transform="translate(-27.806 -278.065)" fill="#62529b"/>
  <path id="Trazado_873421" data-name="Trazado 873421" d="M32,352H73.935v2.1H32Zm0,0" transform="translate(-27.806 -305.871)" fill="#62529b"/>
  <path id="Trazado_873422" data-name="Trazado 873422" d="M32,384H73.935v2.1H32Zm0,0" transform="translate(-27.806 -333.677)" fill="#62529b"/>
  <path id="Trazado_873423" data-name="Trazado 873423" d="M475.7,136.8l2.01.6a15.659,15.659,0,0,0,.492-2.247l-2.075-.3A13.743,13.743,0,0,1,475.7,136.8Zm0,0" transform="translate(-413.356 -117.183)" fill="#62529b"/>
  <path id="Trazado_873424" data-name="Trazado 873424" d="M49.274,29.355a13.789,13.789,0,0,1-2.922-.313L45.9,31.089a15.582,15.582,0,0,0,2.32.306V56.613H42.983a1.048,1.048,0,0,0-1.048,1.048V62.9H2.1V2.1H41.455A15.746,15.746,0,0,0,37.23,5.615l1.6,1.349A13.629,13.629,0,0,1,62.9,15.726H65A15.744,15.744,0,0,0,49.274,0H1.048A1.048,1.048,0,0,0,0,1.048v62.9A1.048,1.048,0,0,0,1.048,65H42.984a1.042,1.042,0,0,0,.742-.308L50.014,58.4a1.042,1.042,0,0,0,.308-.742V31.414a15.814,15.814,0,0,0,13.164-8.948l-1.895-.9A13.7,13.7,0,0,1,49.274,29.355ZM46.743,58.71l-2.711,2.711V58.71Zm0,0" fill="#62529b"/>
  <path id="Trazado_873425" data-name="Trazado 873425" d="M316,211.9a15.708,15.708,0,0,0,2.246,1.071l.751-1.958a13.673,13.673,0,0,1-1.948-.929Zm0,0" transform="translate(-274.589 -182.558)" fill="#62529b"/>
  <path id="Trazado_873426" data-name="Trazado 873426" d="M256,112.549a15.644,15.644,0,0,0,6,12.355l1.3-1.646a13.562,13.562,0,0,1-5.2-10.709q0-.491.035-.974l-2.092-.149C256.014,111.8,256,112.173,256,112.549Zm0,0" transform="translate(-222.452 -96.824)" fill="#62529b"/>
  <path id="Trazado_873427" data-name="Trazado 873427" d="M262.442,59.235l-1.8-1.083a15.591,15.591,0,0,0-1.885,4.738l2.048.446A13.563,13.563,0,0,1,262.442,59.235Zm0,0" transform="translate(-224.851 -50.532)" fill="#62529b"/>
  <path id="Trazado_873428" data-name="Trazado 873428" d="M301.838,100.715l-.417-2.056A9.44,9.44,0,0,1,290.1,89.414a9.365,9.365,0,0,1,.785-3.774L288.96,84.8a11.537,11.537,0,0,0,10.572,16.145A11.648,11.648,0,0,0,301.838,100.715Zm0,0" transform="translate(-250.258 -73.688)" fill="#62529b"/>
  <path id="Trazado_873429" data-name="Trazado 873429" d="M309.174,51.271l-1.26-1.677a11.594,11.594,0,0,0-2.3,2.305l1.676,1.259A9.507,9.507,0,0,1,309.174,51.271Zm0,0" transform="translate(-265.56 -43.095)" fill="#62529b"/>
  <path id="Trazado_873430" data-name="Trazado 873430" d="M354.166,43.532A11.546,11.546,0,0,0,342.634,32a11.406,11.406,0,0,0-5.032,1.154l.916,1.886a9.339,9.339,0,0,1,4.116-.943,9.44,9.44,0,0,1,8.65,13.21l1.922.84A11.453,11.453,0,0,0,354.166,43.532Zm0,0" transform="translate(-293.359 -27.806)" fill="#62529b"/>
  <path id="Trazado_873431" data-name="Trazado 873431" d="M422.763,164.46l-1.675-1.26a9.571,9.571,0,0,1-1.888,1.889l1.26,1.675A11.583,11.583,0,0,0,422.763,164.46Zm0,0" transform="translate(-364.264 -141.812)" fill="#62529b"/>
  <path id="Trazado_873432" data-name="Trazado 873432" d="M334.677,71.339a7.339,7.339,0,1,0-7.339,7.339A7.348,7.348,0,0,0,334.677,71.339Zm-7.339,5.242a5.242,5.242,0,1,1,5.242-5.242A5.248,5.248,0,0,1,327.339,76.581Zm0,0" transform="translate(-278.065 -55.613)" fill="#62529b"/>
  <path id="Trazado_873433" data-name="Trazado 873433" d="M355.145,96a3.145,3.145,0,1,0,3.145,3.145A3.149,3.149,0,0,0,355.145,96Zm0,4.194a1.048,1.048,0,1,1,1.048-1.048A1.05,1.05,0,0,1,355.145,100.194Zm0,0" transform="translate(-305.871 -83.419)" fill="#62529b"/>
</svg>
