<svg xmlns="http://www.w3.org/2000/svg" width="54.479" height="54.486" viewBox="0 0 54.479 54.486">
  <g id="target-audience" transform="translate(-2 -1.991)">
    <path id="Trazado_873525" data-name="Trazado 873525" d="M31.264,47.528a7.264,7.264,0,1,1,7.264-7.264,7.264,7.264,0,0,1-7.264,7.264Zm0-12.712a5.448,5.448,0,1,0,5.448,5.448A5.448,5.448,0,0,0,31.264,34.816Z" transform="translate(-2.024 -2.854)" fill="#62529b"/>
    <path id="Trazado_873526" data-name="Trazado 873526" d="M41.7,60.9a.908.908,0,0,1-.908-.908V54.54c0-.924-3.526-2.724-9.988-2.724s-9.988,1.8-9.988,2.724v5.448a.908.908,0,1,1-1.816,0V54.54C19,51.559,24.938,50,30.8,50s11.8,1.559,11.8,4.54v5.448A.908.908,0,0,1,41.7,60.9Z" transform="translate(-1.564 -4.418)" fill="#62529b"/>
    <path id="Trazado_873527" data-name="Trazado 873527" d="M48.264,42.528a7.264,7.264,0,1,1,7.264-7.264,7.264,7.264,0,0,1-7.264,7.264Zm0-12.712a5.448,5.448,0,1,0,5.448,5.448,5.448,5.448,0,0,0-5.448-5.448Z" transform="translate(-3.589 -2.393)" fill="#62529b"/>
    <path id="Trazado_873528" data-name="Trazado 873528" d="M58.847,55.9a.908.908,0,0,1-.908-.908V49.54c0-.924-3.526-2.724-9.988-2.724-3.723,0-7.173.649-8.989,1.694a.908.908,0,1,1-.908-1.573C40.165,45.726,43.865,45,47.951,45c5.866,0,11.8,1.559,11.8,4.54v5.448a.908.908,0,0,1-.908.908Z" transform="translate(-3.276 -3.958)" fill="#62529b"/>
    <path id="Trazado_873529" data-name="Trazado 873529" d="M14.264,42.528a7.264,7.264,0,1,1,7.264-7.264,7.264,7.264,0,0,1-7.264,7.264Zm0-12.712a5.448,5.448,0,1,0,5.448,5.448A5.448,5.448,0,0,0,14.264,29.816Z" transform="translate(-0.46 -2.393)" fill="#62529b"/>
    <path id="Trazado_873530" data-name="Trazado 873530" d="M2.908,55.9A.908.908,0,0,1,2,54.988V49.54C2,46.559,7.938,45,13.8,45c4.086,0,7.786.726,9.892,1.938a.908.908,0,1,1-.908,1.573c-1.81-1.045-5.256-1.694-8.984-1.694-6.462,0-9.988,1.8-9.988,2.724v5.448a.908.908,0,0,1-.908.908Z" transform="translate(0 -3.958)" fill="#62529b"/>
    <path id="Trazado_873531" data-name="Trazado 873531" d="M15.9,24.7a.908.908,0,0,1-.849-.587A16.347,16.347,0,0,1,45.639,12.574a.908.908,0,1,1-1.7.641A14.532,14.532,0,1,0,16.746,23.47a.908.908,0,0,1-.529,1.17.92.92,0,0,1-.321.058Z" transform="translate(-1.103 0)" fill="#62529b"/>
    <path id="Trazado_873532" data-name="Trazado 873532" d="M30.9,29.791a10.9,10.9,0,1,1,10.9-10.9,10.9,10.9,0,0,1-10.9,10.9Zm0-19.976a9.08,9.08,0,1,0,9.08,9.08A9.08,9.08,0,0,0,30.9,9.816Z" transform="translate(-1.656 -0.553)" fill="#62529b"/>
    <path id="Trazado_873533" data-name="Trazado 873533" d="M31.448,24.9A5.448,5.448,0,1,1,36.9,19.448,5.448,5.448,0,0,1,31.448,24.9Zm0-9.08a3.632,3.632,0,1,0,3.632,3.632A3.632,3.632,0,0,0,31.448,15.816Z" transform="translate(-2.209 -1.105)" fill="#62529b"/>
    <path id="Trazado_873534" data-name="Trazado 873534" d="M55.515,24.08H47.972a.908.908,0,0,1-.628-.254l-3.509-3.378H31.908a.908.908,0,1,1,0-1.816H43.834l3.509-3.378A.908.908,0,0,1,47.973,15h7.543a.908.908,0,0,1,.63,1.562L53.053,19.54l3.093,2.978a.908.908,0,0,1-.63,1.562Zm-7.173-1.816h4.921l-1.886-1.816H46.453Zm-1.886-3.632h4.925l1.886-1.816H48.342Z" transform="translate(-2.669 -1.197)" fill="#62529b"/>
  </g>
</svg>
