<svg id="target_1_" data-name="target (1)" xmlns="http://www.w3.org/2000/svg" width="53.032" height="53.032" viewBox="0 0 53.032 53.032">
  <g id="Grupo_1099287" data-name="Grupo 1099287" transform="translate(10.306 12.524)">
    <g id="Grupo_1099286" data-name="Grupo 1099286">
      <path id="Trazado_873535" data-name="Trazado 873535" d="M131.143,140.654a.777.777,0,0,0,.777-.777v-.829a6.592,6.592,0,0,0-3.771-5.952,4.711,4.711,0,1,0-6.745-6.367c0-.04,0-.079,0-.119a5.7,5.7,0,1,0-11.394,0c0,.04,0,.079,0,.119a4.711,4.711,0,1,0-6.742,6.369,6.545,6.545,0,0,0-.645.349.777.777,0,1,0,.816,1.322,5.031,5.031,0,0,1,4.888-.211,9.014,9.014,0,0,0-1.685,5.258v4.256h-5.593v-5.024a4.976,4.976,0,0,1,.5-2.181.777.777,0,0,0-1.4-.675,6.518,6.518,0,0,0-.651,2.856v5.8a.777.777,0,0,0,.777.777h6.37V148.1a.777.777,0,0,0,.777.777h1.657a.777.777,0,0,0,0-1.554h-.88v-7.509a7.509,7.509,0,0,1,15.019,0v7.509H112.413a.777.777,0,0,0,0,1.554H124a.777.777,0,0,0,.777-.777v-2.477h6.37a.777.777,0,0,0,.777-.777v-1.657a.777.777,0,1,0-1.554,0v.88h-5.593v-4.256a9.014,9.014,0,0,0-1.685-5.258,5.024,5.024,0,0,1,7.278,4.49v.829A.777.777,0,0,0,131.143,140.654Zm-25.066-8.183a3.159,3.159,0,1,1,3.159-3.159A3.163,3.163,0,0,1,106.077,132.471Zm3.287.881q-.237-.137-.484-.254a4.709,4.709,0,0,0,1.905-3.628,5.74,5.74,0,0,0,1.739,1.862A9.087,9.087,0,0,0,109.365,133.352Zm6.345-2.6a4.143,4.143,0,1,1,4.143-4.143A4.148,4.148,0,0,1,115.71,130.753Zm6.345,2.6a9.087,9.087,0,0,0-3.161-2.021,5.74,5.74,0,0,0,1.739-1.862,4.709,4.709,0,0,0,1.905,3.628Q122.293,133.214,122.055,133.352Zm3.287-.881a3.159,3.159,0,1,1,3.159-3.159A3.163,3.163,0,0,1,125.343,132.471Z" transform="translate(-99.5 -120.913)" fill="#62529b"/>
    </g>
  </g>
  <g id="Grupo_1099289" data-name="Grupo 1099289" transform="translate(0 4.195)">
    <g id="Grupo_1099288" data-name="Grupo 1099288">
      <path id="Trazado_873536" data-name="Trazado 873536" d="M8.131,40.5H3.884A3.889,3.889,0,0,0,0,44.384v4.247a2.331,2.331,0,0,0,4.661,0v-3.47h3.47a2.331,2.331,0,0,0,0-4.661Zm0,3.107H3.884a.777.777,0,0,0-.777.777v4.247a.777.777,0,0,1-1.554,0V44.384a2.333,2.333,0,0,1,2.331-2.331H8.131a.777.777,0,1,1,0,1.554Z" transform="translate(0 -40.5)" fill="#62529b"/>
    </g>
  </g>
  <g id="Grupo_1099291" data-name="Grupo 1099291" transform="translate(42.571 4.195)">
    <g id="Grupo_1099290" data-name="Grupo 1099290">
      <path id="Trazado_873537" data-name="Trazado 873537" d="M417.577,40.5h-4.247a2.331,2.331,0,0,0,0,4.661h3.47v3.47a2.331,2.331,0,0,0,4.661,0V44.384A3.889,3.889,0,0,0,417.577,40.5Zm2.331,8.131a.777.777,0,0,1-1.554,0V44.384a.777.777,0,0,0-.777-.777h-4.247a.777.777,0,0,1,0-1.554h4.247a2.333,2.333,0,0,1,2.331,2.331Z" transform="translate(-411 -40.5)" fill="#62529b"/>
    </g>
  </g>
  <g id="Grupo_1099293" data-name="Grupo 1099293" transform="translate(42.571 38.376)">
    <g id="Grupo_1099292" data-name="Grupo 1099292">
      <path id="Trazado_873538" data-name="Trazado 873538" d="M419.131,370.5a2.333,2.333,0,0,0-2.331,2.331v3.47h-3.47a2.331,2.331,0,1,0,0,4.661h4.247a3.889,3.889,0,0,0,3.884-3.884v-4.247A2.333,2.333,0,0,0,419.131,370.5Zm.777,6.577a2.333,2.333,0,0,1-2.331,2.331h-4.247a.777.777,0,0,1,0-1.554h4.247a.777.777,0,0,0,.777-.777v-4.247a.777.777,0,0,1,1.554,0Z" transform="translate(-411 -370.5)" fill="#62529b"/>
    </g>
  </g>
  <g id="Grupo_1099295" data-name="Grupo 1099295" transform="translate(0 38.376)">
    <g id="Grupo_1099294" data-name="Grupo 1099294">
      <path id="Trazado_873539" data-name="Trazado 873539" d="M8.131,376.3H4.661v-3.47a2.331,2.331,0,0,0-4.661,0v4.247a3.889,3.889,0,0,0,3.884,3.884H8.131a2.331,2.331,0,1,0,0-4.661Zm0,3.107H3.884a2.333,2.333,0,0,1-2.331-2.331v-4.247a.777.777,0,0,1,1.554,0v4.247a.777.777,0,0,0,.777.777H8.131a.777.777,0,0,1,0,1.554Z" transform="translate(0 -370.5)" fill="#62529b"/>
    </g>
  </g>
  <g id="Grupo_1099297" data-name="Grupo 1099297" transform="translate(24.186)">
    <g id="Grupo_1099296" data-name="Grupo 1099296">
      <path id="Trazado_873540" data-name="Trazado 873540" d="M235.831,0A2.333,2.333,0,0,0,233.5,2.331V6.474a2.331,2.331,0,0,0,4.661,0V2.331A2.333,2.333,0,0,0,235.831,0Zm.777,6.474a.777.777,0,0,1-1.554,0V2.331a.777.777,0,0,1,1.554,0Z" transform="translate(-233.5)" fill="#62529b"/>
    </g>
  </g>
  <g id="Grupo_1099299" data-name="Grupo 1099299" transform="translate(24.186 44.228)">
    <g id="Grupo_1099298" data-name="Grupo 1099298">
      <path id="Trazado_873541" data-name="Trazado 873541" d="M235.831,427a2.333,2.333,0,0,0-2.331,2.331v4.143a2.331,2.331,0,0,0,4.661,0v-4.143A2.333,2.333,0,0,0,235.831,427Zm.777,6.474a.777.777,0,0,1-1.554,0v-4.143a.777.777,0,0,1,1.554,0Z" transform="translate(-233.5 -427)" fill="#62529b"/>
    </g>
  </g>
  <g id="Grupo_1099301" data-name="Grupo 1099301" transform="translate(44.228 24.186)">
    <g id="Grupo_1099300" data-name="Grupo 1099300">
      <path id="Trazado_873542" data-name="Trazado 873542" d="M433.474,233.5h-4.143a2.331,2.331,0,0,0,0,4.661h4.143a2.331,2.331,0,0,0,0-4.661Zm0,3.107h-4.143a.777.777,0,0,1,0-1.554h4.143a.777.777,0,0,1,0,1.554Z" transform="translate(-427 -233.5)" fill="#62529b"/>
    </g>
  </g>
  <g id="Grupo_1099303" data-name="Grupo 1099303" transform="translate(0 24.186)">
    <g id="Grupo_1099302" data-name="Grupo 1099302">
      <path id="Trazado_873543" data-name="Trazado 873543" d="M6.474,233.5H2.331a2.331,2.331,0,0,0,0,4.661H6.474a2.331,2.331,0,0,0,0-4.661Zm0,3.107H2.331a.777.777,0,0,1,0-1.554H6.474a.777.777,0,0,1,0,1.554Z" transform="translate(0 -233.5)" fill="#62529b"/>
    </g>
  </g>
  <g id="Grupo_1099305" data-name="Grupo 1099305" transform="translate(22.088 28.76)">
    <g id="Grupo_1099304" data-name="Grupo 1099304">
      <path id="Trazado_873544" data-name="Trazado 873544" d="M222.032,277.8a.777.777,0,0,0-1.081.2l-3.354,4.832-3.021-3a.777.777,0,1,0-1.1,1.1l3.678,3.656a.776.776,0,0,0,.547.226c.023,0,.047,0,.071,0a.777.777,0,0,0,.568-.331l3.883-5.593A.777.777,0,0,0,222.032,277.8Z" transform="translate(-213.251 -277.661)" fill="#62529b"/>
    </g>
  </g>
</svg>
