<svg xmlns="http://www.w3.org/2000/svg" width="64" height="55" viewBox="0 0 64 55">
  <g id="location" transform="translate(0 -4.5)">
    <path id="Trazado_873557" data-name="Trazado 873557" d="M63,55.5H1a1,1,0,0,1-.832-1.555l10-15a1,1,0,1,1,1.664,1.109L2.868,53.5H61.132L52.168,40.055a1,1,0,1,1,1.664-1.109l10,15A1,1,0,0,1,63,55.5Z" fill="#62529b"/>
    <path id="Trazado_873558" data-name="Trazado 873558" d="M63,59.5H1a1,1,0,0,1-1-1v-4a1,1,0,0,1,1-1H63a1,1,0,0,1,1,1v4a1,1,0,0,1-1,1Zm-61-2H62v-2H2Z" fill="#62529b"/>
    <path id="Trazado_873559" data-name="Trazado 873559" d="M9.849,55.5a1,1,0,0,1-.9-1.431l5.243-11a1,1,0,0,1,1.8.861l-5.243,11a1,1,0,0,1-.9.569Z" fill="#62529b"/>
    <path id="Trazado_873560" data-name="Trazado 873560" d="M20.134,50.5a1,1,0,0,1-.962-1.275l1.434-5a1,1,0,1,1,1.922.551l-1.434,5a1,1,0,0,1-.96.725Z" fill="#62529b"/>
    <path id="Trazado_873561" data-name="Trazado 873561" d="M54.151,55.5a1,1,0,0,1-.9-.569l-1.908-4a1,1,0,0,1,1.8-.861l1.908,4a1,1,0,0,1-.9,1.431Z" fill="#62529b"/>
    <path id="Trazado_873562" data-name="Trazado 873562" d="M50.335,47.5a1,1,0,0,1-.9-.569l-3.334-7a1,1,0,1,1,1.8-.861l3.334,7a1,1,0,0,1-.9,1.431Z" fill="#62529b"/>
    <path id="Trazado_873563" data-name="Trazado 873563" d="M43.866,50.5a1,1,0,0,1-.96-.725l-1.434-5a1,1,0,0,1,1.922-.551l1.434,5a1,1,0,0,1-.962,1.275Z" fill="#62529b"/>
    <path id="Trazado_873564" data-name="Trazado 873564" d="M15.094,44.5H8.333a1,1,0,0,1,0-2h6.761a1,1,0,0,1,0,2Z" fill="#62529b"/>
    <path id="Trazado_873565" data-name="Trazado 873565" d="M60.333,51.5H52.244a1,1,0,0,1,0-2h8.089a1,1,0,0,1,0,2Z" fill="#62529b"/>
    <path id="Trazado_873566" data-name="Trazado 873566" d="M57.667,47.5h-7.33a1,1,0,0,1,0-2h7.33a1,1,0,0,1,0,2Z" fill="#62529b"/>
    <path id="Trazado_873567" data-name="Trazado 873567" d="M30,45.5H21.566a1,1,0,1,1,0-2H30a1,1,0,0,1,0,2Z" fill="#62529b"/>
    <path id="Trazado_873568" data-name="Trazado 873568" d="M42.434,45.5H34.093a1,1,0,0,1,0-2h8.341a1,1,0,1,1,0,2Z" fill="#62529b"/>
    <path id="Trazado_873569" data-name="Trazado 873569" d="M43.867,50.5H20.133a1,1,0,1,1,0-2H43.867a1,1,0,0,1,0,2Z" fill="#62529b"/>
    <path id="Trazado_873570" data-name="Trazado 873570" d="M32,47.5a1,1,0,0,1-.659-.248C30.715,46.7,16,33.659,16,20.5a16,16,0,1,1,32,0c0,13.159-14.715,26.2-15.341,26.752A1,1,0,0,1,32,47.5Zm0-41a14.016,14.016,0,0,0-14,14c0,10.734,11.144,21.944,14,24.641,2.856-2.7,14-13.906,14-24.641A14.016,14.016,0,0,0,32,6.5Z" fill="#62529b"/>
    <path id="Trazado_873571" data-name="Trazado 873571" d="M25.427,40.5H11a1,1,0,0,1,0-2H25.427a1,1,0,1,1,0,2Z" fill="#62529b"/>
    <path id="Trazado_873572" data-name="Trazado 873572" d="M53,40.5H38.572a1,1,0,1,1,0-2H53a1,1,0,0,1,0,2Z" fill="#62529b"/>
    <path id="Trazado_873573" data-name="Trazado 873573" d="M32,30.5a9,9,0,1,1,9-9,9,9,0,0,1-9,9Zm0-16a7,7,0,1,0,7,7A7,7,0,0,0,32,14.5Z" fill="#62529b"/>
    <path id="Trazado_873574" data-name="Trazado 873574" d="M32,17.5a1,1,0,0,1-1-1v-6a1,1,0,0,1,2,0v6a1,1,0,0,1-1,1Z" fill="#62529b"/>
    <path id="Trazado_873575" data-name="Trazado 873575" d="M32,33.5a1,1,0,0,1-1-1v-6a1,1,0,1,1,2,0v6a1,1,0,0,1-1,1Z" fill="#62529b"/>
    <path id="Trazado_873576" data-name="Trazado 873576" d="M43,22.5H37a1,1,0,0,1,0-2h6a1,1,0,0,1,0,2Z" fill="#62529b"/>
    <path id="Trazado_873577" data-name="Trazado 873577" d="M27,22.5H21a1,1,0,0,1,0-2h6a1,1,0,0,1,0,2Z" fill="#62529b"/>
  </g>
</svg>
