<svg id="customer" xmlns="http://www.w3.org/2000/svg" width="64.479" height="64.479" viewBox="0 0 64.479 64.479">
  <g id="Grupo_1099307" data-name="Grupo 1099307" transform="translate(5.373 5.373)">
    <path id="Trazado_873578" data-name="Trazado 873578" d="M28.866,55.732A26.866,26.866,0,1,1,55.732,28.866,26.945,26.945,0,0,1,28.866,55.732Zm0-51.045A24.179,24.179,0,1,0,53.045,28.866,24.079,24.079,0,0,0,28.866,4.687Z" transform="translate(-2 -2)" fill="#62529b"/>
  </g>
  <g id="Grupo_1099308" data-name="Grupo 1099308" transform="translate(30.896)">
    <path id="Trazado_873579" data-name="Trazado 873579" d="M12.843,13.433A1.269,1.269,0,0,1,11.5,12.09V1.343A1.269,1.269,0,0,1,12.843,0a1.269,1.269,0,0,1,1.343,1.343V12.09A1.269,1.269,0,0,1,12.843,13.433Z" transform="translate(-11.5)" fill="#62529b"/>
  </g>
  <g id="Grupo_1099309" data-name="Grupo 1099309" transform="translate(30.896)">
    <path id="Trazado_873580" data-name="Trazado 873580" d="M12.843,13.433A1.269,1.269,0,0,1,11.5,12.09V1.343A1.269,1.269,0,0,1,12.843,0a1.269,1.269,0,0,1,1.343,1.343V12.09A1.269,1.269,0,0,1,12.843,13.433Z" transform="translate(-11.5)" fill="#62529b"/>
  </g>
  <g id="Grupo_1099310" data-name="Grupo 1099310" transform="translate(51.045 30.896)">
    <path id="Trazado_873581" data-name="Trazado 873581" d="M31.09,14.187H20.343A1.269,1.269,0,0,1,19,12.843,1.269,1.269,0,0,1,20.343,11.5H31.09a1.269,1.269,0,0,1,1.343,1.343A1.269,1.269,0,0,1,31.09,14.187Z" transform="translate(-19 -11.5)" fill="#62529b"/>
  </g>
  <g id="Grupo_1099311" data-name="Grupo 1099311" transform="translate(30.896 51.045)">
    <path id="Trazado_873582" data-name="Trazado 873582" d="M12.843,32.433A1.269,1.269,0,0,1,11.5,31.09V20.343A1.269,1.269,0,0,1,12.843,19a1.269,1.269,0,0,1,1.343,1.343V31.09A1.269,1.269,0,0,1,12.843,32.433Z" transform="translate(-11.5 -19)" fill="#62529b"/>
  </g>
  <g id="Grupo_1099312" data-name="Grupo 1099312" transform="translate(0 30.896)">
    <path id="Trazado_873583" data-name="Trazado 873583" d="M12.09,14.187H1.343A1.269,1.269,0,0,1,0,12.843,1.269,1.269,0,0,1,1.343,11.5H12.09a1.269,1.269,0,0,1,1.343,1.343A1.269,1.269,0,0,1,12.09,14.187Z" transform="translate(0 -11.5)" fill="#62529b"/>
  </g>
  <g id="Grupo_1099313" data-name="Grupo 1099313" transform="translate(26.866 18.806)">
    <path id="Trazado_873584" data-name="Trazado 873584" d="M15.373,17.746a5.373,5.373,0,1,1,5.373-5.373A5.389,5.389,0,0,1,15.373,17.746Zm0-8.06a2.538,2.538,0,0,0-2.687,2.687,2.538,2.538,0,0,0,2.687,2.687,2.538,2.538,0,0,0,2.687-2.687A2.538,2.538,0,0,0,15.373,9.687Z" transform="translate(-10 -7)" fill="#62529b"/>
  </g>
  <g id="Grupo_1099314" data-name="Grupo 1099314" transform="translate(21.493 32.239)">
    <path id="Trazado_873585" data-name="Trazado 873585" d="M28.15,22.746A1.269,1.269,0,0,1,26.806,21.4V18.717a4.132,4.132,0,0,0-4.03-4.03h-8.06a4.132,4.132,0,0,0-4.03,4.03V21.4a1.269,1.269,0,0,1-1.343,1.343A1.269,1.269,0,0,1,8,21.4V18.717A6.651,6.651,0,0,1,14.717,12h8.06a6.651,6.651,0,0,1,6.717,6.717V21.4A1.269,1.269,0,0,1,28.15,22.746Z" transform="translate(-8 -12)" fill="#62529b"/>
  </g>
</svg>
