<svg xmlns="http://www.w3.org/2000/svg" width="55.915" height="55.915" viewBox="0 0 55.915 55.915">
  <g id="thinking" transform="translate(0)">
    <path id="Trazado_873591" data-name="Trazado 873591" d="M250.167,89.214h1.638v1.638h-1.638Z" transform="translate(-222.846 -79.471)" fill="#62529b"/>
    <path id="Trazado_873592" data-name="Trazado 873592" d="M220.167,74.213h1.638v1.638h-1.638Z" transform="translate(-196.123 -66.108)" fill="#62529b"/>
    <path id="Trazado_873593" data-name="Trazado 873593" d="M41.325,80.8a16.508,16.508,0,0,0-4.777-2.545l-.81-.307V62.638a4.091,4.091,0,0,0,1.638-3.274V57.726a2.461,2.461,0,0,0-1.638-2.316V51.424A13.91,13.91,0,0,0,12.633,40.973l1.082,1.23A12.272,12.272,0,0,1,34.1,51.424v3.845H20.177A3.289,3.289,0,0,1,16.9,51.993V47.9H15.263v3.344a4.928,4.928,0,0,0-4.028,4.027H9.529V51.424a12.259,12.259,0,0,1,3.065-8.1l-1.23-1.082A13.9,13.9,0,0,0,7.89,51.424V55.41a2.461,2.461,0,0,0-1.638,2.316v1.638a4.091,4.091,0,0,0,1.638,3.274V77.947l-.811.31C3.4,79.66,0,81.518,0,85.574V89.32H32.981V87.682H26.754l.852-5.034,1.822-1.5a2.739,2.739,0,0,0,.528-3.383l-.155-.32,6.166,2.341c3.616,1.373,6.024,2.882,6.024,5.787v2.108H37.9V89.32h5.733V85.574a6.044,6.044,0,0,0-2.3-4.774ZM32.462,56.907h2.457a.82.82,0,0,1,.819.819v1.638a2.46,2.46,0,0,1-2.457,2.457h-.819ZM12.8,56.088a3.283,3.283,0,0,1,2.541-3.193,4.933,4.933,0,0,0,4.831,4.013H30.824V62.64a8.883,8.883,0,0,1-.481,2.887c-.078-.015-.158-.027-.238-.035a2.454,2.454,0,0,0-1.808.548L21.045,72l.392-2.479a2.662,2.662,0,0,0-1.9-2.894l-1.9-.554-1.478,3.563a8.972,8.972,0,0,1-3.354-7ZM7.89,59.364V57.726a.82.82,0,0,1,.819-.819h2.457v4.914h-.819A2.46,2.46,0,0,1,7.89,59.364Zm1.638,4.013a4.1,4.1,0,0,0,.819.082h.85a10.612,10.612,0,0,0,4.311,7.747l-1.3,3.133.112,1.152-4.793,1.83V63.377Zm-7.89,22.2c0-2.894,2.409-4.406,6.026-5.787l6.822-2.6.312,3.2-8.49,7.3H1.638Zm23.454,2.108H19.864l1.7-1.6,3.06-.981,1.05-.864Zm3.3-7.8-4.56,3.749-3.115,1-3.237,3.049H8.822l7.689-6.608-.632-6.484,2.708-6.528.485.142a1.027,1.027,0,0,1,.746,1.066l-.68,4.3-.777.639,1.04,1.265,9.935-8.168a.832.832,0,0,1,1.056,1.285l-6.649,5.467,1.04,1.265,1.547-1.272,2.15,4.43a1.174,1.174,0,0,1-.095,1.4Zm-.754-6.9,3.8-3.125a2.474,2.474,0,0,0,.342-3.472,10.48,10.48,0,0,0,.655-2.925h.85a4.1,4.1,0,0,0,.819-.082V77.326L28.758,75.3Z" transform="translate(0 -33.405)" fill="#62529b"/>
    <path id="Trazado_873594" data-name="Trazado 873594" d="M317,497h1.638v1.638H317Z" transform="translate(-282.381 -442.723)" fill="#62529b"/>
    <path id="Trazado_873595" data-name="Trazado 873595" d="M356.01,0a9.01,9.01,0,0,0-5.337,16.269,4.1,4.1,0,0,0,7.6,1.462A9.011,9.011,0,0,0,356.01,0Zm1.54,16.22-.408.087-.17.381a2.458,2.458,0,0,1-4.7-.9l-.016-.416-.346-.232a7.371,7.371,0,1,1,5.64,1.083Z" transform="translate(-309.104)" fill="#62529b"/>
    <path id="Trazado_873596" data-name="Trazado 873596" d="M360.215,187.258a2.457,2.457,0,1,0,2.457,2.457A2.46,2.46,0,0,0,360.215,187.258Zm0,3.276a.819.819,0,1,1,.819-.819A.82.82,0,0,1,360.215,190.534Z" transform="translate(-318.688 -166.808)" fill="#62529b"/>
    <path id="Trazado_873597" data-name="Trazado 873597" d="M452,75h1.638v1.638H452Z" transform="translate(-402.638 -66.809)" fill="#62529b"/>
    <path id="Trazado_873598" data-name="Trazado 873598" d="M392,75h1.638v1.638H392Z" transform="translate(-349.19 -66.809)" fill="#62529b"/>
    <path id="Trazado_873599" data-name="Trazado 873599" d="M422,75h1.638v1.638H422Z" transform="translate(-375.914 -66.809)" fill="#62529b"/>
  </g>
</svg>
