<svg xmlns="http://www.w3.org/2000/svg" width="55.915" height="53.863" viewBox="0 0 55.915 53.863">
  <g id="emotions" transform="translate(0 -9.396)">
    <g id="Grupo_1099315" data-name="Grupo 1099315" transform="translate(0 9.395)">
      <path id="Trazado_873600" data-name="Trazado 873600" d="M133.592,47.292l-1.663-3.683a1.963,1.963,0,0,1-.119-1.308,13.207,13.207,0,0,0-12.7-16.653h-.085a13.258,13.258,0,0,0-3.514.474A13.229,13.229,0,0,0,102.634,9.4a13.232,13.232,0,0,0-7.217,2.2.819.819,0,0,0,.9,1.366,11.6,11.6,0,0,1,6.326-1.923h.1a11.58,11.58,0,0,1,10.8,15.8,13.264,13.264,0,0,0-6.588,6.6,11.456,11.456,0,0,1-4.144.8h-.068a11.585,11.585,0,0,1-7.6-2.838,3.509,3.509,0,0,0-2.3-.849h-3.7l1.827-3.164a3.533,3.533,0,0,0,.408-2.459,11.723,11.723,0,0,1-.218-2.7,11.513,11.513,0,0,1,2.526-6.853.819.819,0,0,0-1.279-1.024,13.139,13.139,0,0,0-2.885,7.82,13.358,13.358,0,0,0,.249,3.074,1.9,1.9,0,0,1-.22,1.319l-2.014,3.488a1.423,1.423,0,0,0,1.232,2.134h4.075a1.871,1.871,0,0,1,1.231.447,13.221,13.221,0,0,0,8.676,3.24h.078a13.079,13.079,0,0,0,3.428-.477,13.19,13.19,0,0,0-.39,2.061.819.819,0,1,0,1.629.176,11.6,11.6,0,0,1,11.529-10.339h.074a11.6,11.6,0,0,1,11.13,14.593,3.6,3.6,0,0,0,.208,2.4l1.509,3.343-3.266-.326a3.528,3.528,0,0,0-2.531.731,11.475,11.475,0,0,1-7.125,2.448h-.056a11.521,11.521,0,0,1-7.281-2.7,11.819,11.819,0,0,1-4.019-6.589.819.819,0,1,0-1.6.339,13.463,13.463,0,0,0,4.573,7.509,13.164,13.164,0,0,0,8.321,3.079h.064a13.1,13.1,0,0,0,8.132-2.795,1.9,1.9,0,0,1,1.36-.392l3.638.363a1.422,1.422,0,0,0,1.438-2Z" transform="translate(-77.804 -9.395)" fill="#62529b"/>
      <path id="Trazado_873601" data-name="Trazado 873601" d="M159.087,132.4a8.507,8.507,0,0,0,8.5-8.5.819.819,0,1,0-1.638,0,6.86,6.86,0,1,1-13.719,0,.819.819,0,0,0-1.638,0A8.507,8.507,0,0,0,159.087,132.4Z" transform="translate(-134.143 -110.666)" fill="#62529b"/>
      <path id="Trazado_873602" data-name="Trazado 873602" d="M191.284,84.259v-2.83a.819.819,0,1,0-1.638,0v2.83a.819.819,0,1,0,1.638,0Z" transform="translate(-168.935 -72.833)" fill="#62529b"/>
      <path id="Trazado_873603" data-name="Trazado 873603" d="M253.791,84.259v-2.83a.819.819,0,0,0-1.638,0v2.83a.819.819,0,0,0,1.638,0Z" transform="translate(-224.615 -72.833)" fill="#62529b"/>
      <path id="Trazado_873604" data-name="Trazado 873604" d="M304.944,278.948a8,8,0,0,0,15.786,0,1.84,1.84,0,0,0-1.817-2.136H306.761a1.84,1.84,0,0,0-1.817,2.136Zm1.661-.425a.2.2,0,0,1,.157-.073h12.151a.2.2,0,0,1,.157.073.189.189,0,0,1,.044.157,6.364,6.364,0,0,1-12.553,0A.19.19,0,0,1,306.6,278.523Z" transform="translate(-271.619 -247.608)" fill="#62529b"/>
      <path id="Trazado_873605" data-name="Trazado 873605" d="M309.86,222.353a.819.819,0,0,0,.819-.819,1.623,1.623,0,0,1,3.246,0,.819.819,0,1,0,1.638,0,3.261,3.261,0,0,0-6.523,0A.819.819,0,0,0,309.86,222.353Z" transform="translate(-275.291 -195.462)" fill="#62529b"/>
      <path id="Trazado_873606" data-name="Trazado 873606" d="M387.707,221.534a1.623,1.623,0,0,1,3.246,0,.819.819,0,1,0,1.638,0,3.261,3.261,0,0,0-6.523,0,.819.819,0,1,0,1.638,0Z" transform="translate(-343.907 -195.462)" fill="#62529b"/>
      <path id="Trazado_873607" data-name="Trazado 873607" d="M14.612,260.231a13.138,13.138,0,0,0-11.82,7.419.819.819,0,0,0,1.473.716,11.51,11.51,0,0,1,10.357-6.5H14.7a11.6,11.6,0,0,1,11.6,11.706,11.785,11.785,0,0,1-11.541,11.487H14.7a11.475,11.475,0,0,1-7.125-2.448,3.527,3.527,0,0,0-2.531-.73l-3.266.326,1.509-3.343a3.605,3.605,0,0,0,.208-2.4,11.64,11.64,0,0,1-.379-3.546c.017-.373.053-.751.106-1.123a.819.819,0,0,0-1.622-.231c-.06.423-.1.853-.12,1.278a13.277,13.277,0,0,0,.432,4.044,1.963,1.963,0,0,1-.119,1.308L.128,281.876a1.423,1.423,0,0,0,1.438,2l3.638-.363a1.9,1.9,0,0,1,1.36.392A13.1,13.1,0,0,0,14.7,286.7h.063a13.125,13.125,0,0,0,9.226-3.9,13.187,13.187,0,0,0-9.374-22.567Z" transform="translate(0 -232.837)" fill="#62529b"/>
      <path id="Trazado_873608" data-name="Trazado 873608" d="M71.909,331.5a.819.819,0,0,0-.819.819,1.623,1.623,0,1,1-3.246,0,.819.819,0,0,0-1.638,0,3.261,3.261,0,0,0,6.523,0A.819.819,0,0,0,71.909,331.5Z" transform="translate(-58.975 -296.324)" fill="#62529b"/>
      <path id="Trazado_873609" data-name="Trazado 873609" d="M149.757,332.32a.819.819,0,0,0-1.638,0,1.623,1.623,0,1,1-3.246,0,.819.819,0,0,0-1.638,0,3.261,3.261,0,1,0,6.523,0Z" transform="translate(-127.591 -296.324)" fill="#62529b"/>
      <path id="Trazado_873610" data-name="Trazado 873610" d="M79.7,392.449a.819.819,0,0,0,1.62.243,4.416,4.416,0,0,1,8.732,0,.819.819,0,0,0,1.62-.243,6.054,6.054,0,0,0-11.972,0Z" transform="translate(-70.985 -346.029)" fill="#62529b"/>
    </g>
  </g>
</svg>
