<svg id="Page-1" xmlns="http://www.w3.org/2000/svg" width="54.262" height="54.262" viewBox="0 0 54.262 54.262">
  <g id="_001---Thinking" data-name="001---Thinking" transform="translate(0 0)">
    <path id="Shape" d="M48.278,34.814a6.635,6.635,0,0,1-.939.543c-.392.2-1.046.534-1.092.77a1.562,1.562,0,0,0,.106.915c.135.289.277.538.4.753.332.584.885,1.564.05,2.247-.2.181-.533.442-.841.678a2.279,2.279,0,0,1,.295,1.3,1.3,1.3,0,0,1-.531.886c-.2.145-.421.271-.633.393-.532.3-.74.444-.814.723a2.5,2.5,0,0,0,.1,1.1c.053.235.1.469.138.71a5.316,5.316,0,0,1-.306,2.436A3.389,3.389,0,0,1,41,50.738a3.679,3.679,0,0,1-.739-.078,68.563,68.563,0,0,1-7.624-2.282c-2.037,1.2-3.324,4.831-3.66,6.2a.9.9,0,0,1-.878.685L5.405,55.2a.9.9,0,0,1-.861-1.176A6.986,6.986,0,0,1,5.46,52.3a8.393,8.393,0,0,0,.586-.977,17.218,17.218,0,0,0,1.021-2.575,30.476,30.476,0,0,0,1.07-5.35A15.309,15.309,0,0,0,6.949,35.46a20.215,20.215,0,0,0-2.456-3.882c-.543-.733-1.106-1.491-1.612-2.288a13.987,13.987,0,0,1-1.863-4.4.9.9,0,0,1,1.762-.409,12.209,12.209,0,0,0,1.628,3.843c.469.742,1.012,1.473,1.537,2.18a21.854,21.854,0,0,1,2.661,4.237,17.108,17.108,0,0,1,1.326,8.881,32.1,32.1,0,0,1-1.14,5.673A18.86,18.86,0,0,1,7.67,52.124a9.886,9.886,0,0,1-.7,1.176l-.061.09,20.512.061A14.421,14.421,0,0,1,30.6,47.676l-.814-.283c-.608-.213-1.066-.373-1.3-.452-3.872-1.234-5.809-3-5.756-5.245a.888.888,0,0,1,.923-.878.9.9,0,0,1,.883.925c-.022.925.741,2.28,4.5,3.477.246.079.723.244,1.348.464.672.234,1.524.533,2.464.852h.006a70.428,70.428,0,0,0,7.772,2.351,1.611,1.611,0,0,0,1.863-1.2,3.617,3.617,0,0,0,.223-1.6c-.026-.181-.069-.371-.11-.555a3.946,3.946,0,0,1-.09-1.947,3,3,0,0,1,1.669-1.846l.194-.111a3.328,3.328,0,0,0-.349-.561.9.9,0,0,1,.175-1.288c.216-.159.723-.543,1.1-.845-.043-.079-.09-.165-.137-.243-.142-.25-.3-.543-.462-.874a3.376,3.376,0,0,1-.241-2.023c.216-1.1,1.273-1.644,2.045-2.038a5.229,5.229,0,0,0,.745-.433,3.852,3.852,0,0,0,.543-.44c0-.137-.147-.469-.836-1.308a36.486,36.486,0,0,1-4.137-6.724,2.688,2.688,0,0,1-.349-1.223A3.165,3.165,0,0,1,43.8,21.362c.366-.336.713-.653.751-.92a1.777,1.777,0,0,0-.146-.643c-.147-.387-.318-.767-.488-1.148a13.274,13.274,0,0,1-.9-2.452,24.256,24.256,0,0,0-.814-2.992,15.5,15.5,0,0,0-3.245-5.3c-1.729-1.831-4.451-3.126-8.1-3.852a58.766,58.766,0,0,0-8.484-1.223,19.8,19.8,0,0,0-2.88.061A.906.906,0,0,1,19.32,1.09a22,22,0,0,1,3.143-.062A60.363,60.363,0,0,1,31.21,2.283c4.078.814,7.041,2.244,9.063,4.381A17.3,17.3,0,0,1,43.9,12.582a26.438,26.438,0,0,1,.891,3.268,11.712,11.712,0,0,0,.776,2.062c.181.411.367.823.53,1.251a3.16,3.16,0,0,1,.246,1.518,3.477,3.477,0,0,1-1.323,2.013c-.443.406-.735.692-.739.941a1.532,1.532,0,0,0,.154.392,34.907,34.907,0,0,0,3.957,6.431,3.763,3.763,0,0,1,1.2,2.661A2.771,2.771,0,0,1,48.278,34.814Z" transform="translate(4.651 -0.999)" fill="#62529b"/>
    <path id="Shape-2" data-name="Shape" d="M19.647,14.973A11.914,11.914,0,0,0,17.165,10.9c-1.205-1.276-3.29-2.216-6.2-2.793a.9.9,0,0,1,.352-1.774c3.282.653,5.69,1.771,7.159,3.323a13.71,13.71,0,0,1,2.865,4.692,23,23,0,0,1,.742,2.759L20.32,17.5A21.613,21.613,0,0,0,19.647,14.973Z" transform="translate(23.817 -1.507)" fill="#62529b"/>
    <path id="Shape-3" data-name="Shape" d="M45.544,6.064l.543,2.706A10.767,10.767,0,0,1,47.61,9.4l2.3-1.537a1.809,1.809,0,0,1,2.272.236l1.5,1.5a1.809,1.809,0,0,1,.239,2.292l-1.53,2.285A10.767,10.767,0,0,1,53.02,15.7l2.7.543a1.809,1.809,0,0,1,1.451,1.774v2.134a1.809,1.809,0,0,1-1.447,1.773l-2.706.543a10.767,10.767,0,0,1-.633,1.523l1.537,2.3a1.809,1.809,0,0,1-.236,2.272l-1.5,1.5A1.814,1.814,0,0,1,49.9,30.3l-2.285-1.53a10.767,10.767,0,0,1-1.523.633l-.543,2.7a1.809,1.809,0,0,1-1.774,1.451H41.637a1.809,1.809,0,0,1-1.773-1.447L39.321,29.4A10.767,10.767,0,0,1,37.8,28.77l-2.3,1.537a1.809,1.809,0,0,1-2.272-.236l-1.5-1.5a1.809,1.809,0,0,1-.239-2.292l1.53-2.285a10.768,10.768,0,0,1-.633-1.523l-2.7-.543a1.8,1.8,0,0,1-1.245-.942l-1.363.913a1.651,1.651,0,0,1-.878.254,1.628,1.628,0,0,1-1.155-.48l-1.2-1.2a1.642,1.642,0,0,1-.211-2.056L24.8,16.668a8.5,8.5,0,0,1-.438-1.051l-2.046-.408A1.628,1.628,0,0,1,21,13.606v-1.7a1.628,1.628,0,0,1,1.307-1.6l2.056-.41A8.37,8.37,0,0,1,24.8,8.844L23.614,7.078a1.634,1.634,0,0,1,.226-2.033l1.2-1.2A1.641,1.641,0,0,1,27.1,3.632L28.844,4.8a8.5,8.5,0,0,1,1.051-.438L30.3,2.314A1.628,1.628,0,0,1,31.906,1h1.7a1.628,1.628,0,0,1,1.6,1.307l.41,2.056a8.371,8.371,0,0,1,1.051.439l1.766-1.185a1.636,1.636,0,0,1,2.033.226l.814.814a1.853,1.853,0,0,1,.355-.039h2.134A1.809,1.809,0,0,1,45.544,6.064ZM31.719,9.609l.422-.422a3.6,3.6,0,0,0-1.124,6.789L32.39,15.7a10.767,10.767,0,0,1,.633-1.523l-1.537-2.3a1.809,1.809,0,0,1,.233-2.273Zm7.569-4.391L37.221,6.607a.9.9,0,0,1-.966.026A6.615,6.615,0,0,0,34.6,5.941a.9.9,0,0,1-.651-.7l-.486-2.436H32.049L31.563,5.25a.9.9,0,0,1-.651.7,6.615,6.615,0,0,0-1.655.692.9.9,0,0,1-.966-.032L26.224,5.22l-1,1,1.386,2.068a.9.9,0,0,1,.026.966,6.615,6.615,0,0,0-.692,1.655.9.9,0,0,1-.7.651l-2.442.486v1.414l2.437.486a.9.9,0,0,1,.7.651,6.615,6.615,0,0,0,.692,1.655.9.9,0,0,1-.026.966l-1.387,2.067,1,1,2.016-1.348V18.02a1.814,1.814,0,0,1,.633-1.377A5.413,5.413,0,0,1,32.639,7.33a5.233,5.233,0,0,1,1.609.264,1.834,1.834,0,0,1,1.266.279L37.8,9.4A10.767,10.767,0,0,1,39.32,8.77l.543-2.7a1.658,1.658,0,0,1,.062-.213Zm5.134,4.443-.651-3.235H41.637l-.65,3.238a.9.9,0,0,1-.65.695,8.909,8.909,0,0,0-2.135.886.9.9,0,0,1-.957-.031l-2.736-1.83-1.516,1.508,1.836,2.739a.9.9,0,0,1,.031.957,8.909,8.909,0,0,0-.886,2.135.9.9,0,0,1-.695.65l-3.235.647v2.135l3.237.65a.9.9,0,0,1,.695.65,8.909,8.909,0,0,0,.886,2.135.9.9,0,0,1-.031.957L33,27.283,34.508,28.8l2.739-1.836a.9.9,0,0,1,.957-.031,8.909,8.909,0,0,0,2.135.886.9.9,0,0,1,.65.695l.647,3.235h2.134l.65-3.238a.9.9,0,0,1,.65-.695,8.909,8.909,0,0,0,2.135-.886.9.9,0,0,1,.957.031L50.9,28.79l1.516-1.508L50.58,24.543a.9.9,0,0,1-.031-.957,8.909,8.909,0,0,0,.886-2.135.9.9,0,0,1,.695-.65l3.235-.648V18.02l-3.237-.65a.9.9,0,0,1-.695-.65,8.909,8.909,0,0,0-.886-2.135.9.9,0,0,1,.031-.957l1.83-2.737L50.9,9.375l-2.739,1.836a.9.9,0,0,1-.957.031,8.909,8.909,0,0,0-2.135-.886A.9.9,0,0,1,44.422,9.661Z" transform="translate(-21 -0.999)" fill="#62529b"/>
    <path id="Shape-4" data-name="Shape" d="M36.33,26.661a6.33,6.33,0,1,1,6.33-6.33A6.33,6.33,0,0,1,36.33,26.661Zm0-10.852a4.522,4.522,0,1,0,4.522,4.522A4.522,4.522,0,0,0,36.33,15.809Z" transform="translate(-14.626 -2.242)" fill="#62529b"/>
    <ellipse id="Oval" cx="0.904" cy="0.904" rx="0.904" ry="0.904" transform="translate(20.8 17.184)" fill="#62529b"/>
    <ellipse id="Oval-2" data-name="Oval" cx="0.904" cy="0.904" rx="0.904" ry="0.904" transform="translate(45.216 18.088)" fill="#62529b"/>
  </g>
</svg>
