<svg id="pantone" xmlns="http://www.w3.org/2000/svg" width="52" height="52" viewBox="0 0 52 52">
  <path id="Trazado_873653" data-name="Trazado 873653" d="M49.4,34.667H41l7.268-4.2a2.6,2.6,0,0,0,.96-3.551L43.163,16.411a2.6,2.6,0,0,0-1.582-1.21,2.572,2.572,0,0,0-1.975.264l-7.269,4.2,4.2-7.266a2.6,2.6,0,0,0-.948-3.561L25.079,2.767a2.6,2.6,0,0,0-3.548.96L17.333,11V2.6a2.6,2.6,0,0,0-2.6-2.6H2.6A2.6,2.6,0,0,0,0,2.6V49.4A2.6,2.6,0,0,0,2.6,52H49.4A2.6,2.6,0,0,0,52,49.4V37.267A2.6,2.6,0,0,0,49.4,34.667Zm-46.8,0a2.577,2.577,0,0,0-.867.16V26H8.672l-5,8.667Zm34.937,0H25.685L21.715,27.8l9.005-5.2,6.93,12Zm-8.2-13.27-10.26,5.925L12.2,23.353l5.2-9,12,6.93ZM15.6,14l-5.326,9.225s-.007.006-.01.011l0,.014-.587,1.017H1.733v-10.4H15.6ZM11.335,24.854l6.006,3.468L6.354,34.667H5.67ZM19.5,29.079l.011-.006.707-.408,3.469,6H9.821ZM15.6,36.4H26V50.267H15.6Zm12.133,0h10.4V50.267h-10.4ZM40.477,16.964a.856.856,0,0,1,.656-.089.879.879,0,0,1,.531.407l6.065,10.5a.863.863,0,0,1-.323,1.184l-8.256,4.767-6.93-12ZM23.034,4.591a.865.865,0,0,1,1.181-.321l10.5,6.065a.879.879,0,0,1,.41.533.858.858,0,0,1-.092.66l-4.765,8.252-12-6.93ZM2.6,1.733H14.733A.868.868,0,0,1,15.6,2.6v9.533H1.733V2.6A.868.868,0,0,1,2.6,1.733ZM1.733,49.4V37.267A.868.868,0,0,1,2.6,36.4H13.867V50.267H2.6A.868.868,0,0,1,1.733,49.4Zm48.533,0a.868.868,0,0,1-.867.867H39.867V36.4H49.4a.868.868,0,0,1,.867.867Zm0,0" fill="#62529b"/>
  <path id="Trazado_873654" data-name="Trazado 873654" d="M54.666,392.535A3.467,3.467,0,1,0,58.132,396,3.467,3.467,0,0,0,54.666,392.535Zm0,5.2A1.733,1.733,0,1,1,56.4,396,1.733,1.733,0,0,1,54.666,397.735Zm0,0" transform="translate(-45.999 -352.668)" fill="#62529b"/>
</svg>
