<svg xmlns="http://www.w3.org/2000/svg" width="34.781" height="33.072" viewBox="0 0 34.781 33.072">
  <g id="target" transform="translate(-41.638 -51.873)">
    <path id="Trazado_873500" data-name="Trazado 873500" d="M170.988,62.166V55.742H153.805l-1.641,1.906v9.581a7.783,7.783,0,1,1,0,14.687v2.91l.388,2.259,1.447.988h21.46l1.129-.5.635-1.3V62.166Z" transform="translate(-101.301 -3.546)" fill="#e5eaff"/>
    <circle id="Elipse_11538" data-name="Elipse 11538" cx="3.988" cy="3.988" r="3.988" transform="translate(64.098 63.385)" fill="#feb800"/>
    <circle id="Elipse_11539" data-name="Elipse 11539" cx="2.111" cy="2.111" r="2.111" transform="translate(51.336 68.916)" fill="#01d0fb"/>
    <path id="Trazado_873501" data-name="Trazado 873501" d="M124.108,216.981a5.373,5.373,0,1,0,5.373,5.373A5.373,5.373,0,0,0,124.108,216.981Zm0,7.484a2.111,2.111,0,1,1,2.111-2.111A2.111,2.111,0,0,1,124.108,224.465Z" transform="translate(-70.661 -151.328)" fill="#feb800"/>
    <path id="Trazado_873502" data-name="Trazado 873502" d="M97.643,188.106a7.783,7.783,0,1,0,7.783,7.783A7.783,7.783,0,0,0,97.643,188.106Zm0,13.156a5.373,5.373,0,1,1,5.373-5.373,5.373,5.373,0,0,1-5.373,5.373Z" transform="translate(-44.196 -124.863)" fill="#fd5426"/>
    <path id="Trazado_873503" data-name="Trazado 873503" d="M379.9,64.305v5.574h5.631Z" transform="translate(-310.029 -11.395)" fill="#b2c6f9"/>
    <path id="Trazado_873504" data-name="Trazado 873504" d="M177.225,267.385V253.346c-3.633,4.439-13.7,14.882-25.061,10.5v2.089l.388,2.259,1.447.988h21.46l1.129-.5Z" transform="translate(-101.301 -184.658)" fill="#b2c6f9"/>
    <path id="Trazado_873505" data-name="Trazado 873505" d="M377.7,320.058h1.9v6.6h-1.9Z" transform="translate(-308.01 -245.802)" fill="#fd5426"/>
    <path id="Trazado_873506" data-name="Trazado 873506" d="M327.248,342.049H329.3v4.924h-2.047Z" transform="translate(-261.772 -265.957)" fill="#01d0fb"/>
    <path id="Trazado_873507" data-name="Trazado 873507" d="M278.4,367.424h2.056v2.806H278.4Z" transform="translate(-217.003 -289.215)" fill="#39af00"/>
    <path id="Trazado_873508" data-name="Trazado 873508" d="M52.887,151.243l2.594.185-.132-2.435s2.97,3.026,3.034,3.141,0,2.815,0,2.815l-2.107-.282Z" transform="translate(-10.31 -89.014)" fill="#39af00"/>
    <path id="Trazado_873509" data-name="Trazado 873509" d="M72.657,167.024c.31,1.167.616,3.427-2.091,2.345-.147-.059-.279-.105-.4-.142l1.946,1.967,2.107.282s.063-2.7,0-2.815C74.187,168.6,73.415,167.8,72.657,167.024Z" transform="translate(-26.146 -105.54)" fill="#026400"/>
    <path id="Trazado_873510" data-name="Trazado 873510" d="M143.738,265.006a5.373,5.373,0,0,0,5-7.352c-1.271,3.015-3.8,6.566-8.581,5.979A5.352,5.352,0,0,0,143.738,265.006Z" transform="translate(-90.292 -188.607)" fill="#fa8700"/>
    <path id="Trazado_873511" data-name="Trazado 873511" d="M108.748,224.548a5.373,5.373,0,0,1-8.581,5.979,12.227,12.227,0,0,1-3.641-1.107,7.784,7.784,0,1,0,13.2-7.887A19.017,19.017,0,0,1,108.748,224.548Z" transform="translate(-50.306 -155.5)" fill="#d83e1a"/>
    <path id="Trazado_873512" data-name="Trazado 873512" d="M322.755,213.091a3.97,3.97,0,0,0-.682-2.231c-.83,2.093-2.971,5.975-6.926,3.906a3.988,3.988,0,0,0,7.608-1.674Z" transform="translate(-250.681 -145.717)" fill="#fa8700"/>
    <path id="Trazado_873513" data-name="Trazado 873513" d="M376.552,342.049s-1.568,3.17-2.267,2.238,0,2.854,0,2.854h1.67Z" transform="translate(-304.599 -265.958)" fill="#d83e1a"/>
    <path id="Trazado_873514" data-name="Trazado 873514" d="M325.806,359.6s-1.782,2.012-2.021,1.377-.344,2.082-.344,2.082l2.365.168Z" transform="translate(-258.283 -282.043)" fill="#13b8ce"/>
    <path id="Trazado_873515" data-name="Trazado 873515" d="M273.034,364.675s-.2,2.1-1.593,1.818-.322.918-.241,1.059a9.284,9.284,0,0,0,1.834.327l.56-.168Z" transform="translate(-209.971 -286.695)" fill="#026400"/>
    <g id="Grupo_1099285" data-name="Grupo 1099285" transform="translate(41.638 51.873)">
      <path id="Trazado_873516" data-name="Trazado 873516" d="M343.408,197.51a1.237,1.237,0,0,0-.567-.372v-.321a.459.459,0,1,0-.918,0v.3a1.29,1.29,0,0,0-.564.31,1.321,1.321,0,0,0-.4,1.008,1.577,1.577,0,0,0,.22.81,2.948,2.948,0,0,0,.509.627l.218.207.008.009.276.262a2.03,2.03,0,0,1,.351.428.662.662,0,0,1,.093.345c0,.238-.081.313-.107.338a.471.471,0,0,1-.353.112.438.438,0,0,1-.371-.125.926.926,0,0,1-.174-.535.459.459,0,1,0-.915.069,1.8,1.8,0,0,0,.392,1.064,1.237,1.237,0,0,0,.567.372v.321a.459.459,0,0,0,.918,0v-.3a1.29,1.29,0,0,0,.564-.31,1.321,1.321,0,0,0,.4-1.008,1.577,1.577,0,0,0-.22-.81,2.947,2.947,0,0,0-.509-.627l-.218-.207-.008-.009-.276-.262a2.03,2.03,0,0,1-.351-.428.662.662,0,0,1-.093-.345c0-.238.081-.313.107-.338a.471.471,0,0,1,.353-.112.438.438,0,0,1,.371.125.926.926,0,0,1,.174.535.459.459,0,1,0,.915-.069A1.8,1.8,0,0,0,343.408,197.51Z" transform="translate(-315.753 -184.299)" fill="#161616"/>
      <path id="Trazado_873517" data-name="Trazado 873517" d="M307.868,181.248a4.7,4.7,0,1,0,4.7,4.7A4.708,4.708,0,0,0,307.868,181.248Zm0,8.488a3.785,3.785,0,1,1,3.785-3.785A3.789,3.789,0,0,1,307.868,189.736Z" transform="translate(-281.338 -170.45)" fill="#161616"/>
      <path id="Trazado_873518" data-name="Trazado 873518" d="M195.877,95.769h3.316a.459.459,0,1,0,0-.918h-3.316a.459.459,0,0,0,0,.918Z" transform="translate(-182.583 -91.264)" fill="#161616"/>
      <path id="Trazado_873519" data-name="Trazado 873519" d="M195.877,121h10.186a.459.459,0,1,0,0-.918H195.877a.459.459,0,0,0,0,.918Z" transform="translate(-182.583 -114.394)" fill="#161616"/>
      <path id="Trazado_873520" data-name="Trazado 873520" d="M206.522,145.839a.459.459,0,0,0-.459-.459H195.877a.459.459,0,0,0,0,.918h10.186A.459.459,0,0,0,206.522,145.839Z" transform="translate(-182.583 -137.576)" fill="#161616"/>
      <path id="Trazado_873521" data-name="Trazado 873521" d="M272.786,357.864h-2.369a.459.459,0,0,0-.459.459v3.287a.459.459,0,0,0,.459.459h2.369a.459.459,0,0,0,.459-.459v-3.287A.459.459,0,0,0,272.786,357.864Zm-.459,3.287h-1.451v-2.369h1.451Z" transform="translate(-250.902 -332.326)" fill="#161616"/>
      <path id="Trazado_873522" data-name="Trazado 873522" d="M321.963,334.14h-2.369a.459.459,0,0,0-.459.459v5.267a.459.459,0,0,0,.459.459h2.369a.459.459,0,0,0,.459-.459V334.6A.459.459,0,0,0,321.963,334.14Zm-.459,5.267h-1.451v-4.349H321.5Z" transform="translate(-295.974 -310.581)" fill="#161616"/>
      <path id="Trazado_873523" data-name="Trazado 873523" d="M372.149,312.373H369.78a.459.459,0,0,0-.459.459v7.074a.459.459,0,0,0,.459.459h2.369a.459.459,0,0,0,.459-.459v-7.074A.459.459,0,0,0,372.149,312.373Zm-.459,7.074h-1.451v-6.156h1.451Z" transform="translate(-341.972 -290.631)" fill="#161616"/>
      <path id="Trazado_873524" data-name="Trazado 873524" d="M75.7,57.629l-5.04-5.04a2.428,2.428,0,0,0-1.729-.716h-16a2.448,2.448,0,0,0-2.445,2.445v8.624a.459.459,0,0,0,.006.071,8.558,8.558,0,0,0-1.832.937l-.079-.962a.459.459,0,0,0-.133-.287L45,59.25a.459.459,0,0,0-.78.381l.292,2.361L42.154,61.7a.459.459,0,0,0-.381.78l3.45,3.45a.459.459,0,0,0,.248.128l.92.155A8.436,8.436,0,0,0,44.9,71.026a8.558,8.558,0,0,0,5.589,8.017V82.5a2.448,2.448,0,0,0,2.445,2.445H73.974A2.448,2.448,0,0,0,76.419,82.5V59.358a2.428,2.428,0,0,0-.716-1.729Zm-.821.477H70.216V53.44ZM43.366,62.775l1.62.2a.459.459,0,0,0,.512-.512l-.2-1.62,2.387,2.387.134,1.622-1.17-1.17a.459.459,0,1,0-.649.649L47.063,65.4l-1.295-.218Zm2.455,8.251A7.536,7.536,0,0,1,47.4,66.384l.78.131.88.88a5.724,5.724,0,1,0,.642-.656l-.882-.882-.069-.835a7.621,7.621,0,1,1-2.933,6Zm5.59-1.283a2.412,2.412,0,1,0,.629-.669l-1.685-1.685a4.784,4.784,0,1,1-.639.659ZM53.07,71.4a.459.459,0,0,0,.649-.649L52.7,69.738a1.492,1.492,0,1,1-.616.682ZM75.5,82.5a1.528,1.528,0,0,1-1.527,1.527H52.936A1.528,1.528,0,0,1,51.41,82.5V79.324a8.545,8.545,0,1,0,0-16.591V54.318a1.528,1.528,0,0,1,1.527-1.527h16a1.535,1.535,0,0,1,.363.045v5.729a.459.459,0,0,0,.459.459h5.706a1.535,1.535,0,0,1,.038.334Z" transform="translate(-41.638 -51.873)" fill="#161616"/>
    </g>
  </g>
</svg>
