<svg id="evaluation" xmlns="http://www.w3.org/2000/svg" width="32.986" height="31.407" viewBox="0 0 32.986 31.407">
  <path id="Trazado_873376" data-name="Trazado 873376" d="M35.69,39.438a.8.8,0,0,0-1.083-.332l-.594.316-.66-1.241L32.3,33.919a8.935,8.935,0,0,0-2.071-3.48L33.489,28.7a.44.44,0,0,0,.181-.594l-1.629-3.055a.44.44,0,0,0-.594-.181l-2.834,1.51V22.031a3.39,3.39,0,0,0-3.387-3.387H22.055v-.388a.44.44,0,0,0-.44-.44H19.149a2.83,2.83,0,0,0-2.683-1.447,2.83,2.83,0,0,0-2.683,1.447H11.316a.44.44,0,0,0-.44.44v.389H7.7a3.391,3.391,0,0,0-3.387,3.386V44.389A3.391,3.391,0,0,0,7.7,47.776H25.227a3.4,3.4,0,0,0,2.635-1.266l.314.591a.8.8,0,0,0,1.083.332l7.621-4.046a.8.8,0,0,0,.332-1.083Z" transform="translate(-4.318 -16.369)" fill-rule="evenodd"/>
  <path id="Trazado_873377" data-name="Trazado 873377" d="M50.467,93.569h10.3a.44.44,0,0,0,.44-.44V92.75h3.172a.656.656,0,0,1,.653.655v5.81l-.906.483-.427-.117-2.932-.8a1.762,1.762,0,0,0-1.751.424c-.013.013-.025.027-.037.04H53.894a.44.44,0,1,0,0,.88H58.5a1.947,1.947,0,0,0,0,.958,1.717,1.717,0,0,0,.931,1.119l-2.29,1.219h-3.25a.44.44,0,0,0,0,.88h2.135l-.7,1.169H53.895a.44.44,0,0,0,0,.878h.9l-.319.53a.44.44,0,0,0,.356.664l3.365.164a.455.455,0,0,0,.242-.055l3.283-1.75.94,2.012c.057.186.11.362.159.528.553,1.841.788,2.621,2.216,3.83v.018H62.629A1.535,1.535,0,0,0,61.1,113.82v2.6H46.856a.657.657,0,0,1-.656-.656V93.405a.656.656,0,0,1,.656-.655h3.174v.38a.44.44,0,0,0,.438.439Zm13.281,4.067a.44.44,0,0,0-.44-.44H53.895a.44.44,0,1,0,.028.879h9.385a.44.44,0,0,0,.439-.438ZM62.5,109.643H53.9a.44.44,0,1,0,.028.879H62.5a.439.439,0,0,0,0-.878Zm-2.385,2.047H53.9a.44.44,0,1,0,0,.879h6.214a.44.44,0,0,0,0-.88Zm-8.181-2.368a.44.44,0,0,0-.439-.427H47.945a.44.44,0,0,0-.44.44v3.548a.44.44,0,0,0,.44.44h3.548a.44.44,0,0,0,.44-.44v-2.465l.423-.343a.44.44,0,0,0-.282-.777c-.014,0-.144.012-.141.025Zm0-6.224a.44.44,0,0,0-.439-.427H47.944a.44.44,0,0,0-.44.44v3.548a.44.44,0,0,0,.44.44h3.547a.44.44,0,0,0,.44-.44V104.2l.423-.343a.44.44,0,0,0-.282-.778c-.027,0-.141.023-.141.023Zm-4.427-2.664a.44.44,0,0,0,.44.44h3.547a.44.44,0,0,0,.44-.44V97.97l.423-.343a.44.44,0,0,0-.423-.754.44.44,0,0,0-.44-.427H47.944a.44.44,0,0,0-.439.44Q47.505,98.66,47.505,100.434Z" transform="translate(-43.455 -87.745)" fill="#fff" fill-rule="evenodd"/>
  <g id="Grupo_1099279" data-name="Grupo 1099279" transform="translate(4.928 9.582)">
    <path id="Trazado_873378" data-name="Trazado 873378" d="M82.19,355.164H79.519v-2.671h2.669v.227l-1.249,1.013-.586-.553a.44.44,0,0,0-.6.64l.866.816a.44.44,0,0,0,.578.021l.994-.806Z" transform="translate(-79.519 -340.048)" fill="#ffd947" fill-rule="evenodd"/>
    <path id="Trazado_873379" data-name="Trazado 873379" d="M82.19,260.195H79.519v-2.672h2.669v.229l-1.249,1.012-.586-.553a.44.44,0,0,0-.6.641l.867.816a.44.44,0,0,0,.578.021l.994-.806Z" transform="translate(-79.519 -251.302)" fill="#ffd947" fill-rule="evenodd"/>
    <path id="Trazado_873380" data-name="Trazado 873380" d="M79.521,162.588H82.19v.227l-1.251,1.012-.586-.553a.44.44,0,0,0-.6.64l.867.816a.44.44,0,0,0,.578.021l.993-.806v1.311H79.519Z" transform="translate(-79.519 -162.588)" fill="#ffd947" fill-rule="evenodd"/>
  </g>
  <path id="Trazado_873381" data-name="Trazado 873381" d="M359.189,382.411l-1.45-2.73q3.743-1.986,7.484-3.974l1.45,2.73Z" transform="translate(-334.578 -352.16)" fill="#7d6eb2" fill-rule="evenodd"/>
  <path id="Trazado_873382" data-name="Trazado 873382" d="M20.445,91.857a2.512,2.512,0,0,1-2.507-2.509V66.989a2.512,2.512,0,0,1,2.509-2.509h3.172v.976H20.445a1.535,1.535,0,0,0-1.533,1.532V89.345a1.536,1.536,0,0,0,1.533,1.534H35.124a.437.437,0,0,0,.318-.136c.726-.761,3.492-3.692,4.014-4.237l.165.122.637,1.2-.531.282a.8.8,0,0,0-.332,1.083l.746,1.4a2.524,2.524,0,0,1-2.173,1.26Z" transform="translate(-17.045 -61.327)" fill="#7d6eb2" fill-rule="evenodd"/>
  <path id="Trazado_873383" data-name="Trazado 873383" d="M118.011,31.209h2.352a.44.44,0,0,0,.432-.36c.11-.609.957-1.087,1.928-1.087s1.817.476,1.927,1.086a.44.44,0,0,0,.432.36h2.352v2.624h-9.42Z" transform="translate(-110.56 -28.884)" fill="#7d6eb2" fill-rule="evenodd"/>
  <path id="Trazado_873384" data-name="Trazado 873384" d="M278.351,64.47a2.512,2.512,0,0,1,2.509,2.508V71.8l-.975.52V66.978a1.536,1.536,0,0,0-1.534-1.533h-3.172V64.47Z" transform="translate(-257.429 -61.318)" fill="#7d6eb2" fill-rule="evenodd"/>
  <path id="Trazado_873385" data-name="Trazado 873385" d="M227.32,161.083l1.215,2.281-7.516,4.008-.183-.343a1.608,1.608,0,0,0-2.192-.721,1.674,1.674,0,0,0-.779,2.272l.177.378-2.942,1.571-1.215-2.281Q220.6,164.66,227.32,161.083Z" transform="translate(-200.152 -151.6)" fill="#ffd947" fill-rule="evenodd"/>
  <path id="Trazado_873386" data-name="Trazado 873386" d="M329.343,267.147l-.3-.561.3-.159Z" transform="translate(-307.765 -250.04)" fill="#fff" fill-rule="evenodd"/>
  <path id="Trazado_873387" data-name="Trazado 873387" d="M286.889,404.921a.656.656,0,0,1,.655-.656h1.819l-2.475,2.6Z" transform="translate(-268.371 -378.845)" fill="#9c9c9c" fill-rule="evenodd"/>
  <path id="Trazado_873388" data-name="Trazado 873388" d="M190.708,281.2l.9,1.69-1.865-.091Z" transform="translate(-177.593 -263.844)" fill="#6e6e6e" fill-rule="evenodd"/>
  <path id="Trazado_873389" data-name="Trazado 873389" d="M247.642,198.986l-.487-.133a.88.88,0,0,1-.675-.633,1.1,1.1,0,0,1,.281-1.03.881.881,0,0,1,.9-.2l2.46.673Z" transform="translate(-230.581 -185.108)" fill="#ffd9cd" fill-rule="evenodd"/>
  <path id="Trazado_873390" data-name="Trazado 873390" d="M295.091,245.2a.45.45,0,0,0,.038.1l.683,1.288-4.945,2.626-.685-1.289a.437.437,0,0,0-.129-.149c-.33-.241-.613-.455-.858-.653a.438.438,0,0,0-.045-.037c-1.336-1.089-1.519-1.7-2.065-3.519-.053-.176-.11-.363-.169-.561a.56.56,0,0,0-.022-.058l-1.5-3.215a.806.806,0,0,1,.374-1.116.723.723,0,0,1,1.026.347l1.719,3.237a.436.436,0,0,0,.824-.206v-2.951l2.665-1.42a8.293,8.293,0,0,1,2.029,3.259Z" transform="translate(-266.881 -223.127)" fill="#ffd9cd" fill-rule="evenodd"/>
</svg>
