<svg xmlns="http://www.w3.org/2000/svg" width="29.316" height="29.316" viewBox="0 0 29.316 29.316">
  <g id="_1target_2_" data-name="1target (2)" transform="translate(-1 -1)">
    <path id="Trazado_873550" data-name="Trazado 873550" d="M37.388,48.047l-1.551,3.887-.662,1.655A1.128,1.128,0,0,1,33,53.168V53.1a1.126,1.126,0,0,1,.085-.43l2.18-5.282A7.7,7.7,0,0,0,37.388,48.047Z" transform="translate(-16.869 -24.455)" fill="#dfb28b"/>
    <path id="Trazado_873551" data-name="Trazado 873551" d="M52.108,53.1v.066a1.128,1.128,0,0,1-2.175.421l-.662-1.655L47.72,48.047a7.7,7.7,0,0,0,2.123-.657l2.18,5.282a1.126,1.126,0,0,1,.085.43Z" transform="translate(-24.629 -24.455)" fill="#dfb28b"/>
    <circle id="Elipse_11540" data-name="Elipse 11540" cx="8.069" cy="8.069" r="8.069" transform="translate(13.731 7.545)" fill="#ff826e"/>
    <ellipse id="Elipse_11541" data-name="Elipse 11541" cx="6.096" cy="6.186" rx="6.096" ry="6.186" transform="translate(15.703 9.517)" fill="#ffeaa7"/>
    <path id="Trazado_873552" data-name="Trazado 873552" d="M39.192,25.771A3.271,3.271,0,0,1,41.31,25a3.31,3.31,0,1,1,0,6.62,3.307,3.307,0,0,1-2.118-5.849Z" transform="translate(-19.505 -12.652)" fill="#ff826e"/>
    <g id="Grupo_1099306" data-name="Grupo 1099306" transform="translate(1.538 1.448)">
      <circle id="Elipse_11542" data-name="Elipse 11542" cx="4.214" cy="4.214" r="4.214" transform="translate(0 10.041)" fill="#e6e9ed"/>
      <circle id="Elipse_11543" data-name="Elipse 11543" cx="4.214" cy="4.214" r="4.214" transform="translate(0 19.903)" fill="#e6e9ed"/>
      <ellipse id="Elipse_11544" data-name="Elipse 11544" cx="4.214" cy="4.303" rx="4.214" ry="4.303" transform="translate(0 0)" fill="#e6e9ed"/>
    </g>
    <path id="Trazado_873553" data-name="Trazado 873553" d="M9.476,14.468A3.317,3.317,0,0,1,10.668,15.7a4.257,4.257,0,0,1-5.788,0,3.317,3.317,0,0,1,4.6-1.234Z" transform="translate(-2.045 -6.853)" fill="#fcd770"/>
    <path id="Trazado_873554" data-name="Trazado 873554" d="M9.476,35.468A3.317,3.317,0,0,1,10.668,36.7a4.257,4.257,0,0,1-5.788,0,3.317,3.317,0,0,1,4.6-1.234Z" transform="translate(-2.045 -17.923)" fill="#ff826e"/>
    <path id="Trazado_873555" data-name="Trazado 873555" d="M9.476,56.468A3.317,3.317,0,0,1,10.668,57.7a4.257,4.257,0,0,1-5.788,0,3.317,3.317,0,0,1,4.6-1.234Z" transform="translate(-2.045 -28.993)" fill="#4fc1e9"/>
    <circle id="Elipse_11545" data-name="Elipse 11545" cx="1.883" cy="1.883" r="1.883" transform="translate(3.869 3.421)" fill="#f0d0b4"/>
    <circle id="Elipse_11546" data-name="Elipse 11546" cx="1.883" cy="1.883" r="1.883" transform="translate(3.869 13.282)" fill="#f0d0b4"/>
    <ellipse id="Elipse_11547" data-name="Elipse 11547" cx="1.883" cy="1.972" rx="1.883" ry="1.972" transform="translate(3.869 23.144)" fill="#f0d0b4"/>
    <path id="Trazado_873556" data-name="Trazado 873556" d="M25.822,23.158a8.508,8.508,0,1,0-10.57-12.923L10.106,7.511a4.733,4.733,0,1,0-.443.836l5.024,2.66a8.452,8.452,0,0,0-1.369,4.179H10.433a4.731,4.731,0,1,0,0,.946h2.885a8.452,8.452,0,0,0,1.369,4.179L9.663,22.97a4.737,4.737,0,1,0,.443.836l5.146-2.725a8.569,8.569,0,0,0,2.537,2.077l-2.009,4.88a1.584,1.584,0,0,0-.121.61v.068a1.6,1.6,0,0,0,3.087.594l.543-1.358h5.034l.543,1.358a1.6,1.6,0,0,0,3.087-.594v-.068a1.589,1.589,0,0,0-.121-.609ZM3.463,8.75a2.836,2.836,0,0,1,4.532,0,3.755,3.755,0,0,1-4.532,0ZM4.31,5.256A1.419,1.419,0,1,1,5.728,6.674,1.42,1.42,0,0,1,4.31,5.256ZM8.675,8.095A3.781,3.781,0,0,0,7.289,7.017a2.364,2.364,0,1,0-3.122,0A3.786,3.786,0,0,0,2.782,8.095a3.783,3.783,0,1,1,5.894,0ZM3.463,28.61a2.836,2.836,0,0,1,4.532,0,3.755,3.755,0,0,1-4.532,0Zm.847-3.495a1.419,1.419,0,1,1,1.419,1.419A1.42,1.42,0,0,1,4.31,25.115Zm4.365,2.839a3.781,3.781,0,0,0-1.386-1.077,2.364,2.364,0,1,0-3.122,0,3.786,3.786,0,0,0-1.386,1.077,3.783,3.783,0,1,1,5.894,0Zm6.848-16.505.843.446a6.573,6.573,0,0,0-1.157,3.291h-.946a7.512,7.512,0,0,1,1.259-3.737Zm2.532,4.682a3.765,3.765,0,0,0,.846,1.948l-1.691.9a5.637,5.637,0,0,1-1.055-2.843Zm.956-.946a2.828,2.828,0,0,1,.752-1.492l1.821.964.443-.836-1.4-.741a2.837,2.837,0,1,1,0,5.155l1.4-.741-.443-.836-1.821.964a2.828,2.828,0,0,1-.752-1.492h2.795v-.946Zm.631,3.571a3.783,3.783,0,1,0,0-6.2l-1.8-.954a5.674,5.674,0,1,1,0,8.1Zm-.74-5.519a3.766,3.766,0,0,0-.846,1.948h-1.9a5.637,5.637,0,0,1,1.055-2.843ZM3.463,18.68a2.836,2.836,0,0,1,4.532,0,3.755,3.755,0,0,1-4.532,0Zm.847-3.495A1.419,1.419,0,1,1,5.728,16.6,1.42,1.42,0,0,1,4.31,15.185Zm4.365,2.839a3.781,3.781,0,0,0-1.386-1.077,2.364,2.364,0,1,0-3.122,0,3.786,3.786,0,0,0-1.386,1.077,3.783,3.783,0,1,1,5.894,0Zm5.589-1.893h.946a6.573,6.573,0,0,0,1.157,3.291l-.843.446A7.516,7.516,0,0,1,14.264,16.131Zm1.849,4.494.862-.456a6.62,6.62,0,1,0,0-9.022l-.862-.456a7.565,7.565,0,1,1,0,9.934Zm1.754,8.334a.655.655,0,0,1-1.263-.244v-.068a.65.65,0,0,1,.049-.249l1.994-4.843a8.476,8.476,0,0,0,1.227.385Zm1.8-1.953,1.159-2.9a7.9,7.9,0,0,0,1.959,0l1.159,2.9Zm7.34,1.709a.655.655,0,0,1-1.263.244L23.736,23.94a8.382,8.382,0,0,0,1.227-.385L26.957,28.4a.649.649,0,0,1,.049.249Z" transform="translate(0 0)"/>
  </g>
</svg>
