<svg xmlns="http://www.w3.org/2000/svg" width="127.422" height="89.547" viewBox="0 0 127.422 89.547">
  <g id="Grupo_1098976" data-name="Grupo 1098976" transform="translate(-38.281 -59.612)">
    <path id="Trazado_873094" data-name="Trazado 873094" d="M165.656,133.1a521.824,521.824,0,0,0-2.177-55.111,12.3,12.3,0,0,0-11.774-11.133,718.636,718.636,0,0,0-92.48,2.884A12.364,12.364,0,0,0,48.018,81.474c-.873,17.691-.976,35.993-.477,55.42a12.364,12.364,0,0,0,12.08,12.039,722.552,722.552,0,0,0,94.969-3.788A12.329,12.329,0,0,0,165.656,133.1Z" fill="#7d6eb2" opacity="0.15" style="mix-blend-mode: multiply;isolation: isolate"/>
    <path id="Trazado_873095" data-name="Trazado 873095" d="M157.441,127.035a522.081,522.081,0,0,0-2.177-55.11,12.3,12.3,0,0,0-11.775-11.134A718.621,718.621,0,0,0,51.01,63.675,12.366,12.366,0,0,0,39.8,75.411c-.873,17.691-.976,35.992-.477,55.419A12.364,12.364,0,0,0,51.4,142.87a722.567,722.567,0,0,0,94.97-3.788A12.331,12.331,0,0,0,157.441,127.035Z" fill="#fff"/>
    <path id="Trazado_873096" data-name="Trazado 873096" d="M157.441,127.035a522.081,522.081,0,0,0-2.177-55.11,12.3,12.3,0,0,0-11.775-11.134A718.621,718.621,0,0,0,51.01,63.675,12.366,12.366,0,0,0,39.8,75.411c-.873,17.691-.976,35.992-.477,55.419A12.364,12.364,0,0,0,51.4,142.87a722.567,722.567,0,0,0,94.97-3.788A12.331,12.331,0,0,0,157.441,127.035Z" fill="none" stroke="#7d6eb2" stroke-linecap="round" stroke-linejoin="round" stroke-width="1.5"/>
  </g>
</svg>
