<svg xmlns="http://www.w3.org/2000/svg" width="138.973" height="157.465" viewBox="0 0 138.973 157.465">
  <g id="Grupo_1101502" data-name="Grupo 1101502" transform="translate(-1199.108 -105.743)">
    <g id="Grupo_1101501" data-name="Grupo 1101501">
      <g id="Grupo_1101500" data-name="Grupo 1101500">
        <g id="Grupo_1098981" data-name="Grupo 1098981" transform="translate(870.307 45.646)">
          <g id="Grupo_1098979" data-name="Grupo 1098979">
            <path id="Trazado_873099" data-name="Trazado 873099" d="M471.528,81.862c-.311-7.11-6.1-12.939-13.59-13.647a550.829,550.829,0,0,0-90.6-.789c-7.51.519-13.5,6.164-14.014,13.268q-.959,13.15-1.517,26.408a45,45,0,0,0-12.917,9.6l12.543.375c-.833,26.57-.487,53.544,1.06,81.189.388,6.927,6,12.606,13.279,13.43,29.7,3.358,59.984,4.108,92.455.385a14.629,14.629,0,0,0,13.228-13.593Q474.073,140.211,471.528,81.862Z" transform="translate(-10.089 3)" fill="#7d6eb2" opacity="0.15" style="mix-blend-mode: multiply;isolation: isolate"/>
            <path id="Trazado_873100" data-name="Trazado 873100" d="M465.768,76.749c-.311-7.11-6.1-12.938-13.59-13.647a550.938,550.938,0,0,0-90.6-.788c-7.51.518-13.5,6.163-14.014,13.267q-.959,13.152-1.517,26.408a45.027,45.027,0,0,0-12.917,9.6l12.543.375c-.833,26.57-.488,53.543,1.06,81.188.388,6.927,6,12.607,13.279,13.43,29.7,3.359,59.984,4.108,92.455.385A14.629,14.629,0,0,0,465.7,193.377Q468.312,135.1,465.768,76.749Z" fill="#fff"/>
            <path id="Trazado_873101" data-name="Trazado 873101" d="M465.768,76.749c-.311-7.11-6.1-12.938-13.59-13.647a550.938,550.938,0,0,0-90.6-.788c-7.51.518-13.5,6.163-14.014,13.267q-.959,13.152-1.517,26.408a45.027,45.027,0,0,0-12.917,9.6l12.543.375c-.833,26.57-.488,53.543,1.06,81.188.388,6.927,6,12.607,13.279,13.43,29.7,3.359,59.984,4.108,92.455.385A14.629,14.629,0,0,0,465.7,193.377Q468.312,135.1,465.768,76.749Z" fill="none" stroke="#7d6eb2" stroke-linecap="round" stroke-linejoin="round" stroke-width="1.5"/>
          </g>
        </g>
      </g>
      <g id="_2pencil_copia" data-name="2pencil copia" transform="translate(1203.308 123.396)">
        <path id="Trazado_874315" data-name="Trazado 874315" d="M106.9,104.3v70.738a6.375,6.375,0,0,0,6.38,6.38h60.677a6.375,6.375,0,0,0,6.38-6.38V104.3Z" transform="translate(-66.901 -78.142)" fill="#f9f5f3"/>
        <path id="Trazado_874316" data-name="Trazado 874316" d="M438.18,104.3v70.738a6.375,6.375,0,0,1-6.38,6.38h4.433a6.375,6.375,0,0,0,6.38-6.38V104.3Z" transform="translate(-329.178 -78.142)" fill="#f9eae0"/>
        <path id="Trazado_874317" data-name="Trazado 874317" d="M83.162,289.522,58.24,264.6l-9.04,9.04,24.922,24.922a1.528,1.528,0,0,0,1.1.443h1.369l7.016-7.016v-1.368a1.561,1.561,0,0,0-.443-1.1Z" transform="translate(-20.323 -207.545)" fill="#a0c8ff"/>
        <path id="Trazado_874318" data-name="Trazado 874318" d="M111.739,289.522,86.817,264.6,84.6,266.817l25.79,25.79a1.69,1.69,0,0,1,.424.771l1.388-1.388v-1.368a1.561,1.561,0,0,0-.443-1.1h0Z" transform="translate(-48.899 -207.545)" fill="#91b2fa"/>
        <path id="Trazado_874319" data-name="Trazado 874319" d="M190.424,404.182V397.34a1.673,1.673,0,0,0-.1-.54l-8.828,8.828a1.673,1.673,0,0,0,.54.1h6.843a1.547,1.547,0,0,0,1.542-1.542Z" transform="translate(-127.122 -314.264)" fill="#f9eae0"/>
        <path id="Trazado_874320" data-name="Trazado 874320" d="M218.032,432.927v-1.793a.286.286,0,0,0-.019-.135l-2.313,2.313c.039,0,.1.019.135.019h1.793a.4.4,0,0,0,.4-.4Z" transform="translate(-154.73 -341.872)"/>
        <path id="Trazado_874321" data-name="Trazado 874321" d="M29.475,240.284l-4.51,4.51a3.176,3.176,0,0,0,0,4.51l4.51,4.51,9.04-9.04L34,240.265a3.176,3.176,0,0,0-4.51,0Z" transform="translate(0 -187.141)" fill="#fa8ebb"/>
        <path id="Trazado_874322" data-name="Trazado 874322" d="M52.6,240.236s.039.019.039.039L59.365,247l2.217-2.217-4.51-4.51a3.182,3.182,0,0,0-4.472-.039h0Z" transform="translate(-23.067 -187.151)" fill="#f57fb0"/>
        <path id="Trazado_874323" data-name="Trazado 874323" d="M173.957,40.6H113.28a6.375,6.375,0,0,0-6.38,6.38v9.58h73.437V46.98A6.375,6.375,0,0,0,173.957,40.6Z" transform="translate(-66.901 -26.72)" fill="#ffce69"/>
        <path id="Trazado_874324" data-name="Trazado 874324" d="M436.233,40.6H431.8a6.375,6.375,0,0,1,6.38,6.38v9.58h4.433V46.98A6.375,6.375,0,0,0,436.233,40.6Z" transform="translate(-329.178 -26.72)" fill="#ffbd61"/>
        <g id="Grupo_1099640" data-name="Grupo 1099640" transform="translate(49.578 7.5)">
          <path id="Trazado_874325" data-name="Trazado 874325" d="M156.6,17.08a3.2,3.2,0,0,0,6.4,0V10.7a3.2,3.2,0,0,0-6.4,0Z" transform="translate(-156.6 -7.5)" fill="#bdd3dd"/>
          <path id="Trazado_874326" data-name="Trazado 874326" d="M405.1,17.08a3.2,3.2,0,1,0,6.4,0V10.7a3.2,3.2,0,1,0-6.4,0Z" transform="translate(-357.202 -7.5)" fill="#bdd3dd"/>
          <path id="Trazado_874327" data-name="Trazado 874327" d="M239.4,17.08a3.2,3.2,0,1,0,6.4,0V10.7a3.2,3.2,0,1,0-6.4,0Z" transform="translate(-223.441 -7.5)" fill="#bdd3dd"/>
          <path id="Trazado_874328" data-name="Trazado 874328" d="M322.3,17.08a3.2,3.2,0,1,0,6.4,0V10.7a3.2,3.2,0,1,0-6.4,0Z" transform="translate(-290.362 -7.5)" fill="#bdd3dd"/>
        </g>
        <path id="Trazado_874329" data-name="Trazado 874329" d="M412.417,7.5a3.166,3.166,0,0,0-2.217.906,3.186,3.186,0,0,1,.983,2.294v6.38a3.112,3.112,0,0,1-.983,2.294,3.166,3.166,0,0,0,2.217.906,3.2,3.2,0,0,0,3.2-3.2V10.7A3.2,3.2,0,0,0,412.417,7.5Z" transform="translate(-311.741 0)" fill="#abc4d6"/>
        <path id="Trazado_874330" data-name="Trazado 874330" d="M329.517,7.5a3.166,3.166,0,0,0-2.217.906,3.186,3.186,0,0,1,.983,2.294v6.38a3.112,3.112,0,0,1-.983,2.294,3.166,3.166,0,0,0,2.217.906,3.2,3.2,0,0,0,3.2-3.2V10.7A3.2,3.2,0,0,0,329.517,7.5Z" transform="translate(-244.82 0)" fill="#abc4d6"/>
        <path id="Trazado_874331" data-name="Trazado 874331" d="M246.717,7.5a3.166,3.166,0,0,0-2.217.906,3.186,3.186,0,0,1,.983,2.294v6.38a3.112,3.112,0,0,1-.983,2.294,3.166,3.166,0,0,0,2.217.906,3.2,3.2,0,0,0,3.2-3.2V10.7A3.2,3.2,0,0,0,246.717,7.5Z" transform="translate(-177.979 0)" fill="#abc4d6"/>
        <path id="Trazado_874332" data-name="Trazado 874332" d="M163.917,7.5a3.166,3.166,0,0,0-2.217.906,3.186,3.186,0,0,1,.983,2.294v6.38a3.112,3.112,0,0,1-.983,2.294,3.166,3.166,0,0,0,2.217.906,3.2,3.2,0,0,0,3.2-3.2V10.7A3.2,3.2,0,0,0,163.917,7.5Z" transform="translate(-111.139 0)" fill="#abc4d6"/>
        <path id="Trazado_874333" data-name="Trazado 874333" d="M160.846,174.591h51.1a1.446,1.446,0,0,0,0-2.891h-51.1a1.446,1.446,0,0,0,0,2.891Z" transform="translate(-109.282 -132.551)" fill="#abc4d6"/>
        <path id="Trazado_874334" data-name="Trazado 874334" d="M160.846,224.291h51.1a1.446,1.446,0,0,0,0-2.891h-51.1a1.446,1.446,0,0,0,0,2.891Z" transform="translate(-109.282 -172.671)" fill="#abc4d6"/>
        <path id="Trazado_874335" data-name="Trazado 874335" d="M160.846,273.991h51.1a1.446,1.446,0,1,0,0-2.891h-51.1a1.446,1.446,0,0,0,0,2.891Z" transform="translate(-109.282 -212.792)" fill="#abc4d6"/>
        <path id="Trazado_874336" data-name="Trazado 874336" d="M160.846,319.991h51.1a1.446,1.446,0,1,0,0-2.891h-51.1a1.446,1.446,0,0,0,0,2.891Z" transform="translate(-109.282 -249.926)" fill="#abc4d6"/>
        <path id="Trazado_874337" data-name="Trazado 874337" d="M286.929,371.946a1.456,1.456,0,0,0-1.446-1.446H251.946a1.446,1.446,0,0,0,0,2.891h33.538A1.456,1.456,0,0,0,286.929,371.946Z" transform="translate(-182.823 -293.033)" fill="#abc4d6"/>
      </g>
    </g>
  </g>
</svg>
