<svg xmlns="http://www.w3.org/2000/svg" width="127.423" height="89.548" viewBox="0 0 127.423 89.548">
  <g id="Grupo_1101503" data-name="Grupo 1101503" transform="translate(11838.965 12120.998)">
    <g id="Grupo_1098976" data-name="Grupo 1098976" transform="translate(-11877.245 -12180.61)">
      <path id="Trazado_873094" data-name="Trazado 873094" d="M165.656,133.1a521.824,521.824,0,0,0-2.177-55.111,12.3,12.3,0,0,0-11.774-11.133,718.636,718.636,0,0,0-92.48,2.884A12.364,12.364,0,0,0,48.018,81.474c-.873,17.691-.976,35.993-.477,55.42a12.364,12.364,0,0,0,12.08,12.039,722.552,722.552,0,0,0,94.969-3.788A12.329,12.329,0,0,0,165.656,133.1Z" fill="#7d6eb2" opacity="0.15" style="mix-blend-mode: multiply;isolation: isolate"/>
      <path id="Trazado_873095" data-name="Trazado 873095" d="M157.441,127.035a522.081,522.081,0,0,0-2.177-55.11,12.3,12.3,0,0,0-11.775-11.134A718.621,718.621,0,0,0,51.01,63.675,12.366,12.366,0,0,0,39.8,75.411c-.873,17.691-.976,35.992-.477,55.419A12.364,12.364,0,0,0,51.4,142.87a722.567,722.567,0,0,0,94.97-3.788A12.331,12.331,0,0,0,157.441,127.035Z" fill="#fff"/>
      <path id="Trazado_873096" data-name="Trazado 873096" d="M157.441,127.035a522.081,522.081,0,0,0-2.177-55.11,12.3,12.3,0,0,0-11.775-11.134A718.621,718.621,0,0,0,51.01,63.675,12.366,12.366,0,0,0,39.8,75.411c-.873,17.691-.976,35.992-.477,55.419A12.364,12.364,0,0,0,51.4,142.87a722.567,722.567,0,0,0,94.97-3.788A12.331,12.331,0,0,0,157.441,127.035Z" fill="none" stroke="#7d6eb2" stroke-linecap="round" stroke-linejoin="round" stroke-width="1.5"/>
    </g>
    <g id="_2documentation_copia" data-name="2documentation copia" transform="translate(-11823.868 -12141.67)">
      <g id="Grupo_1099639" data-name="Grupo 1099639" transform="translate(7.032 30.732)">
        <path id="Trazado_874303" data-name="Trazado 874303" d="M7.094,52.169,25.543,30.821a.271.271,0,0,1,.374-.027L53.25,54.44a.271.271,0,0,1,.027.374h0L34.815,76.162a.271.271,0,0,1-.374.027L7.121,52.543a.271.271,0,0,1-.027-.374Z" transform="translate(-7.032 -30.732)" fill="#006694" fill-rule="evenodd"/>
        <path id="Trazado_874304" data-name="Trazado 874304" d="M95.007,77.778,107.9,71.9l21.041,18.2a.271.271,0,0,1,.027.374h0L110.5,111.817a.271.271,0,0,1-.374.027l-1.309-1.136L94.459,79.247a1.105,1.105,0,0,1,.548-1.456h0Z" transform="translate(-82.694 -66.4)" fill="#005c85" fill-rule="evenodd"/>
        <path id="Trazado_874305" data-name="Trazado 874305" d="M100.764,45.533l25.676-11.7a.273.273,0,0,1,.361.134l14.989,32.89a.286.286,0,0,1-.134.361l-25.676,11.7a.265.265,0,0,1-.347-.134l-15-32.89a.273.273,0,0,1,.134-.361Z" transform="translate(-88.103 -33.393)" fill="#60b7ff" fill-rule="evenodd"/>
        <path id="Trazado_874306" data-name="Trazado 874306" d="M208.8,91.413h14.227l11.556,25.342a.286.286,0,0,1-.134.361l-25.676,11.7a.265.265,0,0,1-.347-.134l-.721-1.59V92.509a1.1,1.1,0,0,1,1.1-1.109h0Z" transform="translate(-180.893 -83.295)" fill="#56a5e6" fill-rule="evenodd"/>
        <path id="Trazado_874307" data-name="Trazado 874307" d="M214.167,97.7h21.014l7.468,7.468V134.1a.268.268,0,0,1-.267.267H214.167a.268.268,0,0,1-.267-.267V97.967A.268.268,0,0,1,214.167,97.7Z" transform="translate(-186.264 -88.754)" fill="#eaf6ff" fill-rule="evenodd"/>
        <path id="Trazado_874308" data-name="Trazado 874308" d="M373.1,97.7v5.8a1.693,1.693,0,0,0,1.683,1.683h5.8l-7.468-7.468Z" transform="translate(-324.197 -88.754)" fill="#bec7cf" fill-rule="evenodd"/>
        <path id="Trazado_874309" data-name="Trazado 874309" d="M126.354,238.768H148.41a4.239,4.239,0,0,1,4.221,4.221v17.327a4.239,4.239,0,0,1-4.221,4.221H109.321a4.239,4.239,0,0,1-4.221-4.221V234.56a3.461,3.461,0,0,1,3.46-3.46h7.361a4.243,4.243,0,0,1,2.926,1.6l4.582,4.475a4.19,4.19,0,0,0,2.926,1.6h0Z" transform="translate(-91.999 -204.333)" fill="#ffba57" fill-rule="evenodd"/>
        <path id="Trazado_874310" data-name="Trazado 874310" d="M203.314,239.39A4.207,4.207,0,0,1,205.2,242.9V260.23a4.239,4.239,0,0,1-4.221,4.221h2.365a4.239,4.239,0,0,0,4.221-4.221V242.9a4.23,4.23,0,0,0-4.221-4.221h-2.365a4.108,4.108,0,0,1,2.324.708h.013Zm-24.941-2.311-3.807-3.714-.775-.761a4.19,4.19,0,0,0-2.926-1.6H168.5a4.243,4.243,0,0,1,2.926,1.6l3.139,3.059,1.456,1.416a4.19,4.19,0,0,0,2.926,1.6h2.365a4.243,4.243,0,0,1-2.926-1.6h-.013Z" transform="translate(-146.929 -204.246)" fill="#e6a74e" fill-rule="evenodd"/>
        <path id="Trazado_874311" data-name="Trazado 874311" d="M393.389,278.078a7.989,7.989,0,1,0-7.989-7.989h0A8,8,0,0,0,393.389,278.078Z" transform="translate(-334.854 -231.191)" fill="#25c73b" fill-rule="evenodd"/>
        <path id="Trazado_874312" data-name="Trazado 874312" d="M440.113,262.127a7.986,7.986,0,0,1,.4,15.871c-.134.013-.267.04-.4.04.134,0,.267.013.4.027h.267a7.982,7.982,0,0,0,0-15.964,5.806,5.806,0,0,0-.681.027h.013Z" transform="translate(-382.246 -231.191)" fill="#21b335" fill-rule="evenodd"/>
        <path id="Trazado_874313" data-name="Trazado 874313" d="M416.3,153.7v15.483a7.655,7.655,0,0,1,1.71-.695V153.7Z" transform="translate(-361.626 -137.273)" fill="#d3dde6" fill-rule="evenodd"/>
      </g>
      <path id="Trazado_874314" data-name="Trazado 874314" d="M414.471,293.945a.944.944,0,0,0-1.323,0h0l-5.09,5.09-1.79-1.79a.935.935,0,0,0-1.323,1.323l2.458,2.458a.943.943,0,0,0,1.323,0h0l5.744-5.744a.944.944,0,0,0,0-1.323h0Z" transform="translate(-344.522 -227.816)" fill="#fff"/>
    </g>
  </g>
</svg>
