<svg xmlns="http://www.w3.org/2000/svg" width="138.973" height="157.465" viewBox="0 0 138.973 157.465">
  <g id="Grupo_1105562" data-name="Grupo 1105562" transform="translate(11634.333 11971.258)">
    <g id="Grupo_1099133" data-name="Grupo 1099133" transform="translate(-11963.134 -12031.354)">
      <g id="Grupo_1098979" data-name="Grupo 1098979">
        <path id="Trazado_873099" data-name="Trazado 873099" d="M471.528,81.862c-.311-7.11-6.1-12.939-13.59-13.647a550.829,550.829,0,0,0-90.6-.789c-7.51.519-13.5,6.164-14.014,13.268q-.959,13.15-1.517,26.408a45,45,0,0,0-12.917,9.6l12.543.375c-.833,26.57-.487,53.544,1.06,81.189.388,6.927,6,12.606,13.279,13.43,29.7,3.358,59.984,4.108,92.455.385a14.629,14.629,0,0,0,13.228-13.593Q474.073,140.211,471.528,81.862Z" transform="translate(-10.089 3)" fill="#7d6eb2" opacity="0.15" style="mix-blend-mode: multiply;isolation: isolate"/>
        <path id="Trazado_873100" data-name="Trazado 873100" d="M465.768,76.749c-.311-7.11-6.1-12.938-13.59-13.647a550.938,550.938,0,0,0-90.6-.788c-7.51.518-13.5,6.163-14.014,13.267q-.959,13.152-1.517,26.408a45.027,45.027,0,0,0-12.917,9.6l12.543.375c-.833,26.57-.488,53.543,1.06,81.188.388,6.927,6,12.607,13.279,13.43,29.7,3.359,59.984,4.108,92.455.385A14.629,14.629,0,0,0,465.7,193.377Q468.312,135.1,465.768,76.749Z" fill="#fff"/>
        <path id="Trazado_873101" data-name="Trazado 873101" d="M465.768,76.749c-.311-7.11-6.1-12.938-13.59-13.647a550.938,550.938,0,0,0-90.6-.788c-7.51.518-13.5,6.163-14.014,13.267q-.959,13.152-1.517,26.408a45.027,45.027,0,0,0-12.917,9.6l12.543.375c-.833,26.57-.488,53.543,1.06,81.188.388,6.927,6,12.607,13.279,13.43,29.7,3.359,59.984,4.108,92.455.385A14.629,14.629,0,0,0,465.7,193.377Q468.312,135.1,465.768,76.749Z" fill="none" stroke="#7d6eb2" stroke-linecap="round" stroke-linejoin="round" stroke-width="1.5"/>
      </g>
    </g>
    <g id="social-media_2_" data-name="social-media (2)" transform="translate(-11628.004 -11957.411)">
      <g id="Grupo_1105559" data-name="Grupo 1105559" transform="translate(26.781 9.343)">
        <path id="Trazado_877343" data-name="Trazado 877343" d="M172.7,61.782a1.5,1.5,0,0,1-1.5-1.5V35.675a1.5,1.5,0,0,1,1.5-1.5h7.571V5.518A5.518,5.518,0,0,0,174.757,0H129.138a5.518,5.518,0,0,0-5.518,5.518V18.845h13.457a1.5,1.5,0,0,1,1.5,1.5V37.676a1.5,1.5,0,0,1-1.5,1.5H131.5a1.288,1.288,0,0,0-1.112.642L128.781,42.6a.428.428,0,0,1-.741,0l-1.606-2.782a1.288,1.288,0,0,0-1.112-.642h-1.7V49.246h7.554a1.5,1.5,0,0,1,1.5,1.5V72.128a1.5,1.5,0,0,1-1.5,1.5H123.62V95.284a5.518,5.518,0,0,0,5.518,5.518h45.618a5.518,5.518,0,0,0,5.518-5.518v-33.5Zm-2.839-30.953h-6.225a1.288,1.288,0,0,0-1.112.642l-1.887,3.268a.311.311,0,0,1-.539,0l-1.887-3.268a1.288,1.288,0,0,0-1.112-.642h-6.225a1.5,1.5,0,0,1-1.5-1.5V10.343a1.5,1.5,0,0,1,1.5-1.5h18.987a1.5,1.5,0,0,1,1.5,1.5V29.331a1.5,1.5,0,0,1-1.5,1.5Z" transform="translate(-107.866 0)" fill="#596ca9"/>
        <g id="Grupo_1105516" data-name="Grupo 1105516" transform="translate(15.753)">
          <path id="Trazado_877344" data-name="Trazado 877344" d="M134.829,365.727h-3.851a1.84,1.84,0,0,1-1.839-1.839V344.069H123.62v21.658a5.518,5.518,0,0,0,5.518,5.518h11.209A5.518,5.518,0,0,1,134.829,365.727Z" transform="translate(-123.62 -270.443)" fill="#465a94"/>
          <path id="Trazado_877345" data-name="Trazado 877345" d="M128.41,186.707a.423.423,0,0,1-.37-.214l-1.606-2.782a1.288,1.288,0,0,0-1.112-.642h-1.7v10.072h5.518v-7.268l-.358.62A.424.424,0,0,1,128.41,186.707Z" transform="translate(-123.62 -143.895)" fill="#465a94"/>
          <path id="Trazado_877346" data-name="Trazado 877346" d="M123.619,5.518V18.845h5.518V7.358a1.84,1.84,0,0,1,1.839-1.839h3.851A5.518,5.518,0,0,1,140.346,0H129.137a5.518,5.518,0,0,0-5.518,5.518Z" transform="translate(-123.619 0)" fill="#465a94"/>
        </g>
        <path id="Trazado_877347" data-name="Trazado 877347" d="M192.974,82.052a1.5,1.5,0,0,1-1.5-1.5V55.946a1.5,1.5,0,0,1,1.5-1.5h2.053V27.628a1.84,1.84,0,0,0-1.839-1.839h-7.17a1.84,1.84,0,0,0-1.692,1.118l-.468,1.1a3.672,3.672,0,0,1-.738,1.112h7.015a1.5,1.5,0,0,1,1.5,1.5V49.6a1.5,1.5,0,0,1-1.5,1.5h-6.225a1.288,1.288,0,0,0-1.112.642l-1.887,3.268a.311.311,0,0,1-.539,0l-1.887-3.268a1.288,1.288,0,0,0-1.112-.642h-6.225a1.5,1.5,0,0,1-1.5-1.5V30.614a1.483,1.483,0,0,1,.049-.375h-5.738A3.679,3.679,0,0,1,160.577,28l-.468-1.1a1.839,1.839,0,0,0-1.692-1.118h-7.17a1.84,1.84,0,0,0-1.839,1.839V39.116h7.938a1.5,1.5,0,0,1,1.5,1.5V57.947a1.5,1.5,0,0,1-1.5,1.5h-5.578a1.288,1.288,0,0,0-1.112.642l-1.248,2.162v7.268h2.036a1.5,1.5,0,0,1,1.5,1.5V92.4a1.5,1.5,0,0,1-1.5,1.5h-2.036v19.818a1.839,1.839,0,0,0,1.839,1.839h41.94a1.84,1.84,0,0,0,1.839-1.839V82.052Z" transform="translate(-128.136 -20.271)" fill="#fff"/>
        <g id="Grupo_1105517" data-name="Grupo 1105517" transform="translate(21.272 5.518)">
          <path id="Trazado_877348" data-name="Trazado 877348" d="M156.13,237.339v-54.27h-4.361a1.288,1.288,0,0,0-1.112.642l-1.248,2.162v7.268h2.036a1.5,1.5,0,0,1,1.5,1.5v21.384a1.5,1.5,0,0,1-1.5,1.5h-2.036v19.818a1.839,1.839,0,0,0,1.839,1.839h6.721A1.839,1.839,0,0,1,156.13,237.339Z" transform="translate(-149.409 -149.413)" fill="#f5f8f9"/>
          <path id="Trazado_877349" data-name="Trazado 877349" d="M156.129,39.116V27.628a1.84,1.84,0,0,1,1.839-1.839h-6.721a1.84,1.84,0,0,0-1.839,1.839V39.116Z" transform="translate(-149.408 -25.789)" fill="#f5f8f9"/>
        </g>
        <path id="Trazado_877350" data-name="Trazado 877350" d="M116.549,87.069H99.216A1.712,1.712,0,0,0,97.5,88.781v17.333a1.712,1.712,0,0,0,1.712,1.712h5.578a1.07,1.07,0,0,1,.927.535l1.606,2.782a.642.642,0,0,0,1.112,0l1.606-2.782a1.07,1.07,0,0,1,.927-.535h5.578a1.712,1.712,0,0,0,1.712-1.712V88.781A1.711,1.711,0,0,0,116.549,87.069Z" transform="translate(-87.339 -68.437)" fill="#fd4755"/>
        <g id="Grupo_1105518" data-name="Grupo 1105518" transform="translate(10.165 18.632)">
          <path id="Trazado_877351" data-name="Trazado 877351" d="M101.89,106.114V88.781a1.712,1.712,0,0,1,1.712-1.712H99.216A1.712,1.712,0,0,0,97.5,88.781v17.333a1.712,1.712,0,0,0,1.712,1.712H103.6A1.712,1.712,0,0,1,101.89,106.114Z" transform="translate(-97.504 -87.069)" fill="#fb2b3a"/>
        </g>
        <g id="Grupo_1105523" data-name="Grupo 1105523" transform="translate(35.381 4.256)">
          <g id="Grupo_1105520" data-name="Grupo 1105520" transform="translate(14.191)">
            <g id="Grupo_1105519" data-name="Grupo 1105519">
              <circle id="Elipse_11745" data-name="Elipse 11745" cx="1.605" cy="1.605" r="1.605" fill="#9faced"/>
            </g>
          </g>
          <g id="Grupo_1105522" data-name="Grupo 1105522" transform="translate(0 0)">
            <g id="Grupo_1105521" data-name="Grupo 1105521">
              <path id="Trazado_877352" data-name="Trazado 877352" d="M225.6,23.1h-8.65a1.6,1.6,0,1,1,0-3.21h8.65a1.6,1.6,0,0,1,0,3.21Z" transform="translate(-215.342 -19.887)" fill="#9faced"/>
            </g>
          </g>
        </g>
        <g id="Grupo_1105527" data-name="Grupo 1105527" transform="translate(28.032 73.859)">
          <g id="Grupo_1105524" data-name="Grupo 1105524" transform="translate(0 0)">
            <path id="Trazado_877353" data-name="Trazado 877353" d="M206.046,359.264H188.052a7.052,7.052,0,1,1,0-14.1h17.994a7.052,7.052,0,1,1,0,14.1Z" transform="translate(-181 -345.161)" fill="#26a6fe"/>
          </g>
          <g id="Grupo_1105525" data-name="Grupo 1105525" transform="translate(0)">
            <path id="Trazado_877354" data-name="Trazado 877354" d="M189.773,352.211a7.052,7.052,0,0,1,7.052-7.052h-8.773a7.052,7.052,0,1,0,0,14.1h8.773A7.052,7.052,0,0,1,189.773,352.211Z" transform="translate(-181 -345.159)" fill="#0593fc"/>
          </g>
          <g id="Grupo_1105526" data-name="Grupo 1105526" transform="translate(5.933 5.447)">
            <path id="Trazado_877355" data-name="Trazado 877355" d="M227.353,373.824H210.332a1.6,1.6,0,1,1,0-3.21h17.022a1.6,1.6,0,0,1,0,3.21Z" transform="translate(-208.727 -370.614)" fill="#fff"/>
          </g>
        </g>
        <g id="Grupo_1105532" data-name="Grupo 1105532" transform="translate(41.299 8.632)">
          <path id="Trazado_877356" data-name="Trazado 877356" d="M263.7,40.337H244.712A1.712,1.712,0,0,0,243,42.049V61.036a1.712,1.712,0,0,0,1.712,1.712h6.225a1.07,1.07,0,0,1,.927.535l1.887,3.268a.525.525,0,0,0,.909,0l1.887-3.268a1.07,1.07,0,0,1,.927-.535H263.7a1.712,1.712,0,0,0,1.712-1.712V42.049A1.712,1.712,0,0,0,263.7,40.337Z" transform="translate(-243 -40.337)" fill="#fed402"/>
          <g id="Grupo_1105528" data-name="Grupo 1105528" transform="translate(0)">
            <path id="Trazado_877357" data-name="Trazado 877357" d="M248.621,61.036V42.049a1.712,1.712,0,0,1,1.712-1.712h-5.621A1.712,1.712,0,0,0,243,42.049V61.036a1.712,1.712,0,0,0,1.712,1.712h5.621A1.711,1.711,0,0,1,248.621,61.036Z" transform="translate(-243 -40.337)" fill="#fac600"/>
          </g>
          <g id="Grupo_1105529" data-name="Grupo 1105529" transform="translate(4.318 4.508)">
            <path id="Trazado_877358" data-name="Trazado 877358" d="M270.828,61.8l1.609,3.26a.718.718,0,0,0,.54.393l3.6.523a.718.718,0,0,1,.4,1.224l-2.6,2.537a.719.719,0,0,0-.207.635l.615,3.583a.718.718,0,0,1-1.041.757l-3.217-1.692a.717.717,0,0,0-.668,0l-3.217,1.692a.718.718,0,0,1-1.041-.757l.615-3.583a.718.718,0,0,0-.207-.635L263.4,67.2a.718.718,0,0,1,.4-1.224l3.6-.523a.718.718,0,0,0,.54-.393l1.609-3.26a.718.718,0,0,1,1.287,0Z" transform="translate(-263.179 -61.404)" fill="#fff"/>
          </g>
          <g id="Grupo_1105530" data-name="Grupo 1105530" transform="translate(4.318 4.508)">
            <path id="Trazado_877359" data-name="Trazado 877359" d="M270.828,61.8l1.609,3.26a.718.718,0,0,0,.54.393l3.6.523a.718.718,0,0,1,.4,1.224l-2.6,2.537a.719.719,0,0,0-.207.635l.615,3.583a.718.718,0,0,1-1.041.757l-3.217-1.692a.717.717,0,0,0-.668,0l-3.217,1.692a.718.718,0,0,1-1.041-.757l.615-3.583a.718.718,0,0,0-.207-.635L263.4,67.2a.718.718,0,0,1,.4-1.224l3.6-.523a.718.718,0,0,0,.54-.393l1.609-3.26a.718.718,0,0,1,1.287,0Z" transform="translate(-263.179 -61.404)" fill="#fff"/>
          </g>
          <g id="Grupo_1105531" data-name="Grupo 1105531" transform="translate(4.318 8.695)">
            <path id="Trazado_877360" data-name="Trazado 877360" d="M268.763,88.625l.615-3.583a.717.717,0,0,0-.206-.635l-2.6-2.537a.714.714,0,0,1-.105-.9l-2.669.388a.718.718,0,0,0-.4,1.224l2.6,2.537a.719.719,0,0,1,.207.635l-.615,3.583a.718.718,0,0,0,1.041.757l2.153-1.132A.713.713,0,0,1,268.763,88.625Z" transform="translate(-263.179 -80.972)" fill="#f5f8f9"/>
          </g>
        </g>
        <g id="Grupo_1105539" data-name="Grupo 1105539" transform="translate(28.888 34.681)">
          <g id="Grupo_1105533" data-name="Grupo 1105533" transform="translate(0 9.415)">
            <path id="Trazado_877361" data-name="Trazado 877361" d="M213.674,206.069H186.712A1.712,1.712,0,0,0,185,207.781v17.333a1.712,1.712,0,0,0,1.712,1.712h9.032a1.07,1.07,0,0,1,.927.535l2.966,5.138a.642.642,0,0,0,1.112,0l2.966-5.138a1.07,1.07,0,0,1,.927-.535h9.032a1.712,1.712,0,0,0,1.712-1.712V207.781a1.712,1.712,0,0,0-1.712-1.712Z" transform="translate(-185 -206.069)" fill="#97d729"/>
          </g>
          <g id="Grupo_1105535" data-name="Grupo 1105535" transform="translate(0 9.415)">
            <g id="Grupo_1105534" data-name="Grupo 1105534">
              <path id="Trazado_877362" data-name="Trazado 877362" d="M189.28,225.114V207.781a1.712,1.712,0,0,1,1.712-1.712h-4.28A1.712,1.712,0,0,0,185,207.781v17.333a1.712,1.712,0,0,0,1.712,1.712h4.28A1.712,1.712,0,0,1,189.28,225.114Z" transform="translate(-185 -206.069)" fill="#8bc727"/>
            </g>
          </g>
          <g id="Grupo_1105538" data-name="Grupo 1105538" transform="translate(5.671)">
            <path id="Trazado_877363" data-name="Trazado 877363" d="M225.356,217.51a6.614,6.614,0,0,1-8.667,0,8.042,8.042,0,0,0-5.189,7.518v3.728a1.07,1.07,0,0,0,1.07,1.07h16.9a1.07,1.07,0,0,0,1.07-1.07v-3.728A8.043,8.043,0,0,0,225.356,217.51Z" transform="translate(-211.5 -205.646)" fill="#26a6fe"/>
            <path id="Trazado_877364" data-name="Trazado 877364" d="M218.883,218.77a6.63,6.63,0,0,1-2.193-1.261,8.042,8.042,0,0,0-5.189,7.518v3.729a1.07,1.07,0,0,0,1.07,1.07h4.387a1.07,1.07,0,0,1-1.07-1.07v-3.729A8.02,8.02,0,0,1,218.883,218.77Z" transform="translate(-211.501 -205.646)" fill="#0593fc"/>
            <g id="Grupo_1105536" data-name="Grupo 1105536" transform="translate(2.675 0)">
              <circle id="Elipse_11746" data-name="Elipse 11746" cx="6.848" cy="6.848" r="6.848" fill="#0593fc"/>
            </g>
            <g id="Grupo_1105537" data-name="Grupo 1105537" transform="translate(2.675)">
              <path id="Trazado_877365" data-name="Trazado 877365" d="M229.136,168.917a6.848,6.848,0,0,1,4.28-6.348,6.848,6.848,0,1,0,0,12.7,6.848,6.848,0,0,1-4.28-6.348Z" transform="translate(-224 -162.069)" fill="#0182fc"/>
            </g>
          </g>
        </g>
        <g id="Grupo_1105546" data-name="Grupo 1105546" transform="translate(0 49.032)">
          <g id="Grupo_1105540" data-name="Grupo 1105540" transform="translate(0)">
            <path id="Trazado_877366" data-name="Trazado 877366" d="M73.308,253.945h-21.6A1.712,1.712,0,0,1,50,252.233V230.849a1.712,1.712,0,0,1,1.712-1.712h21.6a1.712,1.712,0,0,1,1.712,1.712v21.384A1.712,1.712,0,0,1,73.308,253.945Z" transform="translate(-50 -229.137)" fill="#fd8087"/>
          </g>
          <g id="Grupo_1105541" data-name="Grupo 1105541">
            <path id="Trazado_877367" data-name="Trazado 877367" d="M56.65,252.233V230.849a1.712,1.712,0,0,1,1.712-1.712h-6.65A1.712,1.712,0,0,0,50,230.849v21.384a1.712,1.712,0,0,0,1.712,1.712h6.65A1.712,1.712,0,0,1,56.65,252.233Z" transform="translate(-50 -229.137)" fill="#fe646f"/>
          </g>
          <g id="Grupo_1105545" data-name="Grupo 1105545" transform="translate(4.244 4.965)">
            <g id="Grupo_1105542" data-name="Grupo 1105542" transform="translate(2.008)">
              <path id="Trazado_877368" data-name="Trazado 877368" d="M90.126,255.55H80.819a1.6,1.6,0,1,1,0-3.21h9.308a1.6,1.6,0,1,1,0,3.21Z" transform="translate(-79.214 -252.34)" fill="#fff"/>
            </g>
            <g id="Grupo_1105543" data-name="Grupo 1105543" transform="translate(0 5.566)">
              <path id="Trazado_877369" data-name="Trazado 877369" d="M84.759,281.562H71.437a1.6,1.6,0,1,1,0-3.21H84.759a1.6,1.6,0,1,1,0,3.21Z" transform="translate(-69.832 -278.352)" fill="#fff"/>
            </g>
            <g id="Grupo_1105544" data-name="Grupo 1105544" transform="translate(0 11.133)">
              <path id="Trazado_877370" data-name="Trazado 877370" d="M84.759,307.575H71.437a1.6,1.6,0,0,1,0-3.21H84.759a1.6,1.6,0,1,1,0,3.21Z" transform="translate(-69.832 -304.365)" fill="#fff"/>
            </g>
          </g>
        </g>
        <g id="Grupo_1105550" data-name="Grupo 1105550" transform="translate(13.589 23.206)">
          <g id="Grupo_1105547" data-name="Grupo 1105547" transform="translate(0)">
            <path id="Trazado_877371" data-name="Trazado 877371" d="M120.459,120.054a.443.443,0,0,1-.314-.13l-5.639-5.639a3.42,3.42,0,1,1,4.836-4.836l1.117,1.117,1.117-1.117a3.42,3.42,0,1,1,4.836,4.836l-5.639,5.639A.443.443,0,0,1,120.459,120.054Z" transform="translate(-113.504 -108.447)" fill="#fff"/>
          </g>
          <g id="Grupo_1105549" data-name="Grupo 1105549" transform="translate(0 0)">
            <g id="Grupo_1105548" data-name="Grupo 1105548">
              <path id="Trazado_877372" data-name="Trazado 877372" d="M117.814,112.654a3.412,3.412,0,0,1-.508-4.183,3.489,3.489,0,0,0-.382-.023,3.42,3.42,0,0,0-2.418,5.838l5.639,5.639a.444.444,0,0,0,.628,0l2.156-2.156Z" transform="translate(-113.504 -108.448)" fill="#f5f8f9"/>
            </g>
          </g>
        </g>
        <g id="Grupo_1105558" data-name="Grupo 1105558" transform="translate(63.126 33.963)">
          <g id="Grupo_1105551" data-name="Grupo 1105551" transform="translate(0)">
            <path id="Trazado_877373" data-name="Trazado 877373" d="M371.32,186.749H346.712A1.712,1.712,0,0,1,345,185.037V160.429a1.712,1.712,0,0,1,1.712-1.712H371.32a1.712,1.712,0,0,1,1.712,1.712v24.608A1.712,1.712,0,0,1,371.32,186.749Z" transform="translate(-345 -158.717)" fill="#26a6fe"/>
          </g>
          <g id="Grupo_1105552" data-name="Grupo 1105552" transform="translate(0)">
            <path id="Trazado_877374" data-name="Trazado 877374" d="M352.7,185.037V160.429a1.712,1.712,0,0,1,1.712-1.712h-7.7A1.712,1.712,0,0,0,345,160.429v24.608a1.712,1.712,0,0,0,1.712,1.712h7.7A1.712,1.712,0,0,1,352.7,185.037Z" transform="translate(-345 -158.717)" fill="#0593fc"/>
          </g>
          <g id="Grupo_1105556" data-name="Grupo 1105556" transform="translate(2.5 11.333)">
            <g id="Grupo_1105553" data-name="Grupo 1105553" transform="translate(0 1.677)">
              <path id="Trazado_877375" data-name="Trazado 877375" d="M363.647,229.106l3.377-4.724-.023-.237-3.18-4.448a.438.438,0,0,0-.712,0l-6.343,8.873a.438.438,0,0,0,.356.692h6.22l.386-.157Z" transform="translate(-356.683 -219.514)" fill="#d8ecfe"/>
            </g>
            <g id="Grupo_1105555" data-name="Grupo 1105555" transform="translate(6.659)">
              <g id="Grupo_1105554" data-name="Grupo 1105554">
                <path id="Trazado_877376" data-name="Trazado 877376" d="M395.838,211.86,387.8,223.1h15.935a.438.438,0,0,0,.356-.692l-7.542-10.55a.438.438,0,0,0-.712,0Z" transform="translate(-387.801 -211.677)" fill="#fff"/>
              </g>
            </g>
            <path id="Trazado_877377" data-name="Trazado 877377" d="M396.55,211.86a.438.438,0,0,0-.712,0L387.8,223.1h4.426l6.18-8.644Z" transform="translate(-381.142 -211.677)" fill="#f5f8f9"/>
          </g>
          <g id="Grupo_1105557" data-name="Grupo 1105557" transform="translate(3.801 3.654)">
            <circle id="Elipse_11747" data-name="Elipse 11747" cx="3.132" cy="3.132" r="3.132" fill="#fff"/>
          </g>
          <path id="Trazado_877378" data-name="Trazado 877378" d="M364.953,178.927A3.13,3.13,0,0,1,366.99,176a3.132,3.132,0,1,0,0,5.862A3.13,3.13,0,0,1,364.953,178.927Z" transform="translate(-358.961 -172.141)" fill="#f5f8f9"/>
        </g>
      </g>
    </g>
  </g>
</svg>
