<svg xmlns="http://www.w3.org/2000/svg" width="609.694" height="455.481" viewBox="0 0 609.694 455.481">
  <g id="Grupo_1101501" data-name="Grupo 1101501" transform="translate(-495.306 -5698.537)">
    <path id="Trazado_879739" data-name="Trazado 879739" d="M21.316,0H434.165a21.316,21.316,0,0,1,21.316,21.316V588.378a21.316,21.316,0,0,1-21.316,21.316H21.316A21.316,21.316,0,0,1,0,588.378V21.316A21.316,21.316,0,0,1,21.316,0Z" transform="translate(1105 5698.537) rotate(90)" fill="#f6f6f6"/>
    <g id="Grupo_1099748" data-name="Grupo 1099748" transform="translate(-17.497 43.303)">
      <circle id="Elipse_662" data-name="Elipse 662" cx="147.765" cy="147.765" r="147.765" transform="translate(534.497 5686.779)" fill="#cbc5e0"/>
      <circle id="Elipse_663" data-name="Elipse 663" cx="109.427" cy="109.427" r="109.427" transform="translate(572.835 5725.118)" fill="#7d6eb2"/>
      <g id="Grupo_12801" data-name="Grupo 12801" transform="translate(588.009 5700.978)">
        <g id="Grupo_12800" data-name="Grupo 12800">
          <g id="Grupo_12799" data-name="Grupo 12799">
            <path id="Trazado_18228" data-name="Trazado 18228" d="M207.271,1091.515l-8.052-5.113-.059.052q1.7,1.629,2.562,2.6l3.683,4.13-2.276,2.03-8.481-9.507,3.422-3.051,8,4.98.053-.046-4.078-8.484,3.427-3.058,8.481,9.507-2.361,2.106-3.719-4.168c-.192-.217-.4-.46-.634-.73s-.778-.945-1.647-2.024l-.058.052,4.179,8.547Z" transform="translate(-194.648 -1046.971)" fill="#7d6eb2"/>
            <path id="Trazado_18229" data-name="Trazado 18229" d="M222.252,1079.75l-6.157,4.393-7.4-10.371,6.157-4.393,1.6,2.248-3.354,2.4,1.163,1.631,3.107-2.217,1.6,2.249-3.106,2.217,1.4,1.957,3.355-2.393Z" transform="translate(-194.768 -1046.914)" fill="#7d6eb2"/>
            <path id="Trazado_18230" data-name="Trazado 18230" d="M224.6,1072.863l2.349,4-2.967,1.745-6.454-10.985,3.6-2.114q4.478-2.633,6.386.615a3.76,3.76,0,0,1-.129,4.047l6.013,2.9-3.366,1.979-4.678-2.629Zm-1.311-2.231.556-.328q1.554-.913.747-2.287-.666-1.135-2.192-.238l-.585.343Z" transform="translate(-194.843 -1046.87)" fill="#7d6eb2"/>
            <path id="Trazado_18231" data-name="Trazado 18231" d="M235.2,1061.138a2.2,2.2,0,0,0-1.314,1.721,4.862,4.862,0,0,0,.547,2.807q1.551,3.334,4.087,2.153a5.683,5.683,0,0,0,1.386-.9,15.969,15.969,0,0,0,1.207-1.186l1.228,2.639a8.827,8.827,0,0,1-2.973,2.161,5.7,5.7,0,0,1-4.714.348,6.9,6.9,0,0,1-3.435-3.735,7.718,7.718,0,0,1-.791-3.467,5.332,5.332,0,0,1,.971-2.994,6.476,6.476,0,0,1,2.642-2.119,9.055,9.055,0,0,1,3.959-.851l.186,2.9a11.8,11.8,0,0,0-1.515.089A4.956,4.956,0,0,0,235.2,1061.138Z" transform="translate(-194.954 -1046.814)" fill="#7d6eb2"/>
            <path id="Trazado_18232" data-name="Trazado 18232" d="M252.071,1065.4l-1.379-2.047-3.908,1.363.178,2.467-3.57,1.246-.291-13.448,4.336-1.512,8.188,10.69Zm-2.983-4.478-1.208-1.794q-.41-.595-1.035-1.549t-.864-1.378c.049.3.111.792.19,1.484s.2,2.069.357,4.13Z" transform="translate(-195.062 -1046.778)" fill="#7d6eb2"/>
            <path id="Trazado_18233" data-name="Trazado 18233" d="M265.8,1054.963a6.579,6.579,0,0,1-.591,5.185,6.744,6.744,0,0,1-4.414,2.8l-4.013.938-2.9-12.405,4.293-1a6.658,6.658,0,0,1,4.969.45A5.92,5.92,0,0,1,265.8,1054.963Zm-3.451.932a4.046,4.046,0,0,0-1.265-2.371,2.558,2.558,0,0,0-2.242-.344l-.977.228,1.625,6.949.747-.174a2.782,2.782,0,0,0,2.033-1.411A4.4,4.4,0,0,0,262.345,1055.9Z" transform="translate(-195.154 -1046.75)" fill="#7d6eb2"/>
            <path id="Trazado_18234" data-name="Trazado 18234" d="M280.429,1053.307a6.872,6.872,0,0,1-.986,5.041,7.168,7.168,0,0,1-9.151,1.085,8.253,8.253,0,0,1-1.166-9.685,7.211,7.211,0,0,1,9.165-1.109A6.874,6.874,0,0,1,280.429,1053.307Zm-8.7,1.04q.439,3.669,2.99,3.364a2.213,2.213,0,0,0,1.819-1.121,6.514,6.514,0,0,0-.675-5.575,2.187,2.187,0,0,0-2.008-.678Q271.284,1050.644,271.725,1054.347Z" transform="translate(-195.275 -1046.726)" fill="#7d6eb2"/>
            <path id="Trazado_18235" data-name="Trazado 18235" d="M297.315,1050.956a4.268,4.268,0,0,1-1.325,3.273,5.079,5.079,0,0,1-3.6,1.092l-.968-.02-.084,4.226-3.441-.07.255-12.736,4.409.088a5.387,5.387,0,0,1,3.6,1.126A3.763,3.763,0,0,1,297.315,1050.956Zm-5.836,1.54.628.013a1.72,1.72,0,0,0,1.241-.41,1.591,1.591,0,0,0,.482-1.195q.024-1.288-1.4-1.318l-.889-.017Z" transform="translate(-195.445 -1046.72)" fill="#7d6eb2"/>
            <path id="Trazado_18236" data-name="Trazado 18236" d="M311.575,1054.843a6.867,6.867,0,0,1-2.161,4.66,7.166,7.166,0,0,1-9.145-1.13,8.258,8.258,0,0,1,1.18-9.685,7.214,7.214,0,0,1,9.165,1.112A6.877,6.877,0,0,1,311.575,1054.843Zm-8.7-1.068q-.449,3.668,2.1,3.981a2.215,2.215,0,0,0,2.034-.654,6.517,6.517,0,0,0,.675-5.576,2.188,2.188,0,0,0-1.788-1.137Q303.329,1050.073,302.874,1053.775Z" transform="translate(-195.541 -1046.727)" fill="#7d6eb2"/>
            <path id="Trazado_18237" data-name="Trazado 18237" d="M318.376,1062.9l-3.358-.76,2.191-9.682-3.034-.686.622-2.745,9.417,2.132-.622,2.744-3.026-.684Z" transform="translate(-195.669 -1046.74)" fill="#7d6eb2"/>
            <path id="Trazado_18238" data-name="Trazado 18238" d="M330.21,1066.348,323,1064.073l3.831-12.15,7.214,2.273-.831,2.634-3.931-1.239-.6,1.912,3.639,1.147-.829,2.634-3.641-1.147-.724,2.293,3.931,1.239Z" transform="translate(-195.744 -1046.764)" fill="#7d6eb2"/>
            <path id="Trazado_18239" data-name="Trazado 18239" d="M343.269,1071.737l-4.147-1.782-.734-10.084-.072-.031q-.683,2.011-1.123,3.036l-2.266,5.277-2.8-1.2,5.028-11.706,4.131,1.774.765,9.965.049.02q.647-1.818,1.108-2.891l2.273-5.292,2.819,1.211Z" transform="translate(-195.822 -1046.793)" fill="#7d6eb2"/>
            <path id="Trazado_18240" data-name="Trazado 18240" d="M355.461,1066.963a2.193,2.193,0,0,0-2.163-.064,4.864,4.864,0,0,0-1.963,2.08q-1.805,3.205.632,4.578a5.722,5.722,0,0,0,1.543.6,16.408,16.408,0,0,0,1.668.29l-1.429,2.536a8.841,8.841,0,0,1-3.49-1.157,5.706,5.706,0,0,1-3.031-3.628,6.9,6.9,0,0,1,1.034-4.969,7.723,7.723,0,0,1,2.356-2.663,5.321,5.321,0,0,1,3-.956,6.483,6.483,0,0,1,3.262.912,9.069,9.069,0,0,1,3,2.72l-2.249,1.844a11.971,11.971,0,0,0-.957-1.179A4.923,4.923,0,0,0,355.461,1066.963Z" transform="translate(-195.95 -1046.864)" fill="#7d6eb2"/>
            <path id="Trazado_18241" data-name="Trazado 18241" d="M355.431,1078.753l7.033-10.621,2.885,1.91-7.034,10.622Z" transform="translate(-196.021 -1046.903)" fill="#7d6eb2"/>
            <path id="Trazado_18242" data-name="Trazado 18242" d="M366.653,1086.9l.974-2.269-3.264-2.546-1.977,1.486-2.982-2.325,11.145-7.532,3.621,2.825-4.548,12.676Zm2.146-4.935.853-1.987q.278-.668.742-1.709c.31-.695.539-1.186.691-1.473q-.336.3-1.145.965t-3.277,2.538Z" transform="translate(-196.055 -1046.95)" fill="#7d6eb2"/>
            <path id="Trazado_18243" data-name="Trazado 18243" d="M370.456,1090.071l8.74-9.268,2.5,2.361-6.833,7.247,3.57,3.366-1.908,2.022Z" transform="translate(-196.15 -1047.011)" fill="#7d6eb2"/>
          </g>
        </g>
      </g>
      <g id="Grupo_12804" data-name="Grupo 12804" transform="translate(589.064 5922.709)">
        <g id="Grupo_12803" data-name="Grupo 12803">
          <g id="Grupo_12802" data-name="Grupo 12802">
            <path id="Trazado_18244" data-name="Trazado 18244" d="M199.93,1283.651l3.987-8.666-.059-.05q-1.386,1.9-2.229,2.886l-3.6,4.2-2.318-1.983,8.284-9.68,3.483,2.98-3.862,8.6.052.046,7.861-5.178,3.49,2.986-8.285,9.68-2.4-2.057,3.632-4.243c.189-.22.4-.463.639-.726s.832-.9,1.784-1.9l-.059-.051-7.908,5.286Z" transform="translate(-195.712 -1270.362)" fill="#7d6eb2"/>
            <path id="Trazado_18245" data-name="Trazado 18245" d="M216.017,1295.854l-6.232-4.284,7.217-10.5,6.233,4.286-1.566,2.275-3.4-2.335-1.136,1.652,3.146,2.162-1.565,2.276-3.146-2.162-1.362,1.982,3.4,2.335Z" transform="translate(-195.832 -1270.454)" fill="#7d6eb2"/>
            <path id="Trazado_18246" data-name="Trazado 18246" d="M223.789,1295.111l-2.289,4.03-2.993-1.7,6.293-11.078,3.629,2.061q4.517,2.565,2.656,5.839a3.759,3.759,0,0,1-3.569,1.911l.486,6.661-3.395-1.929-.059-5.365Zm1.278-2.252.561.318q1.569.892,2.356-.5.65-1.142-.887-2.018l-.592-.335Z" transform="translate(-195.907 -1270.499)" fill="#7d6eb2"/>
            <path id="Trazado_18247" data-name="Trazado 18247" d="M239.143,1296.791a2.2,2.2,0,0,0-2.161.131,4.862,4.862,0,0,0-1.768,2.248q-1.511,3.354,1.04,4.5a5.718,5.718,0,0,0,1.59.458,16.239,16.239,0,0,0,1.687.138l-1.2,2.654a8.834,8.834,0,0,1-3.579-.839,5.7,5.7,0,0,1-3.344-3.341A6.9,6.9,0,0,1,232,1297.7a7.7,7.7,0,0,1,2.108-2.863,5.331,5.331,0,0,1,2.9-1.222,6.5,6.5,0,0,1,3.33.616,9.093,9.093,0,0,1,3.23,2.44l-2.075,2.038a11.709,11.709,0,0,0-1.057-1.089A4.932,4.932,0,0,0,239.143,1296.791Z" transform="translate(-196.015 -1270.56)" fill="#7d6eb2"/>
            <path id="Trazado_18248" data-name="Trazado 18248" d="M248.581,1311.143l.172-2.464-3.921-1.327-1.376,2.055-3.582-1.213,8.038-10.785,4.35,1.473-.113,13.466Zm.4-5.367.151-2.157q.04-.721.137-1.858t.166-1.619q-.217.4-.762,1.288t-2.258,3.477Z" transform="translate(-196.089 -1270.593)" fill="#7d6eb2"/>
            <path id="Trazado_18249" data-name="Trazado 18249" d="M266.4,1308.817a6.583,6.583,0,0,1-2.8,4.4,6.75,6.75,0,0,1-5.2.591l-4.019-.912,2.82-12.424,4.3.976a6.648,6.648,0,0,1,4.27,2.578A5.921,5.921,0,0,1,266.4,1308.817Zm-3.512-.671a4.043,4.043,0,0,0-.1-2.686,2.562,2.562,0,0,0-1.865-1.29l-.978-.222-1.578,6.96.747.17a2.78,2.78,0,0,0,2.446-.379A4.4,4.4,0,0,0,262.884,1308.146Z" transform="translate(-196.213 -1270.619)" fill="#7d6eb2"/>
            <path id="Trazado_18250" data-name="Trazado 18250" d="M280.654,1310.874a6.869,6.869,0,0,1-2.132,4.673,7.166,7.166,0,0,1-9.152-1.074,8.258,8.258,0,0,1,1.118-9.69,7.211,7.211,0,0,1,9.172,1.054A6.872,6.872,0,0,1,280.654,1310.874Zm-8.707-1.013q-.428,3.67,2.126,3.967a2.209,2.209,0,0,0,2.03-.667,6.518,6.518,0,0,0,.64-5.58,2.186,2.186,0,0,0-1.795-1.125Q272.377,1306.156,271.947,1309.861Z" transform="translate(-196.332 -1270.646)" fill="#7d6eb2"/>
            <path id="Trazado_18251" data-name="Trazado 18251" d="M297.131,1308.616a4.267,4.267,0,0,1-1.2,3.322,5.077,5.077,0,0,1-3.554,1.23l-.968.019.08,4.226-3.44.065-.242-12.738,4.408-.083a5.39,5.39,0,0,1,3.645.986A3.762,3.762,0,0,1,297.131,1308.616Zm-5.771,1.767.627-.012a1.72,1.72,0,0,0,1.225-.46,1.578,1.578,0,0,0,.434-1.211q-.024-1.289-1.454-1.262l-.888.017Z" transform="translate(-196.499 -1270.655)" fill="#7d6eb2"/>
            <path id="Trazado_18252" data-name="Trazado 18252" d="M311.258,1309.392a6.868,6.868,0,0,1-.99,5.041,7.166,7.166,0,0,1-9.151,1.078,8.257,8.257,0,0,1-1.159-9.686,7.21,7.21,0,0,1,9.167-1.1A6.883,6.883,0,0,1,311.258,1309.392Zm-8.705,1.033q.436,3.67,2.988,3.367a2.211,2.211,0,0,0,1.819-1.12,6.52,6.52,0,0,0-.67-5.576,2.189,2.189,0,0,0-2.008-.679Q302.113,1306.722,302.553,1310.426Z" transform="translate(-196.593 -1270.645)" fill="#7d6eb2"/>
            <path id="Trazado_18253" data-name="Trazado 18253" d="M320.575,1313.9l-3.362.737-2.123-9.7-3.039.664-.6-2.749,9.433-2.064.6,2.748-3.029.664Z" transform="translate(-196.701 -1270.622)" fill="#7d6eb2"/>
            <path id="Trazado_18254" data-name="Trazado 18254" d="M333.29,1310.335l-7.235,2.208-3.718-12.185,7.235-2.208.806,2.642-3.942,1.2.585,1.918,3.651-1.114.806,2.642-3.651,1.113.7,2.3,3.942-1.2Z" transform="translate(-196.794 -1270.6)" fill="#7d6eb2"/>
            <path id="Trazado_18255" data-name="Trazado 18255" d="M347.385,1304.731l-4.168,1.732-7.739-6.5-.073.029q.965,1.892,1.394,2.922l2.2,5.3-2.816,1.17-4.887-11.766,4.152-1.724,7.678,6.4.048-.02q-.851-1.731-1.3-2.81l-2.209-5.32,2.833-1.176Z" transform="translate(-196.87 -1270.555)" fill="#7d6eb2"/>
            <path id="Trazado_18256" data-name="Trazado 18256" d="M350.84,1291.5a2.194,2.194,0,0,0-1.2,1.8,4.86,4.86,0,0,0,.722,2.767q1.755,3.231,4.214,1.895a5.751,5.751,0,0,0,1.326-.99,16.246,16.246,0,0,0,1.131-1.26l1.39,2.557a8.827,8.827,0,0,1-2.832,2.344,5.708,5.708,0,0,1-4.686.642,6.9,6.9,0,0,1-3.66-3.514,7.706,7.706,0,0,1-1.006-3.41,5.329,5.329,0,0,1,.782-3.049,6.481,6.481,0,0,1,2.505-2.279,9.073,9.073,0,0,1,3.9-1.1l.37,2.885a11.8,11.8,0,0,0-1.507.184A4.926,4.926,0,0,0,350.84,1291.5Z" transform="translate(-196.998 -1270.512)" fill="#7d6eb2"/>
            <path id="Trazado_18257" data-name="Trazado 18257" d="M361.278,1297.087l-6.852-10.74,2.917-1.86,6.851,10.74Z" transform="translate(-197.068 -1270.483)" fill="#7d6eb2"/>
            <path id="Trazado_18258" data-name="Trazado 18258" d="M373.313,1288.707l-1.933-1.536-3.313,2.481.915,2.3-3.027,2.269-4.343-12.73,3.676-2.754,11.037,7.716Zm-4.2-3.367L367.422,1284q-.571-.443-1.454-1.164t-1.24-1.052q.2.4.631,1.356t1.587,3.829Z" transform="translate(-197.129 -1270.434)" fill="#7d6eb2"/>
            <path id="Trazado_18259" data-name="Trazado 18259" d="M377.91,1285l-8.533-9.461,2.556-2.306,6.672,7.4,3.643-3.286,1.862,2.063Z" transform="translate(-197.196 -1270.387)" fill="#7d6eb2"/>
          </g>
        </g>
      </g>
      <circle id="Elipse_664" data-name="Elipse 664" cx="32.672" cy="32.672" r="32.672" transform="translate(611.616 5822.75)" fill="#f6f6f6"/>
      <circle id="Elipse_665" data-name="Elipse 665" cx="32.672" cy="32.672" r="32.672" transform="translate(649.59 5758.305)" fill="#f6f6f6"/>
      <circle id="Elipse_666" data-name="Elipse 666" cx="32.672" cy="32.672" r="32.672" transform="translate(687.564 5822.75)" fill="#f6f6f6"/>
      <text id="Grupo_1" data-name="Grupo
1" transform="translate(682.262 5789.477)" fill="#12263f" font-size="12" font-family="SegoeUI-Bold, Segoe UI" font-weight="700"><tspan x="-17.689" y="0">Grupo</tspan><tspan x="-3.451" y="13">1</tspan></text>
      <text id="Grupo_2" data-name="Grupo
2" transform="translate(644.584 5855.748)" fill="#12263f" font-size="12" font-family="SegoeUI-Bold, Segoe UI" font-weight="700"><tspan x="-17.689" y="0">Grupo</tspan><tspan x="-3.451" y="13">2</tspan></text>
      <text id="Grupo_3" data-name="Grupo
3" transform="translate(720.533 5855.748)" fill="#12263f" font-size="12" font-family="SegoeUI-Bold, Segoe UI" font-weight="700"><tspan x="-17.689" y="0">Grupo</tspan><tspan x="-3.451" y="13">3</tspan></text>
      <g id="Grupo_12806" data-name="Grupo 12806" transform="translate(614.695 5897.223)">
        <g id="Grupo_12805" data-name="Grupo 12805">
          <path id="Trazado_18260" data-name="Trazado 18260" d="M225.892,1258.065l3.717-8.785-.061-.049q-1.325,1.941-2.139,2.953l-3.466,4.314-2.379-1.911,7.98-9.931,3.574,2.871-3.594,8.716.054.044,7.7-5.419,3.58,2.876-7.979,9.932-2.467-1.981,3.5-4.354q.272-.339.617-.747t1.723-1.956l-.06-.05-7.741,5.529Z" transform="translate(-221.564 -1244.656)" fill="#fff"/>
          <path id="Trazado_18261" data-name="Trazado 18261" d="M242.9,1269.561l-6.53-3.816,6.43-11,6.53,3.818-1.394,2.384-3.559-2.081-1.01,1.731,3.295,1.926-1.394,2.385-3.295-1.925-1.215,2.075,3.558,2.08Z" transform="translate(-221.69 -1244.742)" fill="#fff"/>
          <path id="Trazado_18262" data-name="Trazado 18262" d="M250.762,1268.169l-1.843,4.253-3.158-1.369,5.065-11.689,3.829,1.661q4.766,2.066,3.269,5.518a3.76,3.76,0,0,1-3.344,2.283l1.2,6.57-3.582-1.553-.636-5.327Zm1.029-2.375.591.256q1.657.718,2.29-.746.523-1.207-1.1-1.91l-.624-.271Z" transform="translate(-221.771 -1244.782)" fill="#fff"/>
          <path id="Trazado_18263" data-name="Trazado 18263" d="M266.207,1267.91a2.193,2.193,0,0,0-2.12.441,4.852,4.852,0,0,0-1.425,2.48q-1.01,3.536,1.68,4.3a5.731,5.731,0,0,0,1.64.223,16.181,16.181,0,0,0,1.688-.106l-.8,2.8a8.837,8.837,0,0,1-3.662-.312,5.7,5.7,0,0,1-3.792-2.824,6.9,6.9,0,0,1-.151-5.072,7.705,7.705,0,0,1,1.672-3.139,5.33,5.33,0,0,1,2.694-1.627,6.476,6.476,0,0,1,3.385.128,9.056,9.056,0,0,1,3.548,1.948l-1.758,2.316a11.971,11.971,0,0,0-1.2-.925A4.966,4.966,0,0,0,266.207,1267.91Z" transform="translate(-221.883 -1244.829)" fill="#fff"/>
          <path id="Trazado_18264" data-name="Trazado 18264" d="M277.964,1280.457l-.28-2.453-4.1-.591-.979,2.271-3.744-.54,5.942-12.067,4.545.656,2.339,13.262Zm-.584-5.349-.245-2.149q-.089-.718-.2-1.852t-.132-1.621q-.141.428-.515,1.4t-1.587,3.829Z" transform="translate(-221.968 -1244.848)" fill="#fff"/>
          <path id="Trazado_18265" data-name="Trazado 18265" d="M295.256,1274.55a6.584,6.584,0,0,1-1.835,4.886,6.742,6.742,0,0,1-4.964,1.645l-4.12-.066.206-12.738,4.408.071a6.658,6.658,0,0,1,4.71,1.645A5.92,5.92,0,0,1,295.256,1274.55Zm-3.574.064a4.05,4.05,0,0,0-.65-2.608,2.561,2.561,0,0,0-2.091-.879l-1-.016-.115,7.135.765.013a2.78,2.78,0,0,0,2.315-.873A4.4,4.4,0,0,0,291.682,1274.614Z" transform="translate(-222.1 -1244.858)" fill="#fff"/>
          <path id="Trazado_18266" data-name="Trazado 18266" d="M309.457,1272.817a6.869,6.869,0,0,1-.85,5.066,7.168,7.168,0,0,1-9.118,1.328,8.258,8.258,0,0,1-1.426-9.651,7.211,7.211,0,0,1,9.132-1.353A6.873,6.873,0,0,1,309.457,1272.817Zm-8.673,1.272q.538,3.656,3.08,3.283a2.209,2.209,0,0,0,1.789-1.17,6.52,6.52,0,0,0-.824-5.554,2.185,2.185,0,0,0-2.025-.624Q300.244,1270.4,300.784,1274.089Z" transform="translate(-222.209 -1244.848)" fill="#fff"/>
          <path id="Trazado_18267" data-name="Trazado 18267" d="M320.38,1271.4l1.553,4.367-3.242,1.153-4.27-12,3.933-1.4q4.893-1.74,6.155,1.806a3.763,3.763,0,0,1-.889,3.951l5.359,3.986-3.678,1.308-4.1-3.462Zm-.867-2.438.607-.217q1.7-.6,1.166-2.107-.442-1.239-2.108-.647l-.641.227Z" transform="translate(-222.357 -1244.812)" fill="#fff"/>
          <path id="Trazado_18268" data-name="Trazado 18268" d="M337.666,1268.888l-6.771,3.372-5.677-11.4,6.771-3.371,1.23,2.474-3.69,1.836.894,1.795,3.417-1.7,1.23,2.473-3.416,1.7,1.072,2.153,3.69-1.838Z" transform="translate(-222.449 -1244.766)" fill="#fff"/>
          <path id="Trazado_18269" data-name="Trazado 18269" d="M347.054,1262.982l-1.843-1.641-3.448,2.291.785,2.346-3.149,2.093-3.621-12.953,3.825-2.543,10.586,8.324Zm-4-3.6-1.615-1.438q-.546-.474-1.386-1.244t-1.18-1.12q.181.413.553,1.391t1.371,3.911Z" transform="translate(-222.54 -1244.724)" fill="#fff"/>
          <path id="Trazado_18270" data-name="Trazado 18270" d="M352.025,1259.3l-8.341-9.629,2.6-2.254,6.521,7.528,3.708-3.211,1.82,2.1Z" transform="translate(-222.607 -1244.68)" fill="#fff"/>
        </g>
      </g>
      <g id="Grupo_12808" data-name="Grupo 12808" transform="translate(613.643 5737.333)">
        <g id="Grupo_12807" data-name="Grupo 12807">
          <path id="Trazado_18271" data-name="Trazado 18271" d="M233,1117.589l-7.94-5.287-.06.051q1.661,1.664,2.505,2.651l3.593,4.208-2.32,1.981L220.5,1111.5l3.486-2.976,7.894,5.153.054-.046-3.892-8.57,3.493-2.981,8.273,9.688-2.405,2.054-3.627-4.247q-.284-.332-.619-.744t-1.6-2.059l-.058.052,3.992,8.634Z" transform="translate(-220.502 -1083.548)" fill="#fff"/>
          <path id="Trazado_18272" data-name="Trazado 18272" d="M248.391,1106.629l-6.437,3.972-6.689-10.843,6.438-3.972,1.451,2.351-3.508,2.165,1.052,1.705,3.249-2,1.45,2.351-3.248,2,1.262,2.046,3.509-2.164Z" transform="translate(-220.628 -1083.494)" fill="#fff"/>
          <path id="Trazado_18273" data-name="Trazado 18273" d="M251.324,1100.028l1.921,4.219-3.133,1.427-5.28-11.594,3.8-1.731q4.726-2.152,6.287,1.275a3.764,3.764,0,0,1-.548,4.012l5.679,3.513-3.552,1.617-4.38-3.1Zm-1.072-2.356.587-.268q1.64-.747.981-2.2-.546-1.2-2.155-.463l-.619.282Z" transform="translate(-220.71 -1083.458)" fill="#fff"/>
          <path id="Trazado_18274" data-name="Trazado 18274" d="M263.467,1089.648a2.195,2.195,0,0,0-1.548,1.514,4.865,4.865,0,0,0,.137,2.856q1.056,3.523,3.735,2.72a5.725,5.725,0,0,0,1.5-.7,16.619,16.619,0,0,0,1.365-1l.835,2.788a8.826,8.826,0,0,1-3.253,1.711,5.7,5.7,0,0,1-4.716-.333,6.9,6.9,0,0,1-2.861-4.191,7.709,7.709,0,0,1-.285-3.544,5.335,5.335,0,0,1,1.392-2.824,6.468,6.468,0,0,1,2.921-1.715,9.039,9.039,0,0,1,4.038-.274l-.233,2.9a11.9,11.9,0,0,0-1.512-.129A4.937,4.937,0,0,0,263.467,1089.648Z" transform="translate(-220.825 -1083.415)" fill="#fff"/>
          <path id="Trazado_18275" data-name="Trazado 18275" d="M279.5,1096.669l-.977-2.267-4.093.619-.281,2.458-3.74.565,2.2-13.27,4.54-.686,6.075,12.018Zm-2.106-4.952-.855-1.986q-.293-.66-.731-1.713t-.595-1.515q-.012.452-.087,1.494t-.411,4.125Z" transform="translate(-220.928 -1083.395)" fill="#fff"/>
          <path id="Trazado_18276" data-name="Trazado 18276" d="M294.961,1089.385a6.578,6.578,0,0,1-1.677,4.941,6.739,6.739,0,0,1-4.908,1.805l-4.121.068-.207-12.738,4.409-.071a6.647,6.647,0,0,1,4.761,1.491A5.921,5.921,0,0,1,294.961,1089.385Zm-3.57.178a4.049,4.049,0,0,0-.735-2.585,2.566,2.566,0,0,0-2.119-.811l-1,.017.117,7.135.766-.012a2.778,2.778,0,0,0,2.285-.948A4.4,4.4,0,0,0,291.391,1089.564Z" transform="translate(-221.045 -1083.389)" fill="#fff"/>
          <path id="Trazado_18277" data-name="Trazado 18277" d="M309.83,1091.739a6.881,6.881,0,0,1-2.3,4.592,7.168,7.168,0,0,1-9.107-1.412,8.258,8.258,0,0,1,1.476-9.643,7.211,7.211,0,0,1,9.127,1.392A6.881,6.881,0,0,1,309.83,1091.739Zm-8.664-1.334q-.564,3.652,1.978,4.043a2.208,2.208,0,0,0,2.053-.593,6.513,6.513,0,0,0,.846-5.551,2.182,2.182,0,0,0-1.751-1.191Q301.734,1086.719,301.166,1090.4Z" transform="translate(-221.159 -1083.395)" fill="#fff"/>
          <path id="Trazado_18278" data-name="Trazado 18278" d="M319.94,1096.689l-1.62,4.344-3.225-1.2,4.454-11.936,3.91,1.459q4.868,1.816,3.55,5.343a3.762,3.762,0,0,1-3.222,2.453l1.538,6.5-3.657-1.365-.91-5.287Zm.905-2.425.6.226q1.691.631,2.248-.864.46-1.233-1.2-1.851l-.637-.238Z" transform="translate(-221.31 -1083.427)" fill="#fff"/>
          <path id="Trazado_18279" data-name="Trazado 18279" d="M332.775,1107.685l-6.7-3.512,5.916-11.283,6.7,3.512-1.283,2.446-3.651-1.914-.93,1.775,3.38,1.773-1.283,2.446-3.38-1.772-1.116,2.13,3.65,1.914Z" transform="translate(-221.404 -1083.47)" fill="#fff"/>
          <path id="Trazado_18280" data-name="Trazado 18280" d="M340.851,1113.147l.86-2.314-3.386-2.381-1.9,1.582-3.093-2.175,10.759-8.072,3.756,2.641-3.916,12.885Zm1.9-5.035.755-2.026q.244-.68.656-1.743t.616-1.506q-.32.318-1.1,1.02t-3.148,2.7Z" transform="translate(-221.466 -1083.529)" fill="#fff"/>
          <path id="Trazado_18281" data-name="Trazado 18281" d="M344.7,1116.144l8.646-9.357,2.528,2.336-6.76,7.315,3.6,3.329-1.886,2.041Z" transform="translate(-221.563 -1083.589)" fill="#fff"/>
        </g>
      </g>
      <text id="UNIVERSO" transform="translate(676.825 6077.44)" fill="#12263f" font-size="23" font-family="SegoeUI-Bold, Segoe UI" font-weight="700"><tspan x="-57.511" y="0">UNIVERSO</tspan></text>
      <text id="Variables_geográfica" data-name="Variables geográfica" transform="translate(971.604 5988.533)" fill="#12263f" font-size="18" font-family="SegoeUIBlack, Segoe UI"><tspan x="-90.989" y="0">Variables geográfica</tspan></text>
      <text id="Cobertura_total_de_la_empresa" data-name="Cobertura total de la empresa" transform="translate(887.604 6014.388)" fill="#12263f" font-size="16" font-family="SegoeUI, Segoe UI"><tspan x="0" y="0">Cobertura total de la empresa</tspan></text>
      <text id="_4_Variables_demográficas_básicas" data-name="4 Variables
demográficas básicas" transform="translate(887.604 5700.234)" fill="#12263f" font-size="18" font-family="SegoeUIBlack, Segoe UI"><tspan x="0" y="0">4 Variables</tspan><tspan x="0" y="20">demográficas básicas</tspan></text>
      <text id="Cuantificación_del_mercado" data-name="Cuantificación del mercado" transform="translate(887.604 5747.263)" fill="#12263f" font-size="16" font-family="SegoeUI, Segoe UI"><tspan x="0" y="0">Cuantificación del mercado</tspan></text>
      <text id="Caracterización_psicográfica" data-name="Caracterización
psicográfica" transform="translate(887.604 5797.386)" fill="#12263f" font-size="18" font-family="SegoeUIBlack, Segoe UI"><tspan x="0" y="0">Caracterización</tspan><tspan x="0" y="20">psicográfica</tspan></text>
      <text id="Comportamiento_de_compra" data-name="Comportamiento de compra" transform="translate(887.604 5844.414)" fill="#12263f" font-size="16" font-family="SegoeUI, Segoe UI"><tspan x="0" y="0">Comportamiento de compra</tspan></text>
      <text id="Caracterización_demográfica" data-name="Caracterización
demográfica" transform="translate(887.604 5893.979)" fill="#12263f" font-size="18" font-family="SegoeUIBlack, Segoe UI"><tspan x="0" y="0">Caracterización</tspan><tspan x="0" y="20">demográfica</tspan></text>
      <text id="Rangos_más_reducidos" data-name="Rangos más reducidos" transform="translate(887.604 5941.007)" fill="#12263f" font-size="16" font-family="SegoeUI, Segoe UI"><tspan x="0" y="0">Rangos más reducidos</tspan></text>
      <path id="Trazado_131578" data-name="Trazado 131578" d="M156.148,0H0" transform="translate(720.236 5693.618)" fill="none" stroke="#cbc5e0" stroke-width="3"/>
      <path id="Trazado_131579" data-name="Trazado 131579" d="M164.079,0H0" transform="translate(712.305 5790.977)" fill="none" stroke="#afafaf" stroke-width="3"/>
      <line id="Línea_171" data-name="Línea 171" x1="120.18" transform="translate(756.204 5888.093)" fill="none" stroke="#7d70b0" stroke-miterlimit="10" stroke-width="3"/>
      <line id="Línea_172" data-name="Línea 172" x1="187.55" y2="0.333" transform="translate(679.785 5978.663)" fill="none" stroke="#cbc5e0" stroke-miterlimit="10" stroke-width="3"/>
    </g>
  </g>
</svg>
