<svg xmlns="http://www.w3.org/2000/svg" width="53.803" height="47.525" viewBox="0 0 53.803 47.525">
  <g id="Grupo_1101516" data-name="Grupo 1101516" transform="translate(-180 -16447.725)">
    <g id="Grupo_1101428" data-name="Grupo 1101428" transform="translate(0 12697.573)">
      <path id="_12068" data-name="12068" d="M59.161,71.731c-5.509-.761-11.329-.575-16.342,1.833A21.5,21.5,0,0,0,31.125,92.185a24.581,24.581,0,0,0,10.048,19.868,28.757,28.757,0,0,0,21.979,4.828,27.753,27.753,0,0,0,18.827-12.558c2.56-4.28,3.756-9.565,2.342-14.348a19.6,19.6,0,0,0-4.652-7.646A34.369,34.369,0,0,0,59.161,71.731Z" transform="translate(148.881 3680.323)" fill="#26aab7"/>
      <path id="Trazado_873155" data-name="Trazado 873155" d="M.519,2.274A1.316,1.316,0,0,0,2.241,2.08,1.317,1.317,0,0,0,2.167.349,1.318,1.318,0,0,0,.434.3,1.263,1.263,0,0,0,.519,2.274Z" transform="translate(180 3752.681) rotate(-90)" fill="#7d6eb2"/>
      <path id="Trazado_873156" data-name="Trazado 873156" d="M1.71,5.307A2.873,2.873,0,0,0,5.267,3.9,2.874,2.874,0,0,0,4.027.284,2.873,2.873,0,0,0,.355,1.358,2.785,2.785,0,0,0,1.71,5.307Z" transform="translate(186.91 3758.18) rotate(-90)" fill="#ffd947"/>
      <circle id="Elipse_11521" data-name="Elipse 11521" cx="2.962" cy="2.962" r="2.962" transform="translate(226.336 3787.265) rotate(-90)" fill="none" stroke="#fff" stroke-linecap="round" stroke-linejoin="round" stroke-width="1.5"/>
    </g>
    <g id="purchase" transform="translate(190.689 16455.117)">
      <g id="Grupo_1101438" data-name="Grupo 1101438" transform="translate(0.475 0.644)">
        <g id="Grupo_1101433" data-name="Grupo 1101433" transform="translate(5.931)">
          <g id="Grupo_1101432" data-name="Grupo 1101432">
            <g id="Grupo_1101431" data-name="Grupo 1101431">
              <g id="Grupo_1101430" data-name="Grupo 1101430">
                <g id="Grupo_1101429" data-name="Grupo 1101429">
                  <path id="Trazado_879652" data-name="Trazado 879652" d="M123.3,17.437a11.114,11.114,0,1,0-20.726,6.779,12.771,12.771,0,0,1,1.671,6.256V38.63H115.2V34.892a1.34,1.34,0,0,1,1.452-1.336l4.122.344a2.4,2.4,0,0,0,2.6-2.4V27.344a1.543,1.543,0,0,1,.975-1.435l1.366-.541a1.543,1.543,0,0,0,.69-2.329l-2.094-2.944a5.763,5.763,0,0,1-1.017-2.658Z" transform="translate(-101.153 -7.664)" fill="#f9eae2"/>
                  <path id="Trazado_879653" data-name="Trazado 879653" d="M273.048,23.039l-2.094-2.944a5.764,5.764,0,0,1-1.017-2.658,11.115,11.115,0,0,0-11.108-9.773c-.361,0-.718.022-1.07.058a11.124,11.124,0,0,1,8.045,9.367,5.764,5.764,0,0,0,1.017,2.658l2.094,2.944a1.543,1.543,0,0,1-.69,2.329l-1.366.541A1.543,1.543,0,0,0,265.884,27v4.161a2.4,2.4,0,0,1-2.6,2.4l-4.122-.344a1.34,1.34,0,0,0-1.452,1.336V38.63h4.133V34.892a1.34,1.34,0,0,1,1.452-1.336l4.122.344a2.4,2.4,0,0,0,2.6-2.4V27.344a1.543,1.543,0,0,1,.975-1.435l1.366-.541a1.543,1.543,0,0,0,.69-2.329Z" transform="translate(-247.791 -7.664)" fill="#f5dbcc"/>
                  <path id="Trazado_879654" data-name="Trazado 879654" d="M131.874,448.94H120.308a1.872,1.872,0,1,1,.118-3.741l11.543.729a1.507,1.507,0,0,1-.1,3.012Z" transform="translate(-117.341 -417.487)" fill="#9bc4f9"/>
                  <path id="Trazado_879655" data-name="Trazado 879655" d="M269.539,454.225l-2.725-.172v1.677a1.507,1.507,0,0,1-1.507,1.507h4.137a1.507,1.507,0,0,0,.1-3.012Z" transform="translate(-254.911 -425.784)" fill="#7fb2f9"/>
                </g>
              </g>
            </g>
          </g>
        </g>
        <g id="Grupo_1101437" data-name="Grupo 1101437" transform="translate(0 1.042)">
          <circle id="Elipse_11628" data-name="Elipse 11628" cx="9.657" cy="9.657" r="9.657" transform="translate(0 0)" fill="#f4e580"/>
          <path id="Trazado_879656" data-name="Trazado 879656" d="M129.388,24.122a9.693,9.693,0,0,0-2.069.223,9.658,9.658,0,0,1,0,18.867,9.657,9.657,0,1,0,2.069-19.09Z" transform="translate(-119.731 -24.122)" fill="#ffd064"/>
          <g id="Grupo_1101436" data-name="Grupo 1101436" transform="translate(4.726 6.462)">
            <g id="Grupo_1101435" data-name="Grupo 1101435" transform="translate(0)">
              <g id="Grupo_1101434" data-name="Grupo 1101434">
                <path id="Trazado_879657" data-name="Trazado 879657" d="M90.97,134.982H83.151a1.021,1.021,0,0,1-1.014-1.144l.822-6.781a1.021,1.021,0,0,1,1.014-.9h6.175a1.021,1.021,0,0,1,1.014.9l.822,6.781A1.021,1.021,0,0,1,90.97,134.982Z" transform="translate(-82.13 -126.159)" fill="#db636e"/>
              </g>
            </g>
            <path id="Trazado_879658" data-name="Trazado 879658" d="M82.137,233.647a1.021,1.021,0,0,0,1.014,1.144H90.97a1.021,1.021,0,0,0,1.014-1.144l-.113-.932H82.25Z" transform="translate(-82.13 -225.967)" fill="#d84a54"/>
          </g>
        </g>
      </g>
      <g id="Grupo_1101440" data-name="Grupo 1101440" transform="translate(0 0.169)">
        <g id="Grupo_1101439" data-name="Grupo 1101439" transform="translate(0)">
          <path id="Trazado_879659" data-name="Trazado 879659" d="M32.049,15.744,29.956,12.8a5.308,5.308,0,0,1-.933-2.439A11.574,11.574,0,0,0,17.518.169H17.44a11.674,11.674,0,0,0-5.2,1.26,10.25,10.25,0,0,0-2.111-.218A10.143,10.143,0,0,0,0,11.343a10.024,10.024,0,0,0,2.206,6.312.475.475,0,1,0,.743-.592,9.083,9.083,0,0,1-2-5.72,9.182,9.182,0,0,1,14.9-7.181.475.475,0,0,0,.592-.743,10.1,10.1,0,0,0-2.794-1.583,10.605,10.605,0,0,1,3.795-.717h.072A10.625,10.625,0,0,1,28.08,10.474a6.26,6.26,0,0,0,1.1,2.876l2.094,2.944a1.068,1.068,0,0,1-.477,1.612l-1.366.541a2.007,2.007,0,0,0-1.275,1.876v4.161a1.928,1.928,0,0,1-2.09,1.923l-4.122-.344a1.816,1.816,0,0,0-1.966,1.809v.67L9.972,27.91V23.451a12.767,12.767,0,0,0-.157-1.983c.105,0,.211.005.316.005A10.143,10.143,0,0,0,20.263,11.343a10.028,10.028,0,0,0-2.168-6.265.475.475,0,1,0-.746.588,9.087,9.087,0,0,1,1.965,5.677,9.192,9.192,0,0,1-9.182,9.181,9.086,9.086,0,0,1-5.686-1.972.475.475,0,0,0-.589.745,10.007,10.007,0,0,0,4.983,2.1,11.85,11.85,0,0,1,.182,2.058V27.9a2.347,2.347,0,0,0,.351,4.668H20.938a1.982,1.982,0,0,0,.125-3.961l-.136-.009v-.73a.865.865,0,0,1,.938-.862l4.122.344a2.881,2.881,0,0,0,3.119-2.87V20.323a1.062,1.062,0,0,1,.675-.993l1.366-.541a2.018,2.018,0,0,0,.9-3.046ZM21,29.559a1.032,1.032,0,0,1-.065,2.063H9.373a1.4,1.4,0,0,1,0-2.8c.086,0-.675-.045,11.634.732Z" transform="translate(0 -0.169)"/>
          <path id="Trazado_879660" data-name="Trazado 879660" d="M80.033,70.508a2.519,2.519,0,0,0-2.517,2.517v.533h-.571a1.5,1.5,0,0,0-1.485,1.316l-.822,6.781a1.5,1.5,0,0,0,1.485,1.676h7.819a1.5,1.5,0,0,0,1.485-1.676l-.822-6.781a1.5,1.5,0,0,0-1.485-1.316H82.55v-.533A2.52,2.52,0,0,0,80.033,70.508Zm-1.567,2.517a1.567,1.567,0,0,1,3.133,0v.533H78.467v-.533Zm6.018,8.744a.546.546,0,0,1-.542.612H76.124a.546.546,0,0,1-.542-.612l.062-.514h8.778Zm-1.364-7.262a.546.546,0,0,1,.542.48l.644,5.318H75.759l.644-5.318a.547.547,0,0,1,.542-.48h.571v.559a.475.475,0,1,0,.95,0v-.559H81.6v.559a.475.475,0,0,0,.95,0v-.559h.571Z" transform="translate(-69.902 -66.054)"/>
        </g>
      </g>
    </g>
  </g>
</svg>
