<svg xmlns="http://www.w3.org/2000/svg" width="53.803" height="47.525" viewBox="0 0 53.803 47.525">
  <g id="Grupo_1101515" data-name="Grupo 1101515" transform="translate(-180 -16254.725)">
    <g id="Grupo_1101441" data-name="Grupo 1101441" transform="translate(0 12504.573)">
      <path id="_12068" data-name="12068" d="M59.161,71.731c-5.509-.761-11.329-.575-16.342,1.833A21.5,21.5,0,0,0,31.125,92.185a24.581,24.581,0,0,0,10.048,19.868,28.757,28.757,0,0,0,21.979,4.828,27.753,27.753,0,0,0,18.827-12.558c2.56-4.28,3.756-9.565,2.342-14.348a19.6,19.6,0,0,0-4.652-7.646A34.369,34.369,0,0,0,59.161,71.731Z" transform="translate(148.881 3680.323)" fill="#26aab7"/>
      <path id="Trazado_873155" data-name="Trazado 873155" d="M.519,2.274A1.316,1.316,0,0,0,2.241,2.08,1.317,1.317,0,0,0,2.167.349,1.318,1.318,0,0,0,.434.3,1.263,1.263,0,0,0,.519,2.274Z" transform="translate(180 3752.681) rotate(-90)" fill="#7d6eb2"/>
      <path id="Trazado_873156" data-name="Trazado 873156" d="M1.71,5.307A2.873,2.873,0,0,0,5.267,3.9,2.874,2.874,0,0,0,4.027.284,2.873,2.873,0,0,0,.355,1.358,2.785,2.785,0,0,0,1.71,5.307Z" transform="translate(186.91 3758.18) rotate(-90)" fill="#ffd947"/>
      <circle id="Elipse_11521" data-name="Elipse 11521" cx="2.962" cy="2.962" r="2.962" transform="translate(226.336 3787.265) rotate(-90)" fill="none" stroke="#fff" stroke-linecap="round" stroke-linejoin="round" stroke-width="1.5"/>
    </g>
    <g id="XMLID_614_" transform="translate(186.222 16254.635)">
      <g id="XMLID_2055_" transform="translate(2.85 0.727)">
        <g id="XMLID_1834_" transform="translate(7.359)">
          <circle id="XMLID_1850_" cx="10.5" cy="10.5" r="10.5" transform="translate(-0.209 -0.115)" fill="#93e7f8"/>
        </g>
        <g id="XMLID_1750_" transform="translate(0 22.304)">
          <path id="XMLID_2188_" d="M40.153,331.714l-4.632,2.674a.473.473,0,0,0-.173.646l5.85,10.132a.473.473,0,0,0,.646.173l4.632-2.674a.473.473,0,0,0,.173-.646L40.8,331.887A.473.473,0,0,0,40.153,331.714Z" transform="translate(-35.285 -327.809)" fill="#009fff"/>
          <path id="XMLID_2187_" d="M40.153,331.714l-4.632,2.674a.473.473,0,0,0-.173.646l5.85,10.132a.473.473,0,0,0,.646.173l4.632-2.674a.473.473,0,0,0,.173-.646L40.8,331.887A.473.473,0,0,0,40.153,331.714Z" transform="translate(-35.285 -327.809)" fill="#ff765b"/>
          <path id="XMLID_2154_" d="M113.786,289.6l5.368-2.762a5.934,5.934,0,0,1,4.158-.48l7.639,1.914a1.97,1.97,0,0,1,1.492,1.911h0a1.97,1.97,0,0,1-1.97,1.97h.7a2.127,2.127,0,0,0,1.5-.623l6.818-6.818a2.124,2.124,0,0,1,2.833-.153h0a2.124,2.124,0,0,1,.171,3.157l-7.185,7.185a6,6,0,0,1-4.239,1.756H118.016Z" transform="translate(-107.445 -284.09)" fill="#fed2a4"/>
          <path id="XMLID_2694_" d="M40.153,331.714l-4.632,2.674a.473.473,0,0,0-.173.646l5.85,10.132a.473.473,0,0,0,.646.173l4.632-2.674a.473.473,0,0,0,.173-.646L40.8,331.887A.473.473,0,0,0,40.153,331.714Z" transform="translate(-35.285 -327.809)" fill="none"/>
        </g>
      </g>
      <g id="XMLID_592_" transform="translate(0 0.09)">
        <g id="XMLID_593_">
          <path id="XMLID_611_" d="M125.47,23.031A11.47,11.47,0,1,0,114,11.56,11.483,11.483,0,0,0,125.47,23.031Zm0-21.325a9.855,9.855,0,1,1-9.855,9.855A9.866,9.866,0,0,1,125.47,1.706Z" transform="translate(-104.791 -0.09)"/>
          <path id="XMLID_610_" d="M336.331,133.818h.686a.808.808,0,1,0,0-1.616h-.686a.808.808,0,0,0,0,1.616Z" transform="translate(-308.42 -121.53)"/>
          <path id="XMLID_609_" d="M150.286,132.786a.808.808,0,0,0-.808-.808h-.686a.808.808,0,0,0,0,1.616h.686A.808.808,0,0,0,150.286,132.786Z" transform="translate(-136.03 -121.324)"/>
          <path id="XMLID_608_" d="M246.92,36.375a.808.808,0,0,0,.808-.808v-.686a.808.808,0,1,0-1.616,0v.686A.808.808,0,0,0,246.92,36.375Z" transform="translate(-226.232 -31.328)"/>
          <path id="XMLID_607_" d="M246.7,221.613a.808.808,0,0,0-.808.808v.686a.808.808,0,1,0,1.616,0v-.686A.808.808,0,0,0,246.7,221.613Z" transform="translate(-226.026 -203.719)"/>
          <path id="XMLID_606_" d="M206.588,69.916l.009.009a.808.808,0,0,0,1.141,0l5.584-5.584A.808.808,0,0,0,212.18,63.2l-5.013,5.013L204.255,65.3a.808.808,0,0,0-1.142,1.142Z" transform="translate(-186.488 -57.882)"/>
          <path id="XMLID_604_" d="M61.481,274.719a2.927,2.927,0,0,0-3.91.212l-5.69,5.69a2.774,2.774,0,0,0-2.081-2.343l-7.639-1.914a6.739,6.739,0,0,0-4.724.545l-4.683,2.41-.441-.765a1.281,1.281,0,0,0-1.75-.469l-4.632,2.674a1.282,1.282,0,0,0-.469,1.75l5.85,10.132a1.273,1.273,0,0,0,.778.6,1.288,1.288,0,0,0,.334.044,1.274,1.274,0,0,0,.638-.172l4.632-2.674a1.282,1.282,0,0,0,.469-1.75l-4.6-7.967,4.614-2.374a5.124,5.124,0,0,1,3.592-.414l7.639,1.914a1.163,1.163,0,0,1-.283,2.291h-6a.808.808,0,0,0,0,1.616h6.7a2.916,2.916,0,0,0,2.076-.86l6.818-6.818a1.314,1.314,0,0,1,1.756-.1,1.316,1.316,0,0,1,.106,1.957l-7.185,7.185a5.153,5.153,0,0,1-3.668,1.519H43.13a.808.808,0,1,0,0,1.616h6.591a6.759,6.759,0,0,0,4.81-1.993l7.185-7.185a2.932,2.932,0,0,0-.236-4.358ZM35.3,289.95l-2.008-3.478a.808.808,0,1,0-1.4.808l2.008,3.478-1.361.786-5.515-9.552,4.052-2.34,5.515,9.552Z" transform="translate(-23.246 -251.939)"/>
          <path id="XMLID_603_" d="M452.808,2.821a.808.808,0,0,0,.808-.808V.9A.808.808,0,1,0,452,.9V2.013A.808.808,0,0,0,452.808,2.821Z" transform="translate(-415.488 -0.09)"/>
          <path id="XMLID_602_" d="M452.808,69.01a.808.808,0,0,0,.808-.808V67.087a.808.808,0,1,0-1.616,0V68.2A.808.808,0,0,0,452.808,69.01Z" transform="translate(-415.488 -60.932)"/>
          <path id="XMLID_601_" d="M480.111,40.09H479a.808.808,0,0,0,0,1.616h1.116a.808.808,0,0,0,0-1.616Z" transform="translate(-439.561 -36.859)"/>
          <path id="XMLID_600_" d="M412.808,41.706h1.116a.808.808,0,1,0,0-1.616h-1.116a.808.808,0,0,0,0,1.616Z" transform="translate(-378.719 -36.859)"/>
          <path id="XMLID_599_" d="M40.808,208.821a.808.808,0,0,0,.808-.808V206.9a.808.808,0,1,0-1.616,0v1.116A.808.808,0,0,0,40.808,208.821Z" transform="translate(-36.769 -189.45)"/>
          <path id="XMLID_598_" d="M40.808,275.009a.808.808,0,0,0,.808-.808v-1.116a.808.808,0,0,0-1.616,0V274.2A.808.808,0,0,0,40.808,275.009Z" transform="translate(-36.769 -250.291)"/>
          <path id="XMLID_597_" d="M67,247.706h1.116a.808.808,0,1,0,0-1.616H67a.808.808,0,0,0,0,1.616Z" transform="translate(-60.841 -226.219)"/>
          <path id="XMLID_596_" d="M2.731,246.9a.808.808,0,0,0-.808-.808H.808a.808.808,0,0,0,0,1.616H1.923A.808.808,0,0,0,2.731,246.9Z" transform="translate(0 -226.219)"/>
          <path id="XMLID_595_" d="M196.957,429.667a.808.808,0,1,0,.571.237A.812.812,0,0,0,196.957,429.667Z" transform="translate(-180.304 -394.967)"/>
          <path id="XMLID_594_" d="M85.966,388.194a.807.807,0,1,0,.571-.237A.814.814,0,0,0,85.966,388.194Z" transform="translate(-78.804 -356.626)"/>
        </g>
      </g>
    </g>
  </g>
</svg>
