<svg xmlns="http://www.w3.org/2000/svg" width="78.501" height="78.767" viewBox="0 0 78.501 78.767">
  <g id="Grupo_1101513" data-name="Grupo 1101513" transform="translate(-448.999 -10768.885)">
    <path id="_12068" data-name="12068" d="M72.033,71.913c-8.038-1.11-16.53-.839-23.844,2.675C38.045,79.46,31.382,90.507,31.127,101.757s5.606,22.305,14.66,28.988,21,9.051,32.068,7.045c11.165-2.023,21.645-8.583,27.469-18.322,3.735-6.245,5.48-13.956,3.417-20.934a28.6,28.6,0,0,0-6.787-11.156A50.145,50.145,0,0,0,72.033,71.913Z" transform="translate(417.88 10709.17)" fill="#26aab7"/>
    <g id="payment-method_2_" data-name="payment-method (2)" transform="translate(453.375 10768.861)">
      <path id="Trazado_879725" data-name="Trazado 879725" d="M107.34,372.017v10.8c6.152.271,4.377,1.358,15.081,6.171a10.131,10.131,0,0,0,7.881-.134l.007,0,21.029-7.529c.684-.315,4.136-2.19,2.775-5.683-1.592-3.725-5.688-2.171-6.031-2.059L137.1,376.616" transform="translate(-92.717 -321.317)" fill="#eac092"/>
      <g id="Grupo_1101475" data-name="Grupo 1101475" transform="translate(14.623 43.603)">
        <path id="Trazado_879726" data-name="Trazado 879726" d="M119.762,331.537l12.227,3.875a4.017,4.017,0,0,0,4.962-2.765h0c.607-2.134-.631-4.355-3.076-5.263L123.028,323.7a9.219,9.219,0,0,0-7.829-3.782c-3.482,0-6.483,2.814-7.858,5.277v4.918" transform="translate(-107.341 -319.921)" fill="#fedbab"/>
      </g>
      <path id="Trazado_879727" data-name="Trazado 879727" d="M154.112,386.581a1.343,1.343,0,0,1-.266-.027,1.321,1.321,0,0,1-.256-.078,1.372,1.372,0,0,1-.234-.125,1.324,1.324,0,0,1-.376-.376,1.26,1.26,0,0,1-.125-.236,1.281,1.281,0,0,1-.078-.255,1.309,1.309,0,0,1,0-.531,1.321,1.321,0,0,1,.078-.256,1.343,1.343,0,0,1,.5-.61,1.38,1.38,0,0,1,.234-.125,1.321,1.321,0,0,1,.256-.078,1.341,1.341,0,0,1,.531,0,1.28,1.28,0,0,1,.255.078,1.343,1.343,0,0,1,.236.125,1.324,1.324,0,0,1,.376.376,1.383,1.383,0,0,1,.125.234,1.421,1.421,0,0,1,.078.256,1.308,1.308,0,0,1,0,.531,1.375,1.375,0,0,1-.078.255,1.345,1.345,0,0,1-.125.236,1.324,1.324,0,0,1-.376.376,1.345,1.345,0,0,1-.236.125,1.28,1.28,0,0,1-.255.078A1.343,1.343,0,0,1,154.112,386.581Z" transform="translate(-131.941 -331.544)"/>
      <rect id="Rectángulo_401588" data-name="Rectángulo 401588" width="5.161" height="14.637" transform="translate(9.463 48.706)" fill="#eaecf0"/>
      <rect id="Rectángulo_401589" data-name="Rectángulo 401589" width="8.1" height="17.176" transform="translate(1.362 48.706)" fill="#3688c8"/>
      <path id="Trazado_879728" data-name="Trazado 879728" d="M62.665,321.51l-.016-.04c-1.254-2.934-4.195-4.018-7.675-2.83l-9.491,2.625a6.222,6.222,0,0,0-3.853-3.794l-.036-.013-10.433-3.541a10.761,10.761,0,0,0-8.681-3.994c-3.559,0-6.707,2.442-8.509,5.1H1.362A1.362,1.362,0,0,0,0,316.387v17.176a1.362,1.362,0,0,0,1.362,1.362h8.1a1.362,1.362,0,0,0,1.362-1.362v-1.176h3.8a1.362,1.362,0,0,0,1.362-1.362v-.392a9.658,9.658,0,0,1,4.976,1.786,82.448,82.448,0,0,0,8.184,4.179l.06.025a12.228,12.228,0,0,0,4.383.826,10.859,10.859,0,0,0,4.513-.966L59.08,328.97c.037-.013.074-.028.11-.045C61.2,328,64.183,325.4,62.665,321.51ZM8.1,332.2H2.725V317.749H8.1Zm5.161-2.539H10.824V317.749h2.436ZM58.1,326.427l-20.969,7.508-.061.024-.055.024a8.83,8.83,0,0,1-6.784.116,78.906,78.906,0,0,1-7.91-4.04,12.261,12.261,0,0,0-6.337-2.156V316.929c1.291-2.116,3.8-4.283,6.5-4.283a7.861,7.861,0,0,1,6.669,3.133,1.363,1.363,0,0,0,.723.577L40.7,320.031c1.729.649,2.643,2.13,2.223,3.607a2.654,2.654,0,0,1-3.261,1.832L27.455,321.6a1.362,1.362,0,1,0-.823,2.6l12.227,3.875.039.012a5.347,5.347,0,0,0,4.089-.475,5.343,5.343,0,0,0,2.556-3.228q.047-.166.083-.331l10.229-2.834c1.477-.5,3.417-.686,4.28,1.3C61.028,324.854,58.706,326.139,58.1,326.427Z" transform="translate(0 -267.681)"/>
      <path id="Trazado_879729" data-name="Trazado 879729" d="M67,22.123l-12.1-12.1-15.17,15.17L65.652,51.116,79.967,36.8" transform="translate(-34.317 -8.637)" fill="#26cfad"/>
      <path id="Trazado_879730" data-name="Trazado 879730" d="M149.509,113.96h0l0-.008a6.4,6.4,0,1,0,6.84,6.549" transform="translate(-123.992 -98.408)" fill="#ffd36c"/>
      <path id="Trazado_879731" data-name="Trazado 879731" d="M218.8,43.034v-10.8c-6.152-.271-4.377-1.358-15.081-6.171a10.131,10.131,0,0,0-7.881.134l-.007,0-6.345,2.272,6.546,6.546" transform="translate(-163.67 -21.853)" fill="#eac092"/>
      <g id="Grupo_1101476" data-name="Grupo 1101476" transform="translate(5.412 1.386)">
        <path id="Trazado_879732" data-name="Trazado 879732" d="M39.729,88.771l5.143-5.143a7.281,7.281,0,0,1,0,10.286Z" transform="translate(-39.729 -73.601)" fill="#00b192"/>
        <path id="Trazado_879733" data-name="Trazado 879733" d="M192.264,260.428a7.281,7.281,0,0,1,10.286,0l-5.143,5.143Z" transform="translate(-171.484 -224.478)" fill="#00b192"/>
        <path id="Trazado_879734" data-name="Trazado 879734" d="M113.333,15.166l5.143-5.143,5.143,5.143A7.281,7.281,0,0,1,113.333,15.166Z" transform="translate(-103.306 -10.023)" fill="#00b192"/>
        <path id="Trazado_879735" data-name="Trazado 879735" d="M288.443,182.048a7.283,7.283,0,0,0,1.691,7.631l4.288-4.288" transform="translate(-254.184 -158.613)" fill="#00b192"/>
      </g>
      <g id="Grupo_1101477" data-name="Grupo 1101477" transform="translate(25.365 12.633)">
        <path id="Trazado_879736" data-name="Trazado 879736" d="M203.532,96.614l-12.227-3.875a4.016,4.016,0,0,0-4.962,2.765h0c-.607,2.134.631,4.355,3.076,5.263l10.851,3.683,0,0a9.219,9.219,0,0,0,7.829,3.782c3.482,0,6.483-2.814,7.858-5.277V98.034" transform="translate(-186.19 -92.585)" fill="#fedbab"/>
      </g>
      <path id="Trazado_879737" data-name="Trazado 879737" d="M340.612,126.222a1.342,1.342,0,0,1-.266-.027,1.377,1.377,0,0,1-.255-.078,1.345,1.345,0,0,1-.236-.125,1.323,1.323,0,0,1-.376-.376,1.345,1.345,0,0,1-.125-.236,1.278,1.278,0,0,1-.078-.255,1.308,1.308,0,0,1,0-.531,1.318,1.318,0,0,1,.078-.256,1.382,1.382,0,0,1,.125-.234,1.323,1.323,0,0,1,.376-.376,1.344,1.344,0,0,1,.236-.125,1.28,1.28,0,0,1,.255-.078,1.357,1.357,0,0,1,.787.078,1.382,1.382,0,0,1,.234.125,1.362,1.362,0,0,1,.5.61,1.327,1.327,0,0,1,.079.256,1.376,1.376,0,0,1,0,.531,1.286,1.286,0,0,1-.079.255,1.261,1.261,0,0,1-.125.236,1.324,1.324,0,0,1-.376.376,1.382,1.382,0,0,1-.234.125,1.442,1.442,0,0,1-.255.078A1.366,1.366,0,0,1,340.612,126.222Z" transform="translate(-293.034 -106.654)"/>
      <rect id="Rectángulo_401590" data-name="Rectángulo 401590" width="5.161" height="14.637" transform="translate(55.127 8.538)" fill="#eaecf0"/>
      <rect id="Rectángulo_401591" data-name="Rectángulo 401591" width="8.1" height="17.176" transform="translate(60.287 5.999)" fill="#3688c8"/>
      <path id="Trazado_879738" data-name="Trazado 879738" d="M94.034,4.637h-8.1A1.362,1.362,0,0,0,84.571,6V7.176h-3.8a1.362,1.362,0,0,0-1.362,1.362V8.93a9.659,9.659,0,0,1-4.976-1.786A82.433,82.433,0,0,0,66.25,2.965l-.06-.025a11.59,11.59,0,0,0-8.9.14L51.813,5.043,47.192.422a1.362,1.362,0,0,0-1.927,0l-15.17,15.17a1.351,1.351,0,0,0,0,1.927L56.018,43.442a1.472,1.472,0,0,0,1.927,0l13.85-13.85c.36.031.734.048,1.121.048,3.559,0,6.707-2.442,8.509-5.1h12.61A1.362,1.362,0,0,0,95.4,23.175V6A1.362,1.362,0,0,0,94.034,4.637ZM49.684,17.271a6.031,6.031,0,0,0,4.082,4.821l.036.013,2.724.925a5.041,5.041,0,1,1-6.842-5.758Zm2.725-5.319a5.34,5.34,0,0,0-2.22,2.345,7.764,7.764,0,1,0,8.928,9.612l4.6,1.561a8.7,8.7,0,0,0,1.443,6.9l-3.111,3.111a8.657,8.657,0,0,0-10.134,0L38.052,21.623a8.657,8.657,0,0,0,0-10.135L41.161,8.38a8.657,8.657,0,0,0,10.135,0l2.947,2.947A5.376,5.376,0,0,0,52.409,11.952ZM67.122,30.411a5.959,5.959,0,0,1-.87-2.833,10.592,10.592,0,0,0,2.4,1.3ZM46.228,3.312l3.1,3.1a5.939,5.939,0,0,1-6.21,0ZM36.09,13.451a5.94,5.94,0,0,1,0,6.21l-3.1-3.105Zm20.891,27.1-3.1-3.1a5.931,5.931,0,0,1,6.209,0ZM72.915,26.915a9.916,9.916,0,0,1-1.421-.1h-.005a7.8,7.8,0,0,1-5.046-2.762c-.028-.041-.146-.2-.164-.222a1.357,1.357,0,0,0-.751-.624L54.7,19.531c-1.728-.649-2.642-2.129-2.223-3.605V15.92a2.654,2.654,0,0,1,3.26-1.827L67.94,17.96a1.362,1.362,0,0,0,.823-2.6l-9.707-3.076-.085-.085,0,0L53.943,7.174l4.32-1.547.047-.018.014-.006.055-.024a8.829,8.829,0,0,1,6.784-.116,78.913,78.913,0,0,1,7.91,4.04,12.26,12.26,0,0,0,6.337,2.156V22.632C78.119,24.749,75.615,26.915,72.915,26.915ZM82.135,9.9h2.436V21.813H82.135ZM92.671,21.813H87.3V7.362h5.375Z" transform="translate(-25.646 0)"/>
    </g>
  </g>
</svg>
