<svg xmlns="http://www.w3.org/2000/svg" width="78.501" height="91.326" viewBox="0 0 78.501 91.326">
  <g id="Grupo_1101508" data-name="Grupo 1101508" transform="translate(-760.75 -9683.498)">
    <path id="_12068" data-name="12068" d="M72.033,71.913c-8.038-1.11-16.53-.839-23.844,2.675C38.045,79.46,31.382,90.507,31.127,101.757s5.606,22.305,14.66,28.988,21,9.051,32.068,7.045c11.165-2.023,21.645-8.583,27.469-18.322,3.735-6.245,5.48-13.956,3.417-20.934a28.6,28.6,0,0,0-6.787-11.156A50.145,50.145,0,0,0,72.033,71.913Z" transform="translate(729.631 9636.343)" fill="#26aab7"/>
    <g id="sex" transform="translate(696.872 9683.498)">
      <g id="Grupo_1101443" data-name="Grupo 1101443" transform="translate(71.274 1.334)">
        <path id="Trazado_879669" data-name="Trazado 879669" d="M136.459,8.69l-.029-.03a4.03,4.03,0,0,0-4.087-.987,3.676,3.676,0,0,1-.446.12l-14.919,2.8a4.1,4.1,0,0,0-3.339,4.579,4.032,4.032,0,0,0,4.731,3.364l3.056-.573L114.2,25.186a23.343,23.343,0,1,0,5.7,5.7l7.947-7.947-.721,4.8a4.036,4.036,0,0,0,3.978,4.726,4.033,4.033,0,0,0,3.982-3.434l2.534-16.865A4.031,4.031,0,0,0,136.459,8.69ZM111.6,55.126a15.3,15.3,0,1,1,0-21.631A15.2,15.2,0,0,1,111.6,55.126Z" transform="translate(-77.42 -7.479)" fill="#8ac9fe"/>
      </g>
      <g id="Grupo_1101444" data-name="Grupo 1101444" transform="translate(83.627 1.334)">
        <path id="Trazado_879670" data-name="Trazado 879670" d="M176.808,30.886l7.947-7.947c-.042-.232-.171-1.758-.277-3.072a.913.913,0,0,0-1.556-.572l-8.73,8.832a3.516,3.516,0,0,0-.444,4.373c2,3.116,3.452,6.291,3.448,10.2a23.389,23.389,0,0,1-30.52,22.224,23.371,23.371,0,0,0,30.132-34.039Zm16.554-22.2a.232.232,0,0,1-.029-.03,4.026,4.026,0,0,0-3.416-1.14,4.023,4.023,0,0,1,.763,3.019L188.148,27.4a4.034,4.034,0,0,1-3.411,3.393,4.018,4.018,0,0,0,2.67,1.626,4.1,4.1,0,0,0,.6.046,4.035,4.035,0,0,0,3.983-3.434l2.533-16.866a4.032,4.032,0,0,0-1.165-3.478Z" transform="translate(-146.676 -7.478)" fill="#60b7ff"/>
      </g>
      <g id="Grupo_1101445" data-name="Grupo 1101445" transform="translate(74.801 29.799)">
        <path id="Trazado_879671" data-name="Trazado 879671" d="M150.54,173.906A23.363,23.363,0,0,0,114.9,203.847l-4.108,4.108-2.838-2.838a4.032,4.032,0,1,0-5.7,5.7l2.838,2.838-6.716,6.716a4.032,4.032,0,1,0,5.7,5.7l6.716-6.716,2.838,2.838a4.032,4.032,0,0,0,5.7-5.7l-2.838-2.838,4.111-4.111a23.36,23.36,0,0,0,29.937-35.64Zm-5.7,27.333a15.3,15.3,0,1,1,0-21.631A15.313,15.313,0,0,1,144.838,201.239Z" transform="translate(-97.19 -167.064)" fill="#fd8087"/>
      </g>
      <g id="Grupo_1101446" data-name="Grupo 1101446" transform="translate(74.997 35.386)">
        <path id="Trazado_879672" data-name="Trazado 879672" d="M151.443,199.642c-.438-.438-.891-.858-1.357-1.254a23.387,23.387,0,0,1-1.245,31.687c-4.553,4.554-9.93,6.251-15.911,6.251-4.345,0-8.2-1.756-11.92-4.244a1.356,1.356,0,0,0-1.719.169l-3.55,3.584a1.354,1.354,0,0,0,0,1.91l1.65,1.65,4.111-4.111a23.361,23.361,0,0,0,29.937-35.641Zm-31.211,42.59-2.6-2.6a4.032,4.032,0,1,1-5.7,5.7l2.6,2.6a4.032,4.032,0,1,0,5.7-5.7Zm-10.185,1.219a1.353,1.353,0,0,0-1.914,0l-5.759,5.759a4.019,4.019,0,0,1-4.085.986,4.03,4.03,0,0,0,6.688,1.615l6.714-6.714Z" transform="translate(-98.289 -198.388)" fill="#fe646f"/>
      </g>
      <g id="Grupo_1101447" data-name="Grupo 1101447" transform="translate(69.94 0)">
        <path id="Trazado_879673" data-name="Trazado 879673" d="M227.081,238.047a16.616,16.616,0,1,0-11.759-4.863A16.578,16.578,0,0,0,227.081,238.047Zm9.872-26.494A13.961,13.961,0,0,1,217.209,231.3q-.466-.466-.88-.967a24.724,24.724,0,0,0,18.239-20.69A14.076,14.076,0,0,1,236.953,211.553Zm-19.744,0a13.866,13.866,0,0,1,6.754-3.738,13.94,13.94,0,0,1-10.777,12.23A13.858,13.858,0,0,1,217.209,211.553Zm-4.025,11.217a16.6,16.6,0,0,0,13.482-15.3c.138,0,.276-.01.415-.01a13.957,13.957,0,0,1,4.941.9,22.031,22.031,0,0,1-17.283,19.6,13.834,13.834,0,0,1-1.554-5.193Z" transform="translate(-185.388 -168.266)"/>
        <path id="Trazado_879674" data-name="Trazado 879674" d="M129.094,35.7a24.539,24.539,0,0,0-11.442-6.5,24.324,24.324,0,0,0-2.173-4.289l4.306-4.306-.117.778a5.511,5.511,0,0,0,.862,3.939,5.336,5.336,0,0,0,3.631,2.275,5.364,5.364,0,0,0,6.1-4.51L132.8,6.221a5.379,5.379,0,0,0-1.531-4.61l-.039-.04A5.373,5.373,0,0,0,126.114.164c-.424.107-.848.217-1.277.3l-14.344,2.69a5.367,5.367,0,0,0,.925,10.641l-3.528,3.528a24.7,24.7,0,1,0-19.279,44.8,24.412,24.412,0,0,0,2.178,4.3L88.4,68.8l-1.894-1.894A5.366,5.366,0,0,0,78.916,74.5l1.894,1.894-5.772,5.772a5.366,5.366,0,1,0,7.589,7.589l.579-.579a1.334,1.334,0,0,0-1.887-1.887l-.578.579a2.708,2.708,0,0,1-3.815,0,2.7,2.7,0,0,1,0-3.815l6.716-6.716a1.335,1.335,0,0,0,0-1.887L80.8,72.61A2.7,2.7,0,0,1,84.618,68.8l2.838,2.838a1.334,1.334,0,0,0,1.887,0l4.108-4.108a1.334,1.334,0,0,0,.147-1.712,22.01,22.01,0,1,1,5.382,5.376,1.334,1.334,0,0,0-1.711.148l-4.111,4.111a1.334,1.334,0,0,0,0,1.887L96,80.173a2.68,2.68,0,0,1,.79,1.908,2.72,2.72,0,0,1-2.7,2.7,2.68,2.68,0,0,1-1.908-.79l-2.838-2.838a1.334,1.334,0,0,0-1.887,0l-1.7,1.7a1.334,1.334,0,0,0,1.887,1.887l.761-.761,1.894,1.894a5.366,5.366,0,0,0,7.589-7.589l-1.894-1.894L98.382,74a24.7,24.7,0,0,0,30.712-38.3Zm-17.461-7.233a25.069,25.069,0,0,0-3.337.224,16.592,16.592,0,0,0-13.661-7.153,16.817,16.817,0,0,0-3.546.377,1.334,1.334,0,1,0,.564,2.608,14.129,14.129,0,0,1,2.982-.317,13.87,13.87,0,0,1,9.872,4.089q.467.467.878.966A24.729,24.729,0,0,0,87.146,49.949a14.033,14.033,0,0,1-2.384-1.912,13.961,13.961,0,0,1,0-19.744,14.2,14.2,0,0,1,1.865-1.57,1.334,1.334,0,0,0-1.535-2.183,16.841,16.841,0,0,0-2.217,1.866,16.649,16.649,0,0,0,4.067,26.51c0,.081,0,.161,0,.242a24.874,24.874,0,0,0,.708,5.9,22.031,22.031,0,1,1,19.642-38.93A1.334,1.334,0,0,0,109,19.983l7.188-7.188a1.379,1.379,0,0,0,.348-1.433,1.334,1.334,0,0,0-1.5-.858l-3.056.573a2.7,2.7,0,1,1-.995-5.3L126.1,2.934c.249-.047.5-.108.745-.148a2.977,2.977,0,0,1,2.819,1.027,2.776,2.776,0,0,1,.5,2.011s-2.534,16.864-2.534,16.865a2.731,2.731,0,0,1-3.068,2.267,2.682,2.682,0,0,1-1.812-1.124,2.8,2.8,0,0,1-.443-2.025l.716-4.765a1.378,1.378,0,0,0-.552-1.344,1.335,1.335,0,0,0-1.7.153L112.816,23.8a1.329,1.329,0,0,0-.153,1.7,21.718,21.718,0,0,1,1.834,3.127,25.248,25.248,0,0,0-2.864-.164Z" transform="translate(-69.94 0)"/>
      </g>
    </g>
  </g>
</svg>
