<svg xmlns="http://www.w3.org/2000/svg" width="78.501" height="81.077" viewBox="0 0 78.501 81.077">
  <g id="Grupo_1101512" data-name="Grupo 1101512" transform="translate(-1075.999 -10250.747)">
    <path id="_12068" data-name="12068" d="M72.033,71.913c-8.038-1.11-16.53-.839-23.844,2.675C38.045,79.46,31.382,90.507,31.127,101.757s5.606,22.305,14.66,28.988,21,9.051,32.068,7.045c11.165-2.023,21.645-8.583,27.469-18.322,3.735-6.245,5.48-13.956,3.417-20.934a28.6,28.6,0,0,0-6.787-11.156A50.145,50.145,0,0,0,72.033,71.913Z" transform="translate(1044.88 10193.343)" fill="#26aab7"/>
    <g id="contractor" transform="translate(1052.45 10250.747)">
      <g id="Grupo_1101471" data-name="Grupo 1101471" transform="translate(33.957 0.937)">
        <g id="Grupo_1101470" data-name="Grupo 1101470" transform="translate(0)">
          <path id="Trazado_879697" data-name="Trazado 879697" d="M49.974,264.005v11.838H40.521v15.841a.624.624,0,0,0,.622.625h18.9v-28.3Z" transform="translate(-40.521 -231.95)" fill="#e0d3ce"/>
          <path id="Trazado_879698" data-name="Trazado 879698" d="M158.471,264.005h4.779v28.3h-4.779Z" transform="translate(-143.731 -231.95)" fill="#b9acac"/>
          <g id="Grupo_1101469" data-name="Grupo 1101469" transform="translate(8.408)">
            <g id="Grupo_1101453" data-name="Grupo 1101453" transform="translate(0 30.079)">
              <g id="Grupo_1101448" data-name="Grupo 1101448" transform="translate(0 5.875)">
                <path id="Trazado_879699" data-name="Trazado 879699" d="M148.117,308.38c-4.848-12.234-14.032-12.886-14.984-13.173h-5.218c-.952.287-10.135.939-14.984,13.173L107.8,321.362h12.056l10.656-.625,10.656.625h12.08Z" transform="translate(-107.8 -295.207)" fill="#64b9fc"/>
                <path id="Trazado_879700" data-name="Trazado 879700" d="M294.082,321.36h-5.3s-.34-.941-.683-1.809l-4.416-11.173c-4.78-12.061-13.774-12.866-14.938-13.16l0-.012h5.218c.952.287,10.136.94,14.985,13.173l4.416,11.173.715,1.809Z" transform="translate(-248.634 -295.205)" fill="#31a7fb"/>
                <path id="Trazado_879701" data-name="Trazado 879701" d="M238.221,297.273a18.471,18.471,0,0,0-5.959-2.066h-5.218a18.472,18.472,0,0,0-5.958,2.066,9.084,9.084,0,0,0,17.135,0Z" transform="translate(-206.929 -295.207)" fill="#f69583"/>
              </g>
              <path id="Trazado_879702" data-name="Trazado 879702" d="M268.764,248.2h5.218v7.833h-5.218Z" transform="translate(-248.649 -248.197)" fill="#f69583"/>
              <g id="Grupo_1101451" data-name="Grupo 1101451" transform="translate(8.856 7.51)">
                <path id="Trazado_879703" data-name="Trazado 879703" d="M183.512,308.4a.575.575,0,0,0-.725.048l-3.933,3.647a.58.58,0,0,0-.058.79,15.329,15.329,0,0,1,3.071,9.67v10.258h10.656V314.789Z" transform="translate(-178.668 -308.294)" fill="#fb9927"/>
                <g id="Grupo_1101449" data-name="Grupo 1101449" transform="translate(13.856)">
                  <path id="Trazado_879704" data-name="Trazado 879704" d="M298.558,308.4a.575.575,0,0,1,.725.048l3.933,3.647a.58.58,0,0,1,.058.79,15.328,15.328,0,0,0-3.071,9.67v10.258H289.545V314.789Z" transform="translate(-289.545 -308.294)" fill="#fb9927"/>
                  <path id="Trazado_879705" data-name="Trazado 879705" d="M356.651,327.116a15.335,15.335,0,0,0-3.07,9.671v10.258h-3.034V335.84a16.318,16.318,0,0,1,4.14-11.282l1.907,1.768A.582.582,0,0,1,356.651,327.116Z" transform="translate(-342.924 -322.526)" fill="#f98824"/>
                </g>
                <g id="Grupo_1101450" data-name="Grupo 1101450" transform="translate(5.158 0.295)">
                  <path id="Trazado_879706" data-name="Trazado 879706" d="M220.772,310.762l7.89,6.092-7.49,1.139a.516.516,0,0,1-.59-.46l-.637-6.307A.516.516,0,0,1,220.772,310.762Z" transform="translate(-219.942 -310.653)" fill="#64b9fc"/>
                </g>
              </g>
              <g id="Grupo_1101452" data-name="Grupo 1101452" transform="translate(22.712 7.805)">
                <path id="Trazado_879707" data-name="Trazado 879707" d="M297.435,310.762l-7.89,6.092,7.49,1.139a.516.516,0,0,0,.59-.46l.637-6.307A.516.516,0,0,0,297.435,310.762Z" transform="translate(-289.545 -310.653)" fill="#64b9fc"/>
              </g>
            </g>
            <g id="Grupo_1101467" data-name="Grupo 1101467" transform="translate(7.47)">
              <g id="Grupo_1101454" data-name="Grupo 1101454" transform="translate(0.959 18.468)">
                <ellipse id="Elipse_11632" data-name="Elipse 11632" cx="3.387" cy="3.323" rx="3.387" ry="3.323" transform="translate(21.816)" fill="#f69583"/>
                <ellipse id="Elipse_11633" data-name="Elipse 11633" cx="3.387" cy="3.323" rx="3.387" ry="3.323" fill="#fdb0a0"/>
              </g>
              <g id="Grupo_1101455" data-name="Grupo 1101455" transform="translate(5.111 17.891)">
                <path id="Trazado_879708" data-name="Trazado 879708" d="M218.619,167.213a10.143,10.143,0,0,1-10.143-10.143v-6.406h20.286v6.406A10.143,10.143,0,0,1,218.619,167.213Z" transform="translate(-208.476 -150.664)" fill="#ffcec0"/>
              </g>
              <path id="Trazado_879709" data-name="Trazado 879709" d="M286.226,150.664v6.361a10.167,10.167,0,0,1-10.144,10.189,9.961,9.961,0,0,1-1.936-.188,10.177,10.177,0,0,0,8.2-10v-6.361Z" transform="translate(-260.829 -132.773)" fill="#fdb0a0"/>
              <g id="Grupo_1101466" data-name="Grupo 1101466">
                <g id="Grupo_1101465" data-name="Grupo 1101465">
                  <g id="Grupo_1101457" data-name="Grupo 1101457" transform="translate(3.112 0.586)">
                    <g id="Grupo_1101456" data-name="Grupo 1101456">
                      <path id="Trazado_879710" data-name="Trazado 879710" d="M192.483,28.8h24.283V24.218a12.028,12.028,0,0,0-12.028-12.027h-.228a12.028,12.028,0,0,0-12.027,12.028Z" transform="translate(-192.483 -12.191)" fill="#fdc83a"/>
                      <path id="Trazado_879711" data-name="Trazado 879711" d="M291.218,24.244a12.028,12.028,0,0,0-12-12.054h-.282a12.086,12.086,0,0,0-1.368.078,12.95,12.95,0,0,1,8.551,12.165V28.8h5.1Z" transform="translate(-266.935 -12.19)" fill="#fcb72d"/>
                    </g>
                  </g>
                  <g id="Grupo_1101460" data-name="Grupo 1101460" transform="translate(6.703)">
                    <g id="Grupo_1101458" data-name="Grupo 1101458" transform="translate(0 0)">
                      <path id="Trazado_879712" data-name="Trazado 879712" d="M238.316,22.3c-.927-.736-2.175-1.7-3.2-2.49a4.878,4.878,0,0,1-1.868-3.87V8.961A1.463,1.463,0,0,0,231.78,7.5h-4.03a1.463,1.463,0,0,0-1.466,1.461V15.94a4.877,4.877,0,0,1-1.869,3.87c-1.026.789-2.274,1.754-3.2,2.49Z" transform="translate(-221.214 -7.5)" fill="#fb9927"/>
                    </g>
                    <g id="Grupo_1101459" data-name="Grupo 1101459" transform="translate(6.938)">
                      <path id="Trazado_879713" data-name="Trazado 879713" d="M286.895,22.3h-3.752c-.927-.736-2.174-1.7-3.2-2.49a4.876,4.876,0,0,1-1.868-3.87V8.961a1.462,1.462,0,0,0-1.343-1.455,1.115,1.115,0,0,1,.122-.006h3.507a1.464,1.464,0,0,1,1.466,1.461v6.979a4.876,4.876,0,0,0,1.868,3.87C284.72,20.6,285.968,21.564,286.895,22.3Z" transform="translate(-276.731 -7.5)" fill="#f98824"/>
                    </g>
                  </g>
                  <g id="Grupo_1101464" data-name="Grupo 1101464" transform="translate(0 14.542)">
                    <g id="Grupo_1101463" data-name="Grupo 1101463">
                      <g id="Grupo_1101462" data-name="Grupo 1101462">
                        <g id="Grupo_1101461" data-name="Grupo 1101461">
                          <path id="Trazado_879714" data-name="Trazado 879714" d="M195.511,129.023H170.154a2.575,2.575,0,0,1-2.575-2.575v-.011a2.575,2.575,0,0,1,2.575-2.575h25.358a2.575,2.575,0,0,1,2.575,2.575v.011A2.575,2.575,0,0,1,195.511,129.023Z" transform="translate(-167.579 -123.862)" fill="#fddd45"/>
                          <path id="Trazado_879715" data-name="Trazado 879715" d="M358.362,126.445a2.583,2.583,0,0,1-2.591,2.581h-5.027a2.58,2.58,0,1,0,0-5.16h5.027a2.587,2.587,0,0,1,2.591,2.579Z" transform="translate(-327.854 -123.866)" fill="#fdc83a"/>
                        </g>
                      </g>
                    </g>
                  </g>
                </g>
              </g>
            </g>
            <g id="Grupo_1101468" data-name="Grupo 1101468" transform="translate(12.056 53.894)">
              <path id="Trazado_879716" data-name="Trazado 879716" d="M204.273,438.763h10.678v3.583H204.273Z" transform="translate(-204.273 -438.763)" fill="#f3eae6"/>
              <path id="Trazado_879717" data-name="Trazado 879717" d="M289.545,438.763h10.678v3.583H289.545Z" transform="translate(-278.889 -438.763)" fill="#f3eae6"/>
            </g>
          </g>
        </g>
      </g>
      <g id="Grupo_1101474" data-name="Grupo 1101474" transform="translate(33.02 0)">
        <path id="Trazado_879718" data-name="Trazado 879718" d="M283.078,194.039a.937.937,0,0,0,.937-.937v-1.4a.937.937,0,1,0-1.875,0v1.4A.937.937,0,0,0,283.078,194.039Z" transform="translate(-251.009 -166.929)"/>
        <path id="Trazado_879719" data-name="Trazado 879719" d="M268.085,227.692a.937.937,0,0,0-1.328-1.323,2.741,2.741,0,0,1-3.89,0,.937.937,0,0,0-1.328,1.323,4.615,4.615,0,0,0,6.546,0Z" transform="translate(-232.743 -197.839)"/>
        <path id="Trazado_879720" data-name="Trazado 879720" d="M244.66,181.639a.938.938,0,0,0-.972.9l-.01.264a.937.937,0,0,0,.9.972h.036a.937.937,0,0,0,.936-.9l.01-.264A.937.937,0,0,0,244.66,181.639Z" transform="translate(-217.352 -158.94)"/>
        <path id="Trazado_879721" data-name="Trazado 879721" d="M321.471,183.778h.036a.937.937,0,0,0,.9-.972l-.01-.264a.937.937,0,1,0-1.873.07l.01.264A.937.937,0,0,0,321.471,183.778Z" transform="translate(-284.596 -158.94)"/>
        <path id="Trazado_879722" data-name="Trazado 879722" d="M88.685,62.7,83.553,49.719a26.367,26.367,0,0,0-3.726-6.613,1.521,1.521,0,0,0-.443-1.465l-3.933-3.647a1.519,1.519,0,0,0-1.874-.144,18.215,18.215,0,0,0-4.943-1.723v-.393a11.116,11.116,0,0,0,7.395-8.744,4.3,4.3,0,0,0,4.291-4.261,4.2,4.2,0,0,0-.435-1.864,3.519,3.519,0,0,0-1.718-6.3V13.55A13.017,13.017,0,0,0,69.192,1.214,2.4,2.4,0,0,0,67.1,0H63.075a2.4,2.4,0,0,0-2.088,1.214A13.018,13.018,0,0,0,52.01,13.552v1.013a3.512,3.512,0,0,0-3.112,3.5,3.518,3.518,0,0,0,1.394,2.805,4.2,4.2,0,0,0-.435,1.863,4.3,4.3,0,0,0,4.291,4.261,11.115,11.115,0,0,0,7.395,8.744v.393a18.182,18.182,0,0,0-4.957,1.729,1.519,1.519,0,0,0-1.883.138l-.289.268v-8.07a.937.937,0,1,0-1.875,0v1.863H44.348V30.192a.937.937,0,1,0-1.875,0v3H40.032v-3a.937.937,0,1,0-1.875,0v3h-.524a.937.937,0,0,0,0,1.875h.524v1.817h-.524a.937.937,0,0,0,0,1.875h.524v1.817h-.524a.937.937,0,0,0,0,1.875h.524v1.44H34.895V42.024a.937.937,0,0,0-1.875,0V50.9a.937.937,0,1,0,1.875,0V45.767h8.516a.937.937,0,0,0,.937-.937v-10.9h8.192V40L50.77,41.64a1.521,1.521,0,0,0-.437,1.487,26.391,26.391,0,0,0-3.708,6.592L42.42,60.358H34.895v-5.31a.937.937,0,1,0-1.875,0v5.623a1.562,1.562,0,0,0,1.559,1.562h7.1l-.185.469a.937.937,0,1,0,1.743.689l5.131-12.981A25.023,25.023,0,0,1,51.4,44.821a15.11,15.11,0,0,1,2.082,7.966V63.046a.937.937,0,0,0,1.875,0V59.352H64.14v3.695a.937.937,0,1,0,1.875,0V59.352H74.8v3.695a.937.937,0,0,0,1.875,0V52.788c0-.278.007-.558.021-.855a.937.937,0,0,0-1.873-.088c-.015.327-.023.636-.023.944v1.106H71.354v-6.97l1.072.163a1.44,1.44,0,0,0,.216.016A1.453,1.453,0,0,0,74.09,45.8l.6-5.951,3.179,2.948a14.861,14.861,0,0,0-2.3,4.634.937.937,0,1,0,1.794.545,13.665,13.665,0,0,1,1.4-3.166,25.008,25.008,0,0,1,3.045,5.6l5.132,12.982a.937.937,0,1,0,1.743-.689ZM42.473,43.893H40.031v-1.44h2.442Zm0-3.315H40.031V38.762h2.442Zm0-3.691H40.031V35.07h2.442Zm33.7-11.781V21.577h1.6a3.513,3.513,0,0,0,.357-.018,2.331,2.331,0,0,1,.317,1.169,2.415,2.415,0,0,1-2.278,2.378ZM69.508,3.328A11.142,11.142,0,0,1,76.294,13.55v.991H73.638c-.879-.69-1.906-1.481-2.627-2.037a3.953,3.953,0,0,1-1.5-3.127ZM62.545,9.376V2.4a.527.527,0,0,1,.53-.523H67.1a.527.527,0,0,1,.53.523v6.98a5.838,5.838,0,0,0,2.234,4.613l.715.551H59.6l.716-.551A5.839,5.839,0,0,0,62.545,9.376Zm-8.66,4.175A11.143,11.143,0,0,1,60.67,3.328V9.376a3.953,3.953,0,0,1-1.5,3.128c-.939.721-1.879,1.45-2.628,2.037H53.885v-.99Zm.124,11.555a2.415,2.415,0,0,1-2.278-2.378,2.331,2.331,0,0,1,.316-1.169,3.506,3.506,0,0,0,.357.018h1.6v3.529Zm1.875.128V21.577h2.46a.937.937,0,0,0,0-1.875H52.4A1.646,1.646,0,0,1,51.252,16.9a1.615,1.615,0,0,1,1.152-.48H77.773a1.643,1.643,0,0,1,0,3.286h-15.3a.937.937,0,1,0,0,1.875H74.3v3.657a9.206,9.206,0,0,1-18.412,0Zm-3.6,17.558,3.2-2.966.6,5.969A1.453,1.453,0,0,0,57.535,47.1a1.441,1.441,0,0,0,.216-.016l1.075-.163v6.97H55.358V52.788a16.446,16.446,0,0,0-3.073-10Zm5.128-2.521,5.379,4.153-4.885.743ZM64.14,57.477H55.358V55.769H64.14Zm0-3.583H60.7V46.639l3.441-.523Zm.948-10.064-6.36-4.91a16.107,16.107,0,0,1,2.815-.879v.322a.937.937,0,1,0,1.875,0V36.189a11.155,11.155,0,0,0,3.343,0v2.174a.937.937,0,1,0,1.875,0v-.322a16.089,16.089,0,0,1,2.813.878Zm.926,2.283,3.465.527v7.255H66.015Zm8.8,9.656v1.708H66.037V55.769Zm-2.549-10.6-4.885-.743,5.379-4.153Z" transform="translate(-33.02 0)"/>
        <g id="Grupo_1101472" data-name="Grupo 1101472" transform="translate(4.568 49.276)">
          <path id="Trazado_879723" data-name="Trazado 879723" d="M71.33,396.187h-.818a.937.937,0,0,1,0-1.875h.818a.937.937,0,0,1,0,1.875Z" transform="translate(-69.575 -394.312)"/>
        </g>
        <g id="Grupo_1101473" data-name="Grupo 1101473" transform="translate(6.136 52.334)">
          <path id="Trazado_879724" data-name="Trazado 879724" d="M83.873,420.655h-.818a.937.937,0,1,1,0-1.875h.818a.937.937,0,1,1,0,1.875Z" transform="translate(-82.118 -418.78)"/>
        </g>
      </g>
    </g>
  </g>
</svg>
