<svg xmlns="http://www.w3.org/2000/svg" width="78.501" height="81.077" viewBox="0 0 78.501 81.077">
  <g id="Grupo_1101511" data-name="Grupo 1101511" transform="translate(-760.999 -10250.747)">
    <path id="_12068" data-name="12068" d="M72.033,71.913c-8.038-1.11-16.53-.839-23.844,2.675C38.045,79.46,31.382,90.507,31.127,101.757s5.606,22.305,14.66,28.988,21,9.051,32.068,7.045c11.165-2.023,21.645-8.583,27.469-18.322,3.735-6.245,5.48-13.956,3.417-20.934a28.6,28.6,0,0,0-6.787-11.156A50.145,50.145,0,0,0,72.033,71.913Z" transform="translate(729.88 10193.343)" fill="#26aab7"/>
    <g id="education_1_" data-name="education (1)" transform="translate(768 10249.824)">
      <path id="Trazado_879688" data-name="Trazado 879688" d="M12,40H53V34H12a3,3,0,0,0,0,6Z" fill="#eceff0"/>
      <path id="Trazado_879689" data-name="Trazado 879689" d="M10.412,48a5.5,5.5,0,1,0,0,11S61,58.987,61,58.972V48.028C61,48.012,10.412,48,10.412,48Z" fill="#dedfdf"/>
      <path id="Trazado_879690" data-name="Trazado 879690" d="M4.823,53.5a5.5,5.5,0,0,1,5.5-5.5H61a2,2,0,0,0,0-4H10.5a9.5,9.5,0,0,0,0,19H61a2,2,0,0,0,0-4H10.323a5.5,5.5,0,0,1-5.5-5.5Z" fill="#db3a3a"/>
      <path id="Trazado_879691" data-name="Trazado 879691" d="M12,40H53a2,2,0,0,1,0,4H12.024a7,7,0,1,1,0-14H53a2,2,0,0,1,0,4H12a3,3,0,0,0,0,6Z" fill="#5783e4"/>
      <path id="Trazado_879692" data-name="Trazado 879692" d="M17,30s3.75,5,15,5,15-5,15-5V16H17Z" fill="#414141"/>
      <path id="Trazado_879693" data-name="Trazado 879693" d="M32,2,7,12,32,22,57,12Z" fill="#5a5a5a"/>
      <path id="Trazado_879694" data-name="Trazado 879694" d="M50,36h6L54,24H52Z" fill="#ffdc32"/>
      <circle id="Elipse_11631" data-name="Elipse 11631" cx="2.5" cy="2.5" r="2.5" transform="translate(50.5 21.5)" fill="#facd1e"/>
      <path id="Trazado_879695" data-name="Trazado 879695" d="M62,58.184V48.816A2.993,2.993,0,0,0,61,43H55.816A2.963,2.963,0,0,0,56,42a3,3,0,0,0-2-2.816V37h3.181L55.432,26.508A3.478,3.478,0,0,0,54,20.663V16.311l-2.6-.992L59.692,12,32,.923,4.308,12,16,16.677V29H12A7.991,7.991,0,0,0,7.339,43.488,10.5,10.5,0,0,0,10.5,64H61a2.993,2.993,0,0,0,1-5.816ZM60,51H42v2H60v5H10.323a4.5,4.5,0,1,1,0-9H60ZM52,39H12a2,2,0,0,1,0-4H23.976A30.115,30.115,0,0,0,32,36a30.115,30.115,0,0,0,8.024-1h9.128l-.333,2H52Zm-4.551-8H49.82l-.333,2H44.861a12.148,12.148,0,0,0,2.588-2Zm7.37,4H51.181l1.259-7.557a2.8,2.8,0,0,0,1.12,0ZM54.5,24A1.5,1.5,0,1,1,53,22.5,1.5,1.5,0,0,1,54.5,24ZM52,17.69v2.974a3.478,3.478,0,0,0-1.432,5.845L50.153,29H48V16.677l.655-.262ZM32,3.077,54.308,12l-5.67,2.268-16.282-6.2-.712,1.869L45.9,15.365,32,20.923,9.692,12Zm0,20,14-5.6V29.621C45.1,30.55,41.155,34,32,34s-13.112-3.458-14-4.378V17.477ZM6,37a6.007,6.007,0,0,1,6-6h4.551a12.148,12.148,0,0,0,2.588,2H12a4,4,0,0,0,0,8H53a1,1,0,0,1,0,2H12a6.007,6.007,0,0,1-6-6ZM61,62H10.5a8.5,8.5,0,0,1,0-17H61a1,1,0,0,1,0,2H10.323a6.5,6.5,0,0,0,0,13H61a1,1,0,0,1,0,2Z"/>
      <path id="Trazado_879696" data-name="Trazado 879696" d="M10,54H38v2H10Z"/>
    </g>
  </g>
</svg>
