<svg xmlns="http://www.w3.org/2000/svg" width="79.416" height="89.937" viewBox="0 0 79.416 89.937">
  <g id="Grupo_1101510" data-name="Grupo 1101510" transform="translate(-439.084 -10223.888)">
    <path id="_12068" data-name="12068" d="M72.033,71.913c-8.038-1.11-16.53-.839-23.844,2.675C38.045,79.46,31.382,90.507,31.127,101.757s5.606,22.305,14.66,28.988,21,9.051,32.068,7.045c11.165-2.023,21.645-8.583,27.469-18.322,3.735-6.245,5.48-13.956,3.417-20.934a28.6,28.6,0,0,0-6.787-11.156A50.145,50.145,0,0,0,72.033,71.913Z" transform="translate(408.88 10175.343)" fill="#26aab7"/>
    <g id="piggy-bank" transform="translate(439.085 10223.888)">
      <path id="Trazado_879675" data-name="Trazado 879675" d="M128.526,127.222a23.236,23.236,0,0,0-12.38-15.934v-9.274a1.3,1.3,0,0,0-1.469-1.293,11.109,11.109,0,0,0-9.259,8.151H90.745a23.451,23.451,0,0,0-23.429,23.261,23.153,23.153,0,0,0,9.016,18.289,82.481,82.481,0,0,0,.8,9.3,5.194,5.194,0,0,0,10.288,0c.189-1.351.38-2.925.529-4.6a23.381,23.381,0,0,0,2.562.144h15.324c.6,0,1.192-.024,1.78-.068.145,1.6.327,3.1.507,4.41a5.272,5.272,0,0,0,5.132,4.589,5.193,5.193,0,0,0,5.173-4.477,84.275,84.275,0,0,0,.786-8.7,23.3,23.3,0,0,0,7.971-9.872,1.076,1.076,0,0,1,.991-.655H132.7a2.271,2.271,0,0,0,2.271-2.271v-8.727a2.271,2.271,0,0,0-2.271-2.271Zm0,0" transform="translate(-56.732 -84.874)" fill="#ffd2c0"/>
      <path id="Trazado_879676" data-name="Trazado 879676" d="M356.782,269.328h-1.287c0,.058.009.115.009.174v8.728a2.27,2.27,0,0,1-2.271,2.27h-4.6a.948.948,0,0,0-.875.579,23.294,23.294,0,0,1-7.626,9.677.961.961,0,0,0-.393.736c-.119,2.985-.449,5.934-.77,8.239a5.178,5.178,0,0,1-5.759,4.439,5.169,5.169,0,0,0,9.308-2.343,84.628,84.628,0,0,0,.786-8.7,23.3,23.3,0,0,0,7.97-9.873,1.076,1.076,0,0,1,.991-.655h4.52a2.27,2.27,0,0,0,2.27-2.27V271.6A2.27,2.27,0,0,0,356.782,269.328Zm0,0" transform="translate(-280.816 -226.981)" fill="#edaa9d"/>
      <path id="Trazado_879677" data-name="Trazado 879677" d="M165.313,435.694H148.2a23.545,23.545,0,0,1-2.563-.144c-.15,1.671-.34,3.245-.529,4.6a5.194,5.194,0,0,1-9.345,2.339,5.077,5.077,0,0,0,.652.042,5.193,5.193,0,0,0,5.145-4.477c.189-1.352.378-2.926.529-4.6a23.534,23.534,0,0,0,2.562.144s14.758-.016,20.49-.045C165.191,434.277,165.249,435,165.313,435.694Zm0,0" transform="translate(-114.419 -365.3)" fill="#edaa9d"/>
      <path id="Trazado_879678" data-name="Trazado 879678" d="M185.573,88.337a9.627,9.627,0,0,1-4.594,8.212H173.1c-.163,0-.326,0-.488.007-.515.013-1.026.048-1.532.1a9.637,9.637,0,1,1,14.494-8.324Zm0,0" transform="translate(-140.153 -66.325)" fill="#ffcd34"/>
      <path id="Trazado_879679" data-name="Trazado 879679" d="M196.046,83.555a9.637,9.637,0,0,1-10.351,15.9,9.672,9.672,0,0,0,1.734,1.294c1.366-.15,1.43-.11,9.894-.111C203.83,96.637,203.83,87.46,196.046,83.555Zm0,0" transform="translate(-156.498 -70.417)" fill="#e69012"/>
      <path id="Trazado_879680" data-name="Trazado 879680" d="M50.249,17.137A9.636,9.636,0,1,1,40.613,7.5,9.636,9.636,0,0,1,50.249,17.137Zm0,0" transform="translate(-26.106 -6.321)" fill="#ffcd34"/>
      <path id="Trazado_879681" data-name="Trazado 879681" d="M60.722,12.355a9.637,9.637,0,0,1-10.351,15.9,9.636,9.636,0,1,0,10.351-15.9Zm0,0" transform="translate(-42.451 -10.413)" fill="#e69012"/>
      <path id="Trazado_879682" data-name="Trazado 879682" d="M393.238,233.721a1.179,1.179,0,0,0,1.179-1.179v-2.648a1.179,1.179,0,1,0-2.358,0v2.648A1.179,1.179,0,0,0,393.238,233.721Zm0,0" transform="translate(-330.414 -192.753)"/>
      <path id="Trazado_879683" data-name="Trazado 879683" d="M151.721,101.173h-3.236A24.417,24.417,0,0,0,136.35,85.7V77.143a2.482,2.482,0,0,0-2.8-2.462,12.219,12.219,0,0,0-9.978,8.141h-1.244q.029-.4.029-.806A10.815,10.815,0,1,0,101,84.446a24.754,24.754,0,0,0-10.872,8.147,1.179,1.179,0,0,0,1.876,1.43,22.4,22.4,0,0,1,9.778-7.351,10.927,10.927,0,0,0,2.1,2.982c-.123.031-.246.064-.369.1a1.179,1.179,0,1,0,.629,2.273,17.035,17.035,0,0,1,2.665-.513c1.346-.148.564-.1,14.24-.1a1.179,1.179,0,1,0,0-2.359h-1.286a10.688,10.688,0,0,0,2.123-3.868h2.553a1.179,1.179,0,0,0,1.14-.877,9.872,9.872,0,0,1,8.273-7.284.109.109,0,0,1,.093.029.12.12,0,0,1,.043.095v9.275a1.178,1.178,0,0,0,.654,1.056A22.2,22.2,0,0,1,146.4,102.6a1.179,1.179,0,0,0,1.153.934h4.171a1.092,1.092,0,0,1,1.091,1.091v8.728a1.092,1.092,0,0,1-1.091,1.09H147.2a2.257,2.257,0,0,0-2.075,1.373,22.249,22.249,0,0,1-1.206,2.412,1.179,1.179,0,1,0,2.04,1.182,24.341,24.341,0,0,0,1.309-2.608h4.452a3.453,3.453,0,0,0,3.45-3.448v-8.728A3.454,3.454,0,0,0,151.721,101.173ZM106.96,89.127a8.45,8.45,0,1,1,12.874-5.445,1.23,1.23,0,0,0-.033.158,8.394,8.394,0,0,1-3.564,5.209C108.923,89.074,108.459,88.992,106.96,89.127Zm0,0" transform="translate(-75.756 -60.004)"/>
      <path id="Trazado_879684" data-name="Trazado 879684" d="M67.021,256.946a1.179,1.179,0,0,0-1.666.075,22.25,22.25,0,0,1-3.553,3.135,1.177,1.177,0,0,0-.5.924,81.873,81.873,0,0,1-.776,8.579,4.027,4.027,0,0,1-3.977,3.46h-.021a4.1,4.1,0,0,1-3.957-3.481c-.211-1.52-.381-2.992-.507-4.379-.068-.733-.123-1.442-.167-2.109-.046-.721-.08-1.427-.1-2.1a1.179,1.179,0,0,0-2.357.074c.022.7.057,1.427.105,2.174.018.287.039.581.063.881-.169,0-.337.006-.5.006H33.782a22.36,22.36,0,0,1-2.433-.137,1.179,1.179,0,0,0-1.3,1.067c-.131,1.465-.308,2.992-.523,4.54a4.015,4.015,0,0,1-7.953,0c0-.033-.009-.065-.014-.1,0-.012,0-.024,0-.036s0-.022,0-.033c-.233-1.7-.5-3.99-.656-6.414a38.038,38.038,0,0,1,.327-9.347,1.179,1.179,0,1,0-2.316-.448,29.753,29.753,0,0,0-.474,4.665,21.859,21.859,0,0,1-6.665-15.719c0-.1,0-.193,0-.291V241.9a21.386,21.386,0,0,1,2.035-8.874,1.179,1.179,0,1,0-2.136-1,23.716,23.716,0,0,0-2.217,8.691c-3.4.054-5.789.776-7.472,2.242a5.218,5.218,0,0,0-1.759,5.495,3.721,3.721,0,0,0,6.231,1.76,3.2,3.2,0,0,0,.944-2.64,1.179,1.179,0,1,0-2.339.3.9.9,0,0,1-.289.69,1.234,1.234,0,0,1-.955.389,1.615,1.615,0,0,1-1.342-1.208,2.865,2.865,0,0,1,1.06-3.008c1.215-1.06,3.149-1.605,5.894-1.66A24.217,24.217,0,0,0,18.433,261.1a84.8,84.8,0,0,0,.8,8.881,6.373,6.373,0,0,0,12.625,0c.164-1.178.306-2.346.423-3.484.507.032,1.009.048,1.5.048H49.106c.236,0,.475,0,.716-.01.113,1.091.248,2.209.4,3.334,0,.037.01.074.017.111h0l.006.035a6.466,6.466,0,0,0,6.272,5.459h.034a6.394,6.394,0,0,0,6.313-5.493c.412-2.955.672-5.727.776-8.25a24.572,24.572,0,0,0,3.454-3.123A1.179,1.179,0,0,0,67.021,256.946Zm0,0" transform="translate(0 -194.974)"/>
      <path id="Trazado_879685" data-name="Trazado 879685" d="M207.924,103.462h-1.629a.647.647,0,1,1,0-1.294h3.118a1.179,1.179,0,1,0,0-2.359h-.949v-.583a1.179,1.179,0,0,0-2.359,0v.59a3.005,3.005,0,0,0,.189,6h1.629a.647.647,0,1,1,0,1.294h-3.119a1.179,1.179,0,1,0,0,2.359h1.3v.584a1.179,1.179,0,0,0,2.359,0v-.633a3.005,3.005,0,0,0-.54-5.962Zm0,0" transform="translate(-171.326 -82.631)"/>
      <path id="Trazado_879686" data-name="Trazado 879686" d="M34.292,21.631A10.816,10.816,0,1,0,28.244,1.848,1.179,1.179,0,0,0,29.564,3.8a8.444,8.444,0,1,1-2.81,3.174,1.179,1.179,0,0,0-2.1-1.072,10.819,10.819,0,0,0,9.638,15.728Zm0,0" transform="translate(-19.786)"/>
      <path id="Trazado_879687" data-name="Trazado 879687" d="M71.964,26.848a1.179,1.179,0,0,0-1.179,1.179v.59a3.005,3.005,0,0,0,.189,6H72.6a.647.647,0,0,1,0,1.293H69.485a1.179,1.179,0,0,0,0,2.359h1.3v.583a1.179,1.179,0,1,0,2.359,0v-.632a3.006,3.006,0,0,0-.54-5.962H70.974a.647.647,0,1,1,0-1.293h3.118a1.179,1.179,0,0,0,0-2.359h-.948v-.584A1.18,1.18,0,0,0,71.964,26.848Zm0,0" transform="translate(-57.282 -22.626)"/>
    </g>
  </g>
</svg>
