<svg xmlns="http://www.w3.org/2000/svg" width="91.327" height="91.326" viewBox="0 0 91.327 91.326">
  <g id="Grupo_1101509" data-name="Grupo 1101509" transform="translate(-1067.672 -9683.498)">
    <path id="_12068" data-name="12068" d="M72.033,71.913c-8.038-1.11-16.53-.839-23.844,2.675C38.045,79.46,31.382,90.507,31.127,101.757s5.606,22.305,14.66,28.988,21,9.051,32.068,7.045c11.165-2.023,21.645-8.583,27.469-18.322,3.735-6.245,5.48-13.956,3.417-20.934a28.6,28.6,0,0,0-6.787-11.156A50.145,50.145,0,0,0,72.033,71.913Z" transform="translate(1044.63 9636.343)" fill="#26aab7"/>
    <g id="XMLID_1390_" transform="translate(1067.672 9683.492)">
      <g id="XMLID_2800_" transform="translate(59.577 29.885)">
        <path id="XMLID_282_" d="M357.691,195.535h.05a6.232,6.232,0,0,0,6.232-6.232V176.864a9.349,9.349,0,0,0-9.349-9.349H343.355a9.349,9.349,0,0,0-9.349,9.349V189.3a6.232,6.232,0,0,0,6.232,6.232h17.453Z" transform="translate(-334.006 -167.515)" fill="#ff7d97"/>
      </g>
      <g id="XMLID_2786_" transform="translate(66.712 54.788)">
        <g id="XMLID_2787_">
          <path id="XMLID_361_" d="M389.7,307.133v34.759h-7.848v0h-7.848V307.133Z" transform="translate(-374.007 -307.133)" fill="#8aa8bd"/>
        </g>
      </g>
      <g id="XMLID_2785_" transform="translate(68.143 15.885)">
        <path id="XMLID_360_" d="M388.451,103.028a6.417,6.417,0,0,1-6.417-6.417V95.445a6.417,6.417,0,1,1,12.833,0v1.167A6.417,6.417,0,0,1,388.451,103.028Z" transform="translate(-382.034 -89.028)" fill="#efb789"/>
      </g>
      <g id="XMLID_2626_" transform="translate(1.785 60.587)">
        <g id="XMLID_2645_">
          <g id="XMLID_2659_">
            <path id="XMLID_359_" d="M18.569,368.6a8.562,8.562,0,0,1-8.562-8.562V348.2a8.562,8.562,0,1,1,17.124,0v11.836A8.562,8.562,0,0,1,18.569,368.6Z" transform="translate(-10.007 -339.643)" fill="#ffcd69"/>
          </g>
        </g>
        <g id="XMLID_2644_" transform="translate(1.931 0.03)">
          <path id="XMLID_358_" d="M34.1,346.445a6.631,6.631,0,1,1-6.631-6.631A6.631,6.631,0,0,1,34.1,346.445Z" transform="translate(-20.834 -339.814)" fill="#efb789"/>
        </g>
      </g>
      <g id="XMLID_2660_" transform="translate(23.902 27.513)">
        <g id="XMLID_2670_" transform="translate(8.037)">
          <path id="XMLID_357_" d="M185.3,166.682a6.232,6.232,0,1,1,6.232-6.232A6.233,6.233,0,0,1,185.3,166.682Z" transform="translate(-179.066 -154.217)" fill="#efb789"/>
        </g>
        <g id="XMLID_2668_" transform="translate(0 12.465)">
          <path id="XMLID_270_" d="M156.563,248.995h.048a5.935,5.935,0,0,0,5.935-5.935V233a8.9,8.9,0,0,0-8.9-8.9H142.91a8.9,8.9,0,0,0-8.9,8.9V243.06a5.935,5.935,0,0,0,5.935,5.935h16.622Z" transform="translate(-134.006 -224.099)" fill="#a0e5a5"/>
        </g>
        <g id="XMLID_2666_" transform="translate(7.135 32.414)">
          <g id="XMLID_2667_">
            <path id="XMLID_356_" d="M188.277,335.937v29.621h-7.135v0h-7.135V335.937Z" transform="translate(-174.007 -335.937)" fill="#33d6f5"/>
          </g>
        </g>
      </g>
      <g id="XMLID_481_" transform="translate(0 0.006)">
        <path id="XMLID_484_" d="M355.758,110.4a1.784,1.784,0,0,0-1.784,1.784V116.6a4.455,4.455,0,0,1-3.567,4.36V104.475a1.784,1.784,0,1,0-3.567,0v13.457H334.71V104.475a1.784,1.784,0,0,0-3.567,0V120.96a4.455,4.455,0,0,1-3.567-4.36V104.161a7.574,7.574,0,0,1,7.565-7.565h11.268a7.575,7.575,0,0,1,4.812,1.727,1.784,1.784,0,1,0,2.271-2.752,11.149,11.149,0,0,0-5.994-2.487,8.151,8.151,0,0,0,1.478-4.688V87.228a8.2,8.2,0,1,0-16.4,0V88.4a8.153,8.153,0,0,0,1.477,4.687,11.148,11.148,0,0,0-10.044,11.079V116.6a8.026,8.026,0,0,0,7.135,7.966v29.909a1.784,1.784,0,0,0,1.784,1.784h15.7a1.784,1.784,0,0,0,1.784-1.784V124.566a8.026,8.026,0,0,0,7.135-7.966v-4.412a1.784,1.784,0,0,0-1.784-1.784ZM336.142,87.228a4.633,4.633,0,1,1,9.266,0v1.167a4.633,4.633,0,1,1-9.266,0ZM334.71,121.5h4.281V152.69H334.71Zm12.129,31.191h-4.281V121.5h4.281Z" transform="translate(-266.214 -64.933)"/>
        <path id="XMLID_489_" d="M10.353,329.643A10.357,10.357,0,0,0,.007,339.988v11.836a10.346,10.346,0,1,0,20.691,0V339.988A10.357,10.357,0,0,0,10.353,329.643Zm0,3.6a4.847,4.847,0,1,1-4.847,4.847A4.852,4.852,0,0,1,10.353,333.241ZM3.574,343.255l4.281,4.281-4.281,4.281ZM10.353,358.6a6.775,6.775,0,0,1-5.581-2.938l12.359-12.359v8.519A6.786,6.786,0,0,1,10.353,358.6Z" transform="translate(-0.006 -270.845)"/>
        <path id="XMLID_522_" d="M146.673,156.757a8.016,8.016,0,1,0-13.226,0,10.7,10.7,0,0,0-9.44,10.613v10.057a7.727,7.727,0,0,0,7.135,7.694v22.915a1.784,1.784,0,0,0,1.784,1.784H147.2a1.784,1.784,0,0,0,1.784-1.784V185.12a7.727,7.727,0,0,0,7.135-7.694V167.369a10.7,10.7,0,0,0-9.44-10.612Zm-6.613-8.973a4.449,4.449,0,1,1-4.449,4.449A4.454,4.454,0,0,1,140.06,147.784ZM134.709,180.2h3.567v26.054h-3.567Zm7.135,26.054V180.2h3.567v26.054Zm10.7-28.825a4.157,4.157,0,0,1-3.567,4.109V168.021a1.784,1.784,0,1,0-3.567,0v8.61h-10.7v-8.61a1.784,1.784,0,1,0-3.567,0v13.515a4.157,4.157,0,0,1-3.567-4.109V167.369a7.128,7.128,0,0,1,7.12-7.12h10.732a7.128,7.128,0,0,1,7.12,7.12v10.057Z" transform="translate(-101.888 -118.494)"/>
        <path id="XMLID_541_" d="M1.782,21.858a1.789,1.789,0,0,0,.343-.033L78.454,6.953l-.771,1.336a1.784,1.784,0,1,0,3.089,1.784l2.705-4.685a1.784,1.784,0,0,0-.653-2.437L78.139.245a1.784,1.784,0,1,0-1.784,3.089l.509.294L1.443,18.323a1.784,1.784,0,0,0,.339,3.535Z" transform="translate(0 -0.006)"/>
        <path id="XMLID_551_" d="M492.529,212.976a1.783,1.783,0,1,0-.523-1.261A1.8,1.8,0,0,0,492.529,212.976Z" transform="translate(-404.246 -172.486)"/>
      </g>
    </g>
  </g>
</svg>
