<svg xmlns="http://www.w3.org/2000/svg" width="28.369" height="29.412" viewBox="0 0 28.369 29.412">
  <g id="market" transform="translate(-16.796 -7.999)">
    <g id="Grupo_1099737" data-name="Grupo 1099737" transform="translate(17.27 8.386)">
      <g id="Grupo_1099734" data-name="Grupo 1099734" transform="translate(0 0.409)">
        <path id="Trazado_874485" data-name="Trazado 874485" d="M37.3,86.661l8.844,8.844A12.507,12.507,0,1,1,37.3,74.154Z" transform="translate(-24.788 -71.027)" fill="#60b7ff" fill-rule="evenodd"/>
        <path id="Trazado_874486" data-name="Trazado 874486" d="M63.647,113.013l7.67,7.67a10.846,10.846,0,1,1-7.67-18.516Z" transform="translate(-51.14 -97.379)" fill="#8ac9fe" fill-rule="evenodd"/>
        <path id="Trazado_874487" data-name="Trazado 874487" d="M44.055,74.152a12.505,12.505,0,0,0-12.081,9.27L44.055,86.66Z" transform="translate(-31.548 -71.025)" fill="#00e499" fill-rule="evenodd"/>
        <path id="Trazado_874488" data-name="Trazado 874488" d="M69.469,102.167a10.851,10.851,0,0,0-10.479,8.038l10.479,2.808Z" transform="translate(-56.962 -97.379)" fill="#6cf5c2" fill-rule="evenodd"/>
        <path id="Trazado_874489" data-name="Trazado 874489" d="M283.373,267.5H270.866l8.844,8.844A12.468,12.468,0,0,0,283.373,267.5Z" transform="translate(-256.274 -252.908)" fill="#fd4755" fill-rule="evenodd"/>
        <path id="Trazado_874490" data-name="Trazado 874490" d="M281.712,267.5H270.866l7.669,7.67A10.812,10.812,0,0,0,281.712,267.5Z" transform="translate(-256.274 -252.908)" fill="#fe646f" fill-rule="evenodd"/>
        <path id="Trazado_874491" data-name="Trazado 874491" d="M270.866,21.422a12.507,12.507,0,0,1,12.507,12.507H270.866Z" transform="translate(-256.274 -21.422)" fill="#ffd064" fill-rule="evenodd"/>
        <path id="Trazado_874492" data-name="Trazado 874492" d="M281.712,60.28H270.866V49.434A10.846,10.846,0,0,1,281.712,60.28Z" transform="translate(-256.274 -47.773)" fill="#ffe177" fill-rule="evenodd"/>
      </g>
      <g id="Grupo_1099735" data-name="Grupo 1099735" transform="translate(0.795 2.054)">
        <circle id="Elipse_11609" data-name="Elipse 11609" cx="3.985" cy="3.985" r="3.985" transform="translate(0 7.97) rotate(-88.625)" fill="#8ac9fe"/>
        <path id="Trazado_874493" data-name="Trazado 874493" d="M100.811,50.792a3.985,3.985,0,1,1,0,7.97q-.2,0-.387-.019a3.985,3.985,0,0,0,0-7.932Q100.615,50.792,100.811,50.792Z" transform="translate(-96.734 -50.696)" fill="#60b7ff" fill-rule="evenodd"/>
        <path id="Trazado_874494" data-name="Trazado 874494" d="M67.991,90.109l1.938-1.957a.59.59,0,1,1,.837.831c-.786.793-1.566,1.591-2.355,2.381a.591.591,0,0,1-.836,0l-1.31-1.31a.591.591,0,0,1,.836-.836Z" transform="translate(-64.437 -85.677)" fill="#eceff1" fill-rule="evenodd"/>
      </g>
      <g id="Grupo_1099736" data-name="Grupo 1099736" transform="translate(19.374 0)">
        <circle id="Elipse_11610" data-name="Elipse 11610" cx="3.985" cy="3.985" r="3.985" transform="translate(0 0.167) rotate(-1.203)" fill="#8ac9fe"/>
        <path id="Trazado_874495" data-name="Trazado 874495" d="M413.876,16a3.985,3.985,0,0,1,0,7.97q-.2,0-.387-.019a3.985,3.985,0,0,0,0-7.932Q413.68,16,413.876,16Z" transform="translate(-409.814 -15.913)" fill="#60b7ff" fill-rule="evenodd"/>
        <path id="Trazado_874496" data-name="Trazado 874496" d="M381.057,55.317l1.938-1.957a.59.59,0,1,1,.837.831c-.786.793-1.566,1.591-2.355,2.381a.591.591,0,0,1-.836,0l-1.31-1.31a.591.591,0,1,1,.836-.836Z" transform="translate(-377.518 -50.894)" fill="#eceff1" fill-rule="evenodd"/>
      </g>
    </g>
    <path id="Trazado_874497" data-name="Trazado 874497" d="M20.193,14.4a.108.108,0,0,1,.036-.083.111.111,0,0,1,.081-.034.116.116,0,0,1,.084.034l.89.89a.474.474,0,0,0,.673,0l1.937-1.957a.112.112,0,0,1,.081-.034.116.116,0,0,1,.081.2c-.293.3-.583.592-.876.888-.483.49-.982,1-1.476,1.491a.116.116,0,0,1-.084.034.111.111,0,0,1-.081-.034l-1.309-1.31A.108.108,0,0,1,20.193,14.4Zm1.426,2.374a1.06,1.06,0,0,0,.754-.311c.5-.5,1-1,1.482-1.5.293-.3.583-.591.876-.886a1.065,1.065,0,0,0-.756-1.814h-.006a1.056,1.056,0,0,0-.751.315l-1.6,1.618-.553-.553a1.066,1.066,0,1,0-1.507,1.507l1.309,1.31A1.07,1.07,0,0,0,21.619,16.775Zm17.174-4.52a.116.116,0,0,1,.081-.034.118.118,0,0,1,.084.034l.89.89a.474.474,0,0,0,.335.139h0a.473.473,0,0,0,.335-.141l1.937-1.957a.112.112,0,0,1,.081-.034.105.105,0,0,1,.081.034.114.114,0,0,1,0,.164q-.44.443-.876.887c-.486.49-.985,1-1.479,1.492a.116.116,0,0,1-.165,0l-1.309-1.31a.114.114,0,0,1-.034-.082A.116.116,0,0,1,38.793,12.255Zm-.673.836,1.312,1.31a1.064,1.064,0,0,0,1.5,0c.5-.5,1-1.005,1.485-1.5q.435-.443.874-.885a1.065,1.065,0,0,0-.756-1.814h0a1.052,1.052,0,0,0-.751.315l-1.6,1.618-.555-.553a1.066,1.066,0,0,0-1.507,1.507Zm5.766,7.737a11.834,11.834,0,0,0-1.047-4.455,4.458,4.458,0,0,1-6.048-6.049,11.866,11.866,0,0,0-4.455-1.046v11.55h11.55ZM40.708,8.948a3.51,3.51,0,1,0,3.508,3.51,3.514,3.514,0,0,0-3.508-3.51Zm4.457,3.51a4.457,4.457,0,0,0-7.821-2.926A12.832,12.832,0,0,0,31.863,8.32a.474.474,0,0,0-.475.475V21.3a.474.474,0,0,0,.475.474H44.37a.474.474,0,0,0,.475-.474,12.855,12.855,0,0,0-1.211-5.483A4.451,4.451,0,0,0,45.165,12.458ZM40.7,31.554l-7.692-7.692h10.88A11.946,11.946,0,0,1,40.7,31.554Zm3.67-8.641H31.863a.474.474,0,0,0-.335.81l8.842,8.844a.48.48,0,0,0,.338.139.474.474,0,0,0,.335-.139,12.9,12.9,0,0,0,3.8-9.179A.474.474,0,0,0,44.37,22.913ZM29.778,36.462A12.046,12.046,0,0,1,18.038,21.775l11.494,3.08,8.412,8.412a11.947,11.947,0,0,1-8.167,3.2ZM22.141,11.011a3.51,3.51,0,1,0,3.511,3.51,3.514,3.514,0,0,0-3.511-3.51ZM29.3,12.405a12.008,12.008,0,0,0-3.006.5,4.455,4.455,0,0,1-6.771,5.22,11.913,11.913,0,0,0-1.242,2.73L29.3,23.811Zm.949,11.827V11.922a.474.474,0,0,0-.475-.475,12.958,12.958,0,0,0-3.924.606,4.457,4.457,0,1,0-7.042,5.428A12.982,12.982,0,0,0,38.958,33.609a.477.477,0,0,0,0-.671Z" transform="translate(0)" fill-rule="evenodd"/>
  </g>
</svg>
