<svg xmlns="http://www.w3.org/2000/svg" width="85" height="78.114" viewBox="0 0 85 78.114">
  <g id="Grupo_1101501" data-name="Grupo 1101501" transform="translate(-180 -3844.229)">
    <path id="_12068" data-name="12068" d="M75.42,71.961c-8.7-1.2-17.9-.908-25.818,2.9-10.984,5.276-18.2,17.237-18.474,29.419S37.2,128.429,47,135.665s22.733,9.8,34.723,7.628c12.09-2.191,23.437-9.294,29.744-19.839,4.044-6.762,5.934-15.111,3.7-22.667a30.966,30.966,0,0,0-7.349-12.079A54.3,54.3,0,0,0,75.42,71.961Z" transform="translate(148.881 3778.302)" fill="#26aab7"/>
    <g id="map" transform="translate(185.784 3844.229)">
      <path id="Trazado_874017" data-name="Trazado 874017" d="M131.76,230.949l17.819,8V207.057l-15.349-8Z" transform="translate(-112.863 -174.418)" fill="#44c868"/>
      <path id="Trazado_874018" data-name="Trazado 874018" d="M133.082,302.387l16.5,25.074-17.819-8Z" transform="translate(-112.863 -262.929)" fill="#7ee5f2"/>
      <path id="Trazado_874019" data-name="Trazado 874019" d="M25.334,230.949l-17.819,8,5.769-31.811,14.52-8.083Z" transform="translate(-6.437 -174.418)" fill="#4ce166"/>
      <path id="Trazado_874020" data-name="Trazado 874020" d="M10.515,310.92l16.142-8.533L25.334,319.46l-17.819,8Z" transform="translate(-6.437 -262.929)" fill="#a8eefc"/>
      <path id="Trazado_874021" data-name="Trazado 874021" d="M365.5,230.949l17.819,8-5.769-31.811-14.521-8.083Z" transform="translate(-310.961 -174.418)" fill="#44c868"/>
      <path id="Trazado_874022" data-name="Trazado 874022" d="M368.127,249.459l17.782,20.655L381.916,248.1l-2.2-1.225Z" transform="translate(-315.33 -215.377)" fill="#7ee5f2"/>
      <path id="Trazado_874023" data-name="Trazado 874023" d="M273.824,230.949l-17.819,8V207.057l15.349-8Z" transform="translate(-219.288 -174.418)" fill="#4ce166"/>
      <path id="Trazado_874024" data-name="Trazado 874024" d="M28.432,274.7l16.142-8.533.47-6.065L29.6,268.239Z" transform="translate(-24.354 -226.709)" fill="#ffdb56"/>
      <g id="Grupo_1099607" data-name="Grupo 1099607" transform="translate(20.22 27.625)">
        <path id="Trazado_874025" data-name="Trazado 874025" d="M157.481,262.4,141.45,260.1l-.47,6.065,16.5,25.074v-9.117l-9.844-15.514,9.848,1.179Z" transform="translate(-140.98 -254.334)" fill="#ffbb24"/>
        <path id="Trazado_874026" data-name="Trazado 874026" d="M365.685,226.34l11.588-2.586-6.954-3.871-5.043,1.179Z" transform="translate(-333.107 -219.883)" fill="#ffbb24"/>
      </g>
      <path id="Trazado_874027" data-name="Trazado 874027" d="M272.7,240.945l-.625-8.074h0L271.7,228.1l-15.667,6.883v5.392l10.234-4.454Z" transform="translate(-219.314 -199.301)" fill="#ffdb56"/>
      <path id="Trazado_874028" data-name="Trazado 874028" d="M368.713,272.469l18.972,22.888-1.776-9.795-17.782-20.655Z" transform="translate(-315.33 -230.825)" fill="#ffbb24"/>
      <path id="Trazado_874029" data-name="Trazado 874029" d="M172.878,34.787a14,14,0,0,0-14,14c0,11.774,14,22.607,14,22.607s14-10.833,14-22.607A14,14,0,0,0,172.878,34.787Zm0,19.583a5.584,5.584,0,1,1,5.584-5.584A5.584,5.584,0,0,1,172.878,54.37Z" transform="translate(-136.092 -33.709)" fill="#ff4a4a"/>
      <path id="Trazado_874030" data-name="Trazado 874030" d="M244.9,34.787a14.121,14.121,0,0,0-1.94.135,14,14,0,0,1,12.059,13.865c0,9.019-8.215,17.487-12.059,20.955,1.174,1.059,1.94,1.652,1.94,1.652s14-10.833,14-22.607A14,14,0,0,0,244.9,34.787Z" transform="translate(-208.114 -33.709)" fill="#e7343f"/>
      <path id="Trazado_874031" data-name="Trazado 874031" d="M256.005,413.642l6.141,6.36-6.141,2.757Z" transform="translate(-219.288 -358.228)" fill="#ffdb56"/>
      <path id="Trazado_874032" data-name="Trazado 874032" d="M73.206,92.464l.016-.02a1.076,1.076,0,0,0,.086-.137c.007-.013.012-.028.019-.041a1.1,1.1,0,0,0,.045-.107c.006-.018.012-.037.017-.056s.018-.068.024-.1.007-.04.01-.06a1.093,1.093,0,0,0,.008-.111c0-.018,0-.035,0-.053a1.067,1.067,0,0,0-.016-.166l-4.3-23.722a1.078,1.078,0,1,0-2.121.385L68.812,78.3,54.788,62.014l9.432-2.105,1.4.777.606,3.344a1.078,1.078,0,1,0,2.121-.385l-.7-3.846a1.077,1.077,0,0,0-.536-.749h0L52.589,50.967h0a1.069,1.069,0,0,0-.127-.06l-.041-.014c-.03-.011-.061-.021-.091-.029l-.053-.01c-.028-.005-.056-.011-.083-.014l-.057,0c-.027,0-.054,0-.081,0l-.058,0c-.027,0-.053,0-.08.008l-.058.01-.078.018-.058.017c-.025.008-.05.018-.074.028l-.057.025-.025.011L49.1,52.237a20.959,20.959,0,0,0,2.757-9.888,15.077,15.077,0,1,0-30.153,0,21.024,21.024,0,0,0,2.81,9.988l-2.653-1.383-.025-.011-.055-.024c-.025-.01-.05-.02-.075-.029l-.057-.017-.078-.018-.058-.01c-.026,0-.053-.006-.079-.008l-.059,0c-.026,0-.053,0-.079,0l-.059,0c-.027,0-.053.008-.08.014s-.038.006-.056.011-.058.017-.087.027l-.045.015a1.085,1.085,0,0,0-.127.06h0L6.323,59.051a1.077,1.077,0,0,0-.536.749h0L1.7,82.351h0a1.078,1.078,0,1,0,2.121.384L5.045,75.97,18.994,68.6,17.872,83.081,2.5,89.982,3.045,87a1.078,1.078,0,1,0-2.121-.385l-.906,5a1.078,1.078,0,0,0,1.5,1.175l17.378-7.8,17.371,7.8h0l.006,0,.03.012.048.019.047.016.031.009.041.01.068.013.032.006.022,0a1.06,1.06,0,0,0,.109.007h.021a1.077,1.077,0,0,0,.13-.009h.016l.025-.005a1.027,1.027,0,0,0,.1-.022l.028-.006h0l.009,0a1.076,1.076,0,0,0,.124-.046l17.378-7.8h0l17.378,7.8c.017.007.034.013.051.02l.051.02c.023.007.046.013.069.019l.042.011c.028.006.056.01.084.014l.03,0a1.064,1.064,0,0,0,.115.006h0a1.091,1.091,0,0,0,.157-.013l.036-.006a1.053,1.053,0,0,0,.153-.039l.009,0a1,1,0,0,0,.1-.04l.027-.016c.027-.014.053-.029.079-.045s.052-.032.077-.05l.026-.017c.019-.015.035-.032.053-.048s.029-.025.043-.038A1.046,1.046,0,0,0,73.206,92.464Zm-30.1-4.711-5.312-5.5V69.059l9-3.918,5.548,4.332L53.4,83.13Zm-5.312,2.385V85.354l3.222,3.337ZM33.567,63.6c.9.832,1.624,1.45,2.072,1.819v1.72L27,66.1a1.078,1.078,0,0,0-1.038,1.648L35.639,83V88.2L21.323,66.445,21.5,64.18l.177-2.285Zm8.141-1.651,9.724-4.272.688,8.888-4.5-3.515a1.078,1.078,0,0,0-1.093-.139l-8.726,3.8V65.525A50.658,50.658,0,0,0,41.708,61.945Zm12.431,2.764-.012-.16L69.571,82.49l.99,5.46L54.431,68.491ZM53.3,53.828l1.176.654-1.1.258ZM29,68.512l6.639.795v9.669Zm-7.948,1.442L33.783,89.3,20.031,83.13ZM54.72,72.217l13.846,16.7-13-5.839Zm6.668-13.885-7.612,1.7-.241-3.117,3.737-.874,4.117,2.292ZM51.117,53.619l.138,1.777-6.074,2.669q.9-1.121,1.687-2.231ZM36.786,29.428A12.936,12.936,0,0,1,49.707,42.349c0,9.669-10.2,18.918-12.921,21.213-2.722-2.3-12.921-11.545-12.921-21.213A12.936,12.936,0,0,1,36.786,29.428ZM28.96,58.759c.69.825,1.379,1.591,2.041,2.292l-9.159-1.311.474-6.122,4.468,2.329Q27.776,57.344,28.96,58.759Zm-8.822-4.932-.31,4-.168,2.163L6.7,66.817l1.112-6.13ZM5.534,73.273,6.2,69.606l.017-.095,13.248-6.982-.273,3.525Z" transform="translate(0 -27.272)"/>
      <path id="Trazado_874033" data-name="Trazado 874033" d="M223.365,92.611A6.669,6.669,0,0,0,216.7,85.95a1.078,1.078,0,0,0,0,2.156,4.506,4.506,0,1,1-3.214,1.348,1.078,1.078,0,1,0-1.538-1.511,6.661,6.661,0,1,0,11.413,4.668Z" transform="translate(-179.917 -77.534)"/>
    </g>
  </g>
</svg>
