<svg xmlns="http://www.w3.org/2000/svg" width="81.735" height="85.472" viewBox="0 0 81.735 85.472">
  <g id="Grupo_1101503" data-name="Grupo 1101503" transform="translate(-422.765 -4171.353)">
    <path id="_12068" data-name="12068" d="M72.033,71.913c-8.038-1.11-16.53-.839-23.844,2.675C38.045,79.46,31.382,90.507,31.127,101.757s5.606,22.305,14.66,28.988,21,9.051,32.068,7.045c11.165-2.023,21.645-8.583,27.469-18.322,3.735-6.245,5.48-13.956,3.417-20.934a28.6,28.6,0,0,0-6.787-11.156A50.145,50.145,0,0,0,72.033,71.913Z" transform="translate(394.88 4118.343)" fill="#26aab7"/>
    <g id="manufacturing" transform="translate(420.765 4169.353)">
      <g id="Flat" transform="translate(3.204 3.204)">
        <path id="Trazado_874034" data-name="Trazado 874034" d="M65.6,63.447H10.224a7.224,7.224,0,0,1,0-14.447H65.6a7.224,7.224,0,0,1,0,14.447Z" transform="translate(-3 6.38)" fill="#ffd947"/>
        <path id="Trazado_874036" data-name="Trazado 874036" d="M32,21v6.02" transform="translate(2.914 0.671)" fill="none" stroke="#b3b3b3" stroke-linejoin="round" stroke-width="2"/>
        <path id="Trazado_874037" data-name="Trazado 874037" d="M14.224,35.039l2.408-4.816L11.816,23,7,30.224l2.408,4.816" transform="translate(-2.184 1.078)" fill="none" stroke="#b3b3b3" stroke-linecap="round" stroke-linejoin="round" stroke-width="2"/>
        <path id="Trazado_874038" data-name="Trazado 874038" d="M35.224,38.039l2.408-4.816L32.816,26,28,33.224l2.408,4.816" transform="translate(2.098 1.69)" fill="none" stroke="#b3b3b3" stroke-linecap="round" stroke-linejoin="round" stroke-width="2"/>
        <path id="Trazado_874039" data-name="Trazado 874039" d="M56.224,35.039l2.408-4.816L53.816,23,49,30.224l2.408,4.816" transform="translate(6.38 1.078)" fill="none" stroke="#b3b3b3" stroke-linecap="round" stroke-linejoin="round" stroke-width="2"/>
        <path id="Trazado_874040" data-name="Trazado 874040" d="M28,41h9.631v9.631H28Z" transform="translate(2.098 4.749)" fill="#a67c52"/>
        <path id="Trazado_874041" data-name="Trazado 874041" d="M11,14V24.835" transform="translate(-1.369 -0.757)" fill="none" stroke="#b3b3b3" stroke-linejoin="round" stroke-width="2"/>
        <path id="Trazado_874042" data-name="Trazado 874042" d="M11,14v2.408" transform="translate(-1.369 -0.757)" fill="none" stroke="#999" stroke-linejoin="round" stroke-width="2"/>
        <path id="Trazado_874043" data-name="Trazado 874043" d="M53,14V24.835" transform="translate(7.196 -0.757)" fill="none" stroke="#b3b3b3" stroke-linejoin="round" stroke-width="2"/>
        <path id="Trazado_874044" data-name="Trazado 874044" d="M52.361,14.816H70.42a2.408,2.408,0,0,0,0-4.816H5.408a2.408,2.408,0,0,0,0,4.816Z" transform="translate(-3 -1.573)" fill="#ffd947"/>
        <path id="Trazado_874045" data-name="Trazado 874045" d="M44.671,11.427l-3.131-.783L43.2,7.876l-3.4-3.4-2.769,1.66L36.243,3H31.427l-.783,3.131-2.769-1.66-3.4,3.4,1.66,2.769L23,11.427v4.816l3.131.783-1.66,2.769,3.4,3.4,2.769-1.66.783,3.131h4.816l.783-3.131,2.769,1.66,3.4-3.4-1.66-2.769,3.131-.783Z" transform="translate(1.078 -3)" fill="#f7931e"/>
        <g id="Grupo_1099608" data-name="Grupo 1099608" transform="translate(8.285 60.319)">
          <ellipse id="Elipse_11582" data-name="Elipse 11582" cx="2.449" cy="2.296" rx="2.449" ry="2.296" transform="translate(0 0)" fill="#b3b3b3"/>
          <ellipse id="Elipse_11583" data-name="Elipse 11583" cx="2.449" cy="2.296" rx="2.449" ry="2.296" transform="translate(12.243 0)" fill="#b3b3b3"/>
          <ellipse id="Elipse_11584" data-name="Elipse 11584" cx="2.449" cy="2.296" rx="2.449" ry="2.296" transform="translate(24.18 0)" fill="#b3b3b3"/>
          <ellipse id="Elipse_11585" data-name="Elipse 11585" cx="2.449" cy="2.296" rx="2.449" ry="2.296" transform="translate(36.118 0)" fill="#b3b3b3"/>
          <ellipse id="Elipse_11586" data-name="Elipse 11586" cx="2.449" cy="2.296" rx="2.449" ry="2.296" transform="translate(48.361 0)" fill="#b3b3b3"/>
        </g>
        <ellipse id="Elipse_11587" data-name="Elipse 11587" cx="3.673" cy="3.52" rx="3.673" ry="3.52" transform="translate(31.241 7.366)" fill="#e6e6e6"/>
        <path id="Trazado_874046" data-name="Trazado 874046" d="M13.816,26.816H9V24.408a2.408,2.408,0,0,1,4.816,0Z" transform="translate(-1.776 0.875)" fill="#f7931e"/>
        <path id="Trazado_874047" data-name="Trazado 874047" d="M34.816,29.816H30V27.408a2.408,2.408,0,1,1,4.816,0Z" transform="translate(2.506 1.486)" fill="#f7931e"/>
        <path id="Trazado_874048" data-name="Trazado 874048" d="M55.816,26.816H51V24.408a2.408,2.408,0,0,1,4.816,0Z" transform="translate(6.788 0.875)" fill="#f7931e"/>
        <path id="Trazado_874049" data-name="Trazado 874049" d="M13,41h9.631v9.631H13Z" transform="translate(-0.961 4.749)" fill="#a67c52"/>
        <path id="Trazado_874050" data-name="Trazado 874050" d="M17,41v3.612" transform="translate(-0.145 4.749)" fill="none" stroke="#c69c6d" stroke-linejoin="round" stroke-width="2"/>
        <path id="Trazado_874051" data-name="Trazado 874051" d="M32,41v3.612" transform="translate(2.914 4.749)" fill="none" stroke="#c69c6d" stroke-linejoin="round" stroke-width="2"/>
        <path id="Trazado_874052" data-name="Trazado 874052" d="M42,41h9.631v9.631H42Z" transform="translate(4.953 4.749)" fill="#a67c52"/>
        <path id="Trazado_874053" data-name="Trazado 874053" d="M46,41v3.612" transform="translate(5.769 4.749)" fill="none" stroke="#c69c6d" stroke-linejoin="round" stroke-width="2"/>
        <path id="Trazado_874054" data-name="Trazado 874054" d="M22,10h1.2v4.816H22Z" transform="translate(0.875 -1.573)" fill="#137ea3"/>
        <path id="Trazado_874055" data-name="Trazado 874055" d="M41,10h1.2v4.816H41Z" transform="translate(4.749 -1.573)" fill="#137ea3"/>
        <path id="Trazado_874056" data-name="Trazado 874056" d="M32,21v2.408" transform="translate(2.914 0.671)" fill="none" stroke="#999" stroke-linejoin="round" stroke-width="2"/>
        <path id="Trazado_874057" data-name="Trazado 874057" d="M53,14v2.408" transform="translate(7.196 -0.757)" fill="none" stroke="#999" stroke-linejoin="round" stroke-width="2"/>
      </g>
      <g id="Outline" transform="translate(2 2)">
        <path id="Trazado_874058" data-name="Trazado 874058" d="M65.808,49.631H60.992V41.2a1.2,1.2,0,0,0-1.2-1.2H50.157a1.2,1.2,0,0,0-1.2,1.2v8.427H44.137V41.2a1.2,1.2,0,0,0-1.2-1.2H33.3a1.2,1.2,0,0,0-1.2,1.2v8.427h-6.02V41.2a1.2,1.2,0,0,0-1.2-1.2H15.243a1.2,1.2,0,0,0-1.2,1.2v8.427H10.427a8.427,8.427,0,0,0,0,16.855h55.38a8.427,8.427,0,1,0,0-16.855ZM51.361,42.408h2.408v2.408h2.408V42.408h2.408v7.224H51.361Zm-16.855,0h2.408v2.408h2.408V42.408h2.408v7.224H34.506Zm-18.059,0h2.408v2.408h2.408V42.408h2.408v7.224H16.447ZM65.808,64.078H10.427a6.02,6.02,0,0,1,0-12.039h55.38a6.02,6.02,0,0,1,0,12.039Z" transform="translate(-2 5.749)"/>
        <path id="Trazado_874059" data-name="Trazado 874059" d="M12.612,52a3.612,3.612,0,1,0,3.612,3.612A3.612,3.612,0,0,0,12.612,52Zm0,4.816a1.2,1.2,0,1,1,1.2-1.2A1.2,1.2,0,0,1,12.612,56.816Z" transform="translate(-0.573 8.196)"/>
        <path id="Trazado_874060" data-name="Trazado 874060" d="M22.612,52a3.612,3.612,0,1,0,3.612,3.612A3.612,3.612,0,0,0,22.612,52Zm0,4.816a1.2,1.2,0,1,1,1.2-1.2A1.2,1.2,0,0,1,22.612,56.816Z" transform="translate(1.467 8.196)"/>
        <path id="Trazado_874061" data-name="Trazado 874061" d="M32.612,52a3.612,3.612,0,1,0,3.612,3.612A3.612,3.612,0,0,0,32.612,52Zm0,4.816a1.2,1.2,0,1,1,1.2-1.2A1.2,1.2,0,0,1,32.612,56.816Z" transform="translate(3.506 8.196)"/>
        <path id="Trazado_874062" data-name="Trazado 874062" d="M42.612,52a3.612,3.612,0,1,0,3.612,3.612A3.612,3.612,0,0,0,42.612,52Zm0,4.816a1.2,1.2,0,1,1,1.2-1.2A1.2,1.2,0,0,1,42.612,56.816Z" transform="translate(5.545 8.196)"/>
        <path id="Trazado_874063" data-name="Trazado 874063" d="M52.612,52a3.612,3.612,0,1,0,3.612,3.612A3.612,3.612,0,0,0,52.612,52Zm0,4.816a1.2,1.2,0,1,1,1.2-1.2A1.2,1.2,0,0,1,52.612,56.816Z" transform="translate(7.584 8.196)"/>
        <path id="Trazado_874064" data-name="Trazado 874064" d="M46.078,16.447V11.631a1.2,1.2,0,0,0-.911-1.168l-1.557-.389L44.436,8.7a1.2,1.2,0,0,0-.182-1.471l-3.4-3.4a1.2,1.2,0,0,0-1.471-.182L38,4.468l-.389-1.555A1.2,1.2,0,0,0,36.447,2H31.631a1.2,1.2,0,0,0-1.168.913l-.389,1.555L28.7,3.642a1.2,1.2,0,0,0-1.471.182l-3.4,3.4A1.2,1.2,0,0,0,23.642,8.7l.826,1.375-1.557.389A1.2,1.2,0,0,0,22,11.631v4.816a1.2,1.2,0,0,0,.911,1.168L24.467,18l-.825,1.375a1.2,1.2,0,0,0,.182,1.47l3.4,3.406a1.2,1.2,0,0,0,1.471.182l1.375-.826.389,1.555a1.2,1.2,0,0,0,1.168.913h1.2v2.629a3.612,3.612,0,0,0-2.408,3.39v2.047l-2.206,3.308a1.2,1.2,0,0,0-.076,1.2l2.408,4.816A1.2,1.2,0,1,0,32.708,42.4l-2.095-4.191,1.663-2.5H35.8L37.466,38.2l-2.1,4.191a1.2,1.2,0,1,0,2.154,1.076l2.408-4.816a1.2,1.2,0,0,0-.075-1.2l-2.2-3.307V32.1a3.612,3.612,0,0,0-2.408-3.39V26.078h1.2a1.2,1.2,0,0,0,1.168-.913L38,23.61l1.375.826a1.2,1.2,0,0,0,1.471-.182l3.4-3.406a1.2,1.2,0,0,0,.182-1.47L43.612,18l1.555-.389a1.2,1.2,0,0,0,.911-1.168ZM35.243,33.3H32.835V32.1a1.2,1.2,0,1,1,2.408,0Zm8.427-17.8-2.22.556a1.2,1.2,0,0,0-.74,1.787l1.177,1.961-2.07,2.077L37.856,20.71a1.2,1.2,0,0,0-1.788.74l-.561,2.22H32.572l-.555-2.22a1.2,1.2,0,0,0-1.788-.74l-1.962,1.177-2.076-2.077,1.177-1.961a1.2,1.2,0,0,0-.74-1.787l-2.22-.556V12.572l2.22-.556a1.2,1.2,0,0,0,.74-1.787L26.191,8.266,28.266,6.19l1.962,1.179a1.2,1.2,0,0,0,1.788-.74l.555-2.22h2.935l.555,2.22a1.2,1.2,0,0,0,1.788.74L39.818,6.19l2.076,2.077-1.177,1.962a1.2,1.2,0,0,0,.74,1.787l2.214.556Z" transform="translate(2.078 -2)"/>
        <path id="Trazado_874065" data-name="Trazado 874065" d="M32.816,8a4.816,4.816,0,1,0,4.816,4.816A4.816,4.816,0,0,0,32.816,8Zm0,7.224a2.408,2.408,0,1,1,2.408-2.408A2.408,2.408,0,0,1,32.816,15.224Z" transform="translate(3.302 -0.776)"/>
        <path id="Trazado_874066" data-name="Trazado 874066" d="M5.612,16.224h6.02v7.445a3.612,3.612,0,0,0-2.408,3.39v2.047l-2.206,3.3a1.2,1.2,0,0,0-.076,1.2L9.35,38.43A1.2,1.2,0,1,0,11.5,37.354L9.409,33.163l1.663-2.492H14.6l1.663,2.495-2.1,4.191a1.2,1.2,0,1,0,2.154,1.076l2.408-4.816a1.2,1.2,0,0,0-.075-1.2l-2.206-3.307V27.059a3.612,3.612,0,0,0-2.408-3.39V16.224h9.476V13.816H5.612a1.2,1.2,0,0,1,0-2.408h18.02V9H5.612a3.612,3.612,0,0,0,0,7.224Zm8.427,12.039H11.631v-1.2a1.2,1.2,0,1,1,2.408,0Z" transform="translate(-2 -0.573)"/>
        <path id="Trazado_874067" data-name="Trazado 874067" d="M62.065,9h-18.1v2.408h18.1a1.2,1.2,0,1,1,0,2.408H44.007v2.408h9.631v7.445a3.612,3.612,0,0,0-2.408,3.39v2.047l-2.206,3.308a1.2,1.2,0,0,0-.076,1.2l2.408,4.816a1.2,1.2,0,1,0,2.154-1.076l-2.095-4.191,1.663-2.5h3.527l1.663,2.495-2.1,4.191a1.2,1.2,0,1,0,2.154,1.076l2.408-4.816a1.2,1.2,0,0,0-.075-1.2l-2.206-3.307V27.059a3.612,3.612,0,0,0-2.408-3.39V16.224h6.02a3.612,3.612,0,1,0,0-7.224Zm-6.02,19.263H53.638v-1.2a1.2,1.2,0,0,1,2.408,0Z" transform="translate(6.558 -0.573)"/>
      </g>
    </g>
  </g>
</svg>
