<svg xmlns="http://www.w3.org/2000/svg" width="79.036" height="88.495" viewBox="0 0 79.036 88.495">
  <g id="Grupo_1101504" data-name="Grupo 1101504" transform="translate(-740.214 -4168.329)">
    <path id="_12068" data-name="12068" d="M72.033,71.913c-8.038-1.11-16.53-.839-23.844,2.675C38.045,79.46,31.382,90.507,31.127,101.757s5.606,22.305,14.66,28.988,21,9.051,32.068,7.045c11.165-2.023,21.645-8.583,27.469-18.322,3.735-6.245,5.48-13.956,3.417-20.934a28.6,28.6,0,0,0-6.787-11.156A50.145,50.145,0,0,0,72.033,71.913Z" transform="translate(709.631 4118.343)" fill="#26aab7"/>
    <g id="setting-management-setting-gear-hand" transform="translate(738.214 4165.754)">
      <path id="Trazado_874519" data-name="Trazado 874519" d="M23,23H45.395V58.568H23Z" transform="translate(6.664 6.482)" fill="#a97c50"/>
      <path id="Trazado_874520" data-name="Trazado 874520" d="M40,23H62.395V58.568H40Z" transform="translate(12.059 6.482)" fill="#8b5e3c"/>
      <path id="Trazado_874521" data-name="Trazado 874521" d="M40,52.395v3.952H62.395V30A22.4,22.4,0,0,1,40,52.395Z" transform="translate(12.059 8.703)" fill="#754c29"/>
      <path id="Trazado_874522" data-name="Trazado 874522" d="M73.38,45.876a3.944,3.944,0,0,0-5.388-1.449L53.936,52.542h-.007a3.938,3.938,0,0,0-2.759-2.714L31.516,44.559a7.9,7.9,0,0,0-3.963-.033L19,46.667V62.475l3.6,1.8a7.913,7.913,0,0,0,3.534.834h19.73a7.9,7.9,0,0,0,3.952-1.054L71.948,51.277A3.952,3.952,0,0,0,73.38,45.876Z" transform="translate(5.395 13.114)" fill="#ffbcab"/>
      <path id="Trazado_874523" data-name="Trazado 874523" d="M50.383,50.811c-.024-.078-.041-.158-.069-.234-.028.082-.058.162-.091.24A3.939,3.939,0,0,1,45.579,53.1l-7-1.876-6.8-1.828a1.272,1.272,0,0,0-.659,2.458l14.246,3.82a4.123,4.123,0,0,0,4.781-2.01,3.883,3.883,0,0,0,.24-2.856Z" transform="translate(8.941 14.845)" fill="#ff9478"/>
      <path id="Trazado_874524" data-name="Trazado 874524" d="M58.3,23.491a4.253,4.253,0,0,1-.316.764L61.1,27.377l-.066.066H40.673l-.066-.066,3.122-3.122a4.252,4.252,0,0,1-.316-.764H39V18.221h4.413a4.252,4.252,0,0,1,.316-.764l-3.122-3.122,3.728-3.728,3.122,3.122a4.252,4.252,0,0,1,.764-.316V9h5.269v4.413a4.253,4.253,0,0,1,.764.316l3.122-3.122L61.1,14.335l-3.122,3.122a4.252,4.252,0,0,1,.316.764h4.413v5.269Z" transform="translate(11.741 2.039)" fill="#62529b"/>
      <path id="Trazado_874525" data-name="Trazado 874525" d="M35.491,3.58v9.775l-3.952,2.635-3.952-2.635V3.58A10.539,10.539,0,0,0,24.53,21.219a5.184,5.184,0,0,1,1.739,3.9v4.044H36.808V25.118a5.184,5.184,0,0,1,1.739-3.9A10.539,10.539,0,0,0,35.491,3.58Z" transform="translate(6.03 0.319)" fill="#ffd947"/>
      <path id="Trazado_874526" data-name="Trazado 874526" d="M11,43V66.712H21.539V43Z" transform="translate(2.856 12.828)" fill="#006df0"/>
      <path id="Trazado_874527" data-name="Trazado 874527" d="M3,45H13.539V63.443H3Z" transform="translate(0.317 13.463)" fill="#005ece"/>
      <path id="Trazado_874528" data-name="Trazado 874528" d="M32.173,23h-7.9L19,33.539H41.395L46.664,23H32.173Z" transform="translate(5.395 6.482)" fill="#8b5e3c"/>
      <path id="Trazado_874529" data-name="Trazado 874529" d="M60.722,23H40l5.269,10.539H67.664L62.395,23Z" transform="translate(12.059 6.482)" fill="#754c29"/>
      <circle id="Elipse_11611" data-name="Elipse 11611" cx="3.952" cy="3.952" r="3.952" transform="translate(58.645 18.943)" fill="#e6e7e8"/>
      <path id="Trazado_874530" data-name="Trazado 874530" d="M9,45h2.635V63.443H9Z" transform="translate(2.221 13.463)" fill="#004fac"/>
      <g id="Grupo_1099740" data-name="Grupo 1099740" transform="translate(2 2.575)">
        <path id="Trazado_874531" data-name="Trazado 874531" d="M80.9,39.427,75.626,28.889a1.287,1.287,0,0,0-1.172-.725h-1l-1.317-1.317h2.319a1.317,1.317,0,0,0,1.317-1.317V20.26a1.317,1.317,0,0,0-1.317-1.317H72.135l1.647-1.633a1.328,1.328,0,0,0,0-1.871l-3.728-3.728a1.328,1.328,0,0,0-1.871,0l-1.633,1.647V11.039a1.317,1.317,0,0,0-1.317-1.317H59.963a1.317,1.317,0,0,0-1.317,1.317v2.319l-1.633-1.647a1.328,1.328,0,0,0-1.871,0l-3.728,3.728a1.328,1.328,0,0,0,0,1.871l1.647,1.633H50.741a1.317,1.317,0,0,0-1.317,1.317V25.53a1.317,1.317,0,0,0,1.317,1.317H53.06l-1.317,1.317H44.155V25.437a3.9,3.9,0,0,1,1.291-2.911A11.856,11.856,0,0,0,42.021,2.674,1.317,1.317,0,0,0,40.2,3.9v9.063l-2.635,1.765-2.635-1.765V3.9a1.317,1.317,0,0,0-1.818-1.225A11.856,11.856,0,0,0,29.69,22.526a3.9,3.9,0,0,1,1.291,2.911v2.727H29.664a1.287,1.287,0,0,0-1.172.725L23.222,39.427a1.317,1.317,0,0,0,1.172,1.91h3.952v16.1l-2.635.659V55.828a1.317,1.317,0,0,0-1.317-1.317H13.856a1.317,1.317,0,0,0-1.317,1.317v1.317H3.317A1.317,1.317,0,0,0,2,58.463V76.906a1.317,1.317,0,0,0,1.317,1.317h9.221V79.54a1.317,1.317,0,0,0,1.317,1.317H24.395a1.317,1.317,0,0,0,1.317-1.317V77.722l1.7.843a9.3,9.3,0,0,0,4.123.975H51.255A9.129,9.129,0,0,0,55.866,78.3L78,65.524a5.26,5.26,0,0,0-2.226-9.8V41.338h3.952a1.317,1.317,0,0,0,1.172-1.91ZM12.539,75.588h-7.9V59.78h7.9Zm10.539,2.635h-7.9V57.146h7.9ZM52.059,24.212V21.578h3.1a1.328,1.328,0,0,0,1.265-.935,3.128,3.128,0,0,1,.224-.54,1.317,1.317,0,0,0-.237-1.541l-2.2-2.187L56.077,14.5l2.187,2.2a1.317,1.317,0,0,0,1.541.237,3.127,3.127,0,0,1,.54-.224,1.328,1.328,0,0,0,.935-1.265v-3.1h2.635v3.1a1.328,1.328,0,0,0,.935,1.265,3.127,3.127,0,0,1,.54.224,1.317,1.317,0,0,0,1.541-.237l2.187-2.2,1.871,1.871-2.2,2.187a1.317,1.317,0,0,0-.237,1.541,3.127,3.127,0,0,1,.224.54,1.328,1.328,0,0,0,1.265.935h3.1v2.635h-3.1a1.328,1.328,0,0,0-1.265.935,3.127,3.127,0,0,1-.224.54,1.317,1.317,0,0,0,.237,1.541l.948.935H55.457l.948-.935a1.317,1.317,0,0,0,.237-1.541,3.128,3.128,0,0,1-.224-.54,1.328,1.328,0,0,0-1.265-.935Zm1.317,10.855,2.78,5.546a1.287,1.287,0,0,0,1.172.725H73.136V56.2c-.132.066-.277.132-.408.2L59.884,63.811a5.246,5.246,0,0,0-2.977-2.147l-3.53-.935ZM28.347,13.674A9.2,9.2,0,0,1,32.3,6.1v7.575a1.317,1.317,0,0,0,.593,1.093L36.844,17.4a1.269,1.269,0,0,0,1.449,0l3.952-2.635a1.317,1.317,0,0,0,.593-1.093V6.1a9.221,9.221,0,0,1,.869,14.451,6.48,6.48,0,0,0-2.187,4.887v2.727H38.885V24.212a1.317,1.317,0,1,0-2.635,0v3.952H33.616V25.437a6.514,6.514,0,0,0-2.174-4.887,9.165,9.165,0,0,1-3.1-6.876ZM26.529,38.7l3.952-7.9H49.925l-3.952,7.9Zm24.213-3.636v24.95l-13.49-3.61a9.166,9.166,0,0,0-4.624-.04l-1.647.408V41.338H46.789a1.287,1.287,0,0,0,1.172-.725ZM77.628,59.649a2.635,2.635,0,0,1-.948,3.6L54.548,76.023a6.563,6.563,0,0,1-3.293.883H31.535a6.529,6.529,0,0,1-2.951-.7l-2.872-1.436V60.808l7.548-1.884a6.539,6.539,0,0,1,3.307.026L56.222,64.22a2.623,2.623,0,0,1,.632,4.821,2.569,2.569,0,0,1-1.989.263L39.149,65.089a1.323,1.323,0,1,0-.685,2.556l15.716,4.2a5.364,5.364,0,0,0,1.37.184,5.159,5.159,0,0,0,2.621-.711,5.236,5.236,0,0,0,2.463-3.2,5.425,5.425,0,0,0,.145-1.778l13.266-7.654a2.668,2.668,0,0,1,3.583.962ZM58.145,38.7l-3.952-7.9H73.637l3.952,7.9Z" transform="translate(-2 -2.575)" fill="#231f20"/>
        <path id="Trazado_874532" data-name="Trazado 874532" d="M54.539,19.269a5.269,5.269,0,1,0-5.269,5.269A5.269,5.269,0,0,0,54.539,19.269ZM49.269,21.9A2.635,2.635,0,1,1,51.9,19.269,2.635,2.635,0,0,1,49.269,21.9Z" transform="translate(11.328 1.051)" fill="#231f20"/>
      </g>
    </g>
  </g>
</svg>
