<svg xmlns="http://www.w3.org/2000/svg" width="78.501" height="80.345" viewBox="0 0 78.501 80.345">
  <g id="Grupo_1101505" data-name="Grupo 1101505" transform="translate(-1055.749 -4176.479)">
    <path id="_12068" data-name="12068" d="M72.033,71.913c-8.038-1.11-16.53-.839-23.844,2.675C38.045,79.46,31.382,90.507,31.127,101.757s5.606,22.305,14.66,28.988,21,9.051,32.068,7.045c11.165-2.023,21.645-8.583,27.469-18.322,3.735-6.245,5.48-13.956,3.417-20.934a28.6,28.6,0,0,0-6.787-11.156A50.145,50.145,0,0,0,72.033,71.913Z" transform="translate(1024.63 4118.343)" fill="#26aab7"/>
    <g id="supermaket" transform="translate(1053 4160.657)">
      <g id="Grupo_1099613" data-name="Grupo 1099613" transform="translate(9.032 16.854)">
        <g id="Grupo_1099610" data-name="Grupo 1099610" transform="translate(0 13.839)">
          <path id="Trazado_874076" data-name="Trazado 874076" d="M412.245,208.056l3.616.733v5.344l-3.616-.623Z" transform="translate(-361.117 -198.123)" fill="#8192a5" fill-rule="evenodd"/>
          <path id="Trazado_874077" data-name="Trazado 874077" d="M412.245,208.056l3.616.733v5.344l-1.135-.2v-5.149l-2.482-.5Z" transform="translate(-361.117 -198.123)" fill="#65788e" fill-rule="evenodd"/>
          <path id="Trazado_874078" data-name="Trazado 874078" d="M242.221,173.58l4.55.923v5.987l-4.55-.783Z" transform="translate(-213.031 -168.095)" fill="#8192a5" fill-rule="evenodd"/>
          <path id="Trazado_874079" data-name="Trazado 874079" d="M242.221,173.58l4.55.923v5.987l-1.135-.2V174.5l-3.415-.693Z" transform="translate(-213.031 -168.095)" fill="#65788e" fill-rule="evenodd"/>
          <path id="Trazado_874080" data-name="Trazado 874080" d="M217.658,131.093l29.728,6.76a.767.767,0,0,1,.6.755v3.71a.774.774,0,0,1-.924.76l-29.728-5.851a.768.768,0,0,1-.625-.759v-4.62a.774.774,0,0,1,.946-.755Z" transform="translate(-190.814 -131.072)" fill="#8ac9fe" fill-rule="evenodd"/>
          <path id="Trazado_874081" data-name="Trazado 874081" d="M246.7,171.418l.688.156a.767.767,0,0,1,.6.755v3.71a.774.774,0,0,1-.924.76l-29.728-5.851a.768.768,0,0,1-.625-.759v-.4l29.062,5.72a.774.774,0,0,0,.924-.76v-3.331Z" transform="translate(-190.814 -164.793)" fill="#60b7ff" fill-rule="evenodd"/>
          <path id="Trazado_874082" data-name="Trazado 874082" d="M119.981,194.409l41.532,7.491a1.281,1.281,0,0,1,1.061,1.27V231a1.293,1.293,0,0,1-1.29,1.29H119.662a1.231,1.231,0,0,1-.388-.06l-3.512-1.107-2.584-32.545,5.849-3.973a1.246,1.246,0,0,1,.954-.2Z" transform="translate(-100.639 -186.217)" fill="#eceff1" fill-rule="evenodd"/>
          <path id="Trazado_874083" data-name="Trazado 874083" d="M179.193,461.445V463.6a1.293,1.293,0,0,1-1.29,1.29H136.281a1.231,1.231,0,0,1-.388-.06l-3.512-1.107-.122-1.532.781-.419,2.853.9a1.231,1.231,0,0,0,.388.06H177.9A1.292,1.292,0,0,0,179.193,461.445Z" transform="translate(-117.258 -418.816)" fill="#d1d1d6" fill-rule="evenodd"/>
          <path id="Trazado_874084" data-name="Trazado 874084" d="M262.848,328.235l20.816,2.039v18.6H262.848Z" transform="translate(-230.997 -302.795)" fill="#c4e2ff" fill-rule="evenodd"/>
          <path id="Trazado_874085" data-name="Trazado 874085" d="M412.013,328.235l1.569,1.076v19.562h-1.569Z" transform="translate(-360.914 -302.795)" fill="#add5fa" fill-rule="evenodd"/>
          <path id="Trazado_874086" data-name="Trazado 874086" d="M262.848,471.444h20.816V473.6H262.848Z" transform="translate(-230.997 -427.525)" fill="#add5fa" fill-rule="evenodd"/>
          <path id="Trazado_874087" data-name="Trazado 874087" d="M262.848,328.235l10.987,1.076v19.562H262.848Z" transform="translate(-230.997 -302.795)" fill="#d8ecfe" fill-rule="evenodd"/>
          <path id="Trazado_874088" data-name="Trazado 874088" d="M262.848,328.235l1.569,1.076v19.562h-1.569Z" transform="translate(-230.997 -302.795)" fill="#c4e2ff" fill-rule="evenodd"/>
          <path id="Trazado_874089" data-name="Trazado 874089" d="M262.848,471.444h10.987V473.6H262.848Z" transform="translate(-230.997 -427.525)" fill="#c4e2ff" fill-rule="evenodd"/>
          <path id="Trazado_874090" data-name="Trazado 874090" d="M255.578,315.879l21.111,2.068a.774.774,0,0,0,.85-.77v-1.517a.772.772,0,0,0-.691-.77l-21.111-2.281a.774.774,0,0,0-.857.77v1.73a.772.772,0,0,0,.7.77Z" transform="translate(-224.056 -289.18)" fill="#9facba" fill-rule="evenodd"/>
          <path id="Trazado_874091" data-name="Trazado 874091" d="M255.579,331.179l21.111,2.068a.774.774,0,0,0,.85-.77V330.96a.772.772,0,0,0-.691-.77l-.175-.019v1.384a.774.774,0,0,1-.85.77l-20.943-2.051v.134A.772.772,0,0,0,255.579,331.179Z" transform="translate(-224.057 -304.481)" fill="#8d9ca8" fill-rule="evenodd"/>
          <path id="Trazado_874092" data-name="Trazado 874092" d="M16,207.993v17.631a1.273,1.273,0,0,0,.9,1.231l17.732,5.59a1.29,1.29,0,0,0,.189.045V194.627a1.288,1.288,0,0,0-.435.194L16.565,206.926A1.256,1.256,0,0,0,16,207.993Z" transform="translate(-16 -186.426)" fill="#d1d1d6" fill-rule="evenodd"/>
          <path id="Trazado_874093" data-name="Trazado 874093" d="M16,418.124v2.159a1.273,1.273,0,0,0,.9,1.231l17.732,5.59a1.294,1.294,0,0,0,.189.045v-2.159a1.294,1.294,0,0,1-.189-.045L16.9,419.354a1.273,1.273,0,0,1-.9-1.23Z" transform="translate(-16 -381.085)" fill="#b1b1b5" fill-rule="evenodd"/>
          <path id="Trazado_874094" data-name="Trazado 874094" d="M58.771,335.6l-8.413,1.891v13.26l8.413,2.652Z" transform="translate(-45.925 -309.21)" fill="#c4e2ff" fill-rule="evenodd"/>
          <path id="Trazado_874095" data-name="Trazado 874095" d="M51.524,344.29l-1.166-.194v12.589l1.166.247Z" transform="translate(-45.925 -316.609)" fill="#add5fa" fill-rule="evenodd"/>
          <path id="Trazado_874096" data-name="Trazado 874096" d="M50.358,436.287v2.159l8.413,2.652v-2.159Z" transform="translate(-45.925 -396.904)" fill="#add5fa" fill-rule="evenodd"/>
          <path id="Trazado_874097" data-name="Trazado 874097" d="M82.636,335.6l-4.877,1.1v15.169l4.877,1.537Z" transform="translate(-69.79 -309.21)" fill="#d8ecfe" fill-rule="evenodd"/>
          <path id="Trazado_874098" data-name="Trazado 874098" d="M107.687,335.6l-1.166,1.1v15.169l1.166,1.537Z" transform="translate(-94.841 -309.21)" fill="#c4e2ff" fill-rule="evenodd"/>
          <path id="Trazado_874099" data-name="Trazado 874099" d="M77.759,444.924v2.159l4.877,1.537v-2.159Z" transform="translate(-69.79 -404.427)" fill="#c4e2ff" fill-rule="evenodd"/>
          <path id="Trazado_874100" data-name="Trazado 874100" d="M56.2,325.7l-8.164,1.835a.516.516,0,0,1-.629-.5v-1.473a.51.51,0,0,1,.377-.5l8.164-2.289a.516.516,0,0,1,.655.5V325.2a.511.511,0,0,1-.4.5Z" transform="translate(-43.358 -298.021)" fill="#9facba" fill-rule="evenodd"/>
          <path id="Trazado_874101" data-name="Trazado 874101" d="M56.2,340.47l-8.164,1.835a.516.516,0,0,1-.629-.5v-1.473a.51.51,0,0,1,.377-.5l.133-.037v1.223a.516.516,0,0,0,.629.5l8.057-1.811v.256A.512.512,0,0,1,56.2,340.47Z" transform="translate(-43.358 -312.789)" fill="#8d9ca8" fill-rule="evenodd"/>
        </g>
        <g id="Grupo_1099611" data-name="Grupo 1099611" transform="translate(0)">
          <circle id="Elipse_11589" data-name="Elipse 11589" cx="14.192" cy="14.192" r="14.192" transform="translate(0 0)" fill="#ffe177"/>
          <path id="Trazado_874102" data-name="Trazado 874102" d="M119.531,23.823a14.192,14.192,0,1,1,0,28.383c-.321,0-.64-.012-.956-.033a14.191,14.191,0,0,0,0-28.318C118.891,23.835,119.21,23.823,119.531,23.823Z" transform="translate(-105.34 -23.823)" fill="#ffd064" fill-rule="evenodd"/>
        </g>
        <g id="Grupo_1099612" data-name="Grupo 1099612" transform="translate(8.328 10.044)">
          <path id="Trazado_874103" data-name="Trazado 874103" d="M82.223,109.281l-1.682-7.522,1.849-.1H92.842a2,2,0,0,1,1.951,2.437l-1.341,6a.913.913,0,0,1-.891.716l-9.265,0Z" transform="translate(-80.541 -101.662)" fill="#9facba" fill-rule="evenodd"/>
          <path id="Trazado_874104" data-name="Trazado 874104" d="M103.939,101.662h1.146a2,2,0,0,1,1.951,2.437l-1.341,6a.913.913,0,0,1-.891.716c-9.991,0-16.31.006-1.146,0a.913.913,0,0,0,.891-.716l1.341-6A2,2,0,0,0,103.939,101.662Z" transform="translate(-92.783 -101.662)" fill="#8d9ca8" fill-rule="evenodd"/>
        </g>
      </g>
      <path id="Trazado_874105" data-name="Trazado 874105" d="M30.3,28.384a.339.339,0,0,1,.191.109c.007.01.024.033,0,.124l-1.33,5.948H20.387l-1.332-5.959h0L19,28.384Zm.976,9.835a1.032,1.032,0,0,0-1.032-1.032H19.56a.279.279,0,0,1,0-.559H30A1.032,1.032,0,0,0,31,35.822l1.51-6.754A2.174,2.174,0,0,0,32.1,27.2a2.387,2.387,0,0,0-1.79-.878H18.544l-.6-2.673a1.032,1.032,0,0,0-1.007-.807H14.907a1.033,1.033,0,0,0,0,2.065h1.2l.6,2.672h0l1.639,7.329a2.341,2.341,0,0,0,1.212,4.346H30.247A1.032,1.032,0,0,0,31.279,38.219Zm23.113-.48a1.032,1.032,0,0,1,1.224-.8l5.689,1.207a1.032,1.032,0,0,1-.213,2.042,1.045,1.045,0,0,1-.215-.023l-5.689-1.207a1.032,1.032,0,0,1-.8-1.224ZM40.629,34.82a1.031,1.031,0,0,1,1.224-.795l6.562,1.391a1.033,1.033,0,0,1-.213,2.042,1.043,1.043,0,0,1-.215-.023l-6.562-1.391A1.033,1.033,0,0,1,40.629,34.82ZM69.936,75.739h-7.2V60.551a1.029,1.029,0,0,0,.815-1.007V56.478a1.032,1.032,0,0,0-.921-1.027L39.966,53a1.032,1.032,0,0,0-1.143,1.026v3.294a1.034,1.034,0,0,0,.932,1.028l.1.009V75.74H28.889V45.176a15.291,15.291,0,0,0,5.783-4.106L69.935,47.43V75.739Zm-19.1-16.3-8.922-.873V75.739h8.922ZM61.482,58.4v-1L40.887,55.178v1.209ZM60.667,60.4l-7.764-.76v16.1h7.764Zm-42.634-.1,2.813-.632V73.479l-2.813-.887Zm-3.535.8,1.471-.332V71.942L14.5,71.477Zm6.867-3.661-7.132,1.6V58.6l7.132-2Zm-11.3-5.307V70.08l2.369.747V61.013a1.034,1.034,0,0,1-.265-.688v-2.51a1.032,1.032,0,0,1,.754-.994l9.2-2.579a1.032,1.032,0,0,1,1.311.995v3.021a1.032,1.032,0,0,1-.519.894V74.13l3.914,1.234V45.839a15.251,15.251,0,0,1-7.425-.056Zm0-21.077a13.159,13.159,0,1,0,13.159-13.16,13.174,13.174,0,0,0-13.159,13.16Zm55.11,10.579v-3.19l-26.783-6.09a15.123,15.123,0,0,1-.839,3.845Zm-21.37-2.1v1.1l15.324,2.764v-.844Zm-4.55-.9,2.486.489v1.13L39.254,39.8Zm-2.556-.5.492.1v1.2l-1.129-.2Q36.4,38.688,36.7,38.125Zm26.046,5.911v-.785l-1.552-.305v.81Zm8.406,1.516-6.342-1.144v-.75l1.2.236a1,1,0,0,0,.2.019,1.032,1.032,0,0,0,1.032-1.033V37.611a1.031,1.031,0,0,0-.8-1.006l-28.01-6.37a15.224,15.224,0,1,0-21.445,14.7L8.452,50.723A1.031,1.031,0,0,0,8,51.577V70.837a1.033,1.033,0,0,0,.722.985l18.824,5.934a1.055,1.055,0,0,0,.311.047H70.967A1.032,1.032,0,0,0,72,76.772v-30.2a1.032,1.032,0,0,0-.849-1.016Z" fill-rule="evenodd"/>
    </g>
  </g>
</svg>
