<svg xmlns="http://www.w3.org/2000/svg" width="30.685" height="30.686" viewBox="0 0 30.685 30.686">
  <g id="gig-economy_1_" data-name="gig-economy (1)" transform="translate(-8.001 -7.996)">
    <g id="Grupo_1099745" data-name="Grupo 1099745" transform="translate(8.496 8.49)">
      <g id="Grupo_1099742" data-name="Grupo 1099742" transform="translate(0 19.488)">
        <path id="Trazado_874533" data-name="Trazado 874533" d="M42.3,334.388l4.7-2.722a3.326,3.326,0,0,1,2.748-.559,33.037,33.037,0,0,0,4.645,1.427,1.305,1.305,0,0,1,.9,1.564,1.263,1.263,0,0,1-1.563.9l.629.1a2.928,2.928,0,0,0,2.014-.351l4.517-2.631c3.511-2.045,4.027,1.1,2.86,1.82l-8.2,5.048a3.006,3.006,0,0,1-2.434.343l-5.946-1.593-2.2,1.271a.889.889,0,0,1-1.213-.325L41.981,335.6a.889.889,0,0,1,.324-1.212Z" transform="translate(-40.263 -330.99)" fill="#f6dccd" fill-rule="evenodd"/>
        <path id="Trazado_874534" data-name="Trazado 874534" d="M185.446,368.774a1.289,1.289,0,0,1-1.456.622c-.974-.258-1.947-.522-2.92-.782a.489.489,0,1,1,.253-.944Z" transform="translate(-170.517 -365.384)" fill="#f1cbbc" fill-rule="evenodd"/>
        <path id="Trazado_874535" data-name="Trazado 874535" d="M42.3,334.388l4.7-2.722a3.326,3.326,0,0,1,2.748-.559c.578.187,1.352.49,2.222.781l-9.1,5.255-.891-1.543A.889.889,0,0,1,42.3,334.388Z" transform="translate(-40.262 -330.99)" fill="#f1cbbc" fill-rule="evenodd"/>
        <path id="Trazado_874536" data-name="Trazado 874536" d="M18.51,356.843l3.726,6.584a.667.667,0,0,1-.251.906l-1.267.717a.667.667,0,0,1-.906-.251l-3.726-6.584a.667.667,0,0,1,.251-.906l1.267-.717A.667.667,0,0,1,18.51,356.843Z" transform="translate(-15.999 -354.927)" fill="#d1d1d6" fill-rule="evenodd"/>
        <path id="Trazado_874537" data-name="Trazado 874537" d="M46.8,361.368l.66,1.165.652,1.152a.667.667,0,0,1-.249.905l.453-.256a.667.667,0,0,0,.251-.906l-.654-1.156L46.6,359.95l-1.315-2.324-.442-.782a.668.668,0,0,0-.775-.308l.766,1.353,1.314,2.322.654,1.156Z" transform="translate(-42.329 -354.929)" fill="#b1b1b5" fill-rule="evenodd"/>
      </g>
      <g id="Grupo_1099743" data-name="Grupo 1099743" transform="translate(12.97 0)">
        <path id="Trazado_874538" data-name="Trazado 874538" d="M235.675,17.374a7.136,7.136,0,0,1,2.09.866l1.358-.6,1.6,1.6-.6,1.358a7.136,7.136,0,0,1,.867,2.09l1.386.533v2.264l-1.386.533a7.139,7.139,0,0,1-.866,2.09l.6,1.358-1.6,1.6-1.358-.6a7.135,7.135,0,0,1-2.09.867l-.533,1.386h-2.263l-.533-1.386a7.136,7.136,0,0,1-2.09-.866l-1.358.6-1.6-1.6.6-1.358a7.137,7.137,0,0,1-.867-2.09l-1.386-.533V23.219l1.386-.533a7.137,7.137,0,0,1,.867-2.09l-.6-1.358,1.6-1.6,1.358.6a7.14,7.14,0,0,1,2.09-.866l.533-1.386h2.263Z" transform="translate(-225.647 -15.988)" fill="#aee6e6" fill-rule="evenodd"/>
        <path id="Trazado_874539" data-name="Trazado 874539" d="M276.362,30.463l-1.358.6-.209-.209,1.273-.566Q276.213,30.381,276.362,30.463Zm5.42-13.088a7.135,7.135,0,0,1,2.09.866l-.386.171a9.417,9.417,0,0,0-2.384-1.038l-.533-1.386h.68Zm2.09,13.088a7.135,7.135,0,0,1-2.09.867l-.533,1.386h-.68l.533-1.386a9.409,9.409,0,0,0,2.384-1.038ZM274.8,17.848l.209-.209,1.358.6q-.149.082-.294.171Zm9.965,0,.471-.209,1.6,1.6-.6,1.358a7.136,7.136,0,0,1,.867,2.09l1.386.533v2.264l-1.386.533a7.14,7.14,0,0,1-.866,2.09l.6,1.358-1.6,1.6-.471-.209,1.391-1.391-.6-1.358a7.138,7.138,0,0,0,.866-2.09l1.386-.533V23.221l-1.386-.533a7.138,7.138,0,0,0-.867-2.09l.6-1.358Z" transform="translate(-271.754 -15.99)" fill="#62529b" fill-rule="evenodd"/>
        <circle id="Elipse_11612" data-name="Elipse 11612" cx="3.947" cy="3.947" r="3.947" transform="matrix(0.493, -0.87, 0.87, 0.493, 2.987, 9.858)" fill="#fff"/>
        <path id="Trazado_874540" data-name="Trazado 874540" d="M300.965,87.362a3.947,3.947,0,0,0,0,7.895q.159,0,.314-.012a3.947,3.947,0,0,1,0-7.87Q301.124,87.362,300.965,87.362Z" transform="translate(-292.603 -82.946)" fill="#62529b" fill-rule="evenodd"/>
      </g>
      <g id="Grupo_1099744" data-name="Grupo 1099744" transform="translate(7.262 6.695)">
        <circle id="Elipse_11613" data-name="Elipse 11613" cx="5.27" cy="5.27" r="5.27" transform="translate(0 7.452) rotate(-45)" fill="#ffd947"/>
        <path id="Trazado_874541" data-name="Trazado 874541" d="M247.047,159.478a5.27,5.27,0,1,1,0,10.541c-.152,0-.3-.007-.451-.019a5.27,5.27,0,0,0,0-10.5C246.745,159.485,246.9,159.478,247.047,159.478Z" transform="translate(-239.592 -157.296)" fill="#ffd947" fill-rule="evenodd"/>
      </g>
    </g>
    <path id="Trazado_874542" data-name="Trazado 874542" d="M25.387,23.812a1.5,1.5,0,0,1-.352,1.193,2.225,2.225,0,0,1-1.326.678v.29a.495.495,0,1,1-.99,0v-.3a2.059,2.059,0,0,1-1.676-1.5.495.495,0,1,1,.96-.239,1.19,1.19,0,0,0,1.267.8,1.441,1.441,0,0,0,1.015-.375.512.512,0,0,0,.118-.426c-.035-.293-.211-.651-1.265-.824-1.543-.254-1.9-1.056-1.934-1.685a1.788,1.788,0,0,1,1.5-1.811l.015,0V19.3a.495.495,0,1,1,.99,0v.3a2.051,2.051,0,0,1,1.513,1.242.495.495,0,0,1-.912.383,1.168,1.168,0,0,0-1.385-.652.82.82,0,0,0-.731.8c.008.158.028.579,1.106.756,1.275.209,1.978.775,2.088,1.682Zm-14.72,7.449a.453.453,0,1,1-.513-.382.453.453,0,0,1,.513.382Zm21.063-.753-8.2,5.048a2.52,2.52,0,0,1-2.047.287L15.537,34.25a.5.5,0,0,0-.375.049l-.822.474L12.2,30.987l3.287-1.9a2.9,2.9,0,0,1,2.347-.516c.273.089.589.2.955.335A23.475,23.475,0,0,0,22.5,30a.8.8,0,0,1,.549.955.756.756,0,0,1-.94.551c-.66-.136-1.288-.315-1.954-.505-.317-.091-.646-.185-.984-.275a.495.495,0,1,0-.256.956c.33.089.655.181.968.271.691.2,1.344.384,2.049.528l.02,0,.562.092a3.407,3.407,0,0,0,2.341-.412l4.518-2.631c1.25-.728,2.2-.817,2.55-.239a.969.969,0,0,1-.2,1.21ZM14.318,36.849a.167.167,0,0,0-.015-.129l-3.727-6.584a.171.171,0,0,0-.1-.08.176.176,0,0,0-.047-.006.164.164,0,0,0-.082.022l-1.268.717a.173.173,0,0,0-.064.232l3.727,6.585a.173.173,0,0,0,.232.064l1.267-.718A.167.167,0,0,0,14.318,36.849ZM28.88,28.681l-4.518,2.632a2.5,2.5,0,0,1-.462.211,2.036,2.036,0,0,0,.11-.308,1.806,1.806,0,0,0-1.229-2.163.46.46,0,0,0-.064-.016,22.557,22.557,0,0,1-3.594-1.065c-.359-.13-.7-.253-.986-.346a3.811,3.811,0,0,0-3.149.6l-3.279,1.9-.27-.477a1.162,1.162,0,0,0-1.581-.439l-1.267.718a1.161,1.161,0,0,0-.438,1.581l3.727,6.585a1.159,1.159,0,0,0,1.581.438l1.267-.717a1.163,1.163,0,0,0,.438-1.581l-.338-.6.652-.376,5.748,1.54a3.753,3.753,0,0,0,.975.131,3.49,3.49,0,0,0,1.848-.531l8.2-5.048a1.943,1.943,0,0,0,.528-2.562c-.247-.413-1.26-1.643-3.9-.108Zm.455-11.828V14.508a.495.495,0,1,1,.99,0v2.059l1.45.837a.5.5,0,0,1-.248.924.488.488,0,0,1-.247-.066l-1.7-.98a.5.5,0,0,1-.248-.429Zm8.362.792V16.061l-1.068-.412a.492.492,0,0,1-.3-.347,6.642,6.642,0,0,0-.807-1.946.5.5,0,0,1-.031-.46l.465-1.047-1.12-1.12-1.047.465a.5.5,0,0,1-.46-.031,6.631,6.631,0,0,0-1.945-.807.5.5,0,0,1-.347-.3l-.412-1.069H29.037l-.411,1.069a.5.5,0,0,1-.347.3,6.63,6.63,0,0,0-1.945.807.5.5,0,0,1-.46.031l-1.047-.465-1.12,1.12.465,1.047a.493.493,0,0,1-.031.46,6.632,6.632,0,0,0-.806,1.945.494.494,0,0,1-.3.347l-1.069.412v.948a5.8,5.8,0,0,1,1.252-.137,5.735,5.735,0,0,1,2.2.436,4.444,4.444,0,1,1,3.379,3.864,5.787,5.787,0,0,1,0,2.916l.243.632h1.584l.412-1.068a.494.494,0,0,1,.347-.3,6.627,6.627,0,0,0,1.946-.807.5.5,0,0,1,.46-.031l1.047.465,1.12-1.12-.465-1.048a.494.494,0,0,1,.031-.46,6.635,6.635,0,0,0,.806-1.945.5.5,0,0,1,.3-.347Zm-11.32-.792a3.444,3.444,0,0,0,.174,1.086,5.8,5.8,0,0,1,1.764,2.016,3.452,3.452,0,1,0-1.939-3.1Zm-3.163,10.56a4.775,4.775,0,1,0-4.775-4.775A4.781,4.781,0,0,0,23.214,27.413ZM38.37,15.259l-1.148-.442a7.618,7.618,0,0,0-.726-1.753l.5-1.124a.5.5,0,0,0-.1-.551l-1.6-1.6a.5.5,0,0,0-.55-.1l-1.125.5a7.573,7.573,0,0,0-1.752-.726l-.441-1.148A.5.5,0,0,0,30.961,8H28.7a.5.5,0,0,0-.462.317l-.442,1.148a7.579,7.579,0,0,0-1.752.726l-1.125-.5a.5.5,0,0,0-.551.1l-1.6,1.6a.5.5,0,0,0-.1.551l.5,1.125a7.6,7.6,0,0,0-.727,1.752l-1.148.442a.5.5,0,0,0-.317.462v1.6a5.765,5.765,0,1,0,7.282,8.106.5.5,0,0,0,.444.278h2.263a.5.5,0,0,0,.463-.317l.441-1.148a7.6,7.6,0,0,0,1.753-.726l1.124.5a.494.494,0,0,0,.55-.1l1.6-1.6a.494.494,0,0,0,.1-.55l-.5-1.125a7.639,7.639,0,0,0,.726-1.752l1.148-.442a.5.5,0,0,0,.317-.462V15.722a.5.5,0,0,0-.317-.462Z" fill-rule="evenodd"/>
  </g>
</svg>
