<svg xmlns="http://www.w3.org/2000/svg" width="78.501" height="86.998" viewBox="0 0 78.501 86.998">
  <g id="Grupo_1101507" data-name="Grupo 1101507" transform="translate(-445.999 -9687.826)">
    <path id="_12068" data-name="12068" d="M72.033,71.913c-8.038-1.11-16.53-.839-23.844,2.675C38.045,79.46,31.382,90.507,31.127,101.757s5.606,22.305,14.66,28.988,21,9.051,32.068,7.045c11.165-2.023,21.645-8.583,27.469-18.322,3.735-6.245,5.48-13.956,3.417-20.934a28.6,28.6,0,0,0-6.787-11.156A50.145,50.145,0,0,0,72.033,71.913Z" transform="translate(414.88 9636.343)" fill="#26aab7"/>
    <g id="meeting-point" transform="translate(448.056 9687.826)">
      <ellipse id="Elipse_11629" data-name="Elipse 11629" cx="36.595" cy="15.55" rx="36.595" ry="15.55" transform="translate(1.517 43.587)" fill="#c9f3ff"/>
      <ellipse id="Elipse_11630" data-name="Elipse 11630" cx="21.105" cy="7.029" rx="21.105" ry="7.029" transform="translate(17.007 49.017)" fill="#72d8ff"/>
      <path id="Trazado_879661" data-name="Trazado 879661" d="M159.562,30.4A20.4,20.4,0,1,0,123.43,43.381h-.012l15.745,20.172,15.821-20.278h0A20.313,20.313,0,0,0,159.562,30.4Zm-20.4,12.226a11.9,11.9,0,1,1,11.9-11.9A11.9,11.9,0,0,1,139.164,42.624Z" transform="translate(-101.071 -8.511)" fill="#ffd947"/>
      <path id="Trazado_879662" data-name="Trazado 879662" d="M130.654,56.529a1.488,1.488,0,0,1-1.173-.572L113.736,35.785q-.041-.052-.076-.107a21.886,21.886,0,1,1,34-.021l-.016.021L131.827,55.957A1.487,1.487,0,0,1,130.654,56.529ZM116.189,34.092l14.465,18.532,14.612-18.729c.017-.024.035-.047.054-.071a18.91,18.91,0,1,0-29.253.1A1.5,1.5,0,0,1,116.189,34.092Z" transform="translate(-92.561)"/>
      <path id="Trazado_879663" data-name="Trazado 879663" d="M179.271,86.072a13.389,13.389,0,1,1,3.811-26.226,1.488,1.488,0,0,1-.845,2.853,10.413,10.413,0,1,0,7.021,7.027,1.488,1.488,0,0,1,2.854-.842,13.391,13.391,0,0,1-12.84,17.188Z" transform="translate(-141.179 -50.472)"/>
      <path id="Trazado_879664" data-name="Trazado 879664" d="M303.95,85.733A1.482,1.482,0,0,1,302.9,85.3l-.026-.026a1.488,1.488,0,1,1,2.1-2.1l.026.026a1.488,1.488,0,0,1-1.052,2.54Z" transform="translate(-257.416 -70.423)"/>
      <path id="Trazado_879665" data-name="Trazado 879665" d="M38.112,319.783c-9.97,0-19.367-1.66-26.458-4.673C4.157,311.925.029,307.534.029,302.746c0-4.108,2.979-7.886,8.616-10.925,5.137-2.77,12.33-4.767,20.256-5.624a1.488,1.488,0,0,1,.32,2.958c-7.552.816-14.358,2.693-19.164,5.285C5.509,296.892,3,299.842,3,302.746c0,3.468,3.576,6.976,9.813,9.626,6.732,2.861,15.715,4.436,25.295,4.436s18.563-1.575,25.295-4.436c6.236-2.65,9.813-6.158,9.813-9.626,0-4.1-4.929-8.171-13.184-10.888a1.488,1.488,0,0,1,.93-2.826c9.679,3.185,15.229,8.184,15.229,13.714,0,4.788-4.128,9.179-11.624,12.364C57.478,318.124,48.082,319.783,38.112,319.783Z" transform="translate(0 -243.609)"/>
      <path id="Trazado_879666" data-name="Trazado 879666" d="M353.072,296.034a1.5,1.5,0,0,1-.3-.03l-.052-.01a1.488,1.488,0,0,1,.588-2.917l.052.01a1.488,1.488,0,0,1-.293,2.946Z" transform="translate(-299.206 -249.449)"/>
      <path id="Trazado_879667" data-name="Trazado 879667" d="M162.065,331.958a1.488,1.488,0,0,1-.391-2.923c.033-.009.069-.017.1-.024a1.488,1.488,0,1,1,.289,2.947Z" transform="translate(-136.663 -280.036)"/>
      <path id="Trazado_879668" data-name="Trazado 879668" d="M126.737,337.563c-11.227,0-22.593-2.925-22.593-8.517,0-1.412.777-3.475,4.48-5.287a1.488,1.488,0,1,1,1.308,2.672c-1.761.862-2.812,1.839-2.812,2.614,0,.848,1.352,2.289,5.164,3.559a47.634,47.634,0,0,0,14.454,1.983A47.631,47.631,0,0,0,141.19,332.6c3.812-1.269,5.164-2.71,5.164-3.559,0-1.758-5.173-4.6-14.886-5.36a1.488,1.488,0,1,1,.232-2.966c8.132.637,17.629,3.2,17.629,8.326C149.329,334.637,137.964,337.563,126.737,337.563Z" transform="translate(-88.625 -273.001)"/>
    </g>
  </g>
</svg>
