<svg xmlns="http://www.w3.org/2000/svg" width="610" height="588.38" viewBox="0 0 610 588.38">
  <g id="Grupo_1101503" data-name="Grupo 1101503" transform="translate(-180 -7803.62)">
    <path id="Trazado_879740" data-name="Trazado 879740" d="M0,0H610V488H0Z" transform="translate(180 7904)" fill="#f6f6f6"/>
    <path id="Trazado_879741" data-name="Trazado 879741" d="M0,0H150.5V48.631H0Z" transform="translate(180 7854.922)" fill="#e8e8e8"/>
    <path id="Trazado_879749" data-name="Trazado 879749" d="M0,0H610V48.631H0Z" transform="translate(180 7803.62)" fill="#26aab7"/>
    <path id="Trazado_879742" data-name="Trazado 879742" d="M0,0H150.5V48.631H0Z" transform="translate(333.168 7854.922)" fill="#e8e8e8"/>
    <path id="Trazado_879743" data-name="Trazado 879743" d="M0,0H150.5V48.631H0Z" transform="translate(486.336 7854.922)" fill="#e8e8e8"/>
    <path id="Trazado_879744" data-name="Trazado 879744" d="M0,0H150.5V48.631H0Z" transform="translate(639.504 7854.922)" fill="#e8e8e8"/>
    <path id="Trazado_879750" data-name="Trazado 879750" d="M-46.2-13.771h-4.447V0h-1.8V-13.771h-4.437V-15.4H-46.2ZM-39.147.258A6.762,6.762,0,0,1-44.394-1.9,8.008,8.008,0,0,1-46.365-7.52a8.485,8.485,0,0,1,2.009-5.93,7.016,7.016,0,0,1,5.468-2.213,6.609,6.609,0,0,1,5.14,2.148A8.038,8.038,0,0,1-31.8-7.9a8.513,8.513,0,0,1-2,5.962A6.886,6.886,0,0,1-39.147.258Zm.129-14.287a4.966,4.966,0,0,0-3.942,1.751,6.779,6.779,0,0,0-1.515,4.6A6.826,6.826,0,0,0-43-3.1a4.817,4.817,0,0,0,3.851,1.735,5.057,5.057,0,0,0,4-1.654,6.761,6.761,0,0,0,1.461-4.63,7.064,7.064,0,0,0-1.418-4.716A4.862,4.862,0,0,0-39.018-14.029Zm17.819.258h-4.447V0h-1.8V-13.771h-4.437V-15.4H-21.2ZM-8.912,0h-2l-1.633-4.318h-6.531L-20.61,0h-2.009l5.908-15.4h1.869Zm-4.222-5.94L-15.55-12.5a6.285,6.285,0,0,1-.236-1.031h-.043a5.754,5.754,0,0,1-.247,1.031l-2.4,6.563ZM.8,0H-7.2V-15.4h1.8V-1.633H.8ZM14.36-11.365a3.185,3.185,0,0,0-.22-1.235,2.447,2.447,0,0,0-.6-.875,2.465,2.465,0,0,0-.9-.521,3.512,3.512,0,0,0-1.117-.172,3.7,3.7,0,0,0-1.01.14,4.909,4.909,0,0,0-.961.387,5.914,5.914,0,0,0-.9.591,6.518,6.518,0,0,0-.811.763V-14.18a5.267,5.267,0,0,1,1.66-1.1,5.844,5.844,0,0,1,2.24-.381,5.407,5.407,0,0,1,1.751.274,4.015,4.015,0,0,1,1.4.8,3.7,3.7,0,0,1,.929,1.3,4.384,4.384,0,0,1,.338,1.772,6.078,6.078,0,0,1-.209,1.654,5.116,5.116,0,0,1-.634,1.4,6.739,6.739,0,0,1-1.069,1.257,15.14,15.14,0,0,1-1.515,1.225q-1.085.773-1.789,1.321A7.907,7.907,0,0,0,9.822-3.636a2.977,2.977,0,0,0-.58.956,3.342,3.342,0,0,0-.167,1.1h7.67V0H7.238V-.763A6.356,6.356,0,0,1,7.453-2.5a4.519,4.519,0,0,1,.709-1.429A7.929,7.929,0,0,1,9.456-5.285q.8-.677,1.96-1.525a12.394,12.394,0,0,0,1.4-1.149,5.976,5.976,0,0,0,.908-1.1,3.935,3.935,0,0,0,.489-1.112A4.794,4.794,0,0,0,14.36-11.365Zm13.973,3.6a15.132,15.132,0,0,1-.349,3.427,7.984,7.984,0,0,1-1.01,2.519A4.545,4.545,0,0,1,25.353-.263a4.441,4.441,0,0,1-2.186.532A4.147,4.147,0,0,1,21.1-.242a4.334,4.334,0,0,1-1.531-1.488,7.541,7.541,0,0,1-.945-2.4,14.846,14.846,0,0,1-.322-3.26,16.8,16.8,0,0,1,.338-3.566,8.157,8.157,0,0,1,.994-2.594A4.423,4.423,0,0,1,21.26-15.13a4.569,4.569,0,0,1,2.229-.532Q28.334-15.662,28.334-7.767Zm-1.8.172q0-6.574-3.126-6.574-3.3,0-3.3,6.692,0,6.241,3.233,6.241Q26.529-1.235,26.529-7.595Zm10.45-3.771a3.185,3.185,0,0,0-.22-1.235,2.447,2.447,0,0,0-.6-.875,2.465,2.465,0,0,0-.9-.521,3.512,3.512,0,0,0-1.117-.172,3.7,3.7,0,0,0-1.01.14,4.909,4.909,0,0,0-.961.387,5.914,5.914,0,0,0-.9.591,6.518,6.518,0,0,0-.811.763V-14.18a5.267,5.267,0,0,1,1.66-1.1,5.844,5.844,0,0,1,2.24-.381,5.407,5.407,0,0,1,1.751.274,4.015,4.015,0,0,1,1.4.8,3.7,3.7,0,0,1,.929,1.3,4.384,4.384,0,0,1,.338,1.772,6.078,6.078,0,0,1-.209,1.654,5.116,5.116,0,0,1-.634,1.4,6.739,6.739,0,0,1-1.069,1.257,15.14,15.14,0,0,1-1.515,1.225q-1.085.773-1.789,1.321A7.907,7.907,0,0,0,32.44-3.636a2.977,2.977,0,0,0-.58.956,3.342,3.342,0,0,0-.167,1.1h7.67V0H29.857V-.763a6.356,6.356,0,0,1,.215-1.74,4.519,4.519,0,0,1,.709-1.429,7.929,7.929,0,0,1,1.294-1.354q.8-.677,1.96-1.525a12.394,12.394,0,0,0,1.4-1.149,5.976,5.976,0,0,0,.908-1.1,3.935,3.935,0,0,0,.489-1.112A4.794,4.794,0,0,0,36.979-11.365Zm13.973,3.6A15.132,15.132,0,0,1,50.6-4.34a7.984,7.984,0,0,1-1.01,2.519A4.545,4.545,0,0,1,47.971-.263a4.441,4.441,0,0,1-2.186.532,4.147,4.147,0,0,1-2.068-.51,4.334,4.334,0,0,1-1.531-1.488,7.541,7.541,0,0,1-.945-2.4,14.846,14.846,0,0,1-.322-3.26,16.8,16.8,0,0,1,.338-3.566,8.157,8.157,0,0,1,.994-2.594,4.423,4.423,0,0,1,1.627-1.579,4.569,4.569,0,0,1,2.229-.532Q50.952-15.662,50.952-7.767Zm-1.8.172q0-6.574-3.126-6.574-3.3,0-3.3,6.692,0,6.241,3.233,6.241Q49.148-1.235,49.148-7.595Z" transform="translate(476.239 7833.413)" fill="#fff"/>
    <path id="Trazado_879745" data-name="Trazado 879745" d="M-48.074-.766a7.492,7.492,0,0,1-3.75.953A5.124,5.124,0,0,1-55.7-1.359a5.674,5.674,0,0,1-1.48-4.094,5.826,5.826,0,0,1,1.645-4.27,5.606,5.606,0,0,1,4.168-1.668,7.093,7.093,0,0,1,3.07.594v1.453A5.9,5.9,0,0,0-51.52-10.2a4.021,4.021,0,0,0-3.086,1.3,4.743,4.743,0,0,0-1.2,3.359,4.746,4.746,0,0,0,1.117,3.34A3.916,3.916,0,0,0-51.66-.992a4.684,4.684,0,0,0,2.273-.523V-4.656H-51.84V-5.844h3.766Zm6.2-5.937a1.567,1.567,0,0,0-.969-.258,1.635,1.635,0,0,0-1.371.773,3.576,3.576,0,0,0-.551,2.109V0h-1.281V-8h1.281v1.648h.031A2.794,2.794,0,0,1-43.9-7.668a1.906,1.906,0,0,1,1.258-.473,2.092,2.092,0,0,1,.766.109ZM-34.413,0h-1.281V-1.266h-.031A2.631,2.631,0,0,1-38.195.188q-2.859,0-2.859-3.406V-8h1.273v4.578q0,2.531,1.938,2.531A1.96,1.96,0,0,0-36.3-1.582a2.645,2.645,0,0,0,.605-1.809V-8h1.281Zm3.5-1.156h-.031V3.68h-1.281V-8h1.281v1.406h.031a3.03,3.03,0,0,1,2.766-1.594,2.93,2.93,0,0,1,2.414,1.074,4.449,4.449,0,0,1,.867,2.879,4.959,4.959,0,0,1-.977,3.215A3.251,3.251,0,0,1-28.516.188,2.676,2.676,0,0,1-30.915-1.156Zm-.031-3.227v1.117A2.379,2.379,0,0,0-30.3-1.582a2.14,2.14,0,0,0,1.637.691,2.145,2.145,0,0,0,1.824-.891,4.086,4.086,0,0,0,.66-2.477A3.225,3.225,0,0,0-26.8-6.352a2.043,2.043,0,0,0-1.672-.758,2.27,2.27,0,0,0-1.8.777A2.854,2.854,0,0,0-30.946-4.383ZM-19.877.188A3.711,3.711,0,0,1-22.709-.934a4.153,4.153,0,0,1-1.059-2.973,4.326,4.326,0,0,1,1.1-3.148A3.96,3.96,0,0,1-19.69-8.187a3.588,3.588,0,0,1,2.793,1.1,4.368,4.368,0,0,1,1,3.055A4.3,4.3,0,0,1-16.975-.965,3.791,3.791,0,0,1-19.877.188Zm.094-7.3a2.437,2.437,0,0,0-1.953.84,3.449,3.449,0,0,0-.719,2.316,3.262,3.262,0,0,0,.727,2.242,2.469,2.469,0,0,0,1.945.82,2.342,2.342,0,0,0,1.91-.8,3.492,3.492,0,0,0,.668-2.289A3.552,3.552,0,0,0-17.873-6.3,2.332,2.332,0,0,0-19.784-7.109Zm5.053,6.82V-1.664a3.792,3.792,0,0,0,2.3.773q1.688,0,1.688-1.125a.976.976,0,0,0-.145-.543,1.44,1.44,0,0,0-.391-.395,3.007,3.007,0,0,0-.578-.309q-.332-.137-.715-.285a9.207,9.207,0,0,1-.934-.426,2.82,2.82,0,0,1-.672-.484,1.8,1.8,0,0,1-.406-.613,2.17,2.17,0,0,1-.137-.8,1.912,1.912,0,0,1,.258-1A2.286,2.286,0,0,1-13.77-7.6a3.206,3.206,0,0,1,.98-.441,4.349,4.349,0,0,1,1.137-.148,4.59,4.59,0,0,1,1.859.359v1.3a3.624,3.624,0,0,0-2.031-.578,2.374,2.374,0,0,0-.648.082,1.587,1.587,0,0,0-.5.23,1.065,1.065,0,0,0-.32.355.936.936,0,0,0-.113.457,1.1,1.1,0,0,0,.113.523,1.152,1.152,0,0,0,.332.375,2.538,2.538,0,0,0,.531.3q.312.133.711.289a9.9,9.9,0,0,1,.953.418,3.269,3.269,0,0,1,.719.484,1.893,1.893,0,0,1,.457.621,2,2,0,0,1,.16.836,1.971,1.971,0,0,1-.262,1.031,2.243,2.243,0,0,1-.7.727,3.2,3.2,0,0,1-1.008.43,4.976,4.976,0,0,1-1.2.141A4.539,4.539,0,0,1-14.73-.289ZM2.954,0H1.673V-1.359H1.641A2.958,2.958,0,0,1-1.109.188,2.988,2.988,0,0,1-3.519-.887a4.407,4.407,0,0,1-.9-2.926,4.794,4.794,0,0,1,1-3.18,3.3,3.3,0,0,1,2.664-1.2,2.564,2.564,0,0,1,2.4,1.3h.031v-4.953H2.954ZM1.673-3.617V-4.8a2.289,2.289,0,0,0-.641-1.641A2.149,2.149,0,0,0-.593-7.109a2.212,2.212,0,0,0-1.844.859,3.766,3.766,0,0,0-.672,2.375,3.387,3.387,0,0,0,.645,2.184,2.107,2.107,0,0,0,1.73.8A2.188,2.188,0,0,0,1-1.664,2.882,2.882,0,0,0,1.673-3.617Zm9.9-.062H5.929a2.992,2.992,0,0,0,.719,2.063,2.478,2.478,0,0,0,1.891.727,3.931,3.931,0,0,0,2.484-.891v1.2A4.643,4.643,0,0,1,8.234.188,3.381,3.381,0,0,1,5.57-.9,4.461,4.461,0,0,1,4.6-3.969,4.375,4.375,0,0,1,5.659-7.012,3.394,3.394,0,0,1,8.288-8.187a3.008,3.008,0,0,1,2.43,1.016,4.234,4.234,0,0,1,.859,2.82ZM10.265-4.766A2.607,2.607,0,0,0,9.73-6.492a1.823,1.823,0,0,0-1.465-.617,2.07,2.07,0,0,0-1.539.648,2.943,2.943,0,0,0-.781,1.7ZM23.527-3.68H17.879A2.992,2.992,0,0,0,18.6-1.617a2.478,2.478,0,0,0,1.891.727,3.931,3.931,0,0,0,2.484-.891v1.2a4.643,4.643,0,0,1-2.789.766A3.381,3.381,0,0,1,17.52-.9a4.461,4.461,0,0,1-.969-3.066,4.375,4.375,0,0,1,1.059-3.043,3.394,3.394,0,0,1,2.629-1.176,3.008,3.008,0,0,1,2.43,1.016,4.234,4.234,0,0,1,.859,2.82ZM22.215-4.766a2.607,2.607,0,0,0-.535-1.727,1.823,1.823,0,0,0-1.465-.617,2.07,2.07,0,0,0-1.539.648,2.943,2.943,0,0,0-.781,1.7ZM31.893,0H30.612V-1.359H30.58A2.958,2.958,0,0,1,27.83.188,2.988,2.988,0,0,1,25.42-.887a4.407,4.407,0,0,1-.9-2.926,4.794,4.794,0,0,1,1-3.18,3.3,3.3,0,0,1,2.664-1.2,2.564,2.564,0,0,1,2.4,1.3h.031v-4.953h1.281ZM30.612-3.617V-4.8a2.289,2.289,0,0,0-.641-1.641,2.149,2.149,0,0,0-1.625-.672A2.212,2.212,0,0,0,26.5-6.25a3.766,3.766,0,0,0-.672,2.375,3.387,3.387,0,0,0,.645,2.184,2.107,2.107,0,0,0,1.73.8,2.188,2.188,0,0,0,1.738-.773A2.882,2.882,0,0,0,30.612-3.617ZM39.813,0H38.532V-1.25H38.5A2.682,2.682,0,0,1,36.04.188a2.63,2.63,0,0,1-1.871-.633,2.192,2.192,0,0,1-.676-1.68q0-2.242,2.641-2.609l2.4-.336q0-2.039-1.648-2.039a3.938,3.938,0,0,0-2.609.984V-7.437a4.958,4.958,0,0,1,2.719-.75q2.82,0,2.82,2.984ZM38.532-4.047l-1.93.266a3.133,3.133,0,0,0-1.344.441,1.273,1.273,0,0,0-.453,1.121,1.221,1.221,0,0,0,.418.957,1.615,1.615,0,0,0,1.113.371,2.056,2.056,0,0,0,1.574-.668,2.387,2.387,0,0,0,.621-1.691ZM48.655,0H47.374V-1.359h-.031A2.958,2.958,0,0,1,44.593.188a2.988,2.988,0,0,1-2.41-1.074,4.407,4.407,0,0,1-.9-2.926,4.794,4.794,0,0,1,1-3.18,3.3,3.3,0,0,1,2.664-1.2,2.564,2.564,0,0,1,2.4,1.3h.031v-4.953h1.281ZM47.374-3.617V-4.8a2.289,2.289,0,0,0-.641-1.641,2.149,2.149,0,0,0-1.625-.672,2.212,2.212,0,0,0-1.844.859,3.766,3.766,0,0,0-.672,2.375,3.387,3.387,0,0,0,.645,2.184,2.107,2.107,0,0,0,1.73.8,2.188,2.188,0,0,0,1.738-.773A2.882,2.882,0,0,0,47.374-3.617Z" transform="translate(243.878 7881.818)"/>
    <path id="Trazado_879746" data-name="Trazado 879746" d="M-36.616,0h-1.362l-1.113-2.944h-4.453L-44.592,0h-1.37l4.028-10.5h1.274Zm-2.878-4.05-1.648-4.475a4.285,4.285,0,0,1-.161-.7h-.029a3.923,3.923,0,0,1-.168.7L-43.135-4.05ZM-24.957,0h-1.2V-4.307a3.249,3.249,0,0,0-.385-1.8,1.458,1.458,0,0,0-1.293-.557,1.6,1.6,0,0,0-1.307.7,2.69,2.69,0,0,0-.538,1.685V0h-1.2V-4.453q0-2.212-1.707-2.212a1.581,1.581,0,0,0-1.3.663,2.74,2.74,0,0,0-.513,1.725V0h-1.2V-7.5h1.2v1.187h.029a2.548,2.548,0,0,1,2.329-1.362,2.172,2.172,0,0,1,1.34.428,2.155,2.155,0,0,1,.784,1.124,2.676,2.676,0,0,1,2.49-1.553q2.476,0,2.476,3.054Zm3.126-1.084h-.029V0h-1.2V-11.1h1.2v4.922h.029a2.84,2.84,0,0,1,2.593-1.494,2.749,2.749,0,0,1,2.26,1.007,4.158,4.158,0,0,1,.817,2.7,4.649,4.649,0,0,1-.916,3.014,3.048,3.048,0,0,1-2.5,1.132A2.467,2.467,0,0,1-21.831-1.084Zm-.029-3.025v1.047a2.23,2.23,0,0,0,.6,1.578,2.006,2.006,0,0,0,1.534.648,2.011,2.011,0,0,0,1.71-.835,3.831,3.831,0,0,0,.619-2.322,3.024,3.024,0,0,0-.579-1.963,1.915,1.915,0,0,0-1.567-.71,2.128,2.128,0,0,0-1.685.729A2.676,2.676,0,0,0-21.861-4.109ZM-11.484.176A3.479,3.479,0,0,1-14.139-.875a3.893,3.893,0,0,1-.992-2.787A4.056,4.056,0,0,1-14.1-6.614a3.713,3.713,0,0,1,2.791-1.062A3.364,3.364,0,0,1-8.689-6.643a4.1,4.1,0,0,1,.941,2.864A4.029,4.029,0,0,1-8.763-.9,3.554,3.554,0,0,1-11.484.176Zm.088-6.841a2.285,2.285,0,0,0-1.831.787A3.234,3.234,0,0,0-13.9-3.706a3.058,3.058,0,0,0,.681,2.1A2.315,2.315,0,0,0-11.4-.835,2.2,2.2,0,0,0-9.6-1.589a3.274,3.274,0,0,0,.626-2.146A3.33,3.33,0,0,0-9.6-5.9,2.186,2.186,0,0,0-11.4-6.665ZM-6.658-.271V-1.56A3.555,3.555,0,0,0-4.5-.835q1.582,0,1.582-1.055A.915.915,0,0,0-3.051-2.4a1.35,1.35,0,0,0-.366-.37,2.819,2.819,0,0,0-.542-.289q-.311-.128-.67-.267a8.631,8.631,0,0,1-.875-.4,2.644,2.644,0,0,1-.63-.454,1.69,1.69,0,0,1-.381-.575,2.034,2.034,0,0,1-.128-.754A1.792,1.792,0,0,1-6.4-6.442a2.143,2.143,0,0,1,.645-.681,3.006,3.006,0,0,1,.919-.414,4.077,4.077,0,0,1,1.066-.139,4.3,4.3,0,0,1,1.743.337v1.216a3.4,3.4,0,0,0-1.9-.542,2.226,2.226,0,0,0-.608.077,1.488,1.488,0,0,0-.465.216,1,1,0,0,0-.3.333.878.878,0,0,0-.106.428,1.028,1.028,0,0,0,.106.491A1.08,1.08,0,0,0-5-4.768a2.379,2.379,0,0,0,.5.278q.293.125.667.271a9.276,9.276,0,0,1,.894.392,3.065,3.065,0,0,1,.674.454,1.774,1.774,0,0,1,.428.582,1.878,1.878,0,0,1,.15.784,1.848,1.848,0,0,1-.245.967,2.1,2.1,0,0,1-.656.681,3,3,0,0,1-.945.4A4.665,4.665,0,0,1-4.652.176,4.255,4.255,0,0,1-6.658-.271ZM3.19-.425v-1.45a2.816,2.816,0,0,0,.6.4,4.836,4.836,0,0,0,.732.3A5.831,5.831,0,0,0,5.292-1,4.308,4.308,0,0,0,6.01-.93a2.812,2.812,0,0,0,1.7-.421,1.425,1.425,0,0,0,.56-1.212,1.423,1.423,0,0,0-.187-.74,2.1,2.1,0,0,0-.516-.575,5.124,5.124,0,0,0-.78-.5q-.45-.238-.97-.5-.549-.278-1.025-.564a4.443,4.443,0,0,1-.828-.63,2.627,2.627,0,0,1-.553-.78,2.414,2.414,0,0,1-.2-1.022,2.4,2.4,0,0,1,.315-1.249A2.7,2.7,0,0,1,4.347-10a3.752,3.752,0,0,1,1.168-.513,5.349,5.349,0,0,1,1.337-.168,5.122,5.122,0,0,1,2.263.374v1.384a4.1,4.1,0,0,0-2.388-.645,3.927,3.927,0,0,0-.806.084,2.276,2.276,0,0,0-.718.275,1.59,1.59,0,0,0-.513.491,1.3,1.3,0,0,0-.2.732,1.508,1.508,0,0,0,.15.7,1.705,1.705,0,0,0,.443.535,4.413,4.413,0,0,0,.714.469q.421.227.97.5T7.841-5.2a4.888,4.888,0,0,1,.886.681,3.027,3.027,0,0,1,.6.828,2.327,2.327,0,0,1,.223,1.04,2.637,2.637,0,0,1-.3,1.315,2.5,2.5,0,0,1-.82.875A3.583,3.583,0,0,1,7.24.026a6.518,6.518,0,0,1-1.421.15A5.79,5.79,0,0,1,5.2.135Q4.838.1,4.457.018a6.1,6.1,0,0,1-.721-.19A2.245,2.245,0,0,1,3.19-.425ZM17.141-3.45h-5.3a2.805,2.805,0,0,0,.674,1.934,2.323,2.323,0,0,0,1.772.681,3.685,3.685,0,0,0,2.329-.835V-.542a4.353,4.353,0,0,1-2.615.718,3.17,3.17,0,0,1-2.5-1.022A4.182,4.182,0,0,1,10.6-3.721a4.1,4.1,0,0,1,.992-2.853,3.182,3.182,0,0,1,2.465-1.1,2.82,2.82,0,0,1,2.278.952,3.97,3.97,0,0,1,.806,2.644ZM15.91-4.468a2.444,2.444,0,0,0-.5-1.619,1.709,1.709,0,0,0-1.373-.579,1.94,1.94,0,0,0-1.443.608,2.759,2.759,0,0,0-.732,1.589ZM24.061-7.5l-2.52,3.794L24.017,0h-1.4L21.146-2.432q-.139-.227-.33-.571h-.029q-.037.066-.344.571L18.941,0H17.557l2.556-3.677L17.667-7.5h1.4l1.45,2.563q.161.286.315.586h.029L22.735-7.5ZM28.227.176A3.479,3.479,0,0,1,25.572-.875a3.893,3.893,0,0,1-.992-2.787,4.056,4.056,0,0,1,1.033-2.952A3.713,3.713,0,0,1,28.4-7.676a3.364,3.364,0,0,1,2.618,1.033,4.1,4.1,0,0,1,.941,2.864A4.029,4.029,0,0,1,30.948-.9,3.554,3.554,0,0,1,28.227.176Zm.088-6.841a2.285,2.285,0,0,0-1.831.787,3.234,3.234,0,0,0-.674,2.172,3.058,3.058,0,0,0,.681,2.1,2.315,2.315,0,0,0,1.824.769,2.2,2.2,0,0,0,1.791-.754,3.274,3.274,0,0,0,.626-2.146A3.33,3.33,0,0,0,30.105-5.9,2.186,2.186,0,0,0,28.315-6.665ZM33.052-.271V-1.56a3.555,3.555,0,0,0,2.161.725q1.582,0,1.582-1.055a.915.915,0,0,0-.135-.509,1.35,1.35,0,0,0-.366-.37,2.819,2.819,0,0,0-.542-.289q-.311-.128-.67-.267a8.631,8.631,0,0,1-.875-.4,2.644,2.644,0,0,1-.63-.454,1.69,1.69,0,0,1-.381-.575,2.034,2.034,0,0,1-.128-.754,1.792,1.792,0,0,1,.242-.934,2.143,2.143,0,0,1,.645-.681,3.006,3.006,0,0,1,.919-.414,4.077,4.077,0,0,1,1.066-.139,4.3,4.3,0,0,1,1.743.337v1.216a3.4,3.4,0,0,0-1.9-.542,2.226,2.226,0,0,0-.608.077,1.488,1.488,0,0,0-.465.216,1,1,0,0,0-.3.333.878.878,0,0,0-.106.428,1.028,1.028,0,0,0,.106.491,1.08,1.08,0,0,0,.311.352,2.379,2.379,0,0,0,.5.278q.293.125.667.271a9.276,9.276,0,0,1,.894.392,3.065,3.065,0,0,1,.674.454,1.774,1.774,0,0,1,.428.582,1.878,1.878,0,0,1,.15.784,1.848,1.848,0,0,1-.245.967,2.1,2.1,0,0,1-.656.681,3,3,0,0,1-.945.4,4.665,4.665,0,0,1-1.121.132A4.255,4.255,0,0,1,33.052-.271Z" transform="translate(395.049 7881.818)"/>
    <path id="Trazado_879747" data-name="Trazado 879747" d="M-21.23,0h-1.312V-5.109h-5.8V0h-1.312V-11.2h1.313v4.914h5.8V-11.2h1.313Zm5.709.188A3.711,3.711,0,0,1-18.352-.934a4.153,4.153,0,0,1-1.059-2.973,4.326,4.326,0,0,1,1.1-3.148,3.96,3.96,0,0,1,2.977-1.133,3.588,3.588,0,0,1,2.793,1.1,4.368,4.368,0,0,1,1,3.055A4.3,4.3,0,0,1-12.618-.965,3.791,3.791,0,0,1-15.52.188Zm.094-7.3a2.437,2.437,0,0,0-1.953.84A3.449,3.449,0,0,0-18.1-3.953a3.262,3.262,0,0,0,.727,2.242,2.469,2.469,0,0,0,1.945.82,2.342,2.342,0,0,0,1.91-.8,3.492,3.492,0,0,0,.668-2.289A3.552,3.552,0,0,0-13.516-6.3,2.332,2.332,0,0,0-15.427-7.109ZM1.47,0H.189V-4.594a3.466,3.466,0,0,0-.41-1.922A1.555,1.555,0,0,0-1.6-7.109a1.708,1.708,0,0,0-1.395.75,2.869,2.869,0,0,0-.574,1.8V0H-4.85V-4.75q0-2.359-1.82-2.359A1.686,1.686,0,0,0-8.061-6.4a2.923,2.923,0,0,0-.547,1.84V0H-9.889V-8h1.281v1.266h.031A2.718,2.718,0,0,1-6.092-8.187a2.316,2.316,0,0,1,1.43.457,2.3,2.3,0,0,1,.836,1.2A2.855,2.855,0,0,1-1.17-8.187q2.641,0,2.641,3.258ZM4.8-1.156H4.773V0H3.492V-11.844H4.773v5.25H4.8A3.03,3.03,0,0,1,7.57-8.187,2.932,2.932,0,0,1,9.98-7.113a4.436,4.436,0,0,1,.871,2.879A4.959,4.959,0,0,1,9.875-1.02,3.251,3.251,0,0,1,7.2.188,2.631,2.631,0,0,1,4.8-1.156ZM4.773-4.383v1.117a2.379,2.379,0,0,0,.645,1.684,2.14,2.14,0,0,0,1.637.691,2.145,2.145,0,0,0,1.824-.891,4.086,4.086,0,0,0,.66-2.477,3.225,3.225,0,0,0-.617-2.094A2.043,2.043,0,0,0,7.25-7.109a2.27,2.27,0,0,0-1.8.777A2.854,2.854,0,0,0,4.773-4.383ZM16.67-6.7a1.567,1.567,0,0,0-.969-.258,1.635,1.635,0,0,0-1.371.773,3.576,3.576,0,0,0-.551,2.109V0H12.5V-8H13.78v1.648h.031a2.793,2.793,0,0,1,.836-1.316A1.906,1.906,0,0,1,15.9-8.141a2.092,2.092,0,0,1,.766.109Zm7.42,3.023H18.442a2.992,2.992,0,0,0,.719,2.063,2.478,2.478,0,0,0,1.891.727,3.931,3.931,0,0,0,2.484-.891v1.2a4.643,4.643,0,0,1-2.789.766A3.381,3.381,0,0,1,18.083-.9a4.461,4.461,0,0,1-.969-3.066,4.375,4.375,0,0,1,1.059-3.043A3.394,3.394,0,0,1,20.8-8.187a3.008,3.008,0,0,1,2.43,1.016,4.234,4.234,0,0,1,.859,2.82ZM22.778-4.766a2.607,2.607,0,0,0-.535-1.727,1.823,1.823,0,0,0-1.465-.617,2.07,2.07,0,0,0-1.539.648,2.943,2.943,0,0,0-.781,1.7ZM25.144-.289V-1.664a3.792,3.792,0,0,0,2.3.773q1.688,0,1.688-1.125a.976.976,0,0,0-.145-.543,1.44,1.44,0,0,0-.391-.395,3.007,3.007,0,0,0-.578-.309q-.332-.137-.715-.285a9.207,9.207,0,0,1-.934-.426,2.82,2.82,0,0,1-.672-.484A1.8,1.8,0,0,1,25.3-5.07a2.17,2.17,0,0,1-.137-.8,1.912,1.912,0,0,1,.258-1A2.286,2.286,0,0,1,26.1-7.6a3.206,3.206,0,0,1,.98-.441,4.349,4.349,0,0,1,1.137-.148,4.59,4.59,0,0,1,1.859.359v1.3a3.624,3.624,0,0,0-2.031-.578,2.374,2.374,0,0,0-.648.082,1.587,1.587,0,0,0-.5.23,1.065,1.065,0,0,0-.32.355.936.936,0,0,0-.113.457,1.1,1.1,0,0,0,.113.523,1.152,1.152,0,0,0,.332.375,2.538,2.538,0,0,0,.531.3q.313.133.711.289a9.9,9.9,0,0,1,.953.418,3.269,3.269,0,0,1,.719.484,1.893,1.893,0,0,1,.457.621,2,2,0,0,1,.16.836,1.971,1.971,0,0,1-.262,1.031,2.243,2.243,0,0,1-.7.727,3.2,3.2,0,0,1-1.008.43,4.976,4.976,0,0,1-1.2.141A4.539,4.539,0,0,1,25.144-.289Z" transform="translate(555.745 7881.817)"/>
    <g id="Grupo_12846" data-name="Grupo 12846" transform="translate(225.591 7936.774)">
      <g id="Grupo_12845" data-name="Grupo 12845">
        <text id="Total_" data-name="Total " transform="translate(6.789 16)" font-size="15" font-family="SegoeUI, Segoe UI"><tspan x="0" y="0">Total </tspan></text>
        <text id="_00_-_04_" data-name="00 - 04 " transform="translate(0.001 44.188)" font-size="16" font-family="SegoeUI, Segoe UI"><tspan x="0" y="0">00 - 04 </tspan></text>
        <text id="_05_-_09_" data-name="05 - 09 " transform="translate(0.001 72.294)" font-size="16" font-family="SegoeUI, Segoe UI"><tspan x="0" y="0">05 - 09 </tspan></text>
        <text id="_10_-_14_" data-name="10 - 14 " transform="translate(0 100.399)" font-size="16" font-family="SegoeUI, Segoe UI"><tspan x="0" y="0">10 - 14 </tspan></text>
        <text id="_15_-_19_" data-name="15 - 19 " transform="translate(0.001 127.587)" font-size="16" font-family="SegoeUI, Segoe UI"><tspan x="0" y="0">15 - 19 </tspan></text>
        <text id="_20_-_24_" data-name="20 - 24 " transform="translate(0.001 155.693)" font-size="16" font-family="SegoeUI, Segoe UI"><tspan x="0" y="0">20 - 24 </tspan></text>
        <text id="_25_-_29_" data-name="25 - 29 " transform="translate(0.001 183.798)" font-size="16" font-family="SegoeUI, Segoe UI"><tspan x="0" y="0">25 - 29 </tspan></text>
        <text id="_30_-_34_" data-name="30 - 34 " transform="translate(0.001 210.986)" font-size="16" font-family="SegoeUI, Segoe UI"><tspan x="0" y="0">30 - 34 </tspan></text>
        <text id="_35_-_39_" data-name="35 - 39 " transform="translate(0.001 238.192)" font-size="16" font-family="SegoeUI, Segoe UI"><tspan x="0" y="0">35 - 39 </tspan></text>
        <text id="_40_-_44_" data-name="40 - 44 " transform="translate(0 266.298)" font-size="16" font-family="SegoeUI, Segoe UI"><tspan x="0" y="0">40 - 44 </tspan></text>
        <text id="_45_-_49_" data-name="45 - 49 " transform="translate(0 294.404)" font-size="16" font-family="SegoeUI, Segoe UI"><tspan x="0" y="0">45 - 49 </tspan></text>
        <text id="_50_-_54_" data-name="50 - 54 " transform="translate(0.001 322.492)" font-size="16" font-family="SegoeUI, Segoe UI"><tspan x="0" y="0">50 - 54 </tspan></text>
        <text id="_55_-_59_" data-name="55 - 59 " transform="translate(0.001 351.516)" font-size="16" font-family="SegoeUI, Segoe UI"><tspan x="0" y="0">55 - 59 </tspan></text>
        <text id="_60_-_64_" data-name="60 - 64 " transform="translate(0.001 378.704)" font-size="16" font-family="SegoeUI, Segoe UI"><tspan x="0" y="0">60 - 64 </tspan></text>
        <text id="_65_-_69_" data-name="65 - 69 " transform="translate(0.001 406.81)" font-size="16" font-family="SegoeUI, Segoe UI"><tspan x="0" y="0">65 - 69 </tspan></text>
        <text id="_70_-_74_" data-name="70 - 74 " transform="translate(0.001 434.916)" font-size="16" font-family="SegoeUI, Segoe UI"><tspan x="0" y="0">70 - 74 </tspan></text>
      </g>
    </g>
    <g id="Grupo_12847" data-name="Grupo 12847" transform="translate(376.3 7943.976)">
      <text id="_7.743.955" data-name="7.743.955" transform="translate(0 11)" font-size="15" font-family="MyriadPro-Bold, Myriad Pro" font-weight="700"><tspan x="0" y="0">7.743.955</tspan></text>
      <text id="_493.287" data-name="493.287" transform="translate(70.777 37.986)" font-size="17" font-family="SegoeUI, Segoe UI"><tspan x="-58.67" y="0">493.287</tspan></text>
      <text id="_482.823" data-name="482.823" transform="translate(70.777 66.092)" font-size="17" font-family="SegoeUI, Segoe UI"><tspan x="-58.67" y="0">482.823</tspan></text>
      <text id="_490.700" data-name="490.700" transform="translate(70.777 93.279)" font-size="17" font-family="SegoeUI, Segoe UI"><tspan x="-58.67" y="0">490.700</tspan></text>
      <text id="_550.879" data-name="550.879" transform="translate(70.777 121.385)" font-size="17" font-family="SegoeUI, Segoe UI"><tspan x="-58.67" y="0">550.879</tspan></text>
      <text id="_711.590" data-name="711.590" transform="translate(70.777 149.491)" font-size="17" font-family="SegoeUI, Segoe UI"><tspan x="-58.67" y="0">711.590</tspan></text>
      <text id="_749.246" data-name="749.246" transform="translate(70.777 177.596)" font-size="17" font-family="SegoeUI, Segoe UI"><tspan x="-58.67" y="0">749.246</tspan></text>
      <text id="_673.163" data-name="673.163" transform="translate(70.777 204.784)" font-size="17" font-family="SegoeUI, Segoe UI"><tspan x="-58.67" y="0">673.163</tspan></text>
      <text id="_613.704" data-name="613.704" transform="translate(70.777 232.89)" font-size="17" font-family="SegoeUI, Segoe UI"><tspan x="-58.67" y="0">613.704</tspan></text>
      <text id="_539.925" data-name="539.925" transform="translate(70.777 260.096)" font-size="17" font-family="SegoeUI, Segoe UI"><tspan x="-58.67" y="0">539.925</tspan></text>
      <text id="_477.123" data-name="477.123" transform="translate(70.777 288.202)" font-size="17" font-family="SegoeUI, Segoe UI"><tspan x="-58.67" y="0">477.123</tspan></text>
      <text id="_468.097" data-name="468.097" transform="translate(70.777 317.208)" font-size="17" font-family="SegoeUI, Segoe UI"><tspan x="-58.67" y="0">468.097</tspan></text>
      <text id="_435.209" data-name="435.209" transform="translate(70.777 345.314)" font-size="17" font-family="SegoeUI, Segoe UI"><tspan x="-58.67" y="0">435.209</tspan></text>
      <text id="_352.709" data-name="352.709" transform="translate(70.777 372.501)" font-size="17" font-family="SegoeUI, Segoe UI"><tspan x="-58.67" y="0">352.709</tspan></text>
      <text id="_260.464" data-name="260.464" transform="translate(70.777 400.608)" font-size="17" font-family="SegoeUI, Segoe UI"><tspan x="-58.67" y="0">260.464</tspan></text>
      <text id="_183.141" data-name="183.141" transform="translate(70.777 427.795)" font-size="17" font-family="SegoeUI, Segoe UI"><tspan x="-58.67" y="0">183.141</tspan></text>
    </g>
    <g id="Grupo_12848" data-name="Grupo 12848" transform="translate(530.6 7943.976)">
      <text id="_3.707.838" data-name="3.707.838" transform="translate(0 11)" font-size="15" font-family="MyriadPro-Bold, Myriad Pro" font-weight="700"><tspan x="0" y="0">3.707.838</tspan></text>
      <text id="_251.852" data-name="251.852" transform="translate(69.649 38.886)" font-size="17" font-family="SegoeUI, Segoe UI"><tspan x="-58.67" y="0">251.852</tspan></text>
      <text id="_246.306" data-name="246.306" transform="translate(69.649 66.092)" font-size="17" font-family="SegoeUI, Segoe UI"><tspan x="-58.67" y="0">246.306</tspan></text>
      <text id="_249.424" data-name="249.424" transform="translate(69.649 94.197)" font-size="17" font-family="SegoeUI, Segoe UI"><tspan x="-58.67" y="0">249.424</tspan></text>
      <text id="_277.245" data-name="277.245" transform="translate(69.649 121.385)" font-size="17" font-family="SegoeUI, Segoe UI"><tspan x="-58.67" y="0">277.245</tspan></text>
      <text id="_354.946" data-name="354.946" transform="translate(69.649 149.491)" font-size="17" font-family="SegoeUI, Segoe UI"><tspan x="-58.67" y="0">354.946</tspan></text>
      <text id="_373.077" data-name="373.077" transform="translate(69.649 177.596)" font-size="17" font-family="SegoeUI, Segoe UI"><tspan x="-58.67" y="0">373.077</tspan></text>
      <text id="_332.708" data-name="332.708" transform="translate(69.649 204.784)" font-size="17" font-family="SegoeUI, Segoe UI"><tspan x="-58.67" y="0">332.708</tspan></text>
      <text id="_298.000" data-name="298.000" transform="translate(69.649 232.89)" font-size="17" font-family="SegoeUI, Segoe UI"><tspan x="-58.67" y="0">298.000</tspan></text>
      <text id="_255.201" data-name="255.201" transform="translate(69.649 260.096)" font-size="17" font-family="SegoeUI, Segoe UI"><tspan x="-58.67" y="0">255.201</tspan></text>
      <text id="_219.418" data-name="219.418" transform="translate(69.649 288.202)" font-size="17" font-family="SegoeUI, Segoe UI"><tspan x="-58.67" y="0">219.418</tspan></text>
      <text id="_210.886" data-name="210.886" transform="translate(69.649 317.208)" font-size="17" font-family="SegoeUI, Segoe UI"><tspan x="-58.67" y="0">210.886</tspan></text>
      <text id="_193.227" data-name="193.227" transform="translate(69.649 345.314)" font-size="17" font-family="SegoeUI, Segoe UI"><tspan x="-58.67" y="0">193.227</tspan></text>
      <text id="_154.051" data-name="154.051" transform="translate(69.649 372.501)" font-size="17" font-family="SegoeUI, Segoe UI"><tspan x="-58.67" y="0">154.051</tspan></text>
      <text id="_111.204" data-name="111.204" transform="translate(69.649 400.608)" font-size="17" font-family="SegoeUI, Segoe UI"><tspan x="-58.67" y="0">111.204</tspan></text>
      <text id="_76.352" data-name="76.352" transform="translate(69.252 427.714)" font-size="16" font-family="SegoeUI, Segoe UI"><tspan x="-46.594" y="0">76.352</tspan></text>
    </g>
    <g id="Grupo_12849" data-name="Grupo 12849" transform="translate(676.221 7943.976)">
      <text id="_4.036.111" data-name="4.036.111" transform="translate(0 11)" font-size="15" font-family="MyriadPro-Bold, Myriad Pro" font-weight="700"><tspan x="0" y="0">4.036.111</tspan></text>
      <text id="_241.435_" data-name="241.435 " transform="translate(69.889 37.886)" font-size="16" font-family="SegoeUI, Segoe UI"><tspan x="-59.602" y="0">241.435 </tspan></text>
      <text id="_236.517_" data-name="236.517 " transform="translate(69.889 65.092)" font-size="16" font-family="SegoeUI, Segoe UI"><tspan x="-59.602" y="0">236.517 </tspan></text>
      <text id="_241.276_" data-name="241.276 " transform="translate(69.889 93.197)" font-size="16" font-family="SegoeUI, Segoe UI"><tspan x="-59.602" y="0">241.276 </tspan></text>
      <text id="_273.634_" data-name="273.634 " transform="translate(69.889 120.385)" font-size="16" font-family="SegoeUI, Segoe UI"><tspan x="-59.602" y="0">273.634 </tspan></text>
      <text id="_356.644_" data-name="356.644 " transform="translate(69.889 148.491)" font-size="16" font-family="SegoeUI, Segoe UI"><tspan x="-59.602" y="0">356.644 </tspan></text>
      <text id="_376.169_" data-name="376.169 " transform="translate(69.889 175.696)" font-size="16" font-family="SegoeUI, Segoe UI"><tspan x="-59.602" y="0">376.169 </tspan></text>
      <text id="_340.455_" data-name="340.455 " transform="translate(69.889 203.784)" font-size="16" font-family="SegoeUI, Segoe UI"><tspan x="-59.602" y="0">340.455 </tspan></text>
      <text id="_315.704_" data-name="315.704 " transform="translate(69.889 231.89)" font-size="16" font-family="SegoeUI, Segoe UI"><tspan x="-59.602" y="0">315.704 </tspan></text>
      <text id="_284.724_" data-name="284.724 " transform="translate(69.889 259.096)" font-size="16" font-family="SegoeUI, Segoe UI"><tspan x="-59.602" y="0">284.724 </tspan></text>
      <text id="_257.705_" data-name="257.705 " transform="translate(69.889 287.202)" font-size="16" font-family="SegoeUI, Segoe UI"><tspan x="-59.602" y="0">257.705 </tspan></text>
      <text id="_257.211_" data-name="257.211 " transform="translate(69.889 316.208)" font-size="16" font-family="SegoeUI, Segoe UI"><tspan x="-59.602" y="0">257.211 </tspan></text>
      <text id="_241.982_" data-name="241.982 " transform="translate(69.889 344.314)" font-size="16" font-family="SegoeUI, Segoe UI"><tspan x="-59.602" y="0">241.982 </tspan></text>
      <text id="_198.658_" data-name="198.658 " transform="translate(69.889 371.501)" font-size="16" font-family="SegoeUI, Segoe UI"><tspan x="-59.602" y="0">198.658 </tspan></text>
      <text id="_149.260_" data-name="149.260 " transform="translate(69.889 399.608)" font-size="16" font-family="SegoeUI, Segoe UI"><tspan x="-59.602" y="0">149.260 </tspan></text>
      <text id="_106.789_" data-name="106.789 " transform="translate(69.889 427.714)" font-size="16" font-family="SegoeUI, Segoe UI"><tspan x="-59.602" y="0">106.789 </tspan></text>
    </g>
    <path id="Trazado_879748" data-name="Trazado 879748" d="M1.14-.03A15.256,15.256,0,0,0,3.165.09a5.078,5.078,0,0,0,3.5-.945A2.725,2.725,0,0,0,7.515-2.88,2.606,2.606,0,0,0,5.43-5.415v-.03a2.4,2.4,0,0,0,1.71-2.22A2.12,2.12,0,0,0,6.3-9.45a4.178,4.178,0,0,0-2.775-.735,12.645,12.645,0,0,0-2.385.21Zm1.3-9.06A5.6,5.6,0,0,1,3.6-9.18c1.32,0,2.22.465,2.22,1.65,0,.975-.81,1.7-2.19,1.7H2.445Zm0,4.245h1.08c1.425,0,2.61.57,2.61,1.95,0,1.47-1.245,1.965-2.6,1.965a6.973,6.973,0,0,1-1.1-.06Zm9.915-2.58A3.545,3.545,0,0,0,8.76-3.57,3.452,3.452,0,0,0,12.24.165,3.548,3.548,0,0,0,15.855-3.69,3.438,3.438,0,0,0,12.36-7.425Zm-.03.99c1.56,0,2.175,1.56,2.175,2.79,0,1.635-.945,2.82-2.205,2.82-1.29,0-2.2-1.2-2.2-2.79C10.095-4.995,10.77-6.435,12.33-6.435ZM22.62-7.26l-.06,1.1h-.03a2.415,2.415,0,0,0-2.265-1.26c-1.665,0-3.27,1.4-3.27,3.855a3.245,3.245,0,0,0,3.09,3.54A2.592,2.592,0,0,0,22.4-1.245h.03v.81c0,1.83-.99,2.535-2.34,2.535a4.094,4.094,0,0,1-2.13-.57l-.33,1.005a4.686,4.686,0,0,0,2.415.6,3.849,3.849,0,0,0,2.64-.87c.7-.63,1.035-1.65,1.035-3.315V-5.265c0-.885.03-1.47.06-1.995Zm-.21,4.17a2.3,2.3,0,0,1-.1.7,1.93,1.93,0,0,1-1.83,1.35c-1.425,0-2.145-1.185-2.145-2.61,0-1.68.9-2.745,2.16-2.745a1.9,1.9,0,0,1,1.845,1.4,1.88,1.88,0,0,1,.075.6Zm6.57-4.335a3.545,3.545,0,0,0-3.6,3.855A3.452,3.452,0,0,0,28.86.165,3.548,3.548,0,0,0,32.475-3.69,3.438,3.438,0,0,0,28.98-7.425Zm-.03.99c1.56,0,2.175,1.56,2.175,2.79,0,1.635-.945,2.82-2.2,2.82-1.29,0-2.2-1.2-2.2-2.79C26.715-4.995,27.39-6.435,28.95-6.435ZM34.44-9v1.74H33.315v1H34.44V-2.3a2.69,2.69,0,0,0,.51,1.89A1.829,1.829,0,0,0,36.375.15a3.231,3.231,0,0,0,1.17-.18l-.06-.99a2.936,2.936,0,0,1-.765.09c-.735,0-.99-.51-.99-1.41V-6.255h1.89v-1H35.73V-9.345Zm9.885,9a10.222,10.222,0,0,1-.12-1.74V-4.455c0-1.455-.54-2.97-2.76-2.97a4.506,4.506,0,0,0-2.385.645l.3.87a3.617,3.617,0,0,1,1.89-.54A1.5,1.5,0,0,1,42.9-4.77v.15c-2.805-.015-4.365.945-4.365,2.7A2.068,2.068,0,0,0,40.755.165a2.7,2.7,0,0,0,2.22-1.08h.045L43.125,0ZM42.93-2.445a1.378,1.378,0,0,1-.075.42A1.806,1.806,0,0,1,41.1-.81a1.168,1.168,0,0,1-1.245-1.26c0-1.41,1.635-1.665,3.075-1.635Zm-.8-7.95L40.815-8.25h.945L43.59-10.4Zm4.29,12.15A18.287,18.287,0,0,0,47.85-1.89l-1.47.15a21.582,21.582,0,0,1-.9,3.585ZM52.665-.03a21.064,21.064,0,0,0,2.37.12A6.228,6.228,0,0,0,59.5-1.365,5.347,5.347,0,0,0,60.96-5.3a4.657,4.657,0,0,0-1.425-3.63,5.79,5.79,0,0,0-4.095-1.26,18.692,18.692,0,0,0-2.775.21ZM53.97-9.015A7.415,7.415,0,0,1,55.5-9.15c2.76,0,4.11,1.515,4.1,3.9,0,2.73-1.515,4.29-4.305,4.29a8.241,8.241,0,0,1-1.32-.075Zm8.7,9.18a.878.878,0,0,0,.9-.945.875.875,0,0,0-.885-.945.887.887,0,0,0-.9.945A.884.884,0,0,0,62.67.165Zm9.375-1.53a5.224,5.224,0,0,1-2.13.42c-2.46,0-3.885-1.59-3.885-4.065,0-2.655,1.575-4.17,3.945-4.17a4.753,4.753,0,0,1,2.04.42l.315-1.065a5.419,5.419,0,0,0-2.4-.45,5.031,5.031,0,0,0-5.28,5.31,4.725,4.725,0,0,0,5,5.115,6.478,6.478,0,0,0,2.67-.48Zm2.43,1.53a.878.878,0,0,0,.9-.945.875.875,0,0,0-.885-.945.887.887,0,0,0-.9.945A.884.884,0,0,0,74.475.165Z" transform="translate(200.636 7926.895)"/>
  </g>
</svg>
